<?xml version="1.0" standalone="no"?>
<!DOCTYPE svg PUBLIC "-//W3C//DTD SVG 20010904//EN"
 "http://www.w3.org/TR/2001/REC-SVG-20010904/DTD/svg10.dtd">
<svg version="1.0" xmlns="http://www.w3.org/2000/svg"
 width="300.000000pt" height="300.000000pt" viewBox="0 0 300.000000 300.000000"
 preserveAspectRatio="xMidYMid meet">
<metadata>
Created by potrace 1.10, written by Peter Selinger 2001-2011
</metadata>
<g transform="translate(0.000000,300.000000) scale(0.100000,-0.100000)"
fill="#000000" stroke="none">
<path d="M639 2946 c-25 -114 10 -164 132 -185 41 -7 88 -17 104 -21 17 -4 57
-13 90 -20 33 -7 87 -18 120 -26 33 -7 159 -34 280 -59 299 -61 327 -70 410
-119 60 -35 138 -108 170 -157 93 -145 30 -489 -117 -637 -52 -52 -182 -123
-263 -141 -59 -14 -120 -48 -169 -95 -32 -29 -36 -39 -36 -82 0 -49 8 -68 61
-136 28 -36 35 -54 149 -368 23 -63 45 -124 50 -135 4 -11 23 -58 41 -105 17
-47 36 -89 41 -94 4 -6 8 -16 8 -23 0 -21 79 -183 113 -233 89 -129 206 -215
357 -265 30 -10 72 -24 93 -31 20 -8 69 -14 108 -14 l70 0 19 43 c24 52 24 65
3 108 -19 39 -39 58 -97 95 -126 80 -289 395 -507 982 -27 73 -47 137 -44 142
3 5 38 18 78 31 216 66 376 195 462 374 86 178 98 355 35 529 -18 49 -42 105
-53 125 -100 175 -291 304 -545 366 -137 33 -267 62 -337 74 -33 6 -80 15
-105 21 -25 6 -65 14 -90 19 -25 5 -124 26 -220 47 -116 25 -207 38 -270 40
l-95 3 185 -38 c102 -21 334 -69 515 -106 555 -113 681 -160 831 -309 63 -63
89 -98 117 -157 49 -105 69 -188 69 -294 0 -312 -177 -543 -497 -653 -33 -11
-77 -23 -98 -27 -30 -6 -37 -11 -31 -24 4 -9 24 -61 44 -116 230 -612 347
-857 473 -992 32 -34 78 -74 103 -88 32 -19 44 -31 40 -42 -4 -9 1 -21 9 -27
14 -10 14 -16 -2 -56 -9 -25 -18 -47 -19 -49 -9 -12 -261 67 -345 109 -202
102 -280 231 -494 816 -110 300 -131 348 -164 378 -12 11 -21 27 -21 37 0 10
-4 21 -10 24 -24 15 -9 54 33 88 56 46 108 71 186 91 187 48 322 189 383 401
32 115 33 298 1 368 -52 112 -142 196 -267 252 -62 27 -100 37 -406 101 -663
139 -650 136 -644 161 5 16 2 23 -9 23 -13 0 -14 7 -1 58 17 72 17 72 0 72 -9
0 -19 -19 -27 -54z"/>
<path d="M695 2881 c-3 -5 -2 -12 2 -14 5 -3 161 -37 348 -76 548 -116 577
-122 635 -144 83 -30 172 -91 234 -158 31 -33 56 -55 56 -49 0 24 -31 68 -84
118 -60 57 -206 134 -256 136 -17 1 -30 4 -30 7 0 4 -28 12 -62 18 -35 7 -169
35 -298 63 -268 57 -258 55 -325 68 -27 5 -81 16 -120 24 -83 18 -92 19 -100
7z"/>
<path d="M880 2672 c-54 -8 -72 -53 -46 -113 6 -13 2 -16 -19 -12 -14 3 -28 9
-31 14 -3 5 -27 9 -53 9 -37 0 -54 -6 -75 -25 -53 -49 -24 -110 71 -150 130
-56 209 -162 233 -314 19 -117 0 -294 -46 -425 -28 -80 -79 -252 -119 -401
-14 -55 -30 -111 -35 -125 -5 -14 -11 -38 -14 -55 -3 -16 -12 -64 -21 -105
-24 -110 -24 -107 -40 -215 -21 -137 -29 -383 -17 -475 21 -147 33 -205 51
-235 24 -42 46 -43 66 -4 14 26 16 48 9 133 -12 167 -7 361 15 506 27 176 33
198 107 435 180 574 210 720 201 951 -5 119 -8 137 -37 200 -37 82 -73 138
-117 180 -41 39 -44 61 -5 38 75 -47 158 -191 168 -294 1 -14 2 -28 3 -32 1
-5 6 -8 11 -8 28 0 -4 156 -47 229 -37 64 -101 123 -173 162 -72 39 -91 60
-74 87 51 80 250 -98 303 -272 10 -34 22 -97 27 -141 l8 -80 6 75 c11 142 -37
259 -155 375 -73 72 -111 93 -155 87z m-90 -144 c74 -23 150 -85 204 -168 74
-112 97 -193 97 -346 1 -192 -44 -388 -201 -884 -107 -337 -136 -523 -126
-817 9 -248 9 -261 2 -280 -12 -30 -24 0 -46 107 -71 345 -8 788 202 1440 95
296 100 519 14 670 -37 65 -102 127 -164 155 -108 50 -107 49 -110 82 -2 23 3
35 19 47 23 16 40 15 109 -6z"/>
<path d="M2368 2181 c-5 -18 -8 -48 -8 -65 -1 -64 -31 -174 -70 -254 -86 -174
-240 -292 -467 -357 -87 -25 -117 -63 -76 -96 15 -13 16 -11 10 16 -5 30 -5
30 65 48 165 41 334 142 421 252 88 111 140 270 135 414 -2 61 -4 69 -10 42z"/>
<path d="M1432 1350 c12 -16 26 -30 30 -30 10 0 2 16 -20 43 -25 29 -34 19
-10 -13z"/>
<path d="M676 1248 c-42 -39 -100 -221 -129 -408 -14 -92 -14 -477 0 -543 9
-43 43 -98 43 -70 0 6 -5 13 -11 15 -17 6 -25 422 -10 544 21 173 97 438 131
459 23 14 19 -31 -14 -164 -44 -175 -72 -338 -87 -501 -11 -129 -4 -330 12
-330 5 0 9 57 9 128 0 155 33 462 60 557 19 67 31 117 35 148 3 18 11 49 18
70 28 79 -8 139 -57 95z"/>
<path d="M1858 359 c39 -59 118 -130 187 -169 52 -30 256 -102 326 -115 34 -6
37 -5 43 20 9 34 3 40 -23 26 -23 -13 -43 -10 -156 26 -91 28 -206 82 -249
115 -16 13 -58 50 -94 83 l-65 60 31 -46z"/>
</g>
</svg>
