<?xml version="1.0" standalone="no"?>
<!DOCTYPE svg PUBLIC "-//W3C//DTD SVG 20010904//EN"
 "http://www.w3.org/TR/2001/REC-SVG-20010904/DTD/svg10.dtd">
<svg version="1.0" xmlns="http://www.w3.org/2000/svg"
 width="300.000000pt" height="300.000000pt" viewBox="0 0 300.000000 300.000000"
 preserveAspectRatio="xMidYMid meet">
<metadata>
Created by potrace 1.10, written by Peter Selinger 2001-2011
</metadata>
<g transform="translate(0.000000,300.000000) scale(0.100000,-0.100000)"
fill="#000000" stroke="none">
<path d="M0 1500 l0 -1500 1500 0 1500 0 0 1500 0 1500 -1500 0 -1500 0 0
-1500z m1018 1265 c97 -20 195 -40 217 -45 22 -5 76 -14 120 -20 44 -7 87 -14
95 -17 8 -4 20 -8 25 -10 6 -2 42 -10 80 -18 142 -29 162 -34 236 -59 120 -40
166 -62 227 -110 81 -62 119 -109 162 -201 47 -99 60 -154 60 -244 0 -87 -19
-161 -64 -254 -40 -82 -88 -137 -161 -187 -27 -19 -55 -39 -62 -46 -17 -17
-157 -74 -181 -74 -24 0 -35 -25 -22 -50 5 -9 17 -40 25 -66 9 -27 20 -58 25
-69 5 -11 25 -61 44 -111 19 -50 39 -100 44 -110 6 -11 24 -53 42 -94 61 -141
113 -245 146 -293 19 -26 34 -49 34 -52 0 -7 59 -61 112 -101 53 -40 67 -79
48 -129 -24 -63 -48 -72 -115 -46 -11 5 -42 14 -70 20 -54 13 -178 69 -183 83
-2 4 -9 8 -15 8 -7 0 -42 31 -78 68 -51 53 -77 91 -117 175 -29 59 -52 112
-52 118 0 5 -4 17 -9 27 -14 27 -28 62 -54 137 -92 258 -132 356 -168 407 -48
69 -51 112 -13 157 14 17 32 31 40 31 8 0 14 4 14 8 0 8 90 42 111 42 17 0
109 44 109 52 0 4 6 8 13 8 17 1 98 76 115 108 62 114 80 187 77 318 -2 79 -5
98 -28 137 -45 77 -180 169 -259 178 -4 0 -22 5 -40 10 -18 5 -100 23 -183 39
-82 17 -163 35 -180 40 -16 5 -48 12 -70 16 -22 3 -69 12 -105 20 -36 8 -76
17 -90 19 -63 12 -111 29 -122 42 -16 20 -15 137 1 157 18 21 16 21 219 -19z
m39 -270 c28 -19 61 -49 74 -67 13 -18 27 -34 31 -36 4 -2 8 -10 8 -17 0 -7 4
-15 8 -17 20 -8 54 -116 59 -186 5 -64 4 -77 -12 -88 -25 -19 -47 6 -49 56 0
22 -5 40 -9 40 -5 0 -6 4 -3 9 7 11 -27 87 -51 118 -24 29 -93 83 -107 83 -6
0 3 -13 19 -28 106 -98 149 -207 148 -382 -1 -175 -30 -299 -213 -885 -5 -16
-19 -84 -30 -150 -18 -101 -21 -154 -18 -337 2 -195 1 -220 -15 -235 -15 -15
-19 -16 -32 -2 -30 30 -49 155 -49 329 -1 192 6 310 17 310 5 0 7 10 6 23 -1
12 1 30 6 40 4 9 5 24 1 32 -3 8 0 15 5 15 6 0 9 9 6 20 -3 11 -1 20 4 20 4 0
8 16 7 35 -1 19 5 41 12 49 7 9 10 23 6 31 -3 8 0 15 5 15 6 0 9 9 6 20 -3 11
-1 20 4 20 5 0 9 8 9 17 0 9 4 30 10 47 5 17 35 112 66 211 56 176 57 183 62
320 3 126 2 146 -18 198 -21 56 -89 138 -121 145 -7 2 -16 7 -19 10 -8 11 -49
32 -61 32 -18 0 -49 41 -49 65 0 50 82 76 140 45 31 -16 41 -3 22 29 -14 25
-14 31 -2 46 12 15 43 32 60 34 3 1 28 -15 57 -34z m-191 -1165 c1 -25 -3 -50
-7 -56 -5 -5 -11 -28 -14 -50 -9 -54 -11 -67 -18 -84 -12 -31 -27 -136 -28
-185 0 -16 -5 -35 -10 -42 -6 -6 -13 -92 -15 -190 -3 -98 -8 -181 -13 -186 -4
-4 -15 -5 -24 -1 -25 9 -32 79 -31 289 1 202 9 258 61 425 31 103 49 132 77
128 18 -3 21 -10 22 -48z"/>
<path d="M816 2763 c-2 -10 -8 -33 -11 -52 -7 -31 -5 -33 11 -26 26 11 102 7
114 -6 3 -3 52 -15 110 -28 58 -12 146 -31 197 -42 50 -11 105 -21 122 -21 17
-1 31 -4 31 -7 0 -4 15 -8 33 -9 37 -3 56 -7 77 -15 8 -3 31 -8 50 -10 40 -6
140 -49 182 -78 15 -11 28 -18 28 -15 0 10 73 -69 95 -104 13 -19 26 -46 30
-60 4 -14 -11 2 -32 35 -44 66 -93 110 -169 148 -71 36 -117 48 -496 127 -185
39 -343 73 -351 76 -9 3 -16 -3 -20 -15 -3 -14 1 -21 17 -25 11 -2 185 -39
386 -81 402 -84 443 -96 524 -150 112 -74 156 -155 156 -287 0 -114 -14 -176
-61 -274 -53 -112 -140 -184 -267 -220 -75 -22 -124 -47 -161 -83 -30 -29 -30
-30 -15 -67 9 -20 22 -43 30 -51 22 -22 37 -56 89 -198 159 -439 217 -565 308
-662 71 -75 168 -127 315 -167 l93 -25 10 26 c15 39 16 65 2 70 -6 2 -14 -9
-18 -26 l-6 -29 -92 25 c-199 54 -321 138 -387 266 -21 41 -25 53 -11 37 11
-14 21 -28 21 -32 0 -21 95 -120 105 -110 5 4 5 2 2 -4 -14 -25 159 -113 252
-129 23 -4 43 -10 46 -15 8 -12 47 1 73 25 l24 22 -31 13 c-82 34 -186 178
-282 391 -49 109 -193 473 -218 552 -7 20 -19 37 -26 37 -21 0 -29 39 -11 59
8 9 44 23 78 30 88 19 238 98 234 124 -1 4 14 16 32 27 18 11 38 31 44 45 6
14 14 25 18 25 13 0 60 108 75 172 8 35 15 97 16 138 1 73 1 74 10 30 27 -132
-44 -336 -152 -436 -72 -67 -219 -142 -311 -159 -40 -8 -51 -31 -22 -42 25 -9
172 42 244 85 230 140 324 411 226 659 -78 198 -254 314 -576 378 -47 9 -237
48 -423 86 -186 38 -342 69 -347 69 -5 0 -11 -8 -14 -17z m627 -1300 c8 -10
19 -31 23 -48 l7 -30 -25 35 c-36 53 -40 60 -30 60 5 0 16 -8 25 -17z"/>
<path d="M956 2485 c-10 -27 5 -44 67 -77 98 -53 177 -176 177 -278 0 -22 5
-40 10 -40 17 0 11 108 -10 171 -26 76 -58 127 -111 176 -67 62 -120 81 -133
48z"/>
<path d="M815 2400 c-28 -31 -9 -61 52 -82 66 -23 132 -83 166 -149 67 -134
60 -296 -24 -558 -85 -265 -148 -532 -170 -721 -14 -129 -7 -327 17 -432 29
-130 50 -89 33 62 -13 115 -5 283 22 440 20 121 30 157 104 390 40 126 110
376 120 429 18 97 25 218 16 287 -20 141 -103 269 -204 318 -78 37 -110 41
-132 16z"/>
<path d="M800 1283 c-57 -157 -73 -264 -74 -483 -1 -185 5 -250 22 -250 4 0 7
75 8 168 1 183 20 326 73 527 16 61 27 113 24 118 -11 19 -23 1 -53 -80z"/>
</g>
</svg>
