<?xml version="1.0" encoding="UTF-8" standalone="no" ?>
<!DOCTYPE svg PUBLIC "-//W3C//DTD SVG 1.1//EN" "http://www.w3.org/Graphics/SVG/1.1/DTD/svg11.dtd">
<svg xmlns="http://www.w3.org/2000/svg" xmlns:xlink="http://www.w3.org/1999/xlink" version="1.1" width="1080" height="1080" viewBox="0 0 1080 1080" xml:space="preserve">
<desc>Created with Fabric.js 5.2.4</desc>
<defs>
</defs>
<g transform="matrix(1 0 0 1 540 540)" id="c53fdc92-affb-408a-ad47-bc962581ca5f"  >
<rect style="stroke: none; stroke-width: 1; stroke-dasharray: none; stroke-linecap: butt; stroke-dashoffset: 0; stroke-linejoin: miter; stroke-miterlimit: 4; fill: rgb(255,255,255); fill-rule: nonzero; opacity: 1; visibility: hidden;" vector-effect="non-scaling-stroke"  x="-540" y="-540" rx="0" ry="0" width="1080" height="1080" />
</g>
<g transform="matrix(1 0 0 1 540 540)" id="d495af52-ecf3-474c-b7c4-d8a199d7bc4b"  >
</g>
<g transform="matrix(NaN NaN NaN NaN 0 0)"  >
<g style=""   >
</g>
</g>
<g transform="matrix(0.56 0 0 0.56 567.06 479.12)"  >
<g style="" vector-effect="non-scaling-stroke"   >
		<g transform="matrix(0.13 0 0 -0.13 0 0)"  >
<path style="stroke: none; stroke-width: 1; stroke-dasharray: none; stroke-linecap: butt; stroke-dashoffset: 0; stroke-linejoin: miter; stroke-miterlimit: 4; fill: rgb(0,0,0); fill-rule: nonzero; opacity: 1;" vector-effect="non-scaling-stroke"  transform=" translate(-6738.98, -7911.61)" d="M 13356 13301 C 13352 13296 13329 13282 13302 13269 C 13276 13257 13251 13240 13247 13233 C 13243 13226 13232 13220 13223 13220 C 13215 13220 13191 13207 13171 13191 C 13151 13176 13130 13161 13124 13159 C 13118 13157 13100 13145 13084 13132 C 13068 13119 12999 13074 12930 13030 C 12801 12949 12687 12873 12667 12855 C 12660 12849 12637 12834 12615 12820 C 12593 12807 12463 12722 12325 12632 C 12188 12541 11990 12411 11885 12342 C 11225 11907 11125 11841 11040 11783 C 11015 11766 10853 11659 10680 11545 C 10507 11431 10340 11321 10310 11301 C 10280 11281 10253 11263 10250 11260 C 10247 11257 10207 11230 10160 11199 C 10113 11168 9920 11040 9731 10914 C 9542 10788 9377 10678 9364 10670 C 9351 10662 9247 10592 9133 10515 C 9019 10438 8921 10373 8916 10371 C 8910 10369 8903 10364 8900 10361 C 8897 10358 8876 10342 8853 10326 C 8829 10310 8799 10286 8786 10273 C 8757 10244 8717 10245 8711 10275 C 8706 10304 8652 10418 8640 10425 C 8635 10428 8630 10444 8630 10459 C 8630 10481 8638 10490 8676 10508 C 8716 10528 8886 10635 8900 10650 C 8909 10659 8969 10700 8973 10700 C 8976 10700 9027 10733 9086 10773 C 9146 10814 9308 10923 9445 11015 C 9583 11108 9789 11247 9903 11324 C 10018 11402 10143 11485 10181 11510 C 10253 11557 10537 11749 10555 11763 C 10561 11767 10621 11807 10690 11852 C 10759 11897 10820 11939 10826 11945 C 10832 11950 10848 11962 10860 11970 C 10872 11978 10893 11993 10905 12003 C 10918 12012 10931 12020 10935 12020 C 10938 12020 10947 12026 10955 12033 C 10962 12039 10987 12057 11011 12072 C 11035 12087 11075 12115 11100 12134 C 11125 12153 11150 12169 11155 12169 C 11161 12170 11188 12189 11215 12213 C 11243 12237 11273 12259 11283 12263 C 11293 12267 11298 12274 11295 12280 C 11286 12295 11250 12292 11244 12275 C 11240 12267 11233 12260 11227 12260 C 11221 12260 11209 12254 11201 12246 C 11192 12239 11158 12218 11126 12200 C 11093 12182 11062 12163 11056 12158 C 11050 12153 11009 12126 10965 12098 C 10921 12069 10881 12042 10875 12038 C 10863 12027 10650 11890 10608 11865 C 10598 11860 10536 11818 10470 11773 C 10404 11727 10348 11690 10346 11690 C 10342 11690 10034 11488 10015 11473 C 10010 11469 9987 11453 9965 11439 C 9943 11425 9831 11351 9715 11275 C 8838 10699 8664 10581 8631 10546 C 8617 10532 8601 10520 8594 10520 C 8588 10520 8564 10548 8541 10583 C 8519 10618 8487 10659 8470 10675 C 8432 10711 8430 10747 8466 10756 C 8494 10763 9101 11165 9120 11190 C 9123 11193 9143 11207 9165 11220 C 9187 11233 9210 11248 9215 11252 C 9221 11256 9262 11288 9308 11321 C 9366 11364 9388 11386 9381 11393 C 9373 11401 9362 11398 9343 11384 C 9327 11373 9297 11356 9275 11345 C 9253 11334 9226 11317 9215 11307 C 9204 11297 9175 11277 9150 11263 C 9125 11249 9103 11234 9100 11230 C 9097 11227 9066 11206 9030 11185 C 8906 11111 8474 10822 8441 10791 C 8423 10774 8405 10760 8401 10760 C 8397 10760 8373 10778 8349 10801 C 8325 10824 8285 10858 8260 10878 C 8212 10917 8190 10939 8190 10951 C 8190 10956 8210 10968 8235 10979 C 8286 11001 8561 11184 8625 11238 C 8636 11247 8657 11263 8671 11272 C 8721 11304 8762 11347 8750 11355 C 8744 11359 8731 11356 8722 11348 C 8713 11340 8688 11325 8668 11315 C 8647 11304 8630 11292 8630 11288 C 8630 11285 8622 11279 8611 11275 C 8601 11272 8543 11237 8482 11197 C 8421 11157 8346 11109 8315 11090 C 8283 11071 8237 11036 8212 11013 C 8187 10989 8160 10970 8154 10970 C 8147 10970 8122 10983 8098 10999 C 8074 11014 8022 11042 7982 11061 C 7902 11097 7895 11114 7945 11140 C 7962 11148 8034 11193 8105 11239 C 8236 11323 8264 11342 8378 11421 C 8413 11445 8452 11472 8465 11480 C 8500 11502 8736 11662 8801 11708 C 8831 11730 8919 11790 8995 11841 C 9131 11933 9180 11971 9180 11984 C 9180 11996 9142 11990 9130 11975 C 9123 11967 9114 11960 9109 11960 C 9097 11960 8990 11894 8805 11772 C 8419 11517 8355 11475 8350 11470 C 8347 11466 8327 11453 8305 11440 C 8219 11389 7943 11204 7912 11175 C 7863 11131 7851 11130 7795 11158 C 7704 11203 7689 11210 7672 11210 C 7663 11210 7646 11217 7636 11225 C 7625 11233 7606 11240 7594 11240 C 7581 11240 7569 11244 7565 11249 C 7562 11254 7545 11262 7527 11265 C 7510 11269 7470 11280 7439 11291 C 7408 11301 7349 11315 7309 11321 C 7268 11328 7231 11336 7227 11340 C 7212 11353 7231 11375 7278 11400 C 7304 11413 7336 11432 7350 11441 C 7463 11515 7728 11692 7830 11761 C 7899 11807 7973 11857 7995 11871 C 8017 11885 8091 11934 8160 11981 C 8229 12028 8362 12118 8455 12180 C 8549 12243 8630 12298 8635 12302 C 8641 12307 8701 12347 8770 12392 C 8839 12437 8897 12476 8900 12479 C 8903 12482 8932 12503 8965 12525 C 8998 12547 9030 12569 9035 12573 C 9060 12593 9153 12650 9160 12650 C 9165 12650 9170 12653 9172 12658 C 9176 12666 9237 12710 9245 12710 C 9248 12710 9256 12715 9263 12720 C 9270 12726 9307 12754 9345 12782 C 9384 12811 9421 12840 9428 12847 C 9435 12854 9448 12860 9456 12860 C 9464 12860 9470 12864 9470 12869 C 9470 12873 9488 12890 9510 12905 C 9538 12924 9547 12937 9541 12943 C 9534 12950 9525 12949 9513 12939 C 9503 12931 9477 12915 9455 12905 C 9433 12894 9411 12879 9407 12873 C 9403 12866 9393 12860 9385 12860 C 9378 12860 9370 12856 9368 12852 C 9366 12845 9315 12812 9202 12745 C 9161 12720 8979 12598 8968 12587 C 8961 12580 8926 12557 8890 12535 C 8810 12487 8715 12425 8635 12370 C 8602 12347 8490 12273 8385 12204 C 8168 12062 8166 12061 8135 12038 C 8122 12028 8109 12020 8106 12020 C 8102 12020 8094 12015 8087 12009 C 8080 12004 8025 11967 7963 11927 C 7902 11887 7819 11833 7778 11805 C 7738 11778 7700 11753 7695 11750 C 7684 11744 7314 11498 7260 11460 C 7241 11446 7214 11425 7200 11413 C 7186 11401 7162 11384 7146 11376 C 7120 11363 7112 11363 7082 11376 C 7063 11384 7036 11390 7021 11390 C 7007 11391 6984 11397 6970 11405 C 6956 11413 6923 11420 6895 11420 C 6868 11420 6834 11427 6820 11435 C 6806 11443 6775 11450 6750 11450 C 6725 11450 6696 11457 6686 11465 C 6675 11474 6644 11480 6616 11480 C 6588 11481 6554 11487 6540 11495 C 6526 11503 6498 11509 6477 11510 C 6456 11510 6429 11515 6418 11521 C 6406 11528 6371 11536 6341 11541 C 6229 11558 6171 11568 6138 11578 C 6120 11584 6074 11594 6035 11600 C 5941 11615 5822 11639 5784 11651 C 5767 11656 5739 11660 5721 11660 C 5704 11660 5673 11667 5653 11675 C 5634 11683 5599 11690 5576 11690 C 5554 11691 5524 11697 5510 11705 C 5496 11713 5465 11720 5440 11720 C 5415 11720 5386 11727 5376 11735 C 5365 11744 5334 11750 5306 11750 C 5277 11750 5247 11757 5236 11765 C 5225 11773 5196 11780 5172 11780 C 5148 11780 5119 11785 5107 11792 C 5095 11799 5060 11807 5030 11812 C 4937 11824 4863 11838 4828 11848 C 4810 11854 4761 11864 4720 11870 C 4640 11882 4552 11903 4484 11925 C 4461 11932 4438 11935 4433 11931 C 4427 11928 4420 11903 4417 11875 C 4404 11775 4392 11712 4380 11691 C 4374 11679 4370 11655 4372 11637 C 4374 11612 4380 11604 4399 11602 C 4420 11599 4422 11595 4417 11562 C 4413 11541 4409 11516 4408 11506 C 4406 11490 4413 11484 4445 11478 C 4467 11473 4501 11465 4520 11460 C 4564 11448 4742 11410 4890 11380 C 4981 11362 5147 11328 5215 11314 C 5254 11306 5319 11292 5360 11284 C 5401 11275 5453 11264 5475 11258 C 5497 11252 5535 11244 5560 11240 C 5585 11236 5626 11228 5653 11221 C 5679 11215 5721 11205 5748 11199 C 5774 11192 5815 11184 5840 11180 C 5865 11176 5903 11168 5925 11163 C 5988 11146 6064 11129 6122 11120 C 6151 11116 6220 11102 6275 11091 C 6330 11079 6411 11063 6455 11054 C 6572 11032 6610 11021 6610 11009 C 6610 11003 6589 10990 6563 10979 C 6488 10948 6408 10900 6232 10781 C 6202 10761 6168 10738 6155 10730 C 6019 10641 5696 10420 5663 10394 C 5640 10375 5617 10360 5611 10360 C 5601 10360 5570 10411 5570 10428 C 5570 10440 5489 10579 5447 10641 C 5383 10733 5159 10946 5088 10981 C 4975 11037 4937 11042 4884 11009 C 4853 10990 4850 10984 4850 10941 C 4850 10876 4886 10842 5025 10775 C 5167 10706 5364 10550 5346 10521 C 5342 10515 5315 10499 5287 10485 C 5258 10472 5220 10447 5202 10430 C 5184 10414 5165 10400 5160 10400 C 5155 10400 5118 10433 5078 10473 C 4964 10587 4849 10665 4737 10706 C 4714 10714 4676 10727 4654 10735 C 4606 10752 4492 10769 4470 10763 C 4380 10735 4342 10638 4390 10557 C 4408 10527 4464 10490 4491 10490 C 4497 10490 4518 10483 4538 10474 C 4616 10441 4646 10428 4660 10419 C 4668 10415 4695 10401 4720 10389 C 4796 10351 4900 10270 4900 10249 C 4900 10236 4883 10222 4848 10204 C 4792 10176 4479 9970 4445 9939 C 4413 9910 4365 9904 4349 9927 C 4323 9962 4117 10100 4091 10100 C 4086 10100 4077 10107 4070 10115 C 4063 10123 4050 10130 4040 10130 C 4030 10130 4020 10137 4016 10145 C 4010 10162 3980 10166 3980 10149 C 3980 10143 3989 10136 3999 10133 C 4010 10130 4021 10122 4024 10114 C 4027 10106 4035 10100 4042 10100 C 4049 10100 4065 10089 4078 10075 C 4120 10031 4298 9920 4326 9920 C 4333 9920 4342 9910 4345 9898 C 4353 9874 4342 9863 4245 9803 C 4212 9783 4160 9748 4128 9726 C 4097 9703 4062 9678 4050 9670 C 4038 9662 4020 9648 4010 9640 C 4000 9632 3982 9618 3970 9610 C 3847 9527 3875 9498 4002 9578 C 4017 9587 4073 9622 4127 9654 C 4181 9687 4267 9742 4319 9777 C 4413 9841 4437 9848 4465 9815 C 4482 9795 4553 9745 4583 9732 C 4625 9714 4616 9689 4552 9650 C 4521 9631 4491 9612 4485 9608 C 4480 9603 4405 9553 4320 9497 C 4121 9365 4006 9287 4000 9280 C 3997 9276 3966 9256 3930 9235 C 3894 9214 3863 9194 3860 9191 C 3857 9188 3828 9167 3795 9145 C 3762 9123 3733 9103 3730 9100 C 3725 9094 3469 8921 3441 8905 C 3412 8888 3376 8851 3383 8844 C 3392 8835 3477 8870 3521 8902 C 3542 8917 3562 8930 3564 8930 C 3570 8930 3704 9021 3710 9030 C 3713 9033 3744 9054 3780 9075 C 3845 9113 4071 9260 4080 9270 C 4086 9277 4167 9330 4285 9405 C 4405 9482 4484 9534 4490 9541 C 4493 9544 4513 9557 4535 9570 C 4557 9583 4584 9603 4595 9613 C 4606 9623 4631 9640 4651 9650 L 4686 9668 L 4736 9631 C 4763 9611 4803 9583 4825 9570 C 4898 9527 4897 9521 4813 9470 C 4775 9448 4707 9402 4660 9369 C 4544 9286 4460 9230 4453 9230 C 4450 9230 4421 9210 4389 9185 C 4356 9160 4326 9140 4321 9140 C 4316 9140 4310 9133 4306 9125 C 4303 9117 4296 9110 4291 9110 C 4280 9110 4230 9066 4230 9056 C 4230 9040 4303 9065 4319 9087 C 4327 9097 4414 9140 4427 9140 C 4433 9140 4443 9147 4450 9155 C 4457 9163 4522 9209 4594 9256 C 4666 9304 4771 9373 4827 9411 C 4924 9476 4962 9492 4974 9471 C 4983 9458 5098 9380 5109 9380 C 5121 9380 5150 9352 5150 9341 C 5150 9336 5102 9303 5043 9267 C 4983 9231 4897 9174 4850 9141 C 4803 9108 4757 9075 4746 9068 C 4736 9061 4717 9047 4705 9038 C 4677 9016 4641 9015 4634 9035 C 4630 9043 4622 9050 4615 9050 C 4609 9050 4591 9061 4576 9075 C 4549 9100 4488 9130 4466 9130 C 4460 9130 4463 9123 4473 9116 C 4482 9109 4490 9098 4490 9091 C 4490 9085 4495 9080 4501 9080 C 4507 9080 4529 9067 4549 9052 C 4569 9036 4593 9020 4603 9017 C 4635 9005 4620 8980 4559 8943 C 4526 8922 4473 8887 4442 8864 C 4411 8842 4361 8807 4332 8786 C 4302 8766 4266 8738 4251 8724 C 4236 8711 4215 8693 4204 8685 C 4187 8672 4187 8671 4202 8670 C 4211 8670 4222 8675 4225 8680 C 4228 8686 4240 8690 4251 8690 C 4262 8690 4283 8701 4298 8715 C 4313 8729 4334 8743 4344 8746 C 4355 8750 4368 8757 4374 8762 C 4380 8767 4433 8802 4492 8839 C 4551 8877 4615 8919 4634 8934 C 4675 8965 4690 8966 4711 8942 C 4720 8932 4781 8888 4846 8844 C 4911 8801 4967 8763 4970 8760 C 4981 8746 5128 8660 5138 8660 C 5156 8660 5157 8577 5140 8555 C 5136 8550 5129 8529 5125 8510 C 5117 8465 5090 8389 5077 8372 C 5071 8365 5063 8340 5059 8317 C 5043 8229 4994 8085 4979 8082 C 4971 8081 4952 8090 4937 8104 C 4923 8117 4838 8177 4748 8236 C 4658 8295 4583 8347 4580 8350 C 4577 8354 4523 8387 4460 8425 C 4397 8463 4343 8497 4340 8500 C 4337 8504 4326 8510 4315 8514 C 4304 8517 4283 8531 4268 8545 C 4253 8559 4234 8570 4226 8570 C 4203 8570 4196 8551 4217 8543 C 4226 8539 4247 8524 4262 8508 C 4277 8493 4293 8480 4298 8480 C 4303 8480 4320 8469 4336 8455 C 4362 8432 4425 8389 4580 8287 C 4610 8267 4673 8224 4720 8191 C 4826 8116 4918 8060 4934 8060 C 4969 8060 4980 8013 4956 7958 C 4948 7940 4934 7896 4925 7860 C 4915 7824 4906 7789 4904 7783 C 4899 7763 4886 7767 4844 7801 C 4807 7831 4674 7923 4638 7945 C 4629 7950 4577 7985 4523 8021 C 4428 8085 4126 8284 3670 8585 C 3546 8666 3348 8797 3230 8875 C 3112 8953 2997 9027 2975 9040 C 2953 9053 2933 9067 2930 9070 C 2923 9077 2705 9221 2655 9251 C 2633 9264 2611 9278 2605 9282 C 2559 9320 2363 9440 2348 9440 C 2323 9440 2325 9423 2353 9409 C 2365 9402 2377 9394 2380 9390 C 2385 9383 2463 9324 2500 9300 C 2512 9292 2528 9280 2534 9275 C 2546 9264 3068 8913 3196 8829 C 3217 8815 3267 8782 3305 8755 C 3344 8728 3449 8657 3540 8597 C 3631 8537 3716 8480 3730 8469 C 3755 8451 3937 8329 4040 8261 C 4070 8241 4097 8223 4100 8220 C 4121 8197 4791 7756 4838 7734 C 4879 7715 4886 7697 4866 7668 C 4857 7656 4850 7636 4850 7624 C 4850 7612 4843 7586 4835 7567 C 4827 7547 4820 7515 4820 7495 C 4820 7466 4817 7460 4798 7460 C 4786 7460 4765 7471 4751 7484 C 4736 7497 4681 7538 4627 7574 C 4545 7631 4076 7944 4027 7975 C 4019 7981 3853 8091 3658 8221 C 3253 8491 2193 9194 2015 9311 C 1949 9354 1890 9393 1885 9397 C 1870 9408 1780 9468 1675 9535 C 1626 9566 1563 9608 1535 9627 C 1467 9674 1022 9967 835 10088 C 728 10157 726 10159 659 10208 C 626 10231 597 10250 594 10250 C 591 10250 571 10264 550 10280 C 529 10297 508 10310 503 10310 C 498 10310 463 10330 426 10355 C 388 10380 355 10400 352 10400 C 350 10400 331 10414 310 10430 C 289 10447 266 10460 259 10460 C 252 10460 238 10467 228 10477 C 218 10486 207 10490 203 10486 C 196 10479 238 10438 280 10410 C 292 10402 308 10390 314 10385 C 343 10359 409 10310 415 10310 C 419 10310 439 10298 459 10283 C 479 10267 503 10251 512 10245 C 525 10237 647 10156 764 10078 C 774 10071 788 10060 794 10055 C 800 10049 861 10008 930 9962 C 999 9917 1060 9877 1065 9872 C 1071 9868 1149 9815 1240 9754 C 1331 9693 1545 9550 1715 9435 C 1886 9320 2086 9186 2160 9137 C 2234 9088 2309 9038 2325 9026 C 2363 9000 2886 8649 3205 8437 C 3337 8350 3472 8260 3505 8237 C 3753 8070 3898 7974 3912 7965 C 3921 7960 3966 7930 4012 7899 C 4202 7770 4718 7434 4753 7416 C 4789 7398 4802 7366 4783 7346 C 4778 7342 4764 7293 4750 7237 C 4720 7119 4706 7108 4649 7159 C 4618 7188 4580 7200 4580 7182 C 4580 7173 4635 7130 4647 7130 C 4652 7130 4668 7119 4683 7105 C 4704 7085 4709 7073 4704 7052 C 4692 7000 4669 6904 4656 6855 C 4631 6765 4617 6706 4610 6660 C 4606 6635 4598 6595 4592 6570 C 4574 6495 4558 6409 4550 6338 C 4545 6300 4538 6265 4534 6258 C 4530 6252 4523 6214 4519 6176 C 4499 5985 4488 5891 4480 5850 C 4475 5825 4468 5731 4464 5640 C 4461 5549 4453 5469 4447 5462 C 4441 5455 4418 5440 4396 5429 C 4358 5411 4295 5369 4234 5321 C 4220 5310 4203 5303 4198 5306 C 4184 5315 4207 5734 4231 5925 C 4237 5969 4246 6039 4250 6080 C 4255 6121 4263 6180 4269 6210 C 4296 6353 4304 6399 4310 6445 C 4314 6473 4323 6518 4329 6545 C 4356 6657 4363 6687 4371 6730 C 4375 6755 4386 6802 4394 6835 C 4402 6868 4416 6928 4424 6968 C 4443 7052 4459 7115 4490 7220 C 4502 7261 4517 7312 4523 7333 C 4537 7379 4525 7404 4488 7408 C 4455 7412 4448 7401 4406 7285 C 4386 7230 4363 7172 4355 7157 C 4347 7141 4340 7122 4340 7115 C 4340 7107 4334 7086 4326 7068 C 4275 6946 4229 6765 4186 6520 C 4127 6187 4104 5885 4114 5540 C 4117 5411 4121 5292 4122 5277 C 4125 5253 4119 5245 4086 5227 C 4064 5215 4042 5201 4036 5197 C 4030 5192 3978 5159 3920 5122 C 3862 5085 3797 5042 3775 5027 C 3753 5011 3706 4980 3670 4956 C 3634 4933 3502 4845 3375 4759 C 3181 4629 3059 4548 2925 4460 C 2912 4452 2748 4342 2560 4215 C 2372 4089 2165 3950 2101 3908 C 1981 3828 1816 3717 1707 3642 C 1673 3618 1602 3571 1550 3536 C 1498 3502 1336 3393 1190 3295 C 1044 3197 885 3090 835 3057 C 635 2924 579 2885 562 2870 C 553 2862 527 2843 505 2830 C 483 2817 461 2802 455 2797 C 439 2784 339 2720 334 2720 C 331 2720 324 2715 317 2710 C 278 2677 129 2570 123 2570 C 118 2570 106 2561 97 2549 C 75 2524 79 2500 100 2522 C 108 2530 122 2539 130 2543 C 138 2547 161 2560 180 2571 C 394 2700 437 2726 447 2735 C 483 2765 490 2770 496 2770 C 499 2770 519 2783 539 2798 C 559 2814 613 2850 660 2879 C 762 2941 810 2972 1019 3113 C 1182 3221 1252 3267 1800 3628 C 1968 3739 2132 3848 2165 3870 C 2198 3893 2335 3984 2470 4072 C 2692 4219 2872 4338 3080 4477 C 3121 4504 3283 4611 3440 4715 C 3597 4818 3739 4912 3755 4924 C 3772 4935 3834 4977 3893 5017 C 3952 5057 4025 5109 4055 5131 C 4085 5153 4113 5169 4118 5166 C 4123 5163 4130 5128 4134 5088 C 4138 5048 4144 4988 4147 4954 L 4152 4893 L 4082 4849 C 4003 4800 3538 4489 3530 4480 C 3527 4477 3491 4452 3450 4425 C 3356 4365 3232 4281 3160 4231 C 3130 4210 3051 4157 2985 4114 C 2919 4070 2861 4032 2855 4027 C 2816 3998 2713 3927 2650 3886 C 2484 3778 2463 3764 2408 3723 C 2377 3699 2347 3680 2342 3680 C 2337 3680 2330 3673 2326 3665 C 2323 3657 2316 3650 2310 3650 C 2304 3650 2285 3637 2267 3620 C 2249 3604 2231 3590 2225 3590 C 2211 3590 2165 3540 2179 3540 C 2189 3540 2212 3550 2250 3572 C 2258 3576 2272 3583 2280 3587 C 2288 3591 2297 3596 2300 3600 C 2303 3603 2323 3617 2345 3630 C 2367 3643 2387 3656 2390 3659 C 2395 3665 2401 3669 2480 3716 C 2535 3749 2753 3892 2760 3900 C 2763 3904 2783 3917 2805 3930 C 2849 3956 3159 4159 3175 4173 C 3181 4177 3221 4204 3265 4232 C 3389 4312 3802 4584 3928 4669 C 3991 4711 4052 4752 4064 4760 C 4076 4768 4111 4789 4140 4805 C 4169 4822 4204 4845 4217 4857 C 4230 4869 4261 4892 4288 4907 C 4314 4922 4359 4954 4387 4977 C 4416 5001 4449 5020 4460 5020 C 4478 5020 4480 5013 4480 4962 C 4480 4930 4485 4867 4490 4822 C 4501 4735 4494 4700 4463 4700 C 4445 4700 4313 4622 4259 4579 C 4239 4563 4217 4550 4212 4550 C 4206 4550 4197 4544 4193 4537 C 4189 4529 4172 4515 4155 4504 C 4118 4481 4090 4448 4097 4437 C 4100 4432 4110 4436 4119 4444 C 4129 4453 4144 4460 4152 4460 C 4161 4460 4170 4464 4172 4468 C 4174 4473 4216 4500 4265 4530 C 4354 4583 4426 4633 4445 4655 C 4461 4674 4500 4691 4510 4685 C 4516 4682 4520 4656 4520 4628 C 4520 4600 4527 4557 4535 4531 C 4553 4473 4580 4348 4580 4323 C 4580 4300 4598 4280 4620 4280 C 4633 4280 4641 4300 4655 4367 C 4671 4443 4672 4463 4661 4524 C 4654 4563 4644 4635 4639 4684 C 4632 4761 4633 4776 4647 4792 C 4656 4802 4668 4810 4674 4810 C 4700 4810 4829 4892 5368 5251 C 5458 5311 5533 5360 5534 5360 C 5536 5360 5689 5461 5875 5585 C 6061 5709 6214 5810 6215 5810 C 6219 5810 6543 6027 6622 6083 C 6659 6109 6694 6130 6701 6130 C 6707 6130 6729 6116 6749 6100 C 6802 6055 6804 6054 6838 6036 C 6870 6020 6900 6015 6900 6026 C 6900 6038 6851 6079 6795 6112 C 6765 6130 6740 6150 6740 6157 C 6740 6163 6757 6179 6777 6191 C 6797 6204 6829 6228 6848 6244 L 6882 6274 L 6900 6252 C 6910 6240 6921 6212 6925 6190 C 6929 6168 6936 6148 6941 6144 C 6946 6141 6950 6130 6950 6120 C 6950 6110 6957 6094 6966 6086 C 6975 6076 6980 6057 6978 6038 C 6975 6007 6973 6005 6937 6006 C 6906 6007 6900 6004 6905 5990 C 6909 5979 6902 5969 6883 5961 C 6857 5949 6724 5863 6415 5656 C 6349 5612 6201 5513 6085 5436 C 5970 5359 5873 5294 5870 5291 C 5867 5287 5804 5244 5730 5194 C 5376 4958 5125 4787 5120 4781 C 5117 4777 5097 4763 5075 4750 C 5053 4737 5033 4723 5030 4720 C 5027 4717 4994 4693 4955 4668 C 4917 4642 4869 4610 4850 4596 C 4831 4582 4805 4563 4793 4554 C 4780 4545 4770 4533 4770 4529 C 4770 4497 4875 4552 5083 4693 C 5137 4730 5183 4760 5185 4760 C 5188 4760 5209 4773 5232 4789 C 5256 4805 5358 4873 5460 4939 C 5562 5006 5652 5065 5660 5070 C 5668 5076 5725 5113 5787 5153 C 5848 5192 5916 5237 5937 5251 C 5958 5266 6124 5375 6305 5495 C 6487 5614 6649 5722 6665 5733 C 6682 5745 6745 5788 6805 5829 C 6866 5870 6932 5919 6954 5938 L 6992 5972 L 7016 5944 C 7029 5928 7040 5908 7040 5900 C 7040 5892 7047 5876 7055 5866 C 7063 5855 7070 5839 7070 5829 C 7070 5820 7077 5807 7086 5800 C 7116 5774 7099 5739 7040 5707 C 6994 5683 6522 5372 6400 5286 C 6381 5273 6277 5204 6170 5133 C 5894 4949 5606 4756 5600 4750 C 5597 4747 5561 4723 5520 4696 C 5479 4670 5432 4638 5415 4627 C 5340 4575 5247 4511 5150 4447 C 5021 4362 5016 4358 4910 4285 C 4863 4252 4782 4198 4730 4163 C 4537 4036 4308 3872 4295 3850 C 4284 3832 4299 3824 4318 3838 C 4327 3845 4342 3853 4350 3857 C 4358 3860 4369 3869 4373 3877 C 4377 3884 4388 3890 4396 3890 C 4404 3890 4435 3908 4465 3930 C 4495 3953 4528 3974 4538 3978 C 4560 3987 4778 4127 4790 4140 C 4793 4143 4830 4168 4873 4195 C 4957 4249 5291 4469 5519 4620 C 5598 4672 5670 4720 5679 4725 C 5708 4743 5751 4771 6050 4969 C 6697 5395 6997 5597 7055 5643 L 7115 5691 L 7137 5665 C 7150 5651 7160 5630 7160 5620 C 7160 5609 7174 5573 7191 5541 C 7208 5508 7220 5474 7217 5466 C 7214 5458 7194 5444 7173 5434 C 7152 5424 7093 5387 7041 5352 C 6989 5316 6892 5250 6826 5205 C 6540 5012 6487 4969 6508 4948 C 6516 4940 6521 4941 6526 4953 C 6529 4962 6536 4970 6540 4970 C 6549 4970 6851 5149 6860 5159 C 6872 5173 7022 5270 7030 5270 C 7036 5270 7040 5273 7040 5278 C 7040 5282 7062 5297 7088 5312 C 7114 5327 7157 5357 7182 5379 C 7207 5402 7233 5420 7238 5420 C 7244 5420 7265 5387 7285 5348 C 7306 5308 7328 5264 7336 5250 C 7359 5207 7353 5192 7303 5170 C 7266 5154 6914 4927 6785 4837 C 6769 4825 6564 4687 6330 4531 C 6096 4374 5808 4181 5690 4102 C 5572 4022 5453 3942 5425 3924 C 5398 3905 5368 3886 5360 3880 C 5352 3875 5302 3842 5250 3807 C 5198 3772 5136 3731 5114 3715 C 5091 3698 5064 3679 5054 3673 C 5043 3666 4972 3618 4895 3566 C 4594 3365 4353 3203 4314 3175 C 4291 3158 4262 3138 4250 3130 C 4238 3122 4217 3107 4205 3097 C 4192 3088 4179 3080 4176 3080 C 4172 3080 4164 3075 4157 3070 C 4121 3040 4050 2990 4043 2990 C 4038 2990 4020 2977 4002 2960 C 3984 2944 3966 2930 3962 2930 C 3958 2930 3947 2922 3938 2911 C 3930 2901 3916 2890 3909 2888 C 3901 2885 3898 2879 3902 2875 C 3907 2870 3918 2874 3928 2883 C 3938 2893 3952 2900 3960 2900 C 3967 2900 3994 2913 4019 2928 C 4044 2944 4072 2959 4080 2963 C 4113 2979 4264 3082 4268 3093 C 4270 3097 4276 3100 4280 3100 C 4285 3100 4308 3113 4332 3128 C 4356 3144 4411 3180 4455 3208 C 4499 3236 4540 3263 4545 3267 C 4551 3272 4584 3294 4620 3318 C 4882 3489 5044 3595 5095 3630 C 5128 3653 5279 3752 5430 3852 C 5581 3951 5758 4068 5823 4111 C 5888 4154 5945 4190 5949 4190 C 5954 4190 5960 4194 5962 4198 C 5965 4205 6026 4247 6151 4325 C 6192 4351 6337 4447 6698 4689 C 6744 4720 6833 4779 6895 4820 C 7139 4980 7297 5091 7325 5120 C 7367 5164 7385 5159 7427 5093 C 7513 4957 7590 4868 7720 4756 C 7827 4663 7919 4605 8065 4536 C 8120 4510 8177 4482 8192 4474 C 8206 4466 8227 4460 8237 4460 C 8247 4460 8261 4455 8267 4449 C 8273 4443 8293 4435 8311 4430 C 8330 4425 8370 4413 8400 4402 C 8483 4372 8543 4354 8696 4314 C 8860 4270 8918 4262 8923 4281 C 8925 4289 8933 4311 8939 4330 C 8946 4349 8954 4376 8957 4390 C 8960 4404 8969 4422 8976 4430 C 8983 4439 8990 4466 8992 4490 C 8995 4532 8993 4536 8963 4549 C 8927 4565 8919 4595 8946 4614 C 8965 4629 8955 4657 8927 4666 C 8894 4676 8762 4758 8700 4806 C 8624 4865 8519 4983 8433 5104 C 8393 5159 8348 5223 8332 5245 C 8282 5315 8248 5379 8255 5391 C 8259 5397 8282 5410 8305 5420 C 8329 5430 8407 5477 8478 5524 C 8550 5571 8615 5610 8624 5610 C 8632 5610 8643 5617 8647 5624 C 8652 5632 8753 5704 8873 5784 C 8992 5864 9105 5941 9123 5955 C 9142 5969 9167 5980 9178 5980 C 9190 5980 9200 5986 9200 5993 C 9200 6005 9261 6055 9312 6085 C 9350 6108 9475 6195 9520 6231 C 9614 6305 9567 6313 9452 6243 C 9358 6186 9259 6122 9204 6081 C 9140 6035 9121 6034 9080 6073 C 9061 6091 9024 6119 8998 6134 C 8919 6180 8919 6178 9043 6261 C 9139 6324 9158 6334 9178 6325 C 9190 6320 9200 6312 9200 6308 C 9200 6301 9302 6240 9314 6240 C 9341 6240 9274 6312 9238 6320 C 9227 6323 9212 6333 9206 6343 C 9197 6357 9200 6365 9225 6385 C 9242 6398 9259 6409 9263 6410 C 9268 6410 9301 6433 9338 6460 C 9405 6511 9424 6518 9435 6500 C 9439 6494 9483 6463 9533 6430 C 9584 6398 9630 6367 9635 6362 C 9641 6357 9666 6342 9690 6327 C 9715 6313 9744 6293 9755 6283 C 9766 6273 9811 6242 9855 6215 C 9899 6188 9979 6137 10033 6101 C 10088 6064 10151 6025 10173 6012 C 10196 6000 10218 5983 10223 5975 C 10232 5959 10280 5954 10280 5970 C 10280 5975 10270 5986 10258 5995 C 10227 6017 10047 6148 10035 6157 C 10018 6170 9798 6314 9755 6340 C 9733 6353 9709 6370 9701 6377 C 9690 6389 9582 6461 9498 6513 C 9460 6536 9463 6552 9508 6578 C 9569 6613 9798 6764 9900 6837 C 9952 6874 10033 6931 10080 6962 C 10207 7048 10218 7058 10199 7065 C 10190 7068 10159 7056 10124 7035 C 10092 7015 10056 6994 10045 6987 C 10034 6980 9992 6952 9950 6924 C 9909 6896 9846 6856 9810 6835 C 9774 6814 9743 6793 9740 6790 C 9737 6787 9718 6773 9696 6760 L 9658 6737 L 9625 6771 C 9587 6810 9585 6812 9505 6865 C 9472 6887 9443 6908 9440 6911 C 9437 6914 9385 6951 9324 6993 C 9263 7035 9207 7076 9200 7085 C 9193 7093 9182 7100 9175 7100 C 9168 7100 9136 7119 9104 7143 C 9050 7182 8951 7247 8640 7452 C 8577 7494 8460 7569 8380 7618 C 8300 7668 8230 7713 8225 7718 C 8209 7732 8074 7810 8067 7810 C 8052 7810 8090 7754 8121 7730 C 8159 7700 8273 7619 8425 7514 C 8486 7473 8551 7428 8570 7414 C 8637 7368 8816 7249 8951 7160 C 9026 7111 9090 7064 9093 7056 C 9097 7047 9107 7040 9116 7040 C 9132 7040 9229 6982 9441 6843 C 9502 6803 9572 6763 9596 6754 C 9646 6735 9644 6725 9579 6685 C 9559 6672 9537 6656 9529 6648 C 9507 6628 9423 6570 9414 6570 C 9410 6570 9375 6594 9336 6623 C 9297 6652 9252 6684 9235 6694 C 9219 6705 9199 6722 9192 6732 C 9185 6742 9173 6750 9165 6750 C 9146 6750 8931 6892 8931 6905 C 8930 6911 8947 6923 8968 6933 C 9016 6956 9087 7016 9078 7025 C 9067 7036 9011 7010 8954 6968 C 8926 6947 8897 6930 8890 6930 C 8883 6930 8854 6947 8826 6969 C 8798 6990 8688 7065 8582 7135 C 8422 7240 8389 7265 8392 7283 C 8394 7297 8405 7307 8426 7312 C 8463 7321 8543 7389 8518 7390 C 8496 7390 8433 7356 8400 7325 C 8386 7313 8368 7300 8360 7298 C 8352 7296 8174 7408 7965 7548 C 7559 7819 7534 7834 7471 7849 C 7398 7865 7416 7839 7545 7742 C 7601 7700 7970 7460 7978 7460 C 7984 7460 7993 7454 7997 7447 C 8001 7440 8023 7423 8045 7410 C 8067 7397 8087 7383 8090 7380 C 8093 7376 8134 7349 8183 7320 C 8231 7291 8270 7262 8270 7255 C 8270 7240 8249 7220 8233 7220 C 8225 7220 8214 7215 8207 7210 C 8174 7182 8103 7133 8088 7127 C 8078 7124 8056 7132 8033 7147 C 8012 7161 7962 7196 7921 7223 C 7881 7250 7845 7281 7843 7291 C 7839 7304 7829 7310 7810 7310 C 7793 7310 7757 7328 7716 7358 C 7627 7422 7461 7527 7381 7571 C 7336 7595 7314 7613 7312 7627 C 7310 7639 7302 7654 7294 7660 C 7286 7667 7280 7684 7280 7698 C 7280 7712 7274 7731 7266 7739 C 7242 7768 7228 7822 7242 7836 C 7260 7852 7358 7869 7397 7863 C 7422 7859 7434 7863 7452 7883 C 7466 7898 7492 7910 7517 7915 C 7541 7919 7562 7926 7566 7931 C 7569 7936 7580 7940 7590 7940 C 7601 7940 7626 7947 7647 7956 C 7668 7965 7699 7978 7715 7985 C 7732 7992 7802 8025 7873 8059 C 7943 8092 8003 8120 8006 8120 C 8026 8120 8226 8266 8313 8344 C 8423 8444 8499 8532 8576 8650 C 8642 8752 8649 8762 8659 8787 C 8665 8798 8674 8811 8679 8815 C 8685 8818 8690 8828 8690 8835 C 8690 8843 8701 8873 8714 8902 C 8779 9042 8829 9235 8856 9453 C 8873 9593 8872 9649 8848 9798 C 8838 9868 8838 9872 8860 9895 C 8873 9908 8899 9927 8919 9937 C 8978 9967 9010 9991 9010 10006 C 9010 10035 8952 10010 8891 9955 C 8867 9933 8850 9924 8841 9930 C 8833 9934 8817 9977 8805 10025 C 8792 10073 8777 10117 8771 10123 C 8754 10140 8758 10185 8778 10201 C 8787 10209 8811 10224 8830 10234 C 8864 10253 9217 10483 9388 10599 C 9434 10630 9479 10660 9488 10665 C 9497 10671 9674 10788 9880 10926 C 10086 11064 10392 11268 10560 11381 C 10728 11493 10890 11601 10920 11621 C 10950 11640 11115 11750 11285 11865 C 11456 11979 11638 12101 11690 12136 C 11742 12171 11809 12216 11839 12237 C 11868 12258 11899 12280 11908 12285 C 11916 12291 12000 12346 12094 12409 C 12188 12472 12326 12564 12400 12613 C 12474 12662 12560 12720 12590 12741 C 12645 12780 12795 12881 12900 12949 C 12930 12969 12957 12987 12960 12990 C 12963 12993 12992 13013 13025 13035 C 13058 13057 13087 13077 13090 13080 C 13093 13083 13133 13112 13180 13144 C 13227 13176 13285 13217 13310 13236 C 13335 13255 13365 13274 13378 13280 C 13391 13285 13398 13294 13395 13300 C 13387 13313 13363 13313 13356 13301 z M 4728 11770 C 4820 11753 4924 11733 4960 11725 C 4996 11717 5075 11701 5135 11689 C 5196 11678 5259 11662 5277 11654 C 5294 11646 5331 11640 5359 11640 C 5387 11640 5429 11634 5452 11626 C 5476 11618 5515 11609 5540 11605 C 5565 11602 5623 11589 5670 11578 C 5717 11567 5773 11554 5795 11549 C 5817 11545 5878 11531 5930 11520 C 5982 11508 6054 11495 6090 11490 C 6154 11480 6178 11476 6335 11439 C 6379 11429 6449 11416 6490 11409 C 6531 11403 6594 11391 6630 11383 C 6666 11375 6733 11362 6780 11354 C 6827 11347 6906 11330 6955 11316 C 7005 11302 7080 11288 7124 11285 C 7182 11280 7217 11271 7259 11249 C 7289 11233 7324 11220 7335 11220 C 7357 11220 7439 11193 7455 11180 C 7460 11176 7503 11162 7550 11151 C 7597 11139 7649 11122 7665 11114 C 7682 11105 7736 11082 7785 11063 C 7835 11043 7894 11014 7916 10999 C 7939 10983 7979 10959 8005 10945 C 8195 10844 8489 10549 8563 10385 C 8581 10346 8609 10292 8626 10265 C 8642 10237 8673 10162 8694 10098 C 8715 10034 8738 9979 8745 9976 C 8753 9973 8762 9950 8765 9923 C 8769 9897 8778 9839 8785 9794 C 8810 9646 8774 9353 8706 9139 C 8599 8807 8380 8519 8075 8309 C 7932 8211 7617 8072 7400 8011 C 7359 7999 7311 7985 7294 7980 C 7277 7974 7247 7970 7227 7970 C 7192 7970 7190 7968 7190 7936 C 7190 7918 7195 7888 7201 7871 C 7209 7848 7209 7832 7202 7817 C 7173 7756 7181 7704 7235 7594 C 7255 7555 7275 7499 7279 7468 C 7296 7366 7361 7194 7405 7135 C 7440 7087 7457 7048 7464 6995 C 7472 6941 7496 6862 7510 6845 C 7514 6840 7528 6804 7541 6765 C 7553 6727 7587 6648 7616 6590 C 7646 6529 7671 6464 7675 6435 C 7680 6401 7718 6313 7793 6160 C 7854 6036 7905 5933 7905 5930 C 7906 5927 7910 5905 7914 5880 C 7922 5837 7956 5764 8001 5693 C 8012 5676 8030 5636 8041 5604 C 8052 5573 8080 5513 8102 5471 C 8125 5429 8148 5386 8153 5375 C 8159 5364 8167 5348 8172 5340 C 8177 5332 8192 5301 8205 5273 C 8219 5244 8233 5220 8238 5220 C 8242 5220 8256 5201 8268 5178 C 8306 5106 8315 5093 8478 4891 C 8493 4873 8520 4843 8539 4826 C 8558 4809 8585 4783 8599 4769 C 8614 4754 8655 4723 8690 4699 C 8834 4601 8891 4554 8897 4530 C 8901 4516 8895 4483 8883 4450 L 8863 4395 L 8815 4398 C 8788 4400 8751 4408 8732 4416 C 8713 4424 8687 4430 8674 4430 C 8661 4430 8633 4436 8613 4444 C 8592 4451 8548 4465 8515 4475 C 8456 4492 8351 4528 8215 4578 C 8144 4603 7960 4690 7883 4734 C 7743 4814 7555 5006 7438 5189 C 7413 5228 7360 5335 7360 5347 C 7360 5363 7331 5417 7315 5430 C 7307 5437 7300 5454 7300 5467 C 7300 5513 7239 5658 7203 5696 C 7190 5710 7180 5732 7180 5746 C 7180 5782 7133 5896 7093 5955 C 7074 5984 7060 6017 7060 6035 C 7060 6078 7029 6173 6987 6260 C 6966 6301 6950 6343 6950 6353 C 6950 6369 6933 6406 6893 6474 C 6886 6485 6880 6504 6880 6515 C 6880 6526 6873 6544 6865 6554 C 6857 6565 6850 6588 6850 6606 C 6850 6663 6783 6850 6739 6914 C 6703 6966 6697 6983 6690 7054 C 6685 7100 6670 7162 6656 7197 C 6642 7232 6630 7265 6630 7271 C 6630 7301 6573 7399 6535 7436 C 6512 7458 6481 7501 6467 7531 C 6453 7561 6429 7603 6414 7625 C 6325 7754 6331 7739 6339 7814 C 6347 7889 6344 7885 6457 7971 C 6519 8017 6638 8082 6695 8099 C 6717 8106 6752 8120 6773 8131 C 6794 8143 6848 8160 6893 8171 C 6971 8190 7072 8225 7096 8242 C 7102 8246 7124 8256 7146 8264 C 7261 8305 7534 8526 7603 8635 C 7620 8662 7648 8702 7666 8723 C 7700 8764 7755 8861 7781 8925 C 7789 8947 7804 8981 7812 9000 C 7821 9019 7833 9063 7838 9096 C 7844 9130 7860 9180 7874 9207 C 7887 9234 7905 9288 7913 9327 C 7921 9366 7931 9403 7934 9409 C 7942 9421 7959 9622 7967 9783 C 7971 9865 7968 9901 7956 9937 C 7947 9963 7940 10012 7940 10046 C 7940 10125 7909 10226 7869 10276 C 7852 10297 7827 10335 7814 10360 C 7732 10512 7526 10732 7365 10839 C 7260 10908 7063 11013 6995 11035 C 6921 11060 6815 11088 6735 11105 C 6691 11114 6629 11128 6598 11136 C 6566 11144 6529 11150 6514 11150 C 6500 11150 6445 11162 6392 11176 C 6338 11191 6273 11206 6245 11211 C 6218 11215 6177 11223 6155 11229 C 6133 11234 6088 11244 6055 11250 C 5946 11271 5917 11277 5670 11329 C 5535 11358 5403 11385 5375 11390 C 5348 11395 5307 11404 5285 11409 C 5263 11414 5209 11426 5165 11435 C 5121 11444 5060 11458 5030 11465 C 5000 11473 4937 11486 4890 11496 C 4843 11505 4780 11519 4750 11526 C 4720 11534 4685 11540 4672 11540 C 4641 11540 4557 11566 4493 11595 L 4441 11619 L 4471 11692 C 4498 11759 4529 11800 4551 11800 C 4556 11800 4636 11786 4728 11770 z M 6770 10985 C 6777 10976 6799 10970 6822 10970 C 6843 10970 6877 10963 6897 10955 C 6916 10947 6942 10940 6954 10940 C 6966 10940 6985 10933 6996 10925 C 7006 10917 7022 10910 7030 10910 C 7038 10910 7086 10890 7135 10866 C 7185 10842 7235 10820 7246 10816 C 7294 10801 7317 10740 7275 10740 C 7246 10740 7167 10693 6947 10546 C 6826 10466 6727 10400 6725 10400 C 6723 10400 6671 10365 6609 10323 C 6546 10281 6367 10160 6210 10055 C 5764 9757 5579 9630 5532 9592 C 5507 9571 5486 9561 5480 9566 C 5476 9571 5470 9602 5467 9635 C 5465 9668 5458 9722 5451 9755 L 5438 9814 L 5467 9837 C 5482 9850 5499 9860 5503 9860 C 5507 9860 5536 9878 5566 9901 C 5597 9923 5624 9939 5628 9935 C 5632 9932 5636 9897 5638 9857 C 5642 9757 5647 9740 5670 9740 C 5688 9740 5690 9749 5692 9867 L 5695 9993 L 5745 10020 C 5789 10044 6100 10250 6290 10381 C 6326 10406 6414 10466 6485 10515 C 6557 10563 6625 10610 6636 10619 C 6648 10628 6666 10641 6676 10648 C 6833 10753 6896 10800 6898 10815 C 6901 10830 6897 10831 6876 10826 C 6853 10820 6762 10770 6735 10747 C 6730 10743 6689 10716 6645 10688 C 6507 10600 6439 10556 6300 10464 C 6226 10415 6161 10373 6155 10370 C 6116 10351 5791 10132 5742 10093 C 5719 10074 5693 10060 5686 10063 C 5672 10069 5660 10113 5660 10164 C 5659 10181 5653 10206 5645 10220 C 5637 10234 5631 10259 5630 10276 C 5630 10302 5636 10310 5661 10320 C 5693 10334 6370 10780 6499 10872 C 6539 10901 6591 10942 6614 10963 C 6650 10996 6661 11000 6706 11000 C 6740 11000 6762 10995 6770 10985 z M 7425 10703 C 7549 10604 7575 10567 7533 10554 C 7479 10537 7452 10522 7364 10464 C 7310 10429 7266 10400 7265 10400 C 7263 10400 6758 10063 6430 9843 C 6389 9815 6328 9775 6295 9753 C 6262 9731 6204 9692 6165 9665 C 6127 9638 6005 9556 5896 9482 C 5787 9408 5692 9344 5686 9339 C 5680 9334 5644 9306 5606 9278 C 5568 9249 5535 9219 5532 9213 C 5524 9188 5575 9202 5635 9240 C 5692 9277 5811 9353 5848 9375 C 5857 9381 5933 9431 6015 9485 C 6098 9540 6170 9587 6175 9590 C 6186 9596 6723 9951 6898 10069 C 6960 10111 7019 10150 7028 10155 C 7045 10165 7126 10219 7378 10389 C 7445 10435 7515 10487 7532 10506 C 7583 10559 7600 10553 7675 10453 C 7711 10405 7740 10356 7740 10344 C 7740 10328 7725 10315 7677 10292 C 7642 10274 7593 10245 7567 10225 C 7542 10206 7519 10190 7517 10190 C 7514 10190 7232 10002 6889 9773 C 6546 9544 6191 9307 6100 9246 C 6009 9186 5931 9133 5925 9128 C 5862 9076 5777 9020 5761 9020 C 5749 9020 5705 9045 5661 9075 C 5617 9105 5570 9134 5556 9140 C 5540 9146 5530 9157 5530 9170 C 5530 9185 5523 9190 5506 9190 C 5492 9190 5479 9193 5477 9198 C 5475 9202 5475 9273 5479 9355 L 5485 9505 L 5515 9520 C 5532 9528 5563 9546 5585 9560 C 5607 9573 5630 9587 5635 9590 C 5647 9596 6062 9871 6298 10029 C 6394 10093 6479 10150 6488 10155 C 6554 10194 7256 10667 7280 10688 C 7296 10702 7310 10721 7310 10729 C 7310 10752 7385 10736 7425 10703 z M 4622 10636 C 4751 10601 4796 10578 4910 10487 C 5010 10406 5086 10333 5113 10290 C 5138 10248 5141 10245 5179 10200 C 5218 10153 5266 10063 5274 10022 C 5277 10004 5296 9957 5315 9919 C 5344 9861 5350 9838 5350 9785 C 5350 9750 5359 9683 5371 9635 C 5387 9568 5389 9537 5382 9501 C 5373 9452 5374 9250 5384 9186 C 5391 9144 5384 9110 5369 9110 C 5364 9110 5360 9135 5360 9165 C 5360 9196 5350 9250 5339 9286 C 5319 9347 5319 9354 5333 9388 C 5356 9442 5363 9489 5352 9514 C 5336 9550 5320 9605 5320 9626 C 5320 9637 5315 9651 5310 9656 C 5304 9662 5291 9711 5281 9766 C 5258 9884 5254 9896 5223 9933 C 5210 9949 5200 9967 5200 9974 C 5200 9981 5189 10010 5175 10038 C 5161 10067 5150 10094 5150 10098 C 5150 10103 5136 10122 5119 10141 C 5102 10160 5074 10192 5057 10213 C 4999 10281 4961 10325 4933 10353 C 4898 10388 4778 10469 4725 10493 C 4703 10503 4679 10517 4670 10524 C 4662 10531 4637 10542 4615 10548 C 4592 10554 4561 10573 4545 10591 C 4516 10621 4516 10622 4534 10636 C 4558 10653 4557 10653 4622 10636 z M 5433 10435 C 5459 10400 5480 10367 5480 10362 C 5480 10357 5487 10347 5495 10340 C 5521 10318 5513 10285 5478 10268 C 5460 10260 5417 10232 5384 10206 C 5350 10181 5318 10160 5313 10160 C 5309 10160 5296 10177 5285 10198 C 5275 10218 5247 10263 5223 10296 C 5175 10366 5171 10356 5273 10424 C 5305 10446 5335 10471 5341 10482 C 5358 10514 5384 10501 5433 10435 z M 7799 10254 C 7811 10235 7820 10209 7820 10197 C 7820 10184 7826 10166 7834 10155 C 7849 10132 7861 10055 7853 10033 C 7850 10025 7824 10007 7796 9993 C 7768 9979 7714 9946 7677 9921 C 7639 9896 7598 9868 7585 9860 C 7572 9852 7538 9829 7508 9809 C 7479 9789 7415 9746 7365 9713 C 7316 9680 7192 9597 7090 9528 C 6988 9460 6795 9330 6660 9240 C 6525 9149 6411 9072 6405 9067 C 6400 9063 6343 9025 6280 8983 C 6217 8941 6143 8890 6116 8868 C 6089 8847 6060 8830 6051 8830 C 6042 8830 6008 8848 5975 8871 C 5942 8893 5894 8924 5867 8938 C 5841 8953 5821 8971 5822 8979 C 5824 8987 5875 9023 5935 9061 C 6123 9178 6173 9210 6230 9249 C 6260 9270 6427 9381 6600 9496 C 7318 9969 7676 10211 7728 10256 C 7748 10274 7768 10289 7772 10290 C 7775 10290 7787 10274 7799 10254 z M 5548 10227 C 5567 10205 5620 10028 5612 10015 C 5608 10008 5574 9981 5535 9955 C 5497 9930 5461 9902 5457 9894 C 5441 9865 5422 9881 5405 9938 C 5396 9969 5377 10018 5364 10047 C 5351 10075 5343 10105 5346 10112 C 5349 10119 5374 10136 5401 10149 C 5429 10163 5468 10189 5488 10207 C 5530 10244 5534 10245 5548 10227 z M 4966 10192 C 4985 10179 5090 10021 5090 10006 C 5090 9997 5078 9987 5064 9984 C 5041 9978 4750 9791 4710 9756 C 4677 9726 4656 9729 4602 9769 C 4573 9791 4532 9816 4510 9826 C 4478 9840 4451 9867 4462 9875 C 4464 9876 4483 9887 4505 9900 C 4634 9976 4873 10142 4913 10182 C 4932 10201 4948 10204 4966 10192 z M 7878 9810 L 7875 9656 L 7825 9628 C 7798 9613 7769 9597 7761 9594 C 7753 9590 7663 9530 7561 9461 C 7459 9393 7287 9278 7180 9206 C 7073 9135 6981 9072 6975 9068 C 6970 9063 6909 9023 6840 8978 C 6771 8933 6713 8893 6710 8890 C 6707 8887 6687 8873 6665 8860 C 6643 8847 6619 8830 6611 8822 C 6603 8814 6578 8797 6556 8782 C 6491 8742 6410 8678 6410 8669 C 6410 8664 6424 8660 6440 8660 C 6457 8660 6470 8665 6470 8670 C 6470 8676 6480 8685 6493 8690 C 6517 8701 6552 8722 6560 8730 C 6563 8734 6599 8758 6640 8784 C 6681 8811 6727 8841 6742 8851 C 6757 8862 6771 8870 6774 8870 C 6776 8870 6834 8908 6902 8955 C 6969 9001 7063 9063 7109 9091 C 7156 9120 7232 9170 7279 9203 C 7327 9235 7424 9300 7495 9347 C 7708 9486 7773 9532 7805 9560 C 7867 9616 7895 9602 7866 9530 C 7857 9508 7850 9473 7850 9452 C 7849 9432 7843 9404 7835 9390 C 7827 9376 7821 9352 7820 9335 C 7820 9319 7813 9286 7803 9262 C 7790 9226 7778 9214 7736 9193 C 7691 9170 7582 9099 7543 9066 C 7535 9060 7524 9050 7517 9045 C 7510 9039 7486 9023 7463 9008 C 7422 8981 7389 8940 7409 8940 C 7428 8940 7475 8965 7535 9005 C 7568 9028 7602 9049 7610 9052 C 7618 9055 7653 9081 7686 9108 C 7731 9145 7751 9155 7759 9147 C 7775 9131 7775 9130 7720 9015 C 7693 8957 7670 8908 7670 8905 C 7670 8893 7601 8787 7539 8705 C 7427 8556 7264 8427 7059 8327 C 6984 8290 6912 8260 6898 8260 C 6885 8260 6858 8274 6839 8291 C 6813 8314 6480 8543 6351 8625 C 6343 8631 6296 8661 6247 8693 C 6198 8724 6156 8750 6153 8750 C 6141 8750 6090 8792 6095 8799 C 6097 8803 6137 8828 6182 8855 C 6258 8899 6398 8988 6410 9000 C 6424 9014 6480 9050 6489 9050 C 6494 9050 6500 9054 6502 9058 C 6504 9062 6523 9077 6545 9090 C 6567 9103 6725 9206 6895 9319 C 7066 9432 7213 9529 7222 9535 C 7231 9540 7276 9570 7322 9601 C 7368 9632 7470 9700 7550 9753 C 7746 9884 7771 9901 7821 9943 C 7845 9963 7868 9975 7873 9971 C 7877 9967 7879 9894 7878 9810 z M 5133 9929 C 5142 9912 5150 9890 5150 9880 C 5150 9870 5154 9859 5159 9856 C 5169 9850 5200 9759 5200 9736 C 5200 9727 5179 9709 5153 9696 C 5126 9683 5070 9647 5027 9616 C 4984 9585 4942 9560 4933 9560 C 4915 9560 4850 9598 4850 9608 C 4850 9612 4823 9631 4790 9649 C 4757 9668 4730 9689 4730 9695 C 4730 9701 4749 9717 4773 9730 C 4846 9771 5044 9907 5069 9934 C 5100 9968 5111 9967 5133 9929 z M 5226 9649 C 5229 9643 5237 9584 5242 9518 C 5254 9359 5239 9338 5157 9403 C 5134 9422 5089 9452 5058 9471 C 5026 9489 5000 9510 5000 9516 C 5000 9522 5035 9550 5078 9578 C 5121 9606 5162 9636 5169 9644 C 5184 9662 5216 9665 5226 9649 z M 5241 9297 C 5249 9280 5249 9237 5241 9149 C 5216 8860 5187 8685 5163 8685 C 5157 8685 5137 8699 5118 8715 C 5078 8750 5058 8765 4918 8859 C 4859 8898 4791 8940 4766 8951 C 4727 8968 4721 8974 4730 8989 C 4735 8999 4774 9029 4817 9055 C 4961 9144 5145 9269 5169 9294 C 5199 9326 5227 9327 5241 9297 z M 5625 9029 C 5664 9003 5689 8979 5688 8971 C 5686 8963 5661 8942 5632 8925 C 5604 8907 5552 8871 5518 8844 C 5429 8773 5432 8774 5421 8785 C 5415 8791 5414 8808 5420 8830 C 5442 8914 5450 8960 5456 9033 C 5460 9082 5467 9116 5477 9126 C 5491 9139 5496 9137 5526 9106 C 5544 9087 5589 9052 5625 9029 z M 5825 8895 C 5857 8870 5905 8837 5932 8822 C 5984 8793 5994 8766 5958 8754 C 5908 8739 5570 8506 5570 8488 C 5570 8467 5642 8491 5670 8520 C 5673 8523 5687 8532 5702 8540 C 5741 8561 5904 8663 5910 8669 C 5913 8672 5931 8686 5950 8699 C 5969 8713 5989 8729 5993 8737 C 6002 8752 6046 8755 6055 8740 C 6058 8735 6105 8702 6159 8666 C 6213 8630 6263 8594 6270 8585 C 6277 8577 6287 8570 6293 8570 C 6299 8570 6349 8540 6403 8503 C 6539 8409 6713 8297 6747 8280 C 6818 8244 6831 8210 6775 8210 C 6755 8210 6723 8203 6703 8195 C 6684 8187 6657 8180 6644 8180 C 6632 8180 6619 8176 6615 8171 C 6612 8166 6596 8158 6578 8155 C 6524 8143 6402 8062 6327 7988 C 6292 7953 6269 7953 6233 7986 C 6218 8000 6176 8031 6140 8054 C 6104 8078 5968 8167 5838 8253 C 5708 8338 5592 8414 5580 8420 C 5565 8428 5560 8438 5563 8452 C 5568 8469 5565 8471 5544 8466 C 5528 8462 5508 8467 5483 8483 C 5462 8495 5428 8514 5407 8525 C 5377 8541 5370 8549 5375 8565 C 5378 8576 5384 8601 5387 8620 C 5390 8639 5399 8664 5406 8675 C 5414 8686 5420 8707 5420 8722 C 5420 8741 5425 8750 5436 8750 C 5457 8750 5527 8790 5628 8858 C 5713 8917 5751 8940 5761 8940 C 5764 8940 5793 8920 5825 8895 z M 5504 8396 C 5524 8384 5695 8272 5884 8145 L 6228 7915 L 6229 7872 C 6230 7844 6237 7819 6250 7803 C 6261 7789 6270 7762 6270 7743 C 6270 7697 6283 7675 6352 7608 C 6392 7568 6410 7542 6410 7525 C 6410 7511 6407 7500 6403 7500 C 6398 7500 6352 7534 6300 7574 C 6218 7638 5753 7958 5726 7969 C 5720 7971 5673 8002 5621 8038 C 5482 8132 5350 8210 5329 8210 C 5293 8210 5287 8246 5309 8320 C 5321 8357 5330 8401 5330 8417 C 5330 8432 5339 8460 5350 8478 L 5371 8511 L 5420 8464 C 5447 8438 5485 8407 5504 8396 z M 5234 8435 C 5230 8427 5224 8420 5219 8420 C 5214 8420 5210 8427 5210 8435 C 5210 8443 5217 8450 5225 8450 C 5234 8450 5237 8444 5234 8435 z M 5190 8285 C 5190 8250 5186 8240 5174 8240 C 5162 8240 5159 8246 5164 8263 C 5167 8275 5170 8295 5170 8308 C 5170 8320 5175 8330 5180 8330 C 5186 8330 5190 8310 5190 8285 z M 5180 8204 C 5180 8189 5158 8160 5149 8165 C 5131 8177 5139 8210 5160 8210 C 5171 8210 5180 8207 5180 8204 z M 5344 8156 C 5376 8128 5812 7827 5867 7795 C 5894 7779 5944 7746 5950 7740 C 5959 7730 6275 7523 6355 7475 C 6447 7419 6500 7373 6500 7349 C 6500 7340 6507 7327 6515 7320 C 6523 7313 6530 7295 6530 7280 C 6530 7265 6537 7247 6545 7240 C 6553 7233 6560 7219 6560 7208 C 6560 7197 6566 7176 6573 7162 C 6581 7147 6594 7119 6602 7100 C 6638 7016 6639 7012 6625 7000 C 6614 6991 6595 7002 6534 7050 C 6473 7099 6057 7382 5968 7435 C 5959 7440 5901 7479 5839 7520 C 5777 7561 5636 7655 5525 7728 C 5415 7801 5299 7873 5267 7888 C 5211 7914 5210 7916 5214 7950 C 5216 7969 5228 8021 5239 8065 C 5251 8109 5263 8155 5265 8168 C 5273 8200 5300 8196 5344 8156 z M 5134 8068 C 5139 8044 5135 8031 5121 8016 C 5105 7999 5102 7986 5107 7952 C 5112 7912 5100 7867 5067 7805 C 5053 7779 5031 7674 5030 7632 C 5030 7599 4990 7498 4965 7470 C 4958 7462 4950 7442 4947 7425 C 4944 7409 4936 7368 4930 7335 C 4921 7284 4876 7201 4864 7212 C 4858 7219 4888 7451 4898 7463 C 4919 7489 4960 7626 4960 7668 C 4960 7708 4987 7788 5026 7862 C 5034 7876 5040 7898 5040 7909 C 5040 7921 5045 7939 5050 7950 C 5056 7961 5065 7979 5070 7990 C 5076 8001 5080 8021 5080 8036 C 5080 8097 5123 8123 5134 8068 z M 5232 7851 C 5276 7813 5321 7783 5950 7362 C 6250 7162 6528 6980 6568 6958 C 6618 6930 6640 6912 6640 6899 C 6640 6887 6647 6880 6660 6880 C 6673 6880 6681 6871 6685 6853 C 6689 6837 6695 6817 6701 6808 C 6706 6798 6710 6782 6710 6772 C 6710 6762 6717 6745 6725 6734 C 6733 6724 6740 6705 6740 6693 C 6740 6681 6747 6665 6755 6656 C 6763 6648 6770 6637 6770 6632 C 6770 6615 6732 6589 6699 6584 C 6670 6580 6656 6586 6605 6625 C 6572 6651 6526 6683 6503 6697 C 6443 6732 6443 6733 6540 6796 C 6593 6830 6637 6876 6627 6886 C 6619 6894 6519 6841 6473 6804 C 6422 6762 6399 6762 6351 6799 C 6284 6852 5215 7562 5170 7584 C 5132 7602 5125 7610 5122 7638 C 5120 7656 5124 7678 5131 7686 C 5137 7694 5146 7717 5151 7738 C 5172 7837 5185 7880 5195 7880 C 5197 7880 5214 7867 5232 7851 z M 5155 7522 C 5178 7502 5269 7437 5356 7379 C 5756 7112 6085 6895 6095 6890 C 6100 6887 6158 6850 6223 6807 C 6354 6720 6354 6722 6272 6674 C 6246 6659 6202 6629 6174 6608 L 6122 6569 L 6012 6642 C 5951 6682 5901 6722 5901 6731 C 5900 6740 5921 6761 5948 6778 C 6016 6824 6030 6836 6030 6849 C 6030 6874 5963 6849 5899 6798 C 5853 6763 5827 6763 5781 6798 C 5761 6814 5718 6844 5685 6865 C 5652 6887 5623 6907 5620 6910 C 5610 6922 5084 7268 5055 7282 C 5028 7295 5025 7300 5028 7339 C 5029 7363 5037 7392 5045 7403 C 5053 7415 5060 7433 5060 7443 C 5060 7471 5093 7560 5103 7560 C 5108 7560 5131 7543 5155 7522 z M 7505 7421 C 7555 7384 7623 7336 7658 7314 C 7727 7271 7732 7254 7683 7229 C 7646 7211 7584 7166 7557 7138 C 7547 7128 7535 7120 7531 7120 C 7512 7120 7460 7176 7460 7196 C 7460 7208 7454 7231 7446 7247 C 7438 7262 7422 7302 7410 7335 C 7398 7368 7380 7413 7370 7435 C 7329 7527 7333 7556 7383 7515 C 7401 7501 7456 7459 7505 7421 z M 5088 7192 C 5170 7131 5597 6846 5743 6756 C 5780 6734 5777 6718 5733 6695 C 5713 6684 5669 6655 5636 6631 C 5568 6581 5540 6577 5502 6611 C 5445 6662 5071 6907 4973 6958 C 4949 6971 4927 6987 4924 6995 C 4920 7003 4929 7042 4943 7082 C 4957 7122 4971 7171 4975 7190 C 4982 7222 4996 7250 5007 7250 C 5009 7250 5046 7224 5088 7192 z M 7882 7165 C 7944 7123 7996 7085 7998 7080 C 8000 7074 7987 7062 7970 7053 C 7952 7043 7911 7016 7879 6993 C 7846 6969 7813 6950 7805 6950 C 7797 6950 7763 6970 7728 6994 C 7693 7018 7645 7048 7620 7062 C 7560 7095 7558 7113 7613 7140 C 7638 7152 7677 7180 7701 7201 C 7725 7222 7750 7239 7757 7240 C 7764 7240 7820 7206 7882 7165 z M 8352 7210 C 8389 7182 8727 6958 8777 6929 C 8801 6916 8820 6898 8820 6889 C 8820 6879 8802 6863 8780 6851 C 8742 6831 8690 6798 8643 6764 C 8621 6748 8618 6749 8568 6787 C 8539 6808 8488 6843 8455 6865 C 8422 6887 8393 6907 8390 6910 C 8387 6913 8377 6920 8368 6925 C 8359 6931 8317 6959 8276 6987 C 8234 7016 8182 7049 8160 7060 C 8138 7071 8120 7085 8120 7090 C 8120 7096 8141 7113 8166 7128 C 8192 7143 8233 7172 8257 7193 C 8308 7236 8318 7237 8352 7210 z M 7657 6967 C 7692 6942 7726 6919 7732 6917 C 7745 6911 7729 6894 7660 6842 C 7628 6817 7600 6819 7600 6845 C 7600 6853 7596 6868 7590 6878 C 7573 6909 7540 6989 7540 6999 C 7540 7005 7536 7010 7530 7010 C 7519 7010 7516 7053 7527 7064 C 7531 7067 7547 7057 7564 7041 C 7581 7025 7623 6992 7657 6967 z M 8253 6917 C 8364 6843 8477 6771 8503 6755 C 8561 6722 8561 6705 8500 6672 C 8475 6658 8453 6644 8450 6641 C 8447 6638 8424 6620 8398 6602 L 8350 6569 L 8248 6643 C 8191 6684 8144 6724 8142 6734 C 8140 6745 8150 6755 8172 6764 C 8202 6777 8260 6822 8260 6834 C 8260 6836 8247 6835 8230 6830 C 8198 6821 8151 6791 8130 6765 C 8123 6757 8112 6750 8106 6750 C 8099 6750 8047 6781 7990 6820 C 7932 6858 7879 6890 7872 6890 C 7842 6890 7869 6927 7926 6965 C 7959 6987 7999 7015 8015 7028 C 8030 7040 8045 7050 8047 7050 C 8050 7050 8143 6990 8253 6917 z M 4979 6891 C 5036 6842 5374 6612 5443 6575 C 5463 6564 5480 6550 5480 6542 C 5480 6535 5459 6517 5434 6502 C 5409 6487 5324 6433 5247 6381 C 5169 6329 5065 6260 5015 6227 C 4966 6194 4881 6133 4826 6091 C 4685 5982 4690 5986 4679 5997 C 4673 6003 4673 6023 4680 6056 C 4686 6083 4702 6164 4715 6235 C 4728 6307 4749 6410 4761 6465 C 4773 6520 4786 6584 4790 6608 C 4794 6632 4802 6656 4808 6662 C 4815 6669 4820 6685 4820 6700 C 4821 6714 4827 6736 4835 6750 C 4843 6764 4849 6785 4850 6796 C 4850 6808 4857 6831 4865 6846 C 4873 6862 4880 6884 4880 6896 C 4880 6917 4897 6940 4913 6940 C 4918 6940 4948 6918 4979 6891 z M 7871 6821 C 7907 6795 7955 6763 7978 6751 C 8001 6739 8020 6723 8020 6716 C 8020 6708 7996 6688 7967 6671 C 7937 6654 7896 6627 7876 6611 C 7821 6567 7804 6564 7765 6594 C 7747 6608 7727 6620 7723 6620 C 7707 6620 7662 6674 7646 6713 C 7626 6762 7636 6781 7695 6811 C 7720 6824 7748 6842 7757 6852 C 7782 6880 7801 6874 7871 6821 z M 8905 6850 C 8914 6836 9057 6740 9069 6740 C 9085 6740 9092 6722 9085 6700 C 9081 6689 9072 6680 9064 6680 C 9047 6680 9016 6661 8944 6608 C 8916 6587 8890 6570 8887 6570 C 8883 6570 8843 6597 8798 6630 C 8752 6662 8705 6696 8692 6705 C 8664 6725 8668 6731 8733 6768 C 8761 6785 8799 6812 8815 6828 C 8845 6858 8893 6869 8905 6850 z M 5890 6664 C 5912 6649 5930 6633 5930 6629 C 5930 6624 5934 6620 5939 6620 C 5955 6620 6055 6550 6055 6539 C 6055 6533 6036 6517 6013 6504 C 5990 6491 5949 6465 5923 6445 C 5836 6382 5839 6382 5771 6431 C 5739 6455 5691 6487 5666 6502 C 5641 6517 5620 6534 5620 6539 C 5620 6544 5645 6566 5676 6587 C 5707 6608 5750 6640 5772 6658 C 5820 6697 5839 6698 5890 6664 z M 6451 6657 C 6475 6639 6502 6620 6510 6617 C 6555 6596 6615 6552 6615 6539 C 6615 6532 6595 6515 6570 6502 C 6545 6489 6497 6458 6462 6433 C 6397 6387 6381 6385 6344 6418 C 6334 6428 6298 6453 6264 6475 C 6230 6497 6194 6521 6184 6527 C 6166 6539 6166 6541 6190 6557 C 6203 6567 6250 6601 6295 6632 C 6339 6664 6382 6690 6391 6690 C 6400 6690 6427 6675 6451 6657 z M 8180 6618 C 8241 6578 8290 6542 8290 6537 C 8290 6533 8276 6521 8259 6512 C 8242 6503 8193 6472 8150 6444 C 8066 6388 8061 6388 8011 6437 C 7998 6450 7963 6474 7935 6490 C 7851 6538 7850 6543 7917 6583 C 7949 6603 7989 6632 8007 6648 C 8034 6673 8051 6684 8068 6689 C 8069 6690 8120 6658 8180 6618 z M 9194 6657 C 9211 6645 9227 6632 9230 6629 C 9233 6626 9263 6607 9297 6586 C 9332 6565 9357 6544 9354 6537 C 9352 6530 9329 6514 9305 6501 C 9280 6488 9236 6460 9208 6439 C 9180 6417 9149 6400 9141 6400 C 9132 6400 9109 6414 9090 6430 C 9071 6447 9032 6474 9004 6490 C 8921 6538 8921 6541 8994 6589 C 9030 6612 9071 6644 9087 6661 C 9119 6695 9141 6694 9194 6657 z M 8721 6615 C 8775 6579 8820 6545 8820 6539 C 8820 6534 8803 6519 8783 6507 C 8762 6495 8717 6466 8682 6443 C 8648 6419 8616 6400 8612 6400 C 8607 6400 8581 6417 8553 6438 C 8525 6458 8481 6487 8456 6502 C 8431 6517 8410 6535 8410 6542 C 8410 6549 8444 6577 8484 6603 C 8525 6629 8564 6658 8570 6665 C 8592 6691 8619 6682 8721 6615 z M 6798 6563 C 6803 6553 6810 6530 6813 6513 L 6819 6480 L 6788 6493 C 6771 6500 6751 6515 6743 6527 C 6731 6545 6731 6550 6745 6564 C 6766 6585 6787 6584 6798 6563 z M 7741 6570 C 7752 6564 7760 6549 7760 6535 C 7760 6514 7765 6510 7788 6510 C 7806 6510 7843 6492 7886 6462 C 7924 6435 7972 6405 7993 6395 C 8013 6386 8030 6374 8030 6370 C 8030 6366 8001 6344 7964 6320 C 7928 6297 7894 6269 7887 6259 C 7881 6249 7871 6240 7866 6240 C 7846 6240 7820 6274 7820 6300 C 7820 6315 7813 6333 7805 6340 C 7797 6347 7790 6360 7790 6370 C 7790 6380 7783 6393 7775 6400 C 7767 6407 7757 6434 7754 6462 C 7749 6502 7743 6513 7724 6521 C 7701 6529 7692 6559 7707 6573 C 7715 6582 7718 6582 7741 6570 z M 8430 6455 C 8455 6438 8494 6413 8518 6400 C 8566 6373 8569 6366 8538 6347 C 8525 6339 8480 6311 8437 6284 C 8394 6257 8343 6226 8325 6215 C 8307 6204 8257 6170 8214 6140 C 8035 6013 8046 6019 8014 6048 C 8003 6058 7973 6079 7947 6095 C 7861 6145 7850 6192 7916 6223 C 7936 6233 7979 6258 8012 6280 C 8044 6302 8081 6320 8092 6320 C 8103 6320 8129 6307 8149 6291 C 8210 6243 8280 6214 8280 6238 C 8280 6249 8238 6285 8200 6306 C 8158 6329 8130 6350 8130 6361 C 8130 6365 8148 6378 8171 6389 C 8193 6401 8241 6433 8277 6460 C 8350 6515 8346 6515 8430 6455 z M 8932 6476 C 8957 6457 9005 6427 9038 6409 C 9072 6391 9100 6373 9100 6369 C 9100 6365 9070 6343 9033 6320 C 8995 6298 8946 6265 8922 6247 C 8873 6211 8892 6205 8746 6303 C 8699 6336 8662 6365 8664 6368 C 8666 6372 8686 6384 8707 6395 C 8728 6406 8774 6436 8809 6462 C 8844 6489 8876 6510 8880 6510 C 8884 6510 8907 6495 8932 6476 z M 5642 6444 C 5687 6413 5735 6384 5747 6379 C 5779 6367 5777 6334 5743 6321 C 5714 6311 5610 6244 5408 6109 C 5346 6067 5174 5953 5025 5854 C 4877 5756 4731 5656 4702 5632 C 4673 5609 4644 5592 4638 5596 C 4627 5603 4630 5660 4651 5815 C 4668 5944 4664 5937 4733 5970 C 4801 6004 4808 6008 4895 6064 C 5179 6247 5394 6391 5470 6449 C 5506 6476 5541 6499 5548 6499 C 5555 6500 5597 6475 5642 6444 z M 6216 6445 C 6262 6415 6311 6385 6326 6380 L 6353 6369 L 6330 6345 C 6317 6331 6302 6320 6297 6320 C 6292 6320 6248 6293 6199 6260 C 6151 6227 6105 6200 6097 6200 C 6090 6200 6063 6219 6038 6243 C 6013 6266 5971 6296 5946 6308 C 5921 6321 5900 6333 5900 6335 C 5900 6337 5897 6345 5894 6353 C 5891 6363 5903 6375 5932 6390 C 5985 6417 6078 6479 6086 6491 C 6098 6511 6136 6497 6216 6445 z M 6776 6454 C 6830 6419 6852 6398 6865 6367 C 6885 6323 6887 6326 6809 6286 C 6784 6273 6744 6248 6720 6231 C 6696 6214 6673 6200 6668 6200 C 6663 6200 6633 6220 6601 6244 C 6569 6269 6524 6298 6501 6311 C 6476 6324 6460 6338 6462 6347 C 6466 6366 6658 6497 6685 6499 C 6696 6499 6737 6479 6776 6454 z M 8677 6293 C 8705 6272 8749 6243 8774 6228 C 8799 6213 8820 6196 8820 6190 C 8820 6184 8794 6163 8763 6143 C 8622 6054 8442 5936 8405 5909 C 8320 5846 8321 5847 8257 5895 C 8225 5919 8183 5946 8164 5955 C 8105 5983 8109 5988 8288 6106 C 8334 6135 8375 6160 8380 6160 C 8385 6160 8393 6166 8397 6173 C 8401 6179 8444 6211 8491 6243 C 8539 6274 8583 6307 8590 6315 C 8608 6337 8621 6334 8677 6293 z M 5921 6264 C 5966 6234 6016 6206 6032 6203 C 6078 6194 6063 6170 5970 6109 C 5923 6078 5662 5905 5390 5725 C 4715 5278 4733 5290 4680 5243 C 4603 5174 4603 5175 4610 5364 C 4616 5502 4626 5534 4665 5544 C 4676 5547 4708 5564 4735 5582 C 4851 5657 5443 6052 5453 6061 C 5460 6066 5515 6103 5575 6143 C 5722 6240 5810 6302 5816 6312 C 5825 6326 5837 6321 5921 6264 z M 6432 6307 C 6459 6280 6517 6241 6568 6215 C 6596 6200 6620 6184 6620 6179 C 6620 6166 6599 6151 6453 6055 C 6270 5936 5041 5112 4934 5038 C 4907 5019 4847 4978 4800 4946 C 4753 4913 4701 4874 4685 4859 C 4648 4824 4622 4822 4615 4853 C 4612 4865 4611 4933 4612 5005 L 4615 5135 L 4660 5159 C 4701 5181 4949 5341 5078 5429 C 5108 5449 5142 5472 5156 5480 C 5169 5488 5387 5635 5641 5805 C 5895 5976 6117 6124 6136 6135 C 6185 6164 6380 6302 6386 6311 C 6394 6324 6417 6322 6432 6307 z M 8946 6120 C 8975 6098 9017 6071 9038 6060 C 9071 6043 9099 6012 9088 6006 C 9028 5973 8790 5819 8656 5725 C 8613 5695 8569 5670 8559 5670 C 8549 5670 8539 5662 8535 5653 C 8532 5643 8490 5610 8443 5580 C 8395 5550 8333 5504 8304 5478 C 8276 5451 8245 5430 8236 5430 C 8221 5430 8180 5496 8180 5522 C 8180 5529 8166 5555 8150 5579 C 8110 5638 8112 5653 8162 5676 C 8185 5686 8229 5713 8260 5736 C 8290 5758 8322 5779 8331 5782 C 8342 5786 8372 5771 8415 5739 C 8477 5694 8520 5677 8520 5698 C 8520 5712 8478 5747 8433 5770 C 8407 5783 8390 5799 8390 5809 C 8390 5821 8420 5845 8473 5877 C 8518 5905 8629 5980 8720 6043 C 8811 6107 8887 6159 8889 6159 C 8891 6160 8917 6142 8946 6120 z M 7989 6031 C 8019 6008 8011 5970 7974 5970 C 7956 5970 7946 5978 7936 6003 C 7929 6020 7925 6038 7927 6043 C 7934 6056 7964 6050 7989 6031 z M 8117 5936 C 8138 5918 8178 5891 8205 5876 C 8288 5830 8289 5827 8231 5792 C 8203 5775 8162 5744 8140 5724 C 8101 5688 8099 5688 8085 5706 C 8076 5716 8067 5737 8064 5752 C 8060 5767 8051 5785 8044 5791 C 8036 5797 8030 5809 8030 5818 C 8030 5826 8024 5841 8016 5849 C 8008 5858 8000 5878 7998 5894 C 7995 5920 8001 5927 8035 5947 C 8057 5959 8076 5970 8077 5970 C 8079 5970 8097 5955 8117 5936 z M 4461 5383 C 4462 5367 4462 5115 4461 5103 C 4460 5096 4441 5081 4418 5069 C 4394 5057 4342 5023 4302 4993 C 4261 4963 4223 4941 4216 4943 C 4207 4947 4201 4987 4197 5080 C 4194 5153 4194 5218 4196 5225 C 4199 5232 4213 5243 4228 5250 C 4269 5268 4383 5346 4404 5369 C 4422 5389 4459 5398 4461 5383 z" stroke-linecap="round" />
</g>
		<g transform="matrix(0.13 0 0 -0.13 13.63 -452)"  >
<path style="stroke: none; stroke-width: 1; stroke-dasharray: none; stroke-linecap: butt; stroke-dashoffset: 0; stroke-linejoin: miter; stroke-miterlimit: 4; fill: rgb(0,0,0); fill-rule: nonzero; opacity: 1;" vector-effect="non-scaling-stroke"  transform=" translate(-6841.24, -11301.63)" d="M 6827 11310 C 6822 11290 6844 11262 6854 11278 C 6861 11289 6850 11330 6840 11330 C 6836 11330 6830 11321 6827 11310 z" stroke-linecap="round" />
</g>
		<g transform="matrix(0.13 0 0 -0.13 -71.2 -81.12)"  >
<path style="stroke: none; stroke-width: 1; stroke-dasharray: none; stroke-linecap: butt; stroke-dashoffset: 0; stroke-linejoin: miter; stroke-miterlimit: 4; fill: rgb(0,0,0); fill-rule: nonzero; opacity: 1;" vector-effect="non-scaling-stroke"  transform=" translate(-6205, -8520)" d="M 6190 8520 C 6190 8515 6197 8510 6205 8510 C 6213 8510 6220 8515 6220 8520 C 6220 8526 6213 8530 6205 8530 C 6197 8530 6190 8526 6190 8520 z" stroke-linecap="round" />
</g>
		<g transform="matrix(0.13 0 0 -0.13 -77.86 -77.78)"  >
<path style="stroke: none; stroke-width: 1; stroke-dasharray: none; stroke-linecap: butt; stroke-dashoffset: 0; stroke-linejoin: miter; stroke-miterlimit: 4; fill: rgb(0,0,0); fill-rule: nonzero; opacity: 1;" vector-effect="non-scaling-stroke"  transform=" translate(-6155.01, -8494.99)" d="M 6147 8503 C 6135 8492 6139 8480 6155 8480 C 6163 8480 6170 8487 6170 8495 C 6170 8511 6158 8515 6147 8503 z" stroke-linecap="round" />
</g>
		<g transform="matrix(0.13 0 0 -0.13 -218.53 -17.78)"  >
<path style="stroke: none; stroke-width: 1; stroke-dasharray: none; stroke-linecap: butt; stroke-dashoffset: 0; stroke-linejoin: miter; stroke-miterlimit: 4; fill: rgb(0,0,0); fill-rule: nonzero; opacity: 1;" vector-effect="non-scaling-stroke"  transform=" translate(-5100, -8045)" d="M 5090 8045 C 5090 8037 5095 8030 5100 8030 C 5106 8030 5110 8037 5110 8045 C 5110 8053 5106 8060 5100 8060 C 5095 8060 5090 8053 5090 8045 z" stroke-linecap="round" />
</g>
		<g transform="matrix(0.13 0 0 -0.13 -239.2 -74.81)"  >
<path style="stroke: none; stroke-width: 1; stroke-dasharray: none; stroke-linecap: butt; stroke-dashoffset: 0; stroke-linejoin: miter; stroke-miterlimit: 4; fill: rgb(0,0,0); fill-rule: nonzero; opacity: 1;" vector-effect="non-scaling-stroke"  transform=" translate(-4945, -8472.72)" d="M 4800 8550 C 4800 8539 4856 8480 4867 8480 C 4871 8480 4888 8467 4905 8452 C 4940 8419 5017 8383 5028 8394 C 5032 8398 5027 8408 5016 8415 C 4995 8431 5001 8480 5025 8480 C 5039 8480 5090 8522 5090 8534 C 5090 8547 5059 8539 5054 8525 C 5050 8517 5041 8510 5034 8510 C 5026 8510 5017 8504 5014 8496 C 5004 8469 4951 8466 4919 8489 C 4904 8501 4886 8510 4881 8510 C 4876 8510 4865 8516 4858 8523 C 4834 8544 4800 8561 4800 8550 z" stroke-linecap="round" />
</g>
		<g transform="matrix(0.13 0 0 -0.13 156.19 73.6)"  >
<path style="stroke: none; stroke-width: 1; stroke-dasharray: none; stroke-linecap: butt; stroke-dashoffset: 0; stroke-linejoin: miter; stroke-miterlimit: 4; fill: rgb(0,0,0); fill-rule: nonzero; opacity: 1;" vector-effect="non-scaling-stroke"  transform=" translate(-7910.4, -7359.65)" d="M 7898 7367 C 7848 7334 7839 7320 7865 7320 C 7889 7320 7970 7376 7970 7392 C 7970 7407 7944 7399 7898 7367 z" stroke-linecap="round" />
</g>
		<g transform="matrix(0.13 0 0 -0.13 336.12 102.19)"  >
<path style="stroke: none; stroke-width: 1; stroke-dasharray: none; stroke-linecap: butt; stroke-dashoffset: 0; stroke-linejoin: miter; stroke-miterlimit: 4; fill: rgb(0,0,0); fill-rule: nonzero; opacity: 1;" vector-effect="non-scaling-stroke"  transform=" translate(-9259.86, -7145.19)" d="M 9240 7145 C 9240 7128 9242 7127 9264 7136 C 9287 7145 9284 7160 9260 7160 C 9249 7160 9240 7153 9240 7145 z" stroke-linecap="round" />
</g>
		<g transform="matrix(0.13 0 0 -0.13 344.14 269.4)"  >
<path style="stroke: none; stroke-width: 1; stroke-dasharray: none; stroke-linecap: butt; stroke-dashoffset: 0; stroke-linejoin: miter; stroke-miterlimit: 4; fill: rgb(0,0,0); fill-rule: nonzero; opacity: 1;" vector-effect="non-scaling-stroke"  transform=" translate(-9320, -5891.09)" d="M 9210 5957 C 9211 5937 9430 5801 9430 5820 C 9430 5830 9394 5870 9385 5870 C 9382 5870 9356 5887 9327 5909 C 9268 5952 9210 5977 9210 5957 z" stroke-linecap="round" />
</g>
</g>
</g>
<g transform="matrix(0.07 0 0 -0.07 208.16 939.59)"  >
<path style="stroke: none; stroke-width: 1; stroke-dasharray: none; stroke-linecap: butt; stroke-dashoffset: 0; stroke-linejoin: miter; stroke-miterlimit: 4; fill: rgb(0,0,0); fill-rule: nonzero; opacity: 1;" vector-effect="non-scaling-stroke"  transform=" translate(-2063.76, -8011.53)" d="M 1935 8540 C 1754 8533 1739 8527 1628 8412 C 1539 8321 1522 8290 1506 8196 C 1492 8111 1500 7615 1515 7588 C 1521 7578 1545 7550 1569 7525 C 1612 7480 1612 7480 1679 7480 C 1717 7480 1761 7485 1778 7491 C 1821 7506 1880 7580 1880 7619 C 1880 7662 1896 7692 1934 7718 C 1962 7737 1980 7740 2066 7741 C 2120 7741 2179 7737 2195 7733 C 2225 7724 2236 7702 2254 7619 C 2261 7585 2299 7532 2333 7506 C 2356 7489 2376 7485 2439 7485 C 2526 7485 2551 7496 2597 7556 L 2625 7593 L 2628 7918 C 2630 8196 2629 8246 2615 8266 C 2607 8279 2600 8295 2600 8302 C 2600 8315 2592 8324 2491 8425 C 2405 8511 2375 8532 2327 8536 C 2234 8544 2077 8545 1935 8540 z M 2350 8443 C 2384 8421 2529 8279 2541 8257 C 2547 8247 2551 8109 2550 7912 C 2550 7528 2556 7550 2441 7550 C 2338 7551 2330 7561 2330 7702 C 2330 7764 2326 7820 2322 7826 C 2317 7834 2283 7835 2198 7827 C 2122 7821 2039 7821 1958 7828 C 1885 7833 1828 7834 1818 7828 C 1803 7821 1801 7805 1803 7704 C 1805 7592 1804 7589 1780 7570 C 1761 7555 1739 7550 1689 7550 C 1628 7550 1622 7552 1602 7580 C 1581 7609 1580 7616 1580 7913 C 1580 8162 1583 8222 1595 8246 C 1603 8262 1652 8317 1703 8368 L 1797 8460 L 2061 8460 C 2291 8460 2329 8458 2350 8443 z" stroke-linecap="round" />
</g>
<g transform="matrix(0.07 0 0 -0.07 208.28 930.82)"  >
<path style="stroke: none; stroke-width: 1; stroke-dasharray: none; stroke-linecap: butt; stroke-dashoffset: 0; stroke-linejoin: miter; stroke-miterlimit: 4; fill: rgb(0,0,0); fill-rule: nonzero; opacity: 1;" vector-effect="non-scaling-stroke"  transform=" translate(-2065.44, -8135)" d="M 1831 8208 C 1800 8178 1799 8174 1802 8106 L 1805 8035 L 2068 8032 L 2330 8030 L 2330 8109 C 2330 8187 2330 8188 2296 8214 L 2261 8240 L 2063 8240 L 1864 8240 L 1831 8208 z" stroke-linecap="round" />
</g>
<g transform="matrix(0.07 0 0 -0.07 297.81 939.73)"  >
<path style="stroke: none; stroke-width: 1; stroke-dasharray: none; stroke-linecap: butt; stroke-dashoffset: 0; stroke-linejoin: miter; stroke-miterlimit: 4; fill: rgb(0,0,0); fill-rule: nonzero; opacity: 1;" vector-effect="non-scaling-stroke"  transform=" translate(-3326.43, -8009.54)" d="M 3071 8540 C 3047 8536 3022 8526 3015 8517 C 3008 8507 2997 8500 2989 8500 C 2974 8500 2862 8388 2817 8329 C 2769 8265 2761 8215 2763 7995 L 2765 7795 L 2798 7727 C 2820 7682 2841 7653 2860 7642 C 2877 7633 2890 7621 2890 7615 C 2890 7598 2981 7520 3031 7494 C 3079 7470 3084 7470 3337 7470 L 3595 7470 L 3655 7499 C 3726 7533 3844 7656 3872 7723 C 3897 7784 3896 7900 3870 7950 C 3845 7999 3845 8006 3871 8065 C 3889 8105 3892 8127 3888 8201 C 3884 8282 3881 8293 3850 8337 C 3816 8385 3735 8467 3683 8506 C 3634 8543 3574 8550 3338 8549 C 3215 8548 3095 8544 3071 8540 z M 3713 8365 C 3812 8268 3810 8271 3825 8168 C 3827 8149 3822 8120 3812 8100 C 3795 8065 3795 8065 3719 8062 C 3620 8058 3597 8074 3598 8144 C 3599 8182 3594 8197 3575 8216 C 3551 8240 3549 8240 3348 8240 C 3236 8240 3141 8236 3135 8232 C 3130 8228 3116 8215 3106 8202 C 3088 8182 3087 8164 3089 8007 L 3090 7835 L 3123 7806 L 3156 7777 L 3335 7774 C 3487 7772 3520 7774 3547 7788 C 3582 7805 3606 7849 3596 7876 C 3590 7892 3605 7930 3624 7942 C 3630 7946 3672 7950 3717 7950 C 3797 7950 3799 7949 3813 7922 C 3828 7891 3827 7810 3812 7769 C 3806 7756 3759 7701 3707 7647 L 3611 7550 L 3340 7550 L 3069 7550 L 2978 7638 C 2834 7777 2840 7761 2840 8010 C 2840 8258 2835 8245 2973 8378 L 3059 8460 L 3339 8460 L 3618 8460 L 3713 8365 z M 3529 8075 C 3552 8042 3570 8008 3570 7999 C 3570 7991 3557 7971 3541 7956 C 3525 7940 3506 7915 3500 7900 C 3492 7880 3480 7871 3455 7867 C 3407 7859 3242 7868 3220 7880 C 3190 7896 3178 7952 3185 8035 C 3190 8087 3198 8114 3210 8125 C 3235 8147 3350 8158 3427 8145 C 3488 8135 3489 8134 3529 8075 z" stroke-linecap="round" />
</g>
<g transform="matrix(0.07 0 0 -0.07 564.65 939.98)"  >
<path style="stroke: none; stroke-width: 1; stroke-dasharray: none; stroke-linecap: butt; stroke-dashoffset: 0; stroke-linejoin: miter; stroke-miterlimit: 4; fill: rgb(0,0,0); fill-rule: nonzero; opacity: 1;" vector-effect="non-scaling-stroke"  transform=" translate(-7085, -8005.96)" d="M 6915 8540 C 6799 8534 6793 8533 6743 8500 C 6715 8481 6691 8460 6691 8453 C 6690 8447 6677 8434 6661 8423 C 6629 8403 6570 8334 6570 8316 C 6570 8310 6561 8288 6550 8267 C 6532 8233 6530 8211 6530 8008 C 6531 7748 6537 7725 6628 7625 C 6679 7568 6698 7553 6784 7500 L 6825 7475 L 7165 7472 L 7505 7469 L 7554 7501 C 7614 7541 7639 7592 7640 7672 C 7640 7744 7630 7769 7579 7825 L 7538 7870 L 7556 7936 C 7571 7994 7572 8012 7562 8071 C 7546 8163 7544 8154 7592 8206 C 7631 8248 7635 8257 7638 8315 C 7640 8350 7637 8395 7630 8417 C 7614 8467 7554 8529 7516 8535 C 7466 8542 7044 8546 6915 8540 z M 7544 8444 C 7556 8433 7560 8408 7560 8347 C 7560 8302 7555 8258 7550 8250 C 7542 8237 7497 8235 7222 8239 L 6903 8242 L 6873 8205 C 6843 8169 6839 8139 6864 8123 C 6870 8118 7001 8118 7155 8121 C 7496 8128 7480 8133 7480 8022 C 7480 7898 7503 7906 7164 7909 C 7005 7910 6867 7908 6858 7905 C 6848 7901 6840 7891 6840 7883 C 6840 7865 6869 7807 6884 7798 C 6890 7794 7035 7790 7205 7790 C 7583 7790 7560 7798 7560 7671 C 7560 7542 7585 7550 7178 7550 C 6934 7551 6839 7554 6823 7563 C 6811 7570 6760 7615 6711 7663 C 6646 7727 6619 7760 6615 7783 C 6611 7801 6610 7915 6612 8038 L 6615 8260 L 6685 8331 C 6724 8370 6773 8414 6794 8431 L 6833 8460 L 7181 8460 C 7484 8460 7531 8458 7544 8444 z" stroke-linecap="round" />
</g>
<g transform="matrix(0.07 0 0 -0.07 783.33 939.86)"  >
<path style="stroke: none; stroke-width: 1; stroke-dasharray: none; stroke-linecap: butt; stroke-dashoffset: 0; stroke-linejoin: miter; stroke-miterlimit: 4; fill: rgb(0,0,0); fill-rule: nonzero; opacity: 1;" vector-effect="non-scaling-stroke"  transform=" translate(-10164.99, -8007.7)" d="M 9943 8538 C 9864 8529 9832 8512 9747 8430 C 9663 8351 9631 8303 9614 8231 C 9596 8156 9595 7685 9613 7618 C 9626 7568 9685 7495 9725 7480 C 9755 7469 9875 7484 9905 7504 C 9947 7532 9981 7586 9989 7640 C 10001 7718 10023 7734 10123 7741 C 10211 7747 10320 7734 10332 7716 C 10336 7710 10340 7690 10340 7671 C 10340 7594 10425 7488 10495 7474 C 10541 7466 10638 7494 10671 7526 C 10729 7581 10730 7590 10730 7927 L 10730 8237 L 10700 8296 C 10671 8355 10604 8426 10511 8500 C 10470 8531 10459 8535 10396 8537 C 10199 8544 9998 8545 9943 8538 z M 10435 8450 C 10463 8439 10625 8288 10641 8257 C 10647 8247 10651 8105 10650 7912 C 10650 7592 10649 7585 10629 7568 C 10601 7544 10490 7543 10455 7566 C 10431 7582 10430 7586 10430 7699 C 10430 7763 10426 7820 10422 7826 C 10417 7834 10381 7835 10291 7828 C 10213 7822 10125 7822 10051 7828 C 9987 7833 9928 7834 9920 7829 C 9908 7823 9905 7798 9905 7705 C 9905 7593 9904 7588 9880 7570 C 9861 7555 9839 7550 9789 7550 C 9728 7550 9722 7552 9701 7581 C 9679 7611 9678 7614 9680 7915 C 9680 8144 9684 8225 9694 8244 C 9711 8277 9869 8440 9895 8450 C 9924 8462 10403 8462 10435 8450 z" stroke-linecap="round" />
</g>
<g transform="matrix(0.07 0 0 -0.07 783.36 930.82)"  >
<path style="stroke: none; stroke-width: 1; stroke-dasharray: none; stroke-linecap: butt; stroke-dashoffset: 0; stroke-linejoin: miter; stroke-miterlimit: 4; fill: rgb(0,0,0); fill-rule: nonzero; opacity: 1;" vector-effect="non-scaling-stroke"  transform=" translate(-10165.44, -8135)" d="M 9931 8208 C 9900 8178 9899 8174 9902 8106 L 9905 8035 L 10168 8032 L 10430 8030 L 10430 8109 C 10430 8187 10430 8188 10396 8214 L 10361 8240 L 10163 8240 L 9964 8240 L 9931 8208 z" stroke-linecap="round" />
</g>
<g transform="matrix(0.07 0 0 -0.07 117.16 939.87)"  >
<path style="stroke: none; stroke-width: 1; stroke-dasharray: none; stroke-linecap: butt; stroke-dashoffset: 0; stroke-linejoin: miter; stroke-miterlimit: 4; fill: rgb(0,0,0); fill-rule: nonzero; opacity: 1;" vector-effect="non-scaling-stroke"  transform=" translate(-781.98, -8007.49)" d="M 263 8485 C 223 8442 210 8420 205 8387 C 202 8364 200 8178 202 7974 L 205 7603 L 233 7567 C 248 7547 277 7518 297 7503 C 371 7447 512 7479 566 7563 C 576 7580 592 7606 601 7620 C 615 7642 625 7646 694 7651 C 777 7658 881 7641 888 7620 C 898 7590 1001 7501 1042 7488 C 1140 7454 1263 7498 1297 7578 C 1313 7618 1311 7638 1280 7725 C 1258 7789 1257 7787 1305 7865 C 1346 7933 1352 7952 1360 8049 C 1368 8142 1358 8256 1338 8294 C 1332 8304 1312 8333 1293 8358 C 1260 8402 1233 8425 1127 8502 L 1075 8540 L 695 8540 L 316 8540 L 263 8485 z M 1134 8395 C 1175 8359 1225 8311 1244 8288 L 1280 8246 L 1280 8102 L 1280 7958 L 1205 7883 C 1164 7842 1130 7805 1130 7801 C 1130 7796 1137 7787 1145 7780 C 1153 7773 1160 7762 1160 7756 C 1160 7750 1174 7730 1190 7712 C 1207 7694 1220 7675 1220 7671 C 1220 7666 1227 7657 1235 7650 C 1258 7631 1253 7594 1224 7571 C 1202 7554 1183 7550 1126 7550 C 1045 7551 1025 7562 988 7630 C 975 7653 956 7688 945 7708 L 925 7745 L 722 7750 C 604 7753 515 7751 510 7746 C 505 7741 503 7704 507 7665 C 512 7599 511 7592 489 7572 C 470 7554 454 7550 400 7550 C 342 7550 330 7553 310 7575 L 287 7599 L 287 8010 C 288 8389 289 8422 305 8440 C 322 8459 338 8460 691 8460 L 1059 8460 L 1134 8395 z" stroke-linecap="round" />
</g>
<g transform="matrix(0.07 0 0 -0.07 116.96 932.95)"  >
<path style="stroke: none; stroke-width: 1; stroke-dasharray: none; stroke-linecap: butt; stroke-dashoffset: 0; stroke-linejoin: miter; stroke-miterlimit: 4; fill: rgb(0,0,0); fill-rule: nonzero; opacity: 1;" vector-effect="non-scaling-stroke"  transform=" translate(-779.25, -8105)" d="M 507 8233 C 505 8228 504 8169 504 8100 L 505 7975 L 750 7972 L 994 7970 L 1025 8004 C 1053 8036 1056 8045 1054 8097 C 1052 8164 1045 8186 1016 8217 C 995 8239 990 8240 753 8240 C 620 8240 509 8237 507 8233 z M 885 8130 C 907 8126 916 8118 918 8101 C 920 8088 916 8074 910 8070 C 895 8061 649 8057 626 8066 C 601 8076 607 8095 646 8125 C 677 8149 688 8152 728 8147 C 754 8144 784 8145 795 8149 C 806 8154 824 8153 835 8147 C 846 8141 869 8134 885 8130 z" stroke-linecap="round" />
</g>
<g transform="matrix(0.07 0 0 -0.07 388.26 939.69)"  >
<path style="stroke: none; stroke-width: 1; stroke-dasharray: none; stroke-linecap: butt; stroke-dashoffset: 0; stroke-linejoin: miter; stroke-miterlimit: 4; fill: rgb(0,0,0); fill-rule: nonzero; opacity: 1;" vector-effect="non-scaling-stroke"  transform=" translate(-4600.48, -8010)" d="M 4137 8522 C 4121 8511 4095 8486 4078 8466 C 4034 8413 4028 8340 4032 7950 C 4035 7592 4035 7595 4089 7537 C 4131 7491 4162 7480 4249 7480 C 4328 7480 4329 7480 4366 7518 C 4414 7566 4440 7609 4440 7639 C 4440 7661 4455 7726 4468 7760 C 4473 7774 4476 7783 4479 7802 C 4479 7806 4492 7805 4506 7800 C 4525 7793 4537 7793 4546 7801 C 4555 7809 4576 7810 4608 7805 C 4634 7801 4672 7798 4693 7799 C 4718 7799 4730 7795 4730 7786 C 4730 7779 4736 7767 4744 7761 C 4751 7755 4763 7713 4770 7669 C 4782 7594 4786 7585 4830 7537 L 4878 7485 L 4959 7482 C 5034 7478 5044 7480 5080 7504 C 5102 7518 5132 7549 5146 7571 C 5171 7612 5172 7615 5168 7764 C 5165 7912 5164 7916 5133 7979 C 5115 8014 5100 8050 5100 8059 C 5101 8084 5137 8188 5155 8212 C 5166 8228 5170 8259 5170 8321 C 5170 8403 5168 8411 5137 8455 C 5094 8519 5052 8540 4972 8540 C 4866 8540 4802 8488 4770 8375 C 4745 8286 4715 8244 4661 8220 C 4624 8203 4606 8201 4541 8207 L 4465 8215 L 4453 8300 C 4438 8407 4422 8445 4370 8495 C 4330 8534 4328 8535 4247 8538 C 4179 8540 4160 8538 4137 8522 z M 4328 8452 C 4353 8436 4360 8376 4354 8248 C 4348 8142 4349 8120 4361 8119 C 4369 8119 4458 8118 4560 8119 C 4740 8120 4745 8120 4762 8142 C 4772 8155 4783 8174 4786 8185 C 4790 8196 4796 8207 4799 8210 C 4825 8229 4853 8297 4852 8339 C 4852 8364 4859 8402 4867 8423 L 4883 8460 L 4971 8460 C 5083 8460 5090 8452 5090 8334 C 5090 8255 5089 8250 5039 8161 C 5011 8111 4984 8068 4979 8065 C 4959 8052 4972 8022 5010 7994 C 5083 7941 5090 7919 5090 7748 C 5090 7606 5089 7595 5068 7573 C 5050 7554 5036 7550 4983 7550 C 4906 7550 4886 7559 4864 7606 C 4851 7633 4849 7657 4853 7712 C 4860 7788 4848 7831 4814 7862 C 4797 7877 4767 7879 4590 7880 C 4477 7881 4376 7881 4366 7881 C 4348 7880 4348 7873 4354 7763 C 4364 7577 4350 7551 4234 7550 C 4173 7550 4161 7553 4141 7574 C 4119 7597 4119 7597 4120 8011 C 4120 8498 4110 8460 4239 8460 C 4281 8460 4321 8456 4328 8452 z" stroke-linecap="round" />
</g>
<g transform="matrix(0.07 0 0 -0.07 476.77 940.02)"  >
<path style="stroke: none; stroke-width: 1; stroke-dasharray: none; stroke-linecap: butt; stroke-dashoffset: 0; stroke-linejoin: miter; stroke-miterlimit: 4; fill: rgb(0,0,0); fill-rule: nonzero; opacity: 1;" vector-effect="non-scaling-stroke"  transform=" translate(-5847.19, -8005.36)" d="M 5412 8523 C 5394 8514 5362 8487 5342 8462 L 5305 8417 L 5305 8106 L 5305 7795 L 5334 7737 C 5369 7664 5499 7535 5573 7500 C 5624 7475 5628 7475 5932 7472 C 6220 7469 6241 7470 6277 7489 C 6330 7516 6370 7561 6381 7606 C 6394 7666 6392 7728 6374 7766 C 6356 7805 6300 7857 6262 7871 C 6248 7877 6148 7881 6040 7881 C 5824 7880 5746 7891 5728 7924 C 5718 7942 5714 8041 5711 8356 C 5710 8417 5685 8458 5622 8507 C 5583 8537 5572 8540 5512 8540 C 5471 8540 5432 8533 5412 8523 z M 5610 8428 C 5629 8397 5630 8379 5629 8124 C 5628 7854 5628 7852 5651 7821 L 5674 7789 L 5977 7790 L 6281 7792 L 6300 7768 C 6315 7750 6319 7729 6320 7676 C 6320 7614 6317 7603 6293 7578 L 6266 7550 L 5948 7550 C 5663 7550 5626 7552 5603 7567 C 5572 7587 5426 7734 5405 7766 C 5393 7784 5390 7847 5390 8103 C 5388 8482 5381 8460 5507 8460 C 5590 8460 5590 8460 5610 8428 z" stroke-linecap="round" />
</g>
<g transform="matrix(0.07 0 0 -0.07 653.7 939.68)"  >
<path style="stroke: none; stroke-width: 1; stroke-dasharray: none; stroke-linecap: butt; stroke-dashoffset: 0; stroke-linejoin: miter; stroke-miterlimit: 4; fill: rgb(0,0,0); fill-rule: nonzero; opacity: 1;" vector-effect="non-scaling-stroke"  transform=" translate(-8339.22, -8010.2)" d="M 7874 8511 C 7853 8496 7828 8474 7819 8464 C 7764 8400 7753 8205 7795 8062 C 7808 8016 7828 7971 7838 7962 C 7848 7953 7874 7923 7896 7895 C 7948 7829 8025 7751 8080 7709 C 8140 7664 8158 7642 8170 7600 C 8175 7580 8197 7548 8218 7527 C 8249 7497 8266 7488 8307 7483 C 8427 7469 8512 7512 8540 7602 C 8553 7645 8604 7710 8624 7710 C 8637 7710 8760 7830 8811 7891 C 8831 7915 8860 7958 8876 7985 C 8905 8035 8905 8037 8908 8220 C 8912 8432 8907 8450 8832 8507 C 8792 8537 8782 8540 8718 8540 C 8648 8540 8646 8539 8608 8499 C 8542 8430 8535 8414 8534 8326 C 8533 8222 8523 8175 8493 8123 C 8473 8089 8462 8080 8441 8080 C 8427 8080 8400 8076 8381 8070 C 8345 8060 8268 8073 8242 8093 C 8208 8120 8190 8181 8182 8293 C 8174 8404 8172 8409 8137 8458 C 8091 8519 8050 8540 7972 8540 C 7923 8540 7907 8535 7874 8511 z M 8074 8434 C 8090 8411 8092 8390 8091 8260 L 8089 8113 L 8157 8042 L 8225 7972 L 8358 7974 C 8490 7975 8492 7975 8511 8001 C 8521 8015 8552 8051 8580 8080 L 8631 8134 L 8624 8280 C 8616 8461 8615 8460 8730 8460 C 8800 8460 8811 8458 8820 8439 C 8833 8416 8834 8056 8822 8034 C 8818 8027 8776 7980 8728 7928 C 8680 7877 8629 7822 8615 7805 C 8593 7778 8585 7775 8538 7777 C 8508 7778 8483 7775 8479 7768 C 8475 7762 8474 7724 8477 7683 C 8483 7612 8482 7608 8455 7580 C 8429 7552 8421 7550 8358 7550 C 8312 7550 8281 7555 8265 7566 C 8241 7582 8240 7587 8240 7683 L 8240 7783 L 8183 7776 L 8127 7769 L 8043 7857 C 7855 8053 7870 8019 7870 8241 C 7870 8464 7868 8460 7985 8460 C 8049 8459 8057 8457 8074 8434 z" stroke-linecap="round" />
</g>
<g transform="matrix(0.07 0 0 -0.07 873.49 939.37)"  >
<path style="stroke: none; stroke-width: 1; stroke-dasharray: none; stroke-linecap: butt; stroke-dashoffset: 0; stroke-linejoin: miter; stroke-miterlimit: 4; fill: rgb(0,0,0); fill-rule: nonzero; opacity: 1;" vector-effect="non-scaling-stroke"  transform=" translate(-11435, -8014.52)" d="M 10975 8525 C 10930 8500 10909 8479 10889 8435 C 10872 8398 10870 8363 10870 8015 C 10870 7593 10871 7589 10938 7526 C 10966 7500 10978 7496 11048 7492 C 11120 7488 11130 7490 11168 7514 C 11191 7528 11210 7545 11210 7550 C 11210 7555 11224 7567 11241 7575 C 11258 7584 11269 7597 11267 7604 C 11260 7623 11380 7638 11555 7640 C 11736 7642 11763 7651 11854 7742 C 11981 7871 12000 7916 12000 8097 C 12000 8266 11986 8302 11877 8412 C 11829 8460 11784 8500 11778 8500 C 11772 8500 11758 8508 11747 8518 C 11730 8533 11694 8535 11366 8538 C 11052 8540 11001 8538 10975 8525 z M 11702 8451 C 11744 8435 11900 8276 11910 8239 C 11923 8196 11923 7969 11911 7938 C 11901 7914 11776 7781 11725 7742 C 11695 7719 11694 7718 11443 7721 C 11304 7722 11187 7721 11183 7717 C 11180 7713 11178 7683 11179 7651 C 11181 7598 11179 7590 11158 7579 C 11145 7572 11102 7567 11057 7568 C 10933 7569 10941 7539 10940 8008 C 10940 8390 10941 8403 10961 8431 L 10981 8460 L 11330 8460 C 11522 8460 11689 8456 11702 8451 z" stroke-linecap="round" />
</g>
<g transform="matrix(0.07 0 0 -0.07 873.37 934.01)"  >
<path style="stroke: none; stroke-width: 1; stroke-dasharray: none; stroke-linecap: butt; stroke-dashoffset: 0; stroke-linejoin: miter; stroke-miterlimit: 4; fill: rgb(0,0,0); fill-rule: nonzero; opacity: 1;" vector-effect="non-scaling-stroke"  transform=" translate(-11433.25, -8090)" d="M 11178 8233 C 11176 8228 11176 8161 11178 8083 L 11181 7940 L 11405 7940 L 11629 7940 L 11659 7973 C 11689 8004 11690 8009 11690 8092 C 11690 8175 11689 8181 11660 8210 L 11631 8240 L 11406 8240 C 11282 8240 11180 8237 11178 8233 z M 11558 8139 C 11576 8132 11580 8123 11580 8091 C 11580 8053 11579 8052 11543 8046 C 11481 8037 11378 8036 11333 8044 C 11303 8049 11290 8057 11286 8073 C 11276 8112 11279 8120 11313 8134 C 11348 8150 11517 8153 11558 8139 z" stroke-linecap="round" />
</g>
<g transform="matrix(0.07 0 0 -0.07 963.68 939.39)"  >
<path style="stroke: none; stroke-width: 1; stroke-dasharray: none; stroke-linecap: butt; stroke-dashoffset: 0; stroke-linejoin: miter; stroke-miterlimit: 4; fill: rgb(0,0,0); fill-rule: nonzero; opacity: 1;" vector-effect="non-scaling-stroke"  transform=" translate(-12705.24, -8014.26)" d="M 12203 8487 C 12161 8446 12146 8425 12141 8395 C 12135 8361 12135 8134 12139 7701 L 12140 7597 L 12193 7543 C 12241 7496 12252 7490 12291 7489 C 12416 7486 12434 7494 12538 7603 L 12564 7630 L 12725 7630 C 12922 7630 12987 7641 13054 7685 C 13113 7724 13160 7765 13160 7778 C 13160 7782 13171 7796 13184 7807 C 13197 7819 13223 7859 13241 7896 C 13275 7964 13275 7966 13274 8095 C 13273 8215 13271 8230 13246 8282 C 13210 8355 13112 8458 13033 8504 L 12972 8540 L 12615 8540 L 12258 8540 L 12203 8487 z M 12985 8441 C 13039 8408 13150 8298 13170 8259 C 13187 8227 13190 8200 13190 8086 C 13190 7924 13193 7929 13061 7806 L 12966 7718 L 12706 7721 L 12445 7723 L 12444 7669 C 12444 7639 12443 7608 12442 7599 C 12439 7574 12397 7561 12333 7566 C 12249 7573 12233 7578 12226 7596 C 12221 7608 12217 8242 12220 8408 C 12220 8414 12229 8429 12240 8440 C 12259 8459 12273 8460 12608 8460 C 12929 8460 12957 8459 12985 8441 z" stroke-linecap="round" />
</g>
<g transform="matrix(0.07 0 0 -0.07 963.25 934.01)"  >
<path style="stroke: none; stroke-width: 1; stroke-dasharray: none; stroke-linecap: butt; stroke-dashoffset: 0; stroke-linejoin: miter; stroke-miterlimit: 4; fill: rgb(0,0,0); fill-rule: nonzero; opacity: 1;" vector-effect="non-scaling-stroke"  transform=" translate(-12699.27, -8090)" d="M 12442 8093 L 12445 7945 L 12670 7943 L 12896 7940 L 12923 7965 C 12957 7997 12963 8022 12958 8115 C 12955 8183 12952 8193 12926 8215 L 12897 8240 L 12668 8240 L 12439 8240 L 12442 8093 z M 12811 8134 C 12837 8121 12841 8114 12838 8082 L 12835 8045 L 12708 8042 C 12583 8039 12581 8040 12565 8064 C 12547 8091 12556 8121 12588 8139 C 12616 8156 12776 8152 12811 8134 z" stroke-linecap="round" />
</g>
<g transform="matrix(0.07 0 0 -0.07 718.88 963.18)"  >
<path style="stroke: none; stroke-width: 1; stroke-dasharray: none; stroke-linecap: butt; stroke-dashoffset: 0; stroke-linejoin: miter; stroke-miterlimit: 4; fill: rgb(0,0,0); fill-rule: nonzero; opacity: 1;" vector-effect="non-scaling-stroke"  transform=" translate(-9257.25, -7679.17)" d="M 9203 7869 C 9185 7864 9150 7836 9121 7805 C 9041 7716 9039 7646 9117 7560 C 9173 7497 9205 7480 9266 7480 C 9347 7480 9435 7559 9451 7645 C 9463 7711 9447 7757 9393 7812 C 9331 7875 9279 7891 9203 7869 z M 9331 7783 C 9339 7777 9356 7751 9370 7726 L 9395 7680 L 9371 7634 C 9323 7545 9254 7523 9192 7579 C 9175 7596 9160 7614 9160 7620 C 9160 7626 9153 7638 9145 7646 C 9137 7655 9130 7670 9130 7679 C 9130 7689 9137 7703 9145 7710 C 9153 7717 9160 7728 9160 7736 C 9160 7743 9171 7760 9184 7773 C 9205 7794 9217 7797 9263 7796 C 9293 7795 9324 7789 9331 7783 z" stroke-linecap="round" />
</g>
</svg>