<?xml version="1.0" standalone="no"?>
<!DOCTYPE svg PUBLIC "-//W3C//DTD SVG 20010904//EN"
 "http://www.w3.org/TR/2001/REC-SVG-20010904/DTD/svg10.dtd">
<svg version="1.0" xmlns="http://www.w3.org/2000/svg"
 width="582.000000pt" height="511.000000pt" viewBox="0 0 582.000000 511.000000"
 preserveAspectRatio="xMidYMid meet">

<g transform="translate(0.000000,511.000000) scale(0.100000,-0.100000)"
fill="#000000" stroke="none">
<path d="M5645 5076 c-148 -82 -448 -273 -945 -601 -471 -311 -793 -521 -820
-535 l-25 -12 20 20 c11 11 153 111 315 223 363 249 559 391 597 431 15 17 21
27 13 23 -8 -5 -239 -159 -513 -343 l-498 -334 20 -31 c11 -18 26 -36 33 -41
10 -6 122 64 373 232 198 132 615 409 928 615 486 322 581 388 565 387 -2 0
-30 -15 -63 -34z"/>
<path d="M4795 4464 c-506 -338 -924 -619 -929 -624 -6 -6 3 -40 21 -87 95
-241 55 -508 -108 -726 -82 -109 -179 -178 -345 -243 -75 -30 -92 -40 -82 -50
11 -10 154 -101 245 -156 32 -19 32 -19 72 4 23 13 41 25 41 28 -1 3 -39 32
-85 64 -97 67 -131 100 -75 71 50 -26 223 -133 336 -209 83 -56 100 -63 118
-54 20 11 20 11 1 25 -36 26 -259 166 -343 215 -95 57 -95 52 3 123 117 83
218 220 278 376 31 82 32 88 32 244 0 149 -2 166 -29 252 -16 50 -26 98 -23
105 2 8 245 175 538 373 814 547 1199 814 1243 864 11 11 17 21 15 21 -2 0
-418 -277 -924 -616z m-1236 -1780 c34 -31 60 -58 58 -61 -15 -14 -147 77
-147 103 0 27 27 14 89 -42z"/>
<path d="M3830 4857 c-170 -103 -280 -172 -565 -357 -104 -68 -213 -134 -241
-146 l-50 -24 -265 55 c-475 98 -695 138 -723 131 -38 -9 -56 -58 -56 -149 0
-114 4 -116 380 -197 315 -67 320 -68 320 -78 0 -14 -159 -115 -173 -109 -7 3
-47 32 -89 66 -117 94 -170 110 -213 66 -18 -17 -25 -35 -25 -62 l0 -38 -86 0
c-98 0 -114 -11 -114 -78 0 -42 11 -70 42 -104 11 -12 18 -26 15 -31 -11 -17
-136 -74 -152 -69 -21 9 -19 -6 5 -28 17 -16 24 -16 47 -6 46 21 193 120 193
130 0 5 -25 21 -55 35 -39 18 -56 32 -61 50 -9 35 4 65 30 72 21 5 104 -19
193 -57 28 -11 37 -11 68 4 19 9 35 20 35 24 0 5 -26 22 -57 38 -65 35 -83 56
-67 83 15 24 56 27 96 6 18 -9 68 -52 110 -96 l78 -80 47 35 c27 19 101 69
165 110 105 67 115 76 92 81 -56 14 -693 145 -736 151 -44 7 -47 9 -42 31 4
13 1 30 -5 38 -12 15 -4 123 9 131 5 3 120 -18 257 -46 136 -28 365 -74 507
-104 l260 -52 410 270 c404 266 562 372 581 389 31 28 -29 -3 -165 -85z"/>
<path d="M3679 4674 c-512 -346 -569 -386 -569 -395 0 -5 17 -13 38 -18 20 -6
76 -21 123 -35 l87 -23 58 31 c70 38 383 238 437 279 21 16 36 32 33 34 -7 7
-84 -38 -312 -179 -105 -65 -197 -118 -204 -118 -8 0 -49 10 -93 21 -76 21
-78 22 -60 39 10 10 108 80 218 155 293 202 461 321 540 383 90 71 91 72 79
72 -6 0 -175 -111 -375 -246z"/>
<path d="M4669 4587 c-68 -40 -279 -172 -469 -294 -346 -221 -430 -271 -430
-255 0 5 57 53 126 107 69 53 123 99 120 102 -8 9 -316 -198 -316 -211 0 -7
15 -26 33 -44 l32 -31 504 334 c452 300 547 365 530 365 -3 0 -61 -33 -130
-73z"/>
<path d="M3725 4382 c-215 -144 -284 -194 -285 -204 0 -12 57 -38 82 -38 23 0
212 119 203 128 -2 3 -48 -16 -101 -42 -53 -25 -98 -46 -101 -46 -16 0 39 46
192 160 145 108 220 170 204 170 -2 0 -89 -58 -194 -128z"/>
<path d="M2005 4349 c-4 -6 -5 -12 -4 -14 6 -5 246 -58 564 -125 390 -82 530
-117 590 -147 79 -40 169 -108 218 -165 49 -57 73 -60 39 -6 -65 103 -291 258
-377 258 -14 0 -25 5 -25 10 0 6 -11 10 -25 10 -14 0 -230 43 -480 95 -251 52
-464 95 -475 95 -10 0 -22 -5 -25 -11z"/>
<path d="M3837 4195 c-206 -118 -243 -125 -142 -25 30 29 53 56 50 58 -5 5
-149 -94 -165 -113 -9 -11 -3 -19 29 -39 22 -14 45 -26 51 -26 12 0 340 217
340 225 0 11 -23 0 -163 -80z"/>
<path d="M2695 4005 c-77 -52 -156 -107 -175 -123 -34 -29 -34 -29 -22 -71 7
-22 15 -41 18 -41 3 0 28 17 57 38 66 49 347 222 360 222 14 0 -54 -51 -243
-180 -91 -62 -166 -114 -168 -116 -7 -5 22 -84 31 -84 10 0 517 331 550 358 9
9 14 19 10 23 -6 5 -140 38 -258 64 -14 3 -67 -27 -160 -90z m116 6 c-44 -33
-193 -122 -186 -110 10 15 186 129 200 129 5 0 -1 -9 -14 -19z m189 -16 c0 -3
-53 -40 -117 -82 -65 -42 -149 -99 -187 -126 -91 -64 -75 -42 22 31 176 134
282 200 282 177z"/>
<path d="M3110 3977 c-25 -18 -130 -91 -235 -162 -309 -208 -322 -219 -330
-265 -7 -43 -25 -45 -25 -4 0 29 -6 30 -48 4 -30 -19 -32 -22 -26 -62 3 -24 7
-49 9 -55 3 -8 160 91 395 246 214 143 395 261 402 263 6 2 8 10 4 16 -8 13
-79 52 -93 52 -4 0 -28 -15 -53 -33z m-330 -281 c0 -9 -120 -96 -133 -96 -8 0
-17 -7 -21 -15 -5 -15 -26 -21 -26 -7 0 7 54 45 98 69 13 7 35 21 49 33 25 20
33 24 33 16z"/>
<path d="M3238 3906 c-24 -19 -202 -138 -394 -264 -192 -127 -360 -240 -373
-252 -19 -18 -23 -28 -18 -62 3 -22 8 -42 11 -45 8 -9 137 71 504 314 178 117
343 224 367 239 l44 25 -32 27 c-66 56 -60 55 -109 18z m12 -67 c-94 -74 -736
-497 -739 -488 -2 7 9 22 24 33 75 56 731 484 735 479 3 -2 -6 -13 -20 -24z"/>
<path d="M2289 3894 c-19 -16 -36 -29 -38 -31 -3 -2 9 -18 26 -35 34 -34 58
-34 101 0 l22 17 -38 38 -39 38 -34 -27z"/>
<path d="M150 3835 c0 -3 132 -92 293 -198 160 -107 598 -397 971 -646 435
-290 682 -449 689 -442 5 5 11 29 14 53 l5 44 -333 221 c-184 121 -356 233
-384 248 -27 16 -66 43 -85 60 -33 31 -248 177 -299 204 -17 10 -22 10 -16 1
17 -27 350 -264 861 -613 94 -64 179 -127 190 -139 26 -29 51 -45 -511 325
-761 502 -1178 771 -1326 855 -56 32 -69 37 -69 27z"/>
<path d="M3325 3797 c-33 -24 -206 -141 -385 -261 -315 -211 -410 -280 -410
-294 0 -4 15 -16 34 -26 33 -17 34 -17 83 7 44 23 764 496 788 518 10 10 -30
99 -44 99 -4 0 -34 -19 -66 -43z m35 -51 c-29 -28 -626 -436 -683 -466 -32
-17 -62 -30 -68 -28 -16 5 17 29 400 281 306 203 397 258 351 213z"/>
<path d="M114 3812 c22 -35 379 -285 1241 -865 292 -196 543 -368 560 -381 29
-23 29 -25 12 -43 -9 -11 -17 -25 -17 -31 0 -17 21 -15 35 5 15 20 35 9 35
-21 0 -24 19 -45 58 -65 21 -11 24 -9 37 23 8 20 15 41 15 48 0 16 -26 34
-1060 727 -880 591 -928 622 -916 603z"/>
<path d="M2380 3794 c-19 -13 -35 -28 -35 -32 0 -22 32 -72 47 -72 17 0 78 46
78 59 0 4 -12 21 -27 38 l-28 32 -35 -25z"/>
<path d="M2016 3710 c-58 -38 -106 -72 -106 -74 0 -3 20 -17 44 -31 l45 -26
100 67 c56 37 101 70 101 74 0 9 -30 35 -57 49 -19 9 -35 2 -127 -59z m71 -17
c-21 -23 -77 -57 -77 -46 0 8 78 63 89 63 2 0 -3 -8 -12 -17z"/>
<path d="M3064 3452 c-214 -142 -395 -266 -402 -275 -12 -14 6 -29 150 -125
90 -60 190 -124 222 -142 l58 -33 36 18 c50 23 150 96 189 137 51 54 101 146
134 247 16 52 29 100 27 107 -3 11 -127 -61 -223 -130 -40 -28 -8 -24 67 8 43
19 79 32 82 29 8 -8 -12 -60 -49 -132 -43 -82 -124 -162 -206 -205 l-54 -29
-60 31 c-83 42 -207 131 -202 145 6 20 602 388 606 375 2 -7 -11 -23 -30 -37
-145 -110 -210 -171 -181 -171 13 0 233 157 255 182 16 19 24 97 11 111 -6 6
-57 -26 -434 -275 -232 -153 -312 -200 -291 -175 7 9 148 108 314 219 384 259
397 269 397 312 0 38 -8 66 -19 66 -4 0 -183 -116 -397 -258z m366 169 c0 -5
-48 -42 -107 -82 -60 -40 -176 -121 -258 -180 -197 -139 -285 -196 -320 -205
-44 -11 -27 14 46 69 100 75 619 407 636 407 2 0 3 -4 3 -9z"/>
<path d="M2130 3628 c-52 -35 -94 -67 -93 -72 0 -5 19 -20 40 -33 l40 -23 74
53 c41 29 75 60 77 68 1 7 -8 27 -20 42 l-23 28 -95 -63z m54 -23 c-7 -17 -43
-40 -50 -32 -4 4 43 47 52 47 2 0 1 -7 -2 -15z"/>
<path d="M2437 3672 c-26 -15 -28 -21 -22 -56 10 -66 23 -72 68 -31 31 29 31
31 16 74 -12 35 -22 38 -62 13z"/>
<path d="M1785 3669 c4 -5 -21 -39 -55 -75 -34 -36 -60 -67 -57 -70 6 -6 149
89 167 111 9 11 5 17 -19 29 -35 19 -45 20 -36 5z"/>
<path d="M1771 3552 c-47 -30 -80 -57 -75 -59 6 -2 48 12 94 32 46 19 85 33
89 30 3 -3 1 -9 -5 -13 -30 -19 -323 -235 -349 -256 -72 -60 5 -15 213 123
l223 148 -31 27 c-17 14 -41 26 -53 25 -12 0 -60 -26 -106 -57z"/>
<path d="M2230 3539 c-78 -53 -79 -57 -45 -85 38 -30 61 -30 107 1 38 26 39
27 16 88 -13 34 -22 34 -78 -4z"/>
<path d="M1914 3497 c-38 -24 -160 -102 -270 -175 -111 -72 -210 -135 -220
-139 -18 -6 -18 -6 -1 14 18 20 17 21 -15 27 -19 3 -96 42 -173 87 -161 93
-215 122 -215 114 0 -3 145 -102 323 -219 177 -117 432 -286 567 -375 223
-148 245 -161 257 -145 13 18 29 82 22 88 -10 9 -297 195 -318 206 -48 25 -7
-11 129 -115 77 -58 140 -109 140 -112 0 -20 -82 28 -357 210 -172 114 -313
211 -313 215 0 7 413 259 478 292 45 22 33 2 -33 -55 -36 -32 -64 -60 -61 -62
9 -9 206 112 206 127 0 6 -38 36 -66 53 -6 3 -42 -13 -80 -36z"/>
<path d="M3882 3455 c-31 -139 -45 -184 -84 -265 -33 -68 -57 -100 -127 -170
-95 -95 -197 -155 -346 -205 -97 -33 -130 -51 -143 -81 -9 -18 -7 -26 9 -40
18 -17 19 -16 19 13 0 30 2 31 69 48 146 36 324 132 419 227 132 131 209 317
200 478 l-3 55 -13 -60z"/>
<path d="M2017 3398 c-53 -35 -97 -68 -97 -75 0 -7 17 -24 37 -37 36 -25 38
-25 64 -8 136 88 178 118 176 126 -2 4 -21 19 -43 32 l-41 24 -96 -62z m103
-3 c0 -13 -110 -85 -129 -85 -36 0 -20 21 45 57 54 30 84 40 84 28z"/>
<path d="M2291 3421 c-27 -21 -23 -35 19 -56 27 -14 28 -13 34 11 8 31 -1 64
-17 64 -7 0 -23 -9 -36 -19z"/>
<path d="M2125 3313 c-53 -35 -93 -69 -89 -73 5 -5 54 -38 109 -74 l99 -65 29
17 c36 21 53 53 62 120 6 42 4 52 -8 52 -23 0 -71 -42 -57 -50 6 -4 10 -22 8
-41 -2 -27 -8 -35 -26 -37 -27 -4 -121 39 -146 67 -16 18 -15 20 41 55 65 41
103 47 103 16 0 -24 18 -26 48 -4 30 20 28 29 -10 51 -59 35 -61 34 -163 -34z"/>
<path d="M1867 3293 c-12 -11 -8 -23 6 -17 7 2 21 -2 31 -9 18 -13 17 -16 -18
-54 -20 -22 -36 -43 -36 -47 0 -4 27 12 60 34 33 22 60 45 60 49 0 9 -74 51
-89 51 -4 0 -11 -3 -14 -7z"/>
<path d="M1920 3174 c-71 -49 -67 -58 10 -19 27 14 57 25 67 25 37 0 143 -80
143 -107 0 -7 -12 -19 -27 -25 -27 -11 -27 -12 -6 -15 21 -4 103 33 103 46 0
10 -198 141 -212 140 -7 0 -42 -20 -78 -45z"/>
<path d="M2457 3205 c-8 -8 -18 -38 -22 -67 -3 -29 -9 -61 -11 -70 -8 -27 5
-22 79 33 76 55 76 59 8 97 -35 20 -41 21 -54 7z"/>
<path d="M2503 3076 c-51 -34 -91 -65 -89 -71 3 -12 288 -210 350 -245 l43
-23 37 28 c20 15 36 31 36 35 0 17 -32 19 -55 4 -23 -15 -27 -15 -72 12 -103
59 -283 186 -277 196 14 22 89 68 111 68 13 0 37 -10 53 -22 23 -17 33 -19 42
-10 14 14 -13 47 -59 73 -28 15 -29 15 -120 -45z"/>
<path d="M2300 3102 c-24 -20 -24 -22 -8 -38 16 -17 18 -16 28 11 15 40 8 50
-20 27z"/>
<path d="M2200 3036 c-24 -13 -45 -27 -47 -32 -3 -9 104 -80 115 -77 4 1 14
23 22 48 14 46 14 48 -9 66 -29 24 -27 24 -81 -5z m40 -30 c0 -3 -4 -8 -10
-11 -5 -3 -10 -1 -10 4 0 6 5 11 10 11 6 0 10 -2 10 -4z"/>
<path d="M2701 3046 c-10 -12 7 -28 103 -91 64 -42 116 -79 116 -84 0 -4 -9
-16 -20 -26 -27 -24 -15 -37 28 -29 61 10 103 25 96 35 -5 9 -201 142 -275
187 -31 19 -38 20 -48 8z"/>
<path d="M1900 3006 c0 -6 295 -205 314 -212 9 -4 19 9 30 42 20 58 14 67 -77
114 l-62 32 48 -46 c46 -44 60 -76 34 -76 -7 0 -39 16 -71 35 -79 47 -202 115
-210 115 -3 0 -6 -2 -6 -4z"/>
<path d="M2390 2931 c-5 -11 -10 -33 -10 -50 0 -28 13 -39 183 -152 100 -67
199 -135 220 -152 21 -16 40 -28 42 -25 2 2 -7 26 -20 53 -14 26 -25 56 -25
66 0 25 -68 82 -209 174 -171 111 -168 110 -181 86z m175 -132 c108 -77 134
-99 95 -79 -36 19 -181 110 -209 131 -21 17 -22 19 -5 19 11 0 64 -32 119 -71z"/>
<path d="M2351 2779 c-21 -62 -19 -64 147 -173 176 -116 390 -246 403 -246 5
0 9 -6 9 -14 0 -7 7 -19 15 -26 12 -10 15 -10 15 1 -1 31 -50 124 -81 157 -35
35 -470 332 -488 332 -5 0 -14 -14 -20 -31z m294 -195 c77 -51 149 -102 160
-114 l20 -23 -35 18 c-41 21 -147 91 -282 188 -182 128 -99 87 137 -69z"/>
<path d="M2322 2667 c-5 -6 -14 -29 -20 -49 -8 -30 -7 -39 6 -51 21 -19 430
-287 447 -293 16 -6 85 36 85 52 0 6 -114 88 -254 182 -191 129 -256 169 -264
159z m244 -198 c162 -109 237 -171 139 -115 -125 72 -402 272 -325 235 14 -7
97 -61 186 -120z"/>
<path d="M3234 2655 c-9 -21 20 -60 75 -103 57 -43 86 -49 118 -26 14 11 26
24 27 29 2 17 -137 105 -177 112 -29 4 -38 2 -43 -12z"/>
<path d="M2840 2608 c0 -18 49 -76 50 -60 0 18 -32 72 -42 72 -4 0 -8 -6 -8
-12z"/>
<path d="M3448 2517 c-16 -13 -28 -28 -28 -34 0 -7 20 -24 44 -38 42 -24 47
-25 74 -11 58 30 58 42 5 75 -57 36 -60 37 -95 8z"/>
<path d="M3690 2509 c-21 -18 -30 -32 -25 -38 23 -20 195 -131 205 -131 13 0
80 43 80 52 0 6 -159 111 -205 135 -16 9 -26 6 -55 -18z m140 -89 l25 -21 -30
15 c-16 8 -41 25 -55 36 l-25 21 30 -15 c17 -8 41 -25 55 -36z"/>
<path d="M2276 2522 c-2 -4 -7 -23 -11 -42 -8 -43 0 -51 143 -148 l103 -70 44
25 c51 28 60 18 15 -15 -16 -13 -30 -26 -30 -30 0 -11 77 -52 97 -52 10 0 34
13 53 29 l34 28 -213 142 c-117 77 -217 141 -222 141 -4 0 -10 -3 -13 -8z
m161 -133 c75 -51 94 -69 70 -69 -18 0 -179 112 -185 129 -6 17 19 4 115 -60z
m201 -148 c3 -8 -1 -12 -9 -9 -7 2 -15 10 -17 17 -3 8 1 12 9 9 7 -2 15 -10
17 -17z"/>
<path d="M3290 2502 c0 -10 6 -27 14 -37 12 -17 16 -17 30 -6 15 13 15 16 -5
38 -27 28 -39 29 -39 5z"/>
<path d="M3348 2449 c-32 -18 -18 -78 22 -99 16 -9 29 -5 66 16 l46 27 -53 34
c-59 37 -57 36 -81 22z"/>
<path d="M3565 2425 c-16 -13 -27 -26 -25 -28 3 -2 50 -34 104 -72 l99 -68 44
23 c23 12 43 27 43 32 0 13 -195 138 -216 138 -11 -1 -32 -12 -49 -25z m138
-71 c21 -14 36 -28 34 -31 -5 -4 -87 46 -87 53 0 10 18 2 53 -22z"/>
<path d="M1867 2378 c-53 -135 -79 -264 -106 -522 -10 -98 -22 -181 -27 -185
-5 -5 -261 -179 -569 -386 -569 -384 -1078 -736 -1137 -786 -69 -59 1 -26 122
57 69 48 465 314 880 592 l755 505 7 71 c4 39 12 125 17 191 12 141 38 271 80
409 17 54 28 102 25 107 -12 19 -23 7 -47 -53z"/>
<path d="M4026 2411 c-7 -11 49 -60 133 -119 l58 -41 69 46 c96 64 100 71 17
29 -40 -20 -77 -36 -82 -36 -5 0 -46 29 -92 65 -84 67 -94 72 -103 56z"/>
<path d="M1996 2338 c-44 -151 -117 -600 -104 -638 4 -14 83 41 98 70 13 24
26 120 16 120 -4 0 -21 -7 -37 -16 -47 -24 -44 -11 5 30 34 28 47 46 52 74 3
20 21 106 40 191 37 170 38 167 -25 204 l-30 18 -15 -53z m14 -217 c-27 -121
-40 -164 -40 -135 0 47 63 316 67 289 2 -11 -10 -80 -27 -154z"/>
<path d="M2227 2368 c-17 -62 -11 -75 68 -128 41 -27 83 -50 95 -50 19 0 90
39 90 50 0 8 -206 141 -228 146 -14 4 -21 -1 -25 -18z m115 -79 c46 -30 61
-49 37 -49 -11 0 -109 68 -109 76 0 11 28 1 72 -27z"/>
<path d="M3453 2348 c-18 -11 -33 -23 -33 -27 0 -4 21 -19 48 -34 44 -24 49
-24 81 -11 49 21 56 17 22 -12 l-31 -26 22 -17 c53 -41 66 -44 108 -20 22 13
39 28 37 33 -5 16 -189 136 -207 135 -8 0 -30 -10 -47 -21z"/>
<path d="M3937 2345 c-20 -14 -37 -29 -37 -33 0 -10 76 -52 94 -52 21 0 20 19
-1 43 -14 15 -5 13 43 -11 33 -17 67 -38 75 -48 15 -19 19 -19 -66 2 -39 10
-30 -12 20 -46 l45 -31 40 33 c22 18 40 35 39 38 0 5 -178 116 -200 125 -8 3
-31 -6 -52 -20z"/>
<path d="M2840 2271 l-44 -38 45 -26 c25 -15 50 -27 55 -27 13 0 84 49 84 58
0 4 -22 21 -49 39 l-48 31 -43 -37z"/>
<path d="M4252 2243 c-62 -42 -101 -74 -99 -83 2 -12 202 -159 260 -191 38
-21 12 4 -75 74 -51 41 -102 84 -113 97 l-20 22 35 31 c20 18 58 51 85 74 74
63 42 52 -73 -24z"/>
<path d="M3375 2290 c-9 -15 32 -100 48 -100 19 0 50 36 44 52 -7 20 -84 60
-92 48z"/>
<path d="M3827 2272 c-20 -15 -36 -30 -37 -34 0 -3 18 -21 40 -38 l41 -32 39
27 c22 15 40 31 40 36 0 7 -48 47 -76 62 -6 4 -28 -6 -47 -21z"/>
<path d="M2181 2237 c-25 -82 -52 -197 -49 -211 2 -11 30 3 111 56 59 40 107
74 107 77 0 3 -36 29 -80 58 l-79 52 -10 -32z m68 -61 c14 -17 5 -43 -20 -56
-27 -15 -29 -13 -29 23 0 48 24 64 49 33z"/>
<path d="M2472 2193 c-23 -15 -42 -31 -42 -35 0 -11 51 -48 76 -54 16 -4 36 3
63 23 22 15 41 31 41 34 0 3 -22 18 -48 32 l-49 26 -41 -26z"/>
<path d="M3464 2185 l-39 -35 25 -20 c32 -25 76 -25 119 1 l35 21 -25 19 c-13
11 -36 26 -50 34 -25 13 -29 12 -65 -20z"/>
<path d="M3709 2193 c-19 -15 -36 -28 -38 -30 -9 -6 31 -42 60 -53 26 -11 33
-10 65 15 19 15 34 31 32 37 -2 6 -22 21 -45 34 l-41 25 -33 -28z"/>
<path d="M3935 2187 l-46 -30 45 -29 c25 -15 51 -28 57 -28 13 0 79 50 79 60
0 5 -20 19 -44 33 l-44 24 -47 -30z"/>
<path d="M2706 2184 c-21 -14 -34 -29 -29 -33 4 -4 25 -20 46 -35 l38 -28 49
32 c28 18 50 34 50 36 0 10 -77 54 -95 54 -11 0 -38 -12 -59 -26z"/>
<path d="M2946 2176 l-30 -23 48 -28 c26 -15 50 -25 53 -21 7 7 -26 96 -35 96
-4 0 -20 -11 -36 -24z"/>
<path d="M3592 2112 c-23 -15 -42 -32 -42 -37 0 -13 53 -45 74 -45 9 0 35 9
57 21 37 19 40 22 26 37 -9 9 -29 25 -44 34 -28 16 -30 16 -71 -10z"/>
<path d="M4052 2106 c-38 -27 -41 -32 -27 -41 38 -23 50 -34 42 -41 -4 -4 -21
3 -39 16 -30 22 -32 22 -62 6 -17 -9 -40 -24 -51 -32 -20 -15 -20 -15 5 -34
61 -46 62 -46 144 9 79 54 126 77 126 62 0 -10 170 -105 176 -98 4 4 -215 156
-251 174 -16 8 -29 4 -63 -21z m78 -42 c0 -11 -8 -14 -27 -12 -39 4 -42 28 -4
28 21 0 31 -5 31 -16z"/>
<path d="M2249 2045 c-130 -89 -142 -103 -152 -183 -4 -36 -3 -43 10 -38 21 9
323 214 347 236 18 17 17 19 -20 44 -21 14 -44 26 -50 26 -6 0 -66 -38 -135
-85z m136 15 c-9 -14 -200 -140 -213 -140 -19 0 -3 24 31 46 17 12 61 40 96
63 59 38 100 53 86 31z"/>
<path d="M2580 2100 l-35 -30 25 -19 c58 -46 65 -46 119 -11 28 17 51 34 51
36 0 9 -89 54 -106 54 -10 0 -35 -14 -54 -30z"/>
<path d="M2837 2103 c-20 -14 -37 -29 -37 -32 0 -3 20 -19 44 -34 l44 -28 46
28 c25 15 46 31 46 35 0 11 -73 58 -90 58 -8 0 -32 -12 -53 -27z"/>
<path d="M3810 2101 l-34 -28 44 -28 44 -28 45 26 c25 14 47 29 48 34 4 11
-71 53 -94 53 -10 0 -34 -13 -53 -29z"/>
<path d="M3440 2091 c0 -15 28 -33 40 -26 8 5 8 11 -1 21 -13 15 -39 19 -39 5z"/>
<path d="M3707 2027 c-45 -32 -46 -34 -31 -55 18 -25 7 -30 -11 -5 -11 15 -16
15 -61 -9 -58 -30 -63 -54 -16 -81 l32 -19 84 53 c47 29 95 61 108 71 l23 18
-25 20 c-50 41 -55 41 -103 7z"/>
<path d="M2290 1910 l-205 -140 -7 -57 c-4 -31 -6 -58 -4 -61 2 -2 15 2 28 9
44 23 485 316 492 327 6 9 -72 63 -91 62 -4 -1 -100 -64 -213 -140z m210 66
c-18 -17 -347 -236 -355 -236 -20 0 9 26 105 93 154 109 305 195 250 143z"/>
<path d="M2407 1823 l-337 -226 0 -64 c0 -35 3 -63 6 -63 3 0 21 12 41 28 20
15 189 131 377 258 188 126 341 234 340 240 -1 8 -72 53 -85 54 -3 0 -157
-102 -342 -227z m343 162 c0 -14 -596 -415 -618 -415 -14 0 -14 2 -2 14 23 21
570 387 594 396 27 11 26 11 26 5z"/>
<path d="M2975 2024 c-22 -15 -44 -30 -48 -34 -9 -8 66 -60 87 -60 8 0 26 10
41 23 25 22 25 22 8 57 -23 44 -38 47 -88 14z"/>
<path d="M3481 2036 c-10 -11 -8 -23 9 -55 11 -23 24 -41 29 -41 4 0 25 15 47
34 l39 33 -35 22 c-41 24 -73 27 -89 7z"/>
<path d="M4088 1968 c-65 -45 -76 -60 -44 -66 18 -4 88 55 107 91 14 24 9 22
-63 -25z"/>
<path d="M3761 1912 c-56 -37 -101 -72 -101 -79 0 -7 18 -22 41 -34 l41 -21
69 46 c38 26 69 44 69 41 0 -2 -40 -32 -90 -65 -49 -33 -87 -54 -84 -46 3 9
-10 23 -38 40 -42 25 -43 25 -62 7 -20 -21 -16 -71 9 -91 12 -10 11 -15 -7
-29 l-21 -17 64 -103 c76 -122 162 -219 235 -267 30 -18 54 -40 54 -48 0 -8 3
-22 7 -32 6 -16 0 -17 -61 -11 -136 13 -324 93 -463 198 -36 28 -68 48 -71 45
-2 -3 26 -36 64 -74 51 -50 91 -79 154 -110 103 -50 253 -101 321 -109 38 -4
49 -9 45 -20 -4 -8 -6 -19 -6 -24 0 -5 -13 -9 -28 -9 -36 0 -237 63 -318 100
-138 62 -260 171 -331 296 -21 35 -41 64 -46 64 -16 0 -1419 -931 -1413 -938
13 -13 348 196 971 605 176 115 341 222 368 237 56 33 59 31 117 -54 46 -67
128 -148 201 -197 114 -78 384 -171 456 -158 57 10 100 93 82 157 -14 51 -39
82 -105 131 -34 25 -81 71 -106 103 -49 65 -128 187 -128 199 0 11 92 95 104
95 5 0 41 20 80 44 39 24 88 52 109 63 35 17 37 21 22 33 -13 11 -23 11 -48 2
l-32 -12 33 26 c37 29 35 37 -18 64 l-38 19 -101 -67z m94 -1 c-6 -11 -105
-73 -105 -66 0 4 101 75 108 75 2 0 1 -4 -3 -9z"/>
<path d="M2700 1852 c-96 -65 -267 -178 -380 -251 -113 -73 -215 -142 -227
-154 -18 -16 -23 -32 -23 -69 0 -78 3 -76 315 136 105 71 277 188 383 260 105
72 192 134 192 138 0 7 -70 58 -80 58 -3 0 -84 -53 -180 -118z m170 44 c-8 -7
-109 -78 -225 -157 -115 -78 -278 -191 -362 -251 -84 -59 -154 -108 -158 -108
-16 0 -2 51 18 64 179 112 368 233 526 338 172 114 244 155 201 114z"/>
<path d="M3036 1911 c-3 -5 4 -20 15 -35 23 -30 19 -33 -16 -10 -21 14 -26 14
-62 -5 -33 -16 -800 -515 -872 -567 -21 -15 -23 -22 -17 -62 3 -26 10 -50 15
-55 4 -4 59 27 122 70 63 44 284 193 492 333 263 176 377 258 377 271 0 45
-38 87 -54 60z m-244 -223 c-6 -7 -25 -22 -44 -32 -39 -23 -32 -13 14 20 38
26 45 29 30 12z m-157 -104 c-50 -39 -377 -264 -433 -299 -34 -21 -65 -35 -69
-31 -14 14 15 42 88 85 41 24 153 93 249 152 167 103 210 127 165 93z"/>
<path d="M3554 1845 c3 -9 6 -19 6 -21 0 -2 7 -4 16 -4 22 0 13 34 -10 38 -14
3 -17 0 -12 -13z"/>
<path d="M2511 1410 c-321 -214 -589 -394 -595 -400 -48 -49 188 90 509 298
165 107 366 237 447 289 143 91 213 128 153 81 -241 -188 -248 -212 -18 -60
73 48 133 93 133 100 0 20 -28 82 -37 81 -4 0 -271 -175 -592 -389z"/>
<path d="M1945 1674 c-56 -37 -65 -52 -65 -106 0 -54 7 -58 56 -27 46 28 64
56 64 99 0 57 -10 63 -55 34z"/>
<path d="M3024 1599 c-65 -45 -130 -90 -143 -100 -44 -35 2 -19 107 37 58 30
100 48 93 40 -7 -8 -88 -66 -179 -129 -92 -63 -297 -203 -457 -312 -365 -249
-647 -450 -671 -477 -19 -21 -19 -21 6 -8 22 12 1367 909 1397 932 13 11 -5
89 -23 95 -5 2 -64 -33 -130 -78z"/>
<path d="M1193 1200 c-326 -217 -701 -465 -833 -550 -132 -85 -248 -160 -258
-167 -14 -10 12 -12 134 -13 l151 0 41 -44 c23 -25 44 -57 48 -71 12 -47 -3
-105 -34 -139 l-30 -31 24 -35 c30 -43 30 -56 0 -64 -34 -8 -67 7 -94 43 -22
31 -23 31 -112 31 l-90 0 0 -35 c0 -34 -1 -35 -38 -35 l-39 0 -6 172 c-4 94
-11 176 -16 181 -6 6 -14 0 -22 -14 -9 -17 -10 -64 -6 -177 6 -169 14 -195 66
-207 34 -7 60 4 109 46 19 17 44 29 60 29 25 0 41 -8 121 -62 35 -24 63 -23
96 4 25 19 27 26 22 67 -4 33 0 63 15 107 20 56 21 66 9 120 -24 105 -98 154
-237 154 l-69 0 160 104 c88 57 246 160 350 227 105 68 371 242 592 387 530
346 579 364 118 42 -237 -165 -441 -315 -451 -331 -13 -21 59 25 436 278 358
240 385 261 388 290 2 17 -1 44 -5 59 l-8 29 -592 -395z"/>
<path d="M1932 1494 c-40 -34 -42 -39 -42 -90 0 -67 13 -70 70 -16 37 36 40
43 40 90 0 63 -11 66 -68 16z"/>
<path d="M1435 1179 c-372 -248 -465 -314 -388 -275 48 24 232 136 463 282
243 154 275 174 284 174 12 0 6 -36 -10 -58 -19 -28 -5 -28 30 -1 27 21 31 50
17 111 -6 27 -10 25 -396 -233z"/>
<path d="M1911 1322 c-70 -50 -70 -64 0 -33 52 24 52 24 72 -84 l15 -79 -56
-53 -57 -53 78 46 c46 28 77 53 77 63 -2 40 -47 235 -55 237 -6 2 -39 -18 -74
-44z"/>
<path d="M684 448 c-77 -53 -88 -81 -92 -234 l-4 -132 29 -30 c15 -17 37 -33
48 -36 31 -9 84 29 92 64 7 36 28 50 78 50 45 0 75 -15 75 -38 0 -21 46 -67
76 -76 34 -10 70 9 83 45 14 41 14 259 0 296 -15 40 -57 82 -104 104 -30 14
-64 19 -136 19 -93 0 -99 -1 -145 -32z m276 -25 c14 -9 37 -27 53 -41 l27 -26
0 -148 0 -149 -42 3 -43 3 -3 52 -3 53 -114 0 -114 0 -3 -53 -3 -52 -42 -3
-43 -3 0 141 0 141 43 50 42 49 110 0 c86 0 116 -4 135 -17z"/>
<path d="M750 333 c-21 -9 -30 -24 -30 -55 0 -25 3 -27 63 -33 34 -4 87 -5
117 -3 l55 3 -3 40 c-2 22 -5 41 -5 42 -6 5 -185 11 -197 6z"/>
<path d="M1244 448 c-69 -47 -94 -99 -94 -200 0 -84 16 -136 53 -176 40 -44
73 -53 203 -59 l125 -6 55 54 54 53 0 131 0 131 -53 52 -53 52 -121 0 c-120 0
-121 0 -169 -32z m325 -61 c46 -60 50 -81 20 -97 -29 -16 -64 -5 -77 25 -12
25 -13 26 -114 23 l-103 -3 0 -90 0 -90 98 -3 98 -3 17 31 c30 53 94 52 100
-2 2 -16 -9 -40 -30 -69 l-34 -44 -135 -3 -136 -3 -41 46 -42 45 0 93 0 94 42
52 42 51 127 0 127 0 41 -53z m-93 -112 c21 -32 11 -73 -19 -81 -13 -3 -43 -4
-68 -2 l-44 3 -3 44 c-4 53 5 61 70 61 40 0 50 -4 64 -25z"/>
<path d="M1749 451 l-29 -29 0 -167 c0 -190 9 -229 57 -239 56 -13 101 19 122
86 7 20 19 39 27 42 42 16 104 -2 104 -30 0 -28 30 -74 59 -89 23 -11 36 -12
60 -4 56 20 79 94 56 182 -19 73 -19 100 0 138 15 27 14 33 -4 73 -33 76 -90
88 -140 31 -17 -20 -31 -44 -31 -55 0 -23 -45 -60 -75 -60 -28 0 -47 23 -69
83 -28 74 -84 90 -137 38z m96 -28 c13 -13 15 -27 10 -75 l-7 -58 85 0 c79 0
87 2 105 25 10 13 25 45 32 70 10 35 18 47 38 52 60 15 79 -50 38 -131 l-25
-49 25 -29 c20 -25 24 -40 24 -99 l0 -70 -42 3 c-41 3 -42 3 -53 53 -6 28 -14
56 -18 62 -11 17 -74 25 -143 18 l-63 -7 -3 -62 -3 -61 -42 -3 -43 -3 0 175
c0 96 3 181 6 190 8 21 58 21 79 -1z"/>
<path d="M2311 445 c-31 -35 -31 -37 -31 -148 0 -141 11 -181 64 -233 39 -40
45 -42 119 -49 85 -8 221 1 252 18 28 14 35 27 35 63 0 67 -51 92 -195 94 -33
0 -66 4 -74 9 -11 7 -16 40 -20 121 -6 107 -7 113 -34 136 -41 35 -78 31 -116
-11z m98 -22 c5 -10 12 -75 16 -144 l7 -126 91 -7 c49 -3 112 -6 139 -6 l48 0
0 -39 0 -40 -147 -3 -148 -3 -47 45 -48 44 0 126 c0 160 3 170 46 170 22 0 37
-6 43 -17z"/>
<path d="M2932 459 c-24 -12 -55 -37 -70 -57 -25 -33 -27 -44 -30 -148 -3 -87
0 -118 12 -142 25 -49 76 -82 147 -93 84 -14 254 -5 285 16 34 22 39 70 13
129 -24 56 -22 129 6 168 8 13 15 33 15 46 0 31 -26 79 -49 92 -11 5 -80 10
-153 10 -115 0 -139 -3 -176 -21z m328 -38 c0 -10 3 -33 6 -50 l7 -31 -131 0
c-132 0 -187 -10 -180 -33 3 -8 44 -13 139 -17 l134 -5 0 -40 0 -40 -134 -5
c-135 -5 -159 -13 -126 -40 10 -8 63 -14 155 -18 l140 -5 0 -38 0 -39 -164 0
-164 0 -36 40 -36 40 0 107 0 107 42 43 42 43 153 0 c143 0 153 -1 153 -19z"/>
<path d="M3426 459 c-95 -75 -67 -189 86 -353 113 -121 122 -121 230 -5 124
133 133 148 133 240 0 99 -21 134 -81 134 -32 0 -42 -5 -61 -34 -13 -19 -23
-47 -23 -63 0 -16 -7 -44 -14 -63 -14 -32 -18 -35 -59 -35 -52 0 -77 22 -77
69 0 64 -46 131 -91 131 -9 0 -28 -9 -43 -21z m78 -35 c3 -9 6 -32 6 -52 0
-55 18 -110 40 -122 10 -5 46 -10 79 -10 86 0 109 22 123 118 10 64 15 73 36
79 37 9 47 -11 47 -95 0 -75 -1 -79 -38 -124 -21 -25 -53 -53 -71 -62 -35 -16
-46 -33 -46 -67 0 -20 -32 -33 -71 -27 -20 2 -25 10 -27 41 -3 31 -8 39 -35
51 -18 7 -51 34 -74 59 l-43 47 0 83 c0 46 3 87 7 90 13 13 61 7 67 -9z"/>
<path d="M4284 448 c-68 -47 -86 -82 -92 -187 -6 -116 4 -197 29 -222 30 -30
92 -26 118 7 12 15 21 35 21 45 0 24 29 39 75 39 47 0 75 -15 75 -41 0 -34 44
-69 88 -69 74 0 77 7 77 188 0 186 -4 197 -95 245 -47 24 -63 27 -150 27 -94
0 -100 -1 -146 -32z m276 -25 c14 -9 37 -27 53 -41 l27 -26 0 -148 0 -149 -42
3 -43 3 -3 52 -3 53 -114 0 -114 0 -3 -53 -3 -52 -42 -3 -43 -3 0 141 0 141
43 50 42 49 110 0 c86 0 116 -4 135 -17z"/>
<path d="M4350 333 c-21 -9 -30 -24 -30 -55 0 -25 3 -27 63 -33 34 -4 87 -5
117 -3 l55 3 -3 40 c-2 22 -5 41 -5 42 -6 5 -185 11 -197 6z"/>
<path d="M4785 455 c-25 -24 -25 -26 -25 -203 0 -166 2 -181 21 -206 26 -33
77 -35 118 -5 18 14 65 27 136 39 l109 18 48 50 48 51 0 76 c0 85 -13 119 -60
158 -45 38 -90 47 -238 47 -128 0 -134 -1 -157 -25z m379 -65 c42 -45 46 -53
46 -100 0 -60 -10 -82 -58 -132 l-36 -38 -108 0 -107 0 -16 -30 c-13 -26 -21
-30 -55 -30 l-40 0 0 184 c0 138 3 186 13 189 6 3 80 6 163 6 l151 1 47 -50z"/>
<path d="M4890 275 l0 -64 98 5 c53 3 103 7 110 10 7 2 12 22 12 52 l0 49 -67
6 c-38 4 -87 7 -110 7 l-43 0 0 -65z m167 10 c7 -3 10 -10 8 -18 -8 -19 -125
-7 -125 12 0 18 68 21 117 6z"/>
<path d="M5373 470 c-49 -20 -55 -45 -51 -235 3 -172 4 -177 27 -196 33 -27
79 -24 125 8 31 20 57 28 121 34 90 8 126 22 166 66 40 42 49 66 49 127 0 66
-12 101 -48 140 -51 54 -93 66 -237 65 -71 0 -140 -4 -152 -9z m349 -77 c47
-47 48 -48 48 -111 0 -61 -1 -64 -46 -112 l-47 -50 -108 0 -108 0 -16 -30
c-13 -25 -22 -30 -50 -30 l-35 0 0 178 c0 125 4 182 12 190 8 8 58 12 157 12
l145 0 48 -47z"/>
<path d="M5450 275 l0 -64 98 5 c53 3 103 7 110 10 7 2 12 22 12 52 l0 49 -67
6 c-38 4 -87 7 -110 7 l-43 0 0 -65z m168 10 c13 -13 -19 -26 -58 -23 -45 3
-65 22 -33 31 20 6 83 1 91 -8z"/>
<path d="M150 284 l0 -59 110 5 c62 3 114 10 121 17 14 14 3 69 -16 77 -8 3
-59 8 -115 12 l-100 7 0 -59z m160 7 c23 -7 22 -8 -13 -15 -21 -4 -53 -4 -70
0 -32 7 -32 7 -7 15 32 9 58 9 90 0z"/>
<path d="M4020 173 c-29 -11 -70 -57 -70 -79 0 -12 13 -36 29 -53 37 -39 75
-41 113 -4 39 38 38 83 -3 117 -31 26 -41 29 -69 19z m54 -49 c9 -8 16 -20 16
-25 0 -16 -40 -49 -60 -49 -40 0 -51 73 -12 83 31 8 41 7 56 -9z"/>
</g>
</svg>
