<?xml version="1.0" standalone="no"?>
<!DOCTYPE svg PUBLIC "-//W3C//DTD SVG 20010904//EN"
 "http://www.w3.org/TR/2001/REC-SVG-20010904/DTD/svg10.dtd">
<svg version="1.0" xmlns="http://www.w3.org/2000/svg"
 width="300.000000pt" height="300.000000pt" viewBox="0 0 300.000000 300.000000"
 preserveAspectRatio="xMidYMid meet">
<metadata>
Created by potrace 1.10, written by Peter Selinger 2001-2011
</metadata>
<g transform="translate(0.000000,300.000000) scale(0.100000,-0.100000)"
fill="#000000" stroke="none">
<path d="M799 2784 c-16 -20 -17 -137 -1 -157 11 -13 59 -30 122 -42 14 -2 54
-11 90 -19 36 -8 83 -17 105 -20 22 -4 54 -11 70 -16 17 -5 98 -23 180 -40 83
-16 165 -34 183 -39 18 -5 36 -10 40 -10 79 -9 214 -101 259 -178 23 -39 26
-58 28 -137 3 -131 -15 -204 -77 -318 -17 -32 -98 -107 -115 -108 -7 0 -13 -4
-13 -8 0 -8 -92 -52 -109 -52 -21 0 -111 -34 -111 -42 0 -4 -6 -8 -14 -8 -8 0
-26 -14 -40 -31 -38 -45 -35 -88 13 -157 36 -51 76 -149 168 -407 26 -75 40
-110 54 -137 5 -10 9 -22 9 -27 0 -6 23 -59 52 -118 40 -84 66 -122 117 -175
36 -37 71 -68 78 -68 6 0 13 -4 15 -8 5 -14 129 -70 183 -83 28 -6 59 -15 70
-20 67 -26 91 -17 115 46 19 50 5 89 -48 129 -53 40 -112 94 -112 101 0 3 -15
26 -34 52 -33 48 -85 152 -146 293 -18 41 -36 83 -42 94 -5 10 -25 60 -44 110
-19 50 -39 100 -44 111 -5 11 -16 42 -25 69 -8 26 -20 57 -25 66 -13 25 -2 50
22 50 24 0 164 57 181 74 7 7 35 27 62 46 73 50 121 105 161 187 45 93 64 167
64 254 0 90 -13 145 -60 244 -74 159 -174 239 -389 311 -74 25 -94 30 -236 59
-38 8 -74 16 -80 18 -5 2 -17 6 -25 10 -8 3 -51 10 -95 17 -44 6 -98 15 -120
20 -83 19 -394 80 -408 80 -8 0 -20 -7 -28 -16z m378 -73 c186 -38 376 -77
423 -86 191 -38 350 -104 439 -182 136 -119 198 -300 167 -483 -29 -161 -114
-286 -256 -372 -72 -43 -219 -94 -244 -85 -29 11 -18 34 22 42 92 17 239 92
311 159 108 100 179 304 152 436 -9 44 -9 43 -10 -30 -1 -41 -8 -103 -16 -138
-15 -64 -62 -172 -75 -172 -4 0 -12 -11 -18 -25 -6 -14 -26 -34 -44 -45 -18
-11 -33 -23 -32 -27 4 -26 -146 -105 -234 -124 -34 -7 -70 -21 -78 -30 -18
-20 -10 -59 11 -59 7 0 19 -17 26 -37 25 -79 169 -443 218 -552 96 -213 200
-357 282 -391 l31 -13 -24 -22 c-26 -24 -65 -37 -73 -25 -3 5 -23 11 -46 15
-93 16 -266 104 -252 129 3 6 3 8 -2 4 -10 -10 -105 89 -105 110 0 4 -10 18
-21 32 -14 16 -10 4 11 -37 66 -128 188 -212 387 -266 l92 -25 6 29 c4 17 12
28 18 26 14 -5 13 -31 -2 -70 l-10 -26 -93 25 c-147 40 -244 92 -315 167 -91
97 -149 223 -308 662 -52 142 -67 176 -89 198 -8 8 -21 31 -30 51 -15 37 -15
38 15 67 37 36 86 61 161 83 127 36 214 108 267 220 47 98 61 160 61 274 0
132 -44 213 -156 287 -81 54 -122 66 -524 150 -201 42 -375 79 -386 81 -16 4
-20 11 -17 25 4 12 11 18 20 15 8 -3 166 -37 351 -76 379 -79 425 -91 496
-127 76 -38 125 -82 169 -148 21 -33 36 -49 32 -35 -4 14 -17 41 -30 60 -22
35 -95 114 -95 104 0 -3 -13 4 -28 15 -42 29 -142 72 -182 78 -19 2 -42 7 -50
10 -21 8 -40 12 -77 15 -18 1 -33 5 -33 9 0 3 -14 6 -31 7 -17 0 -72 10 -122
21 -51 11 -139 30 -197 42 -58 13 -107 25 -110 28 -12 13 -88 17 -114 6 -16
-7 -18 -5 -11 26 11 56 16 69 25 69 5 0 161 -31 347 -69z"/>
<path d="M1416 1468 c5 -7 19 -29 32 -48 l25 -35 -7 30 c-8 31 -33 65 -48 65
-5 0 -6 -6 -2 -12z"/>
<path d="M975 2520 c-12 -4 -27 -15 -35 -25 -12 -15 -12 -21 2 -46 19 -32 9
-45 -22 -29 -58 31 -140 5 -140 -45 0 -24 31 -65 49 -65 12 0 53 -21 61 -32 3
-3 12 -8 19 -10 32 -7 100 -89 121 -145 20 -52 21 -72 18 -198 -5 -137 -6
-144 -62 -320 -31 -99 -61 -194 -66 -211 -6 -17 -10 -38 -10 -47 0 -9 -4 -17
-9 -17 -5 0 -7 -9 -4 -20 3 -11 0 -20 -6 -20 -5 0 -8 -7 -5 -15 4 -8 1 -22 -6
-31 -7 -8 -13 -30 -12 -49 1 -19 -3 -35 -7 -35 -5 0 -7 -9 -4 -20 3 -11 0 -20
-6 -20 -5 0 -8 -7 -5 -15 4 -8 3 -23 -1 -32 -5 -10 -7 -28 -6 -40 1 -13 -1
-23 -6 -23 -11 0 -18 -118 -17 -310 0 -174 19 -299 49 -329 13 -14 17 -13 32
2 16 15 17 40 15 235 -3 183 0 236 18 337 11 66 25 134 30 150 183 586 212
710 213 885 1 175 -42 284 -148 382 -16 15 -25 28 -19 28 14 0 83 -54 107 -83
24 -31 58 -107 51 -118 -3 -5 -2 -9 3 -9 4 0 9 -18 9 -40 2 -50 24 -75 49 -56
16 11 17 24 12 88 -5 70 -39 178 -59 186 -4 2 -8 10 -8 17 0 7 -4 15 -8 17 -4
2 -18 18 -31 36 -20 28 -116 103 -131 101 -3 0 -14 -4 -25 -9z m52 -33 c35
-20 102 -86 128 -127 13 -21 33 -66 45 -99 21 -63 27 -171 10 -171 -5 0 -10
18 -10 40 0 102 -79 225 -177 278 -34 18 -63 39 -67 47 -15 40 25 58 71 32z
m-80 -103 c101 -49 184 -177 204 -318 9 -69 2 -190 -16 -287 -10 -53 -80 -303
-120 -429 -74 -233 -84 -269 -104 -390 -27 -157 -35 -325 -22 -440 17 -151 -4
-192 -33 -62 -24 105 -31 303 -17 432 22 189 85 456 170 721 84 262 91 424 24
558 -34 66 -100 126 -166 149 -61 21 -80 51 -52 82 22 25 54 21 132 -16z"/>
<path d="M808 1358 c-18 -28 -61 -165 -84 -268 -19 -82 -26 -415 -11 -502 8
-45 30 -69 48 -51 5 5 10 88 13 186 2 98 9 184 15 190 5 7 10 26 10 42 1 49
16 154 28 185 7 17 9 30 18 84 3 22 9 45 14 50 4 6 8 31 7 56 -1 38 -4 45 -22
48 -13 2 -27 -6 -36 -20z m45 5 c3 -5 -8 -57 -24 -118 -53 -201 -72 -344 -73
-527 -1 -93 -4 -168 -8 -168 -17 0 -23 65 -22 250 1 219 17 326 74 483 30 81
42 99 53 80z"/>
</g>
</svg>
