<?xml version="1.0" standalone="no"?>
<!DOCTYPE svg PUBLIC "-//W3C//DTD SVG 20010904//EN"
 "http://www.w3.org/TR/2001/REC-SVG-20010904/DTD/svg10.dtd">
<svg version="1.0" xmlns="http://www.w3.org/2000/svg"
 width="300.000000pt" height="300.000000pt" viewBox="0 0 300.000000 300.000000"
 preserveAspectRatio="xMidYMid meet">
<metadata>
Created by potrace 1.10, written by Peter Selinger 2001-2011
</metadata>
<g transform="translate(0.000000,300.000000) scale(0.100000,-0.100000)"
fill="#000000" stroke="none">
<path d="M812 2773 c-17 -33 -21 -80 -9 -95 8 -9 152 -44 387 -93 206 -42 403
-88 437 -100 180 -65 266 -187 264 -375 -2 -254 -123 -423 -346 -485 -62 -17
-146 -70 -164 -104 -9 -15 -4 -27 24 -62 20 -24 41 -64 49 -89 61 -203 234
-610 305 -720 62 -96 148 -154 307 -205 131 -43 149 -44 169 -5 24 47 18 63
-35 97 -27 18 -70 59 -95 90 -79 100 -215 396 -339 738 -20 55 -43 113 -51
129 -9 16 -14 29 -13 30 2 1 29 10 61 20 147 45 269 120 331 205 103 141 136
290 101 454 -17 83 -51 147 -111 210 -116 120 -236 171 -554 236 -174 35 -506
103 -610 125 -94 20 -97 20 -108 -1z"/>
<path d="M956 2494 c-9 -8 -16 -19 -16 -22 0 -20 36 -55 79 -76 50 -26 110
-85 135 -134 13 -26 23 -59 41 -144 3 -17 12 -28 21 -28 14 0 16 12 12 78 -4
95 -44 187 -113 261 -68 73 -127 97 -159 65z"/>
<path d="M822 2424 c-20 -9 -34 -52 -22 -74 5 -10 38 -31 72 -47 132 -62 188
-157 192 -321 2 -126 -9 -196 -60 -356 -91 -288 -152 -546 -175 -746 -26 -232
17 -547 69 -495 4 4 5 95 4 204 -5 266 23 456 98 676 46 134 115 377 141 495
32 145 32 308 0 399 -25 70 -67 138 -115 183 -54 51 -169 97 -204 82z"/>
<path d="M822 1357 c-18 -22 -72 -198 -87 -287 -8 -47 -17 -132 -21 -190 -9
-164 14 -345 41 -318 3 3 7 76 10 164 4 174 28 336 73 509 16 61 27 116 24
123 -5 16 -27 15 -40 -1z"/>
</g>
</svg>
