<?xml version="1.0" standalone="no"?>
<!DOCTYPE svg PUBLIC "-//W3C//DTD SVG 20010904//EN"
 "http://www.w3.org/TR/2001/REC-SVG-20010904/DTD/svg10.dtd">
<svg version="1.0" xmlns="http://www.w3.org/2000/svg"
 width="256.000000pt" height="225.000000pt" viewBox="0 0 256.000000 225.000000"
 preserveAspectRatio="xMidYMid meet">

<g transform="translate(0.000000,225.000000) scale(0.100000,-0.100000)"
fill="#000000" stroke="none">
<path d="M2400 2186 c-47 -29 -191 -122 -320 -207 -129 -85 -242 -158 -250
-163 -31 -16 31 32 139 107 61 43 109 82 106 87 -3 5 0 12 6 16 8 4 9 3 5 -4
-4 -7 -3 -12 3 -12 17 0 22 18 7 23 -8 3 -77 -33 -153 -81 -76 -48 -169 -107
-208 -131 l-70 -42 48 43 c27 24 45 46 41 51 -4 4 -36 -9 -71 -28 -72 -40 -83
-43 -59 -16 9 10 14 25 10 34 -5 15 -9 15 -34 2 -52 -27 -43 -16 31 41 127 97
119 97 -23 2 -49 -32 -88 -63 -88 -69 0 -20 31 -20 65 0 50 29 56 26 15 -8
-34 -28 -34 -28 -12 -40 19 -10 27 -9 50 7 41 29 60 36 32 13 -14 -11 -28 -21
-32 -21 -13 0 -9 -27 5 -38 10 -9 26 -3 65 24 29 19 52 32 52 30 0 -3 -20 -19
-46 -36 -44 -31 -52 -52 -22 -58 8 -2 185 110 393 248 207 138 378 250 380
248 2 -2 -158 -111 -356 -242 -197 -132 -370 -249 -384 -260 l-27 -22 17 -59
c32 -110 0 -239 -80 -320 -21 -20 -67 -51 -102 -68 l-64 -30 58 -38 c62 -41
70 -44 92 -30 12 8 11 13 -10 31 l-24 22 30 -18 c17 -9 53 -33 82 -52 28 -19
58 -32 65 -30 12 4 -11 21 -141 102 l-43 28 54 48 c32 28 65 71 83 106 27 53
30 69 30 149 -1 50 -4 106 -9 125 l-8 35 294 199 c390 265 489 336 482 347 -8
14 -13 12 -104 -45z m100 40 c0 -2 -7 -7 -16 -10 -8 -3 -12 -2 -9 4 6 10 25
14 25 6z m-750 -360 c0 -2 -12 -11 -27 -20 l-28 -17 24 20 c23 21 31 25 31 17z
m92 -8 c-6 -7 -25 -22 -44 -32 -39 -23 -32 -13 14 20 38 26 45 29 30 12z
m-276 -679 c19 -22 19 -22 -3 -10 -24 12 -39 31 -25 31 5 0 17 -10 28 -21z"/>
<path d="M1614 2094 c-262 -163 -297 -184 -307 -184 -6 0 -104 18 -219 41
-235 46 -238 46 -238 -26 0 -40 2 -44 38 -57 20 -8 88 -26 150 -39 61 -13 112
-27 112 -31 0 -5 -16 -16 -35 -25 -35 -16 -35 -16 -80 16 -51 37 -88 38 -93 4
-3 -18 -11 -22 -45 -25 -38 -3 -42 -6 -45 -32 -2 -16 1 -33 7 -39 18 -18 13
-27 -26 -43 -25 -11 -33 -18 -23 -24 7 -5 26 0 46 12 53 31 57 42 28 67 -43
38 -8 54 57 27 24 -10 39 -11 52 -4 18 9 17 11 -12 29 -18 11 -29 24 -26 29
12 20 40 9 81 -31 l41 -40 68 47 c47 33 63 49 54 54 -8 5 -75 20 -149 35 -74
14 -145 29 -157 32 -19 4 -23 12 -23 44 0 31 4 39 18 39 9 0 110 -20 225 -44
l207 -43 213 139 c203 134 238 158 226 158 -3 0 -68 -39 -145 -86z"/>
<path d="M1570 2026 c-107 -73 -194 -137 -193 -142 1 -4 25 -15 52 -22 l51
-15 93 59 c174 109 187 132 18 29 -93 -55 -112 -63 -137 -56 -16 4 -29 11 -28
16 1 5 68 57 151 115 166 117 210 150 197 150 -5 -1 -97 -61 -204 -134z"/>
<path d="M886 1911 c5 -5 114 -32 243 -61 129 -28 247 -58 263 -66 16 -8 47
-31 69 -51 53 -48 60 -37 9 14 -64 63 -111 80 -351 128 -240 48 -248 50 -233
36z"/>
<path d="M1168 1752 c-50 -34 -68 -53 -68 -69 0 -29 3 -29 53 5 56 38 67 44
67 38 0 -3 -25 -22 -55 -42 -53 -36 -66 -56 -44 -69 10 -7 248 143 249 157 0
7 -90 28 -118 28 -9 -1 -47 -22 -84 -48z m82 -36 c0 -2 -8 -10 -17 -17 -16
-13 -17 -12 -4 4 13 16 21 21 21 13z"/>
<path d="M1260 1678 c-73 -50 -135 -100 -138 -110 -4 -15 -7 -17 -13 -6 -13
21 -44 -14 -32 -36 8 -14 34 0 179 94 93 60 170 114 172 119 2 5 -5 14 -16 20
-16 8 -41 -5 -152 -81z"/>
<path d="M1258 1609 c-131 -87 -178 -125 -178 -139 0 -11 5 -20 11 -20 8 0
241 147 383 242 12 8 -11 38 -28 37 -6 0 -91 -54 -188 -120z m-18 -43 c0 -2
-25 -20 -55 -40 -30 -20 -55 -34 -55 -31 0 4 101 75 107 75 2 0 3 -2 3 -4z"/>
<path d="M1001 1711 c-12 -8 -12 -12 -2 -25 15 -18 21 -19 40 -7 12 8 12 12 2
25 -15 18 -21 19 -40 7z"/>
<path d="M75 1680 c6 -10 4 -12 -8 -7 -10 3 -17 4 -17 2 0 -6 235 -169 548
-380 207 -140 250 -173 246 -189 -4 -12 -2 -16 5 -11 6 3 20 -4 31 -17 14 -18
21 -20 31 -11 6 6 9 18 7 25 -3 7 -166 121 -362 253 -195 131 -354 241 -352
243 2 2 145 -91 317 -205 173 -115 335 -222 362 -237 l47 -28 0 26 c0 23 -20
39 -152 126 -176 113 -260 172 -254 177 2 2 96 -57 210 -132 113 -74 210 -135
216 -135 5 0 10 10 10 23 0 15 -14 31 -45 51 -25 15 -44 31 -41 33 2 3 25 -9
50 -27 48 -32 66 -32 66 0 0 12 -13 26 -32 36 l-33 17 24 -27 c32 -34 23 -33
-43 4 -31 18 -60 28 -70 24 -12 -5 -5 -15 34 -46 97 -77 48 -51 -143 77 l-80
54 54 34 c30 18 77 47 104 62 44 25 48 26 31 7 -24 -28 -13 -28 30 -1 37 23
41 31 21 48 -11 8 -28 2 -73 -27 -80 -51 -84 -54 -84 -49 0 3 30 24 66 47 59
39 64 45 50 59 -14 13 -20 13 -58 -8 -38 -20 -27 -4 12 19 12 7 12 11 3 21
-10 10 -17 6 -35 -17 -37 -47 -28 -57 32 -40 15 5 3 -8 -33 -34 -31 -23 -55
-45 -52 -50 3 -5 0 -12 -6 -16 -8 -4 -9 -3 -5 4 11 18 -10 14 -25 -5 -10 -11
-10 -14 -1 -9 23 14 12 -2 -14 -18 -24 -17 -27 -16 -110 29 -59 32 -89 43
-100 37 -12 -7 26 -38 160 -131 97 -68 176 -125 176 -127 0 -2 -51 29 -112 69
-550 359 -618 401 -603 377z m70 -47 c31 -20 53 -38 51 -40 -4 -4 -116 67
-116 73 0 9 13 2 65 -33z m355 -163 c14 -11 21 -20 15 -20 -5 0 -21 9 -35 20
-14 11 -20 20 -15 20 6 0 21 -9 35 -20z m365 -170 c3 -5 2 -10 -4 -10 -5 0
-13 5 -16 10 -3 6 -2 10 4 10 5 0 13 -4 16 -10z"/>
<path d="M1311 1570 c-206 -141 -211 -145 -182 -155 17 -5 58 17 184 99 212
137 201 128 193 154 -4 12 -10 22 -14 22 -4 -1 -85 -54 -181 -120z m99 35 c0
-6 -237 -165 -247 -165 -6 0 235 167 245 169 1 1 2 -1 2 -4z"/>
<path d="M1040 1665 c-10 -12 -10 -18 0 -30 12 -14 15 -14 31 1 14 13 16 20 8
31 -15 17 -24 17 -39 -2z"/>
<path d="M883 1632 c-49 -31 -52 -39 -18 -48 33 -8 111 46 93 64 -17 17 -28
15 -75 -16z"/>
<path d="M1343 1518 c-92 -62 -168 -117 -168 -123 0 -13 166 -124 186 -125 24
0 97 56 119 93 27 44 54 116 47 124 -4 3 -25 -6 -47 -21 -62 -41 -60 -31 3 15
43 30 57 46 57 65 0 13 -2 24 -5 24 -3 0 -45 -26 -93 -58 -48 -32 -94 -62
-102 -67 -30 -16 6 13 75 60 39 27 80 57 93 68 22 20 30 57 13 57 -5 0 -85
-51 -178 -112z m133 54 c-10 -17 -266 -185 -272 -179 -5 5 261 187 274 187 2
0 1 -4 -2 -8z m-10 -83 c-50 -44 -52 -64 -4 -54 28 7 29 5 23 -16 -11 -37 -51
-85 -89 -109 l-35 -21 -45 26 c-74 43 -75 49 -14 88 82 53 203 126 207 127 2
0 -17 -18 -43 -41z"/>
<path d="M945 1604 c-11 -8 -27 -19 -35 -24 -13 -8 -13 -11 2 -26 16 -16 19
-16 52 10 22 16 33 32 30 41 -8 19 -24 19 -49 -1z"/>
<path d="M1067 1613 c-4 -3 -7 -15 -7 -25 0 -28 34 -19 38 10 3 21 -16 31 -31
15z"/>
<path d="M972 1554 c-26 -18 -28 -30 -6 -38 28 -11 55 3 52 27 -4 27 -18 31
-46 11z"/>
<path d="M1707 1523 c-2 -4 -8 -24 -12 -43 -22 -102 -92 -180 -203 -226 -79
-33 -92 -41 -92 -62 0 -14 1 -14 13 0 6 9 30 21 52 28 135 42 220 128 246 248
10 49 8 76 -4 55z"/>
<path d="M880 1491 c-27 -22 -32 -32 -24 -41 15 -15 40 -7 78 23 30 24 29 47
-2 47 -10 0 -33 -13 -52 -29z m26 -16 c-11 -8 -24 -15 -30 -15 -5 0 -1 7 10
15 10 8 24 14 29 14 6 0 1 -6 -9 -14z"/>
<path d="M1007 1504 c-8 -8 1 -24 14 -24 5 0 9 7 9 15 0 15 -12 20 -23 9z"/>
<path d="M933 1459 c-18 -12 -33 -25 -33 -30 0 -15 79 -62 95 -55 26 10 40 52
27 81 -14 31 -45 32 -89 4z m57 -10 c0 -5 4 -8 9 -5 6 4 6 -5 2 -21 -9 -30
-34 -33 -61 -7 -12 12 -12 16 5 29 24 17 45 19 45 4z"/>
<path d="M829 1441 c12 -8 12 -12 2 -25 -10 -12 -10 -16 -2 -16 7 0 9 -4 6
-10 -4 -6 4 -6 21 1 23 8 33 6 53 -9 15 -11 25 -27 23 -37 -3 -14 0 -15 17 -5
12 6 21 13 21 15 0 2 -20 18 -45 35 -39 27 -48 29 -67 19 -21 -11 -22 -11 -10
4 16 19 8 37 -16 37 -14 0 -15 -2 -3 -9z"/>
<path d="M1076 1404 c-7 -19 -8 -54 -1 -54 3 0 17 7 30 16 26 17 25 28 -5 44
-13 7 -19 6 -24 -6z"/>
<path d="M1098 1353 c-21 -14 -36 -29 -33 -33 9 -15 154 -110 168 -110 8 0 20
7 27 15 7 8 23 15 36 15 41 0 35 17 -24 57 -75 52 -82 56 -82 44 0 -5 20 -24
45 -41 52 -36 55 -47 19 -60 -23 -9 -35 -4 -96 37 -66 43 -69 47 -52 60 11 8
31 12 47 9 31 -6 36 8 8 24 -24 12 -19 14 -63 -17z"/>
<path d="M1009 1364 c-1 -5 -1 -12 0 -16 0 -4 -5 -5 -12 -2 -7 2 -21 -2 -32
-10 -20 -15 -20 -15 0 -30 11 -8 24 -14 30 -12 11 3 29 66 21 74 -3 3 -7 1 -7
-4z"/>
<path d="M1050 1277 c0 -18 20 -38 91 -86 49 -35 93 -61 95 -58 15 15 -35 72
-101 117 -41 27 -77 50 -80 50 -3 0 -5 -10 -5 -23z"/>
<path d="M1036 1233 c-21 -22 2 -46 112 -117 64 -41 123 -80 130 -86 9 -8 12
-7 12 4 0 26 -48 72 -137 133 -109 74 -109 74 -117 66z m147 -112 c7 -8 -7 -2
-30 14 -24 15 -43 30 -43 32 0 7 61 -31 73 -46z"/>
<path d="M1015 1159 c-4 -11 -3 -24 2 -29 20 -18 193 -130 201 -130 5 0 15 6
21 14 10 12 -6 27 -91 84 -57 37 -108 72 -115 75 -7 4 -14 -1 -18 -14z"/>
<path d="M1424 1168 c-9 -14 41 -58 66 -58 31 0 32 17 3 38 -39 26 -61 33 -69
20z"/>
<path d="M1250 1141 c0 -5 5 -13 10 -16 6 -3 10 -2 10 4 0 5 -4 13 -10 16 -5
3 -10 2 -10 -4z"/>
<path d="M1511 1106 c-17 -20 12 -40 46 -31 l28 7 -24 19 c-28 23 -35 23 -50
5z"/>
<path d="M996 1095 c-7 -20 91 -98 115 -92 11 3 16 0 12 -8 -7 -20 35 -39 53
-24 8 6 14 15 14 19 0 8 -166 120 -179 120 -5 0 -11 -7 -15 -15z"/>
<path d="M1450 1096 c0 -9 5 -16 10 -16 6 0 10 4 10 9 0 6 -4 13 -10 16 -5 3
-10 -1 -10 -9z"/>
<path d="M1615 1099 c-7 -11 11 -28 62 -55 26 -15 34 -16 48 -4 14 12 11 16
-27 41 -45 30 -72 36 -83 18z"/>
<path d="M1466 1071 c-3 -4 0 -16 8 -26 11 -15 16 -16 36 -5 23 12 23 13 5 26
-21 16 -41 18 -49 5z"/>
<path d="M1573 1073 c-22 -8 -14 -21 30 -52 32 -22 47 -27 60 -20 9 6 17 14
17 19 0 8 -81 61 -91 59 -2 0 -10 -3 -16 -6z"/>
<path d="M821 1048 c-19 -49 -31 -104 -45 -207 -8 -57 -18 -107 -23 -110 -5
-3 -115 -78 -244 -165 -334 -227 -487 -335 -495 -348 -10 -15 -25 -25 397 259
l376 252 7 83 c4 46 16 120 27 166 20 81 20 122 0 70z"/>
<path d="M1770 1062 c0 -6 19 -24 42 -41 40 -30 42 -30 69 -14 33 19 32 30 -1
13 -22 -12 -20 -13 -87 36 -13 9 -23 12 -23 6z"/>
<path d="M866 981 c-22 -98 -40 -221 -32 -228 10 -10 44 26 49 53 2 13 1 24
-4 24 -4 0 -2 12 6 28 7 15 18 57 25 95 10 53 10 70 0 82 -21 26 -28 17 -44
-54z"/>
<path d="M976 1035 c-6 -17 14 -39 54 -60 23 -12 30 -12 46 -1 17 13 15 16
-31 45 -56 35 -61 37 -69 16z m69 -43 c-3 -3 -11 0 -18 7 -9 10 -8 11 6 5 10
-3 15 -9 12 -12z"/>
<path d="M1514 1029 c-8 -13 13 -29 39 -29 9 0 16 -5 15 -11 -2 -6 5 -16 14
-22 14 -9 21 -8 34 5 15 15 13 18 -22 42 -41 28 -69 33 -80 15z"/>
<path d="M1724 1028 c-4 -6 1 -17 11 -25 14 -9 21 -10 26 -2 5 8 12 8 25 0 19
-10 19 -10 0 -11 -15 0 -16 -3 -6 -15 16 -19 34 -19 49 -1 10 12 5 19 -26 40
-41 28 -68 33 -79 14z"/>
<path d="M1240 995 c-10 -12 -8 -17 14 -26 32 -15 64 4 45 27 -15 18 -43 18
-59 -1z"/>
<path d="M1487 993 c14 -40 36 -63 59 -63 12 0 26 5 29 11 9 14 -27 40 -39 28
-16 -15 -30 -10 -17 5 10 12 8 17 -8 25 -27 15 -31 14 -24 -6z"/>
<path d="M1681 1001 c-12 -8 -12 -12 -2 -25 17 -20 35 -20 50 -2 10 12 8 17
-8 25 -24 13 -22 13 -40 2z"/>
<path d="M1860 980 l-35 -29 30 -25 c35 -30 22 -35 -15 -6 -32 25 -45 25 -64
-2 -9 -12 -16 -19 -16 -15 0 4 -9 3 -20 -3 -11 -6 -20 -15 -20 -21 0 -21 35
-21 75 1 l43 23 38 -22 c38 -22 38 -22 20 -2 -23 25 -15 27 22 5 15 -9 6 2
-20 25 l-47 42 32 29 c42 38 21 39 -23 0z"/>
<path d="M950 956 c-18 -64 -11 -71 38 -39 23 15 41 31 39 36 -1 4 -16 17 -33
28 l-31 19 -13 -44z m40 -5 c0 -6 -4 -13 -10 -16 -5 -3 -10 1 -10 9 0 9 5 16
10 16 6 0 10 -4 10 -9z"/>
<path d="M1084 966 c-9 -7 -14 -18 -10 -24 10 -16 51 -15 65 1 17 21 -31 40
-55 23z"/>
<path d="M1629 964 c-15 -18 0 -38 27 -32 25 5 28 25 6 37 -15 8 -23 7 -33 -5z"/>
<path d="M1734 964 c-19 -14 -19 -14 0 -28 14 -12 22 -12 37 -3 10 6 19 14 19
17 0 3 -9 11 -19 17 -15 9 -23 9 -37 -3z"/>
<path d="M1184 958 c-6 -10 20 -38 37 -38 13 0 31 29 24 40 -8 14 -52 13 -61
-2z"/>
<path d="M1295 960 c-8 -13 3 -30 20 -30 8 0 11 7 8 20 -6 22 -18 26 -28 10z"/>
<path d="M987 899 c-50 -35 -80 -79 -65 -94 7 -8 158 99 158 111 0 10 -21 24
-34 24 -2 0 -28 -18 -59 -41z m45 -1 c-6 -7 -25 -22 -44 -32 -39 -23 -32 -13
14 20 38 26 45 29 30 12z"/>
<path d="M1136 927 c-16 -12 -16 -14 -2 -26 9 -7 26 -11 38 -8 22 6 22 6 -2
-13 -14 -11 -78 -55 -142 -97 -103 -68 -118 -82 -118 -105 0 -16 2 -28 5 -28
12 0 319 217 323 228 2 7 -4 15 -14 19 -10 3 -26 15 -36 25 -21 21 -28 22 -52
5z m14 -92 c0 -4 -126 -91 -160 -110 -33 -19 4 11 77 61 84 57 83 56 83 49z"/>
<path d="M1247 929 c-14 -8 -16 -14 -6 -25 15 -18 43 -18 58 0 10 12 8 17 -8
25 -23 13 -21 13 -44 0z"/>
<path d="M1576 928 c-18 -10 -18 -12 -2 -23 20 -15 56 -8 56 10 0 7 -7 16 -16
19 -19 7 -15 8 -38 -6z"/>
<path d="M1675 926 c-18 -13 -18 -14 3 -25 17 -9 27 -9 44 0 21 11 21 12 3 25
-10 8 -22 14 -25 14 -3 0 -15 -6 -25 -14z"/>
<path d="M1003 839 c-76 -50 -93 -66 -93 -86 0 -32 7 -30 131 53 80 54 97 69
88 80 -6 8 -17 14 -23 14 -6 0 -53 -28 -103 -61z m87 27 c0 -2 -25 -20 -55
-40 -30 -20 -55 -34 -55 -31 0 4 101 75 107 75 2 0 3 -2 3 -4z"/>
<path d="M1303 889 c-15 -15 1 -39 23 -39 8 0 14 -6 14 -13 0 -8 -6 -14 -14
-14 -22 0 -407 -250 -413 -268 -1 -5 2 -17 7 -25 7 -12 36 4 156 85 273 185
286 195 279 213 -4 9 -8 28 -9 42 -1 27 -25 37 -43 19z m-223 -243 c0 -6 -126
-86 -136 -86 -5 0 23 21 61 45 72 46 75 48 75 41z"/>
<path d="M1532 883 c4 -20 18 -26 37 -14 18 12 5 31 -20 31 -14 0 -19 -6 -17
-17z"/>
<path d="M1597 872 c-33 -23 -36 -27 -23 -41 13 -12 20 -12 38 -2 44 23 71 48
64 60 -11 17 -37 12 -79 -17z"/>
<path d="M1789 860 c-18 -15 -20 -19 -8 -20 9 0 24 9 34 20 23 26 4 26 -26 0z"/>
<path d="M1089 752 c-128 -86 -175 -123 -177 -139 -2 -15 2 -23 10 -23 15 0
330 209 362 240 18 18 18 18 -1 28 -16 9 -47 -8 -194 -106z m81 24 c0 -4 -194
-140 -227 -160 -8 -4 -11 -2 -8 6 3 7 56 45 118 85 122 78 117 75 117 69z"/>
<path d="M1650 839 c-41 -30 -42 -33 -25 -45 10 -8 14 -14 9 -14 -6 0 -15 5
-21 11 -19 19 -33 0 -29 -40 4 -44 46 -111 105 -164 42 -38 51 -57 28 -57 -32
0 -117 32 -171 65 -67 40 -82 40 -34 0 38 -33 120 -71 172 -80 20 -4 39 -11
42 -16 18 -30 -142 22 -206 66 -22 15 -56 50 -75 76 l-35 49 -117 -77 c-65
-42 -198 -130 -296 -195 -99 -66 -180 -118 -182 -116 -2 2 129 91 291 198 277
184 315 216 285 234 -8 5 -131 -70 -131 -80 0 -3 14 3 31 11 72 38 25 1 -174
-135 -309 -212 -341 -236 -322 -243 18 -7 63 19 371 219 121 79 225 144 230
144 6 0 27 -21 48 -46 49 -58 113 -99 195 -124 78 -24 77 -24 101 0 32 32 24
58 -31 113 -27 27 -62 67 -76 88 -25 38 -25 40 -8 59 10 12 43 35 73 52 30 17
50 33 45 37 -5 3 -12 14 -16 24 -9 25 -28 21 -77 -14z"/>
<path d="M1560 810 c0 -5 5 -10 10 -10 6 0 10 5 10 10 0 6 -4 10 -10 10 -5 0
-10 -4 -10 -10z"/>
<path d="M1115 629 c-251 -167 -275 -183 -237 -152 21 18 22 22 12 71 -7 29
-15 52 -20 52 -4 0 -18 -9 -31 -20 l-24 -20 24 3 c20 2 26 -4 31 -30 6 -25 3
-36 -12 -49 -14 -13 -15 -19 -6 -25 15 -9 47 8 253 141 83 53 164 104 180 114
28 17 28 17 -5 -14 l-35 -32 41 22 c66 36 98 65 91 83 -4 10 -10 17 -14 17 -4
0 -116 -72 -248 -161z"/>
<path d="M842 728 c-14 -14 -16 -58 -4 -58 14 0 42 35 42 53 0 20 -21 22 -38
5z"/>
<path d="M411 457 l-364 -242 61 -3 c52 -2 64 -7 82 -29 24 -31 25 -51 4 -81
-13 -18 -13 -26 -3 -38 6 -8 9 -17 6 -20 -8 -8 -47 6 -47 17 0 5 -20 9 -45 9
-33 0 -45 -4 -45 -15 0 -8 -7 -15 -15 -15 -11 0 -15 12 -16 43 0 23 -4 60 -8
82 -6 35 -8 37 -15 17 -4 -12 -4 -52 -1 -88 9 -76 21 -86 72 -59 33 18 35 18
69 0 49 -26 67 -13 77 59 11 78 -4 106 -66 127 l-47 16 267 173 c148 95 274
178 281 183 6 5 12 7 12 4 0 -2 -54 -44 -120 -91 -66 -48 -120 -89 -120 -91 0
-6 152 92 268 172 73 51 92 69 92 89 0 13 -3 24 -7 23 -5 0 -172 -110 -372
-242z"/>
<path d="M846 654 c-19 -19 -21 -54 -3 -54 20 0 37 22 37 47 0 27 -12 29 -34
7z"/>
<path d="M635 524 c-88 -59 -164 -111 -170 -116 -15 -15 49 18 109 56 177 113
218 137 212 121 -4 -11 -2 -15 6 -13 16 6 23 37 11 49 -5 5 -77 -37 -168 -97z"/>
<path d="M285 185 c-21 -20 -25 -34 -25 -88 0 -36 5 -68 12 -75 19 -19 44 -14
62 13 9 14 23 25 31 25 8 0 25 -11 37 -25 47 -54 85 -13 74 80 -8 69 -38 95
-112 95 -45 0 -59 -4 -79 -25z m153 -11 c19 -13 22 -24 22 -80 0 -57 -2 -64
-20 -64 -15 0 -20 7 -20 26 0 24 -2 25 -52 22 -46 -3 -53 -6 -56 -25 -2 -13
-10 -23 -18 -23 -21 0 -20 117 3 142 21 23 109 25 141 2z"/>
<path d="M320 130 c0 -17 7 -20 50 -20 43 0 50 3 50 20 0 17 -7 20 -50 20 -43
0 -50 -3 -50 -20z"/>
<path d="M534 187 c-22 -19 -26 -31 -26 -76 0 -73 23 -96 104 -105 55 -5 64
-4 85 16 19 18 23 32 23 83 0 83 -22 105 -103 105 -44 0 -62 -5 -83 -23z m158
-22 c14 -31 4 -43 -22 -27 -11 7 -38 12 -60 12 l-40 0 0 -40 0 -40 42 0 c23 0
49 7 58 15 14 13 19 13 28 2 9 -10 8 -19 -4 -35 -13 -19 -25 -22 -76 -22 -72
0 -87 13 -88 78 0 68 14 82 88 82 57 0 63 -2 74 -25z m-42 -55 c0 -16 -7 -20
-30 -20 -23 0 -30 4 -30 20 0 16 7 20 30 20 23 0 30 -4 30 -20z"/>
<path d="M760 188 c-7 -14 -7 -52 -3 -98 8 -72 9 -75 35 -78 20 -2 30 3 39 20
23 44 48 45 67 2 12 -25 55 -34 67 -14 12 19 8 159 -5 175 -20 24 -48 18 -65
-15 -20 -38 -41 -38 -63 0 -21 37 -58 41 -72 8z m50 -29 c0 -29 1 -30 42 -27
35 2 45 8 56 31 7 15 20 27 28 27 16 0 19 -33 4 -60 -7 -13 -7 -21 0 -25 5 -3
10 -22 10 -41 0 -43 -24 -46 -39 -3 -10 28 -13 30 -53 27 -39 -3 -43 -6 -46
-30 -2 -16 -9 -28 -18 -28 -11 0 -14 17 -14 80 0 64 3 80 15 80 10 0 15 -10
15 -31z"/>
<path d="M1010 191 c-23 -45 -5 -152 30 -171 10 -6 51 -10 90 -10 56 0 72 3
77 16 11 28 -12 49 -65 58 -45 8 -51 12 -56 38 -3 17 -6 41 -6 53 0 37 -52 49
-70 16z m54 -60 c8 -66 13 -71 82 -71 32 0 44 -4 44 -15 0 -12 -14 -15 -67
-15 -88 0 -103 13 -103 90 0 31 3 60 7 63 19 19 31 2 37 -52z"/>
<path d="M1272 190 c-42 -39 -40 -138 3 -166 16 -11 44 -14 96 -12 l74 3 0 65
c0 36 4 71 8 77 4 7 3 22 -3 33 -9 17 -21 20 -83 20 -59 0 -77 -4 -95 -20z
m158 -4 c0 -2 3 -11 6 -20 5 -14 -4 -16 -59 -16 -36 0 -69 -4 -72 -10 -4 -6
17 -10 54 -10 54 0 61 -2 61 -20 0 -18 -7 -20 -54 -20 -57 0 -82 -13 -43 -24
12 -3 43 -6 70 -6 35 0 47 -4 47 -15 0 -12 -15 -15 -72 -15 -89 0 -108 14
-108 78 0 67 18 82 102 82 37 0 68 -2 68 -4z"/>
<path d="M1496 191 c-13 -14 -16 -28 -11 -50 8 -38 90 -131 115 -131 23 0 97
86 105 121 16 73 -49 109 -71 39 -9 -27 -18 -36 -38 -38 -18 -2 -26 1 -26 12
0 28 -23 66 -40 66 -9 0 -25 -9 -34 -19z m44 -22 c0 -39 19 -59 54 -59 37 0
52 13 58 49 4 32 24 38 31 10 8 -30 -7 -64 -47 -104 -37 -36 -56 -44 -56 -22
0 6 -16 25 -35 40 -29 23 -35 34 -35 67 0 29 4 40 15 40 8 0 15 -9 15 -21z"/>
<path d="M1870 185 c-42 -45 -36 -175 8 -175 10 0 28 11 40 25 28 32 45 32 66
0 19 -28 60 -34 70 -9 3 9 6 42 6 75 0 50 -4 64 -25 84 -20 21 -34 25 -83 25
-49 0 -62 -4 -82 -25z m152 -12 c14 -12 18 -31 18 -80 0 -56 -2 -63 -20 -63
-15 0 -20 7 -20 25 0 23 -3 25 -50 25 -47 0 -50 -2 -50 -25 0 -18 -5 -25 -20
-25 -18 0 -20 7 -20 58 0 83 16 102 87 102 38 0 62 -5 75 -17z"/>
<path d="M1907 143 c-4 -3 -7 -12 -7 -20 0 -9 15 -13 50 -13 43 0 50 3 50 20
0 17 -7 20 -43 20 -24 0 -47 -3 -50 -7z"/>
<path d="M2102 198 c-17 -17 -16 -149 2 -173 12 -17 18 -18 48 -8 18 7 49 15
70 18 20 4 48 19 63 35 24 25 27 35 22 67 -9 57 -36 73 -121 73 -43 0 -77 -5
-84 -12z m172 -30 c9 -12 16 -32 16 -43 0 -43 -27 -65 -79 -65 -31 0 -53 -5
-61 -15 -7 -8 -19 -15 -26 -15 -11 0 -14 19 -14 80 l0 80 74 0 c66 0 77 -3 90
-22z"/>
<path d="M2150 120 c0 -32 3 -33 63 -24 31 6 37 11 37 30 0 22 -4 24 -50 24
-49 0 -50 -1 -50 -30z m63 3 c-7 -2 -19 -2 -25 0 -7 3 -2 5 12 5 14 0 19 -2
13 -5z"/>
<path d="M2352 198 c-7 -7 -12 -42 -12 -89 0 -98 10 -109 81 -85 28 9 59 16
69 16 24 0 70 56 70 85 0 13 -12 37 -26 54 -24 29 -30 31 -98 31 -43 0 -77 -5
-84 -12z m165 -30 c27 -25 29 -49 7 -83 -14 -21 -24 -25 -69 -25 -38 0 -55 -4
-59 -15 -3 -8 -12 -15 -21 -15 -12 0 -15 15 -15 80 l0 80 67 0 c55 0 71 -4 90
-22z"/>
<path d="M2400 119 c0 -32 0 -32 42 -25 74 12 77 49 5 54 -47 3 -47 3 -47 -29z
m63 4 c-7 -2 -19 -2 -25 0 -7 3 -2 5 12 5 14 0 19 -2 13 -5z"/>
<path d="M60 125 c0 -25 2 -26 53 -23 44 3 52 6 52 23 0 17 -8 20 -52 23 -51
3 -53 2 -53 -23z m67 -1 c-3 -3 -12 -4 -19 -1 -8 3 -5 6 6 6 11 1 17 -2 13 -5z"/>
<path d="M1752 68 c-30 -30 3 -77 40 -57 30 16 16 69 -17 69 -6 0 -16 -5 -23
-12z m41 -23 c1 -5 -6 -11 -15 -13 -11 -2 -18 3 -18 13 0 17 30 18 33 0z"/>
</g>
</svg>
