<?xml version="1.0" encoding="UTF-8" standalone="no" ?>
<!DOCTYPE svg PUBLIC "-//W3C//DTD SVG 1.1//EN" "http://www.w3.org/Graphics/SVG/1.1/DTD/svg11.dtd">
<svg xmlns="http://www.w3.org/2000/svg" xmlns:xlink="http://www.w3.org/1999/xlink" version="1.1" width="1080" height="1080" viewBox="0 0 1080 1080" xml:space="preserve">
<desc>Created with Fabric.js 5.2.4</desc>
<defs>
</defs>
<g transform="matrix(1 0 0 1 540 540)" id="0197584f-10cb-49d2-af35-140c93ebe428"  >
</g>
<g transform="matrix(1 0 0 1 540 540)" id="95607ce4-7caf-43e8-8f2f-27466e7c91c8"  >
<rect style="stroke: none; stroke-width: 1; stroke-dasharray: none; stroke-linecap: butt; stroke-dashoffset: 0; stroke-linejoin: miter; stroke-miterlimit: 4; fill: rgb(255,255,255); fill-rule: nonzero; opacity: 1; visibility: hidden;" vector-effect="non-scaling-stroke"  x="-540" y="-540" rx="0" ry="0" width="1080" height="1080" />
</g>
<g transform="matrix(0.13 0 0 -0.13 722.9 310.35)"  >
<path style="stroke: none; stroke-width: 1; stroke-dasharray: none; stroke-linecap: butt; stroke-dashoffset: 0; stroke-linejoin: miter; stroke-miterlimit: 4; fill: rgb(0,0,0); fill-rule: nonzero; opacity: 1;" vector-effect="non-scaling-stroke"  transform=" translate(-3640.27, -4460.36)" d="M 4355 4928 C 4307 4902 4160 4813 4100 4775 C 4064 4752 3970 4691 3890 4640 C 3810 4588 3572 4431 3360 4291 C 3148 4150 2969 4034 2961 4032 C 2929 4023 2972 4057 3148 4176 C 3415 4357 3619 4502 3665 4545 C 3717 4592 3700 4582 3440 4407 C 3327 4330 3160 4218 3068 4157 L 2901 4046 L 2922 4016 C 2934 3999 2945 3984 2946 3982 C 2947 3980 2979 4001 3017 4027 C 3091 4080 3442 4313 3995 4678 C 4188 4805 4354 4915 4365 4924 C 4388 4942 4383 4944 4355 4928 z" stroke-linecap="round" />
</g>
<g transform="matrix(0.13 0 0 -0.13 701.36 381.06)"  >
<path style="stroke: none; stroke-width: 1; stroke-dasharray: none; stroke-linecap: butt; stroke-dashoffset: 0; stroke-linejoin: miter; stroke-miterlimit: 4; fill: rgb(0,0,0); fill-rule: nonzero; opacity: 1;" vector-effect="non-scaling-stroke"  transform=" translate(-3483.16, -3917.04)" d="M 4230 4808 C 4139 4747 3817 4531 3513 4328 L 2961 3959 L 2985 3904 C 3091 3664 2991 3348 2765 3211 C 2718 3183 2648 3151 2576 3126 C 2559 3120 2562 3116 2596 3098 C 2617 3087 2667 3056 2707 3029 C 2747 3002 2781 2980 2784 2980 C 2787 2980 2803 2988 2820 2999 L 2851 3018 L 2768 3076 C 2723 3107 2691 3135 2697 3137 C 2707 3141 2955 2987 3028 2932 C 3055 2911 3062 2910 3076 2921 C 3090 2933 3090 2935 3073 2941 C 3063 2945 3012 2976 2960 3011 C 2908 3046 2839 3089 2807 3105 C 2776 3122 2750 3140 2750 3145 C 2750 3151 2770 3168 2794 3183 C 2910 3256 3013 3405 3046 3549 C 3069 3644 3060 3794 3027 3882 C 3008 3932 3004 3951 3013 3958 C 3020 3964 3205 4089 3425 4236 C 4088 4680 4433 4922 4398 4920 C 4396 4920 4321 4870 4230 4808 z M 2740 3070 C 2797 3018 2799 3010 2751 3035 C 2735 3043 2719 3046 2715 3042 C 2710 3038 2710 3041 2714 3048 C 2718 3054 2718 3060 2713 3060 C 2695 3061 2658 3098 2664 3109 C 2675 3127 2682 3123 2740 3070 z" stroke-linecap="round" />
</g>
<g transform="matrix(0.13 0 0 -0.13 538.89 327.05)"  >
<path style="stroke: none; stroke-width: 1; stroke-dasharray: none; stroke-linecap: butt; stroke-dashoffset: 0; stroke-linejoin: miter; stroke-miterlimit: 4; fill: rgb(0,0,0); fill-rule: nonzero; opacity: 1;" vector-effect="non-scaling-stroke"  transform=" translate(-2262.67, -4335.01)" d="M 3033 4785 C 2960 4744 2763 4621 2540 4475 C 2326 4335 2332 4338 2273 4350 C 2247 4356 2180 4369 2125 4380 C 2070 4391 2007 4404 1985 4409 C 1898 4429 1584 4490 1564 4490 C 1530 4490 1507 4445 1507 4377 C 1507 4325 1510 4314 1532 4295 C 1545 4284 1583 4268 1616 4261 C 1815 4219 1871 4207 1925 4195 C 1958 4188 2000 4179 2018 4175 C 2035 4171 2050 4164 2050 4160 C 2050 4151 1952 4084 1923 4073 C 1916 4070 1883 4093 1848 4124 C 1760 4204 1700 4216 1669 4159 C 1663 4147 1661 4127 1665 4113 C 1670 4091 1669 4089 1648 4097 C 1613 4109 1544 4106 1526 4091 C 1500 4069 1505 4001 1536 3969 L 1562 3941 L 1514 3911 C 1484 3892 1456 3881 1442 3883 C 1420 3887 1420 3886 1436 3869 C 1445 3858 1457 3850 1461 3850 C 1472 3850 1624 3949 1628 3958 C 1629 3962 1611 3972 1589 3980 C 1539 3998 1525 4017 1534 4053 C 1539 4076 1546 4080 1578 4080 C 1598 4080 1642 4066 1675 4050 C 1735 4021 1735 4021 1764 4040 L 1794 4058 L 1746 4080 C 1693 4106 1672 4133 1691 4156 C 1719 4190 1782 4159 1860 4072 L 1910 4016 L 1932 4036 C 1957 4057 2047 4118 2119 4161 L 2163 4188 L 2104 4200 C 2072 4206 1941 4234 1814 4261 C 1688 4288 1574 4310 1561 4310 C 1541 4310 1539 4314 1544 4335 C 1548 4350 1546 4360 1540 4360 C 1533 4360 1532 4378 1536 4413 C 1540 4441 1543 4466 1544 4467 C 1546 4470 1820 4415 2005 4375 C 2093 4356 2181 4338 2200 4335 C 2219 4332 2258 4325 2285 4319 L 2336 4308 L 2650 4515 C 3078 4797 3113 4821 3098 4820 C 3096 4820 3067 4804 3033 4785 z" stroke-linecap="round" />
</g>
<g transform="matrix(0.13 0 0 -0.13 606.11 302.7)"  >
<path style="stroke: none; stroke-width: 1; stroke-dasharray: none; stroke-linecap: butt; stroke-dashoffset: 0; stroke-linejoin: miter; stroke-miterlimit: 4; fill: rgb(0,0,0); fill-rule: nonzero; opacity: 1;" vector-effect="non-scaling-stroke"  transform=" translate(-2755.01, -4522.81)" d="M 2985 4712 C 2605 4456 2390 4309 2388 4304 C 2386 4300 2426 4288 2475 4276 C 2525 4264 2571 4251 2578 4247 C 2585 4242 2653 4281 2747 4343 C 2834 4399 2921 4456 2941 4468 C 2961 4480 2984 4498 2991 4507 C 3009 4529 2925 4482 2742 4368 L 2599 4278 L 2529 4295 C 2491 4305 2460 4315 2460 4319 C 2460 4322 2533 4375 2622 4435 C 2927 4642 3146 4802 3120 4799 C 3117 4799 3057 4760 2985 4712 z" stroke-linecap="round" />
</g>
<g transform="matrix(0.13 0 0 -0.13 672.88 328.11)"  >
<path style="stroke: none; stroke-width: 1; stroke-dasharray: none; stroke-linecap: butt; stroke-dashoffset: 0; stroke-linejoin: miter; stroke-miterlimit: 4; fill: rgb(0,0,0); fill-rule: nonzero; opacity: 1;" vector-effect="non-scaling-stroke"  transform=" translate(-3257.13, -4332.5)" d="M 3586 4550 C 3508 4505 3349 4404 3006 4182 C 2946 4143 2892 4114 2887 4117 C 2876 4124 2892 4138 2994 4213 C 3057 4260 3105 4305 3070 4285 C 3043 4269 2845 4138 2836 4129 C 2831 4124 2839 4109 2856 4093 L 2885 4065 L 3155 4245 C 3304 4344 3483 4463 3553 4508 C 3664 4581 3689 4600 3677 4600 C 3675 4600 3635 4577 3586 4550 z" stroke-linecap="round" />
</g>
<g transform="matrix(0.13 0 0 -0.13 615.91 326.6)"  >
<path style="stroke: none; stroke-width: 1; stroke-dasharray: none; stroke-linecap: butt; stroke-dashoffset: 0; stroke-linejoin: miter; stroke-miterlimit: 4; fill: rgb(0,0,0); fill-rule: nonzero; opacity: 1;" vector-effect="non-scaling-stroke"  transform=" translate(-2824, -4346.89)" d="M 2820 4365 C 2718 4296 2636 4237 2637 4233 C 2638 4229 2654 4220 2674 4212 C 2708 4199 2710 4199 2789 4251 C 2834 4280 2868 4305 2866 4307 C 2864 4310 2827 4293 2784 4271 C 2741 4249 2704 4233 2702 4235 C 2693 4243 2715 4262 2823 4338 C 2926 4412 3022 4489 3010 4489 C 3007 4489 2922 4433 2820 4365 z" stroke-linecap="round" />
</g>
<g transform="matrix(0.13 0 0 -0.13 519.36 348.55)"  >
<path style="stroke: none; stroke-width: 1; stroke-dasharray: none; stroke-linecap: butt; stroke-dashoffset: 0; stroke-linejoin: miter; stroke-miterlimit: 4; fill: rgb(0,0,0); fill-rule: nonzero; opacity: 1;" vector-effect="non-scaling-stroke"  transform=" translate(-2108.99, -4180.97)" d="M 1565 4371 C 1555 4354 1506 4366 2085 4244 C 2234 4213 2378 4179 2406 4169 C 2482 4140 2570 4080 2614 4026 C 2635 4000 2654 3981 2657 3984 C 2667 3993 2619 4059 2571 4102 C 2510 4156 2370 4227 2349 4215 C 2344 4211 2340 4214 2340 4219 C 2340 4225 2330 4230 2318 4230 C 2293 4230 2288 4231 1862 4321 C 1539 4388 1573 4383 1565 4371 z" stroke-linecap="round" />
</g>
<g transform="matrix(0.13 0 0 -0.13 626.7 342.49)"  >
<path style="stroke: none; stroke-width: 1; stroke-dasharray: none; stroke-linecap: butt; stroke-dashoffset: 0; stroke-linejoin: miter; stroke-miterlimit: 4; fill: rgb(0,0,0); fill-rule: nonzero; opacity: 1;" vector-effect="non-scaling-stroke"  transform=" translate(-2904.38, -4229.02)" d="M 2995 4281 C 2957 4260 2903 4229 2876 4212 C 2829 4182 2790 4171 2790 4188 C 2790 4192 2814 4217 2842 4243 C 2871 4270 2888 4288 2880 4284 C 2843 4265 2735 4187 2738 4181 C 2740 4178 2757 4167 2774 4156 L 2807 4138 L 2938 4224 C 3051 4298 3081 4321 3068 4320 C 3066 4320 3034 4302 2995 4281 z" stroke-linecap="round" />
</g>
<g transform="matrix(0.13 0 0 -0.13 528.66 371.89)"  >
<path style="stroke: none; stroke-width: 1; stroke-dasharray: none; stroke-linecap: butt; stroke-dashoffset: 0; stroke-linejoin: miter; stroke-miterlimit: 4; fill: rgb(0,0,0); fill-rule: nonzero; opacity: 1;" vector-effect="non-scaling-stroke"  transform=" translate(-2171.05, -4006.48)" d="M 2055 4089 C 1984 4041 1925 3997 1926 3993 C 1927 3975 1943 3930 1948 3930 C 1951 3930 1961 3936 1969 3944 C 2009 3978 2273 4141 2283 4137 C 2289 4135 2217 4081 2123 4017 L 1951 3900 L 1960 3868 C 1965 3851 1971 3836 1973 3834 C 1975 3832 2049 3879 2137 3939 C 2225 3999 2325 4064 2359 4085 C 2393 4106 2418 4125 2416 4127 C 2411 4133 2208 4180 2195 4179 C 2190 4179 2127 4138 2055 4089 z M 2186 4121 C 2183 4117 2154 4097 2123 4078 C 2091 4059 2052 4035 2035 4025 C 1974 3987 2034 4038 2105 4084 C 2172 4128 2197 4140 2186 4121 z M 2309 4091 C 2296 4081 2238 4042 2180 4005 C 2122 3967 2065 3928 2053 3917 C 2040 3906 2030 3901 2030 3906 C 2031 3921 2293 4110 2314 4110 C 2331 4110 2330 4108 2309 4091 z" stroke-linecap="round" />
</g>
<g transform="matrix(0.13 0 0 -0.13 533.16 387.52)"  >
<path style="stroke: none; stroke-width: 1; stroke-dasharray: none; stroke-linecap: butt; stroke-dashoffset: 0; stroke-linejoin: miter; stroke-miterlimit: 4; fill: rgb(0,0,0); fill-rule: nonzero; opacity: 1;" vector-effect="non-scaling-stroke"  transform=" translate(-2206.5, -3888.02)" d="M 2435 4110 C 2431 4104 2327 4032 2202 3949 C 2028 3834 1975 3794 1973 3777 C 1973 3765 1972 3749 1971 3743 C 1969 3719 1950 3730 1950 3755 C 1950 3780 1950 3780 1919 3764 C 1895 3752 1889 3744 1894 3727 C 1897 3715 1900 3694 1900 3681 C 1900 3660 1902 3659 1920 3671 C 2046 3760 2501 4060 2509 4060 C 2533 4060 2518 4081 2481 4100 C 2456 4112 2439 4116 2435 4110 z M 2142 3862 C 2129 3853 2104 3833 2086 3818 C 2068 3803 2050 3793 2046 3797 C 2043 3800 2040 3799 2040 3793 C 2040 3787 2033 3780 2025 3776 C 2016 3773 2010 3776 2010 3786 C 2010 3794 2014 3799 2019 3796 C 2023 3793 2035 3799 2045 3810 C 2055 3821 2068 3830 2074 3830 C 2080 3830 2099 3841 2115 3855 C 2132 3868 2150 3879 2155 3879 C 2161 3879 2155 3871 2142 3862 z" stroke-linecap="round" />
</g>
<g transform="matrix(0.13 0 0 -0.13 539.61 398.26)"  >
<path style="stroke: none; stroke-width: 1; stroke-dasharray: none; stroke-linecap: butt; stroke-dashoffset: 0; stroke-linejoin: miter; stroke-miterlimit: 4; fill: rgb(0,0,0); fill-rule: nonzero; opacity: 1;" vector-effect="non-scaling-stroke"  transform=" translate(-2256, -3806.79)" d="M 2525 4050 C 2518 4039 1978 3680 1933 3656 C 1904 3642 1900 3634 1900 3600 C 1900 3579 1905 3558 1910 3555 C 1916 3551 2061 3643 2233 3758 C 2404 3873 2560 3975 2579 3984 L 2612 4002 L 2579 4030 C 2542 4062 2534 4065 2525 4050 z M 2530 4001 C 2530 3996 2484 3961 2428 3924 C 2371 3886 2240 3798 2137 3728 C 2034 3657 1947 3600 1944 3600 C 1942 3600 1940 3606 1940 3614 C 1940 3622 2011 3673 2098 3729 C 2184 3784 2316 3870 2390 3920 C 2464 3969 2526 4010 2528 4010 C 2529 4010 2530 4006 2530 4001 z" stroke-linecap="round" />
</g>
<g transform="matrix(0.13 0 0 -0.13 480.21 372.97)"  >
<path style="stroke: none; stroke-width: 1; stroke-dasharray: none; stroke-linecap: butt; stroke-dashoffset: 0; stroke-linejoin: miter; stroke-miterlimit: 4; fill: rgb(0,0,0); fill-rule: nonzero; opacity: 1;" vector-effect="non-scaling-stroke"  transform=" translate(-1803, -4001.55)" d="M 1776 4025 L 1746 4001 L 1772 3975 C 1797 3950 1798 3950 1829 3967 C 1846 3977 1860 3988 1860 3991 C 1860 3994 1848 4008 1833 4022 L 1805 4048 L 1776 4025 z" stroke-linecap="round" />
</g>
<g transform="matrix(0.13 0 0 -0.13 357.9 448.03)"  >
<path style="stroke: none; stroke-width: 1; stroke-dasharray: none; stroke-linecap: butt; stroke-dashoffset: 0; stroke-linejoin: miter; stroke-miterlimit: 4; fill: rgb(0,0,0); fill-rule: nonzero; opacity: 1;" vector-effect="non-scaling-stroke"  transform=" translate(-903.26, -3426.17)" d="M 150 3961 C 232 3890 505 3701 1115 3292 C 1341 3141 1533 3010 1543 3002 C 1559 2988 1559 2986 1539 2972 C 1524 2961 1521 2955 1530 2946 C 1538 2938 1544 2939 1551 2952 C 1565 2976 1591 2963 1584 2936 C 1580 2919 1585 2911 1607 2900 C 1622 2892 1638 2884 1642 2882 C 1647 2880 1664 2929 1665 2951 C 1665 2954 1379 3148 1030 3382 C 681 3615 365 3827 329 3852 C 207 3936 112 3994 150 3961 z" stroke-linecap="round" />
</g>
<g transform="matrix(0.13 0 0 -0.13 361.54 439.85)"  >
<path style="stroke: none; stroke-width: 1; stroke-dasharray: none; stroke-linecap: butt; stroke-dashoffset: 0; stroke-linejoin: miter; stroke-miterlimit: 4; fill: rgb(0,0,0); fill-rule: nonzero; opacity: 1;" vector-effect="non-scaling-stroke"  transform=" translate(-930.5, -3488.67)" d="M 170 3987 C 170 3982 208 3956 770 3585 C 1042 3405 1349 3201 1453 3131 C 1556 3062 1647 3001 1655 2995 C 1673 2983 1677 2987 1685 3030 L 1691 3066 L 1396 3264 C 1222 3380 1095 3458 1089 3454 C 1082 3450 1080 3451 1084 3458 C 1088 3464 1067 3485 1034 3507 C 881 3611 817 3651 829 3636 C 859 3600 1173 3377 1533 3136 C 1597 3093 1650 3053 1650 3048 C 1650 3036 1673 3021 1305 3265 C 530 3778 170 4007 170 3987 z" stroke-linecap="round" />
</g>
<g transform="matrix(0.13 0 0 -0.13 546.63 407.02)"  >
<path style="stroke: none; stroke-width: 1; stroke-dasharray: none; stroke-linecap: butt; stroke-dashoffset: 0; stroke-linejoin: miter; stroke-miterlimit: 4; fill: rgb(0,0,0); fill-rule: nonzero; opacity: 1;" vector-effect="non-scaling-stroke"  transform=" translate(-2308.45, -3741.28)" d="M 2604 3979 C 2601 3973 2450 3870 2269 3750 C 1972 3552 1944 3531 1963 3521 C 1975 3515 1992 3505 2001 3498 C 2015 3488 2069 3521 2336 3700 C 2512 3817 2656 3914 2658 3916 C 2663 3919 2631 3978 2621 3985 C 2616 3988 2608 3985 2604 3979 z M 2600 3916 C 2592 3908 2533 3867 2470 3825 C 2407 3782 2285 3698 2199 3638 C 2055 3539 2010 3515 2010 3539 C 2010 3544 2115 3615 2243 3698 C 2370 3781 2500 3867 2530 3889 C 2584 3929 2633 3947 2600 3916 z" stroke-linecap="round" />
</g>
<g transform="matrix(0.13 0 0 -0.13 488.81 383.77)"  >
<path style="stroke: none; stroke-width: 1; stroke-dasharray: none; stroke-linecap: butt; stroke-dashoffset: 0; stroke-linejoin: miter; stroke-miterlimit: 4; fill: rgb(0,0,0); fill-rule: nonzero; opacity: 1;" vector-effect="non-scaling-stroke"  transform=" translate(-1867.43, -3920.44)" d="M 1842 3949 C 1812 3929 1810 3926 1825 3910 C 1833 3901 1840 3888 1840 3882 C 1840 3864 1862 3868 1892 3893 L 1919 3915 L 1897 3943 L 1875 3970 L 1842 3949 z" stroke-linecap="round" />
</g>
<g transform="matrix(0.13 0 0 -0.13 453.69 391.22)"  >
<path style="stroke: none; stroke-width: 1; stroke-dasharray: none; stroke-linecap: butt; stroke-dashoffset: 0; stroke-linejoin: miter; stroke-miterlimit: 4; fill: rgb(0,0,0); fill-rule: nonzero; opacity: 1;" vector-effect="non-scaling-stroke"  transform=" translate(-1605.5, -3864)" d="M 1568 3884 L 1490 3831 L 1525 3810 L 1559 3789 L 1640 3842 L 1721 3895 L 1695 3917 C 1681 3930 1664 3939 1657 3939 C 1650 3938 1610 3914 1568 3884 z M 1623 3867 C 1591 3840 1555 3824 1566 3841 C 1573 3853 1631 3890 1643 3890 C 1648 3890 1639 3880 1623 3867 z" stroke-linecap="round" />
</g>
<g transform="matrix(0.13 0 0 -0.13 555.42 429.42)"  >
<path style="stroke: none; stroke-width: 1; stroke-dasharray: none; stroke-linecap: butt; stroke-dashoffset: 0; stroke-linejoin: miter; stroke-miterlimit: 4; fill: rgb(0,0,0); fill-rule: nonzero; opacity: 1;" vector-effect="non-scaling-stroke"  transform=" translate(-2373.83, -3571.4)" d="M 2504 3782 C 2416 3723 2275 3630 2192 3575 C 2109 3521 2044 3473 2048 3469 C 2052 3465 2127 3414 2215 3356 C 2331 3279 2381 3251 2396 3254 C 2433 3264 2539 3340 2574 3383 C 2592 3406 2617 3443 2628 3465 C 2649 3508 2692 3642 2686 3648 C 2684 3650 2660 3636 2633 3617 C 2607 3598 2566 3572 2543 3560 C 2519 3547 2500 3533 2500 3528 C 2500 3519 2532 3531 2590 3560 C 2627 3579 2630 3579 2630 3563 C 2629 3538 2597 3468 2559 3414 C 2526 3365 2421 3290 2386 3290 C 2361 3290 2178 3409 2183 3423 C 2185 3429 2235 3463 2296 3500 C 2428 3581 2551 3658 2604 3694 C 2646 3722 2660 3726 2660 3710 C 2660 3704 2639 3685 2613 3667 C 2552 3626 2478 3559 2485 3552 C 2488 3549 2505 3557 2523 3570 C 2540 3583 2584 3614 2620 3639 C 2656 3663 2688 3688 2692 3694 C 2701 3707 2703 3780 2694 3780 C 2691 3780 2570 3701 2424 3604 C 2152 3425 2130 3411 2130 3427 C 2130 3432 2256 3519 2409 3620 C 2618 3758 2689 3810 2689 3825 C 2690 3852 2679 3890 2671 3889 C 2668 3889 2593 3840 2504 3782 z M 2643 3811 C 2639 3808 2587 3773 2530 3734 C 2472 3694 2362 3617 2285 3561 C 2152 3465 2094 3437 2102 3475 C 2106 3495 2644 3842 2649 3828 C 2651 3822 2648 3815 2643 3811 z" stroke-linecap="round" />
</g>
<g transform="matrix(0.13 0 0 -0.13 462.94 399.29)"  >
<path style="stroke: none; stroke-width: 1; stroke-dasharray: none; stroke-linecap: butt; stroke-dashoffset: 0; stroke-linejoin: miter; stroke-miterlimit: 4; fill: rgb(0,0,0); fill-rule: nonzero; opacity: 1;" vector-effect="non-scaling-stroke"  transform=" translate(-1674.5, -3803.5)" d="M 1657 3825 L 1579 3772 L 1613 3751 L 1648 3730 L 1709 3772 C 1743 3795 1770 3816 1770 3819 C 1770 3822 1762 3837 1752 3851 L 1735 3877 L 1657 3825 z M 1695 3800 C 1685 3789 1670 3780 1661 3780 C 1649 3780 1652 3786 1670 3800 C 1703 3826 1718 3826 1695 3800 z" stroke-linecap="round" />
</g>
<g transform="matrix(0.13 0 0 -0.13 493.83 396.51)"  >
<path style="stroke: none; stroke-width: 1; stroke-dasharray: none; stroke-linecap: butt; stroke-dashoffset: 0; stroke-linejoin: miter; stroke-miterlimit: 4; fill: rgb(0,0,0); fill-rule: nonzero; opacity: 1;" vector-effect="non-scaling-stroke"  transform=" translate(-1904.73, -3824.8)" d="M 1896 3865 C 1886 3857 1873 3849 1869 3848 C 1862 3846 1874 3793 1887 3772 C 1888 3770 1902 3778 1918 3790 C 1945 3810 1947 3814 1937 3846 C 1925 3884 1923 3885 1896 3865 z" stroke-linecap="round" />
</g>
<g transform="matrix(0.13 0 0 -0.13 423.71 399.11)"  >
<path style="stroke: none; stroke-width: 1; stroke-dasharray: none; stroke-linecap: butt; stroke-dashoffset: 0; stroke-linejoin: miter; stroke-miterlimit: 4; fill: rgb(0,0,0); fill-rule: nonzero; opacity: 1;" vector-effect="non-scaling-stroke"  transform=" translate(-1379.56, -3805.04)" d="M 1400 3861 C 1412 3852 1406 3842 1363 3802 C 1314 3757 1293 3728 1323 3747 C 1383 3785 1450 3834 1450 3840 C 1450 3844 1442 3850 1433 3854 C 1423 3857 1408 3863 1400 3866 C 1387 3871 1387 3870 1400 3861 z" stroke-linecap="round" />
</g>
<g transform="matrix(0.13 0 0 -0.13 420.73 415.58)"  >
<path style="stroke: none; stroke-width: 1; stroke-dasharray: none; stroke-linecap: butt; stroke-dashoffset: 0; stroke-linejoin: miter; stroke-miterlimit: 4; fill: rgb(0,0,0); fill-rule: nonzero; opacity: 1;" vector-effect="non-scaling-stroke"  transform=" translate(-1359.96, -3679.74)" d="M 1429 3792 C 1408 3777 1377 3757 1360 3747 C 1300 3715 1339 3717 1406 3750 C 1442 3767 1474 3779 1477 3776 C 1485 3769 1500 3781 1334 3662 C 1123 3509 1130 3501 1347 3646 L 1540 3775 L 1512 3797 C 1478 3825 1473 3825 1429 3792 z" stroke-linecap="round" />
</g>
<g transform="matrix(0.13 0 0 -0.13 472.23 408.87)"  >
<path style="stroke: none; stroke-width: 1; stroke-dasharray: none; stroke-linecap: butt; stroke-dashoffset: 0; stroke-linejoin: miter; stroke-miterlimit: 4; fill: rgb(0,0,0); fill-rule: nonzero; opacity: 1;" vector-effect="non-scaling-stroke"  transform=" translate(-1743.32, -3732.06)" d="M 1727 3755 C 1700 3737 1679 3719 1679 3715 C 1679 3711 1693 3699 1710 3689 C 1740 3670 1741 3670 1773 3692 C 1791 3705 1806 3715 1807 3715 C 1812 3717 1786 3790 1781 3789 C 1778 3788 1753 3773 1727 3755 z" stroke-linecap="round" />
</g>
<g transform="matrix(0.13 0 0 -0.13 408.58 448.75)"  >
<path style="stroke: none; stroke-width: 1; stroke-dasharray: none; stroke-linecap: butt; stroke-dashoffset: 0; stroke-linejoin: miter; stroke-miterlimit: 4; fill: rgb(0,0,0); fill-rule: nonzero; opacity: 1;" vector-effect="non-scaling-stroke"  transform=" translate(-1275.62, -3425.98)" d="M 1345 3620 C 1230 3543 1131 3480 1126 3480 C 1121 3480 1125 3489 1135 3500 C 1152 3519 1152 3520 1137 3514 C 1125 3510 1080 3531 1002 3578 C 788 3705 763 3710 950 3588 C 1013 3547 1207 3419 1380 3304 C 1553 3189 1697 3094 1700 3092 C 1703 3091 1711 3108 1717 3130 L 1727 3171 L 1576 3270 C 1464 3344 1438 3358 1475 3325 C 1503 3301 1562 3255 1607 3223 C 1652 3191 1689 3162 1690 3158 C 1690 3144 1663 3150 1639 3168 C 1626 3178 1515 3251 1393 3329 C 1270 3408 1170 3478 1170 3484 C 1170 3490 1194 3508 1223 3523 C 1251 3539 1336 3590 1411 3636 C 1583 3742 1618 3745 1486 3642 C 1427 3596 1471 3610 1549 3661 L 1630 3715 L 1602 3737 C 1587 3750 1571 3760 1565 3760 C 1560 3759 1461 3696 1345 3620 z" stroke-linecap="round" />
</g>
<g transform="matrix(0.13 0 0 -0.13 601.72 449.07)"  >
<path style="stroke: none; stroke-width: 1; stroke-dasharray: none; stroke-linecap: butt; stroke-dashoffset: 0; stroke-linejoin: miter; stroke-miterlimit: 4; fill: rgb(0,0,0); fill-rule: nonzero; opacity: 1;" vector-effect="non-scaling-stroke"  transform=" translate(-2719.87, -3423.92)" d="M 2992 3742 C 2991 3729 2983 3685 2974 3643 C 2926 3411 2777 3264 2511 3189 C 2486 3181 2461 3166 2452 3153 C 2438 3131 2438 3127 2455 3112 C 2472 3096 2472 3096 2466 3121 C 2461 3146 2463 3148 2522 3160 C 2626 3183 2773 3261 2845 3333 C 2947 3436 3006 3583 2997 3713 C 2995 3741 2993 3755 2992 3742 z" stroke-linecap="round" />
</g>
<g transform="matrix(0.13 0 0 -0.13 454.18 423.14)"  >
<path style="stroke: none; stroke-width: 1; stroke-dasharray: none; stroke-linecap: butt; stroke-dashoffset: 0; stroke-linejoin: miter; stroke-miterlimit: 4; fill: rgb(0,0,0); fill-rule: nonzero; opacity: 1;" vector-effect="non-scaling-stroke"  transform=" translate(-1609.11, -3624.5)" d="M 1575 3654 C 1536 3628 1502 3605 1498 3601 C 1494 3598 1506 3584 1524 3572 L 1558 3549 L 1639 3603 L 1721 3658 L 1687 3679 C 1668 3691 1651 3700 1649 3700 C 1647 3700 1613 3679 1575 3654 z M 1632 3631 C 1583 3589 1552 3574 1539 3587 C 1531 3595 1543 3607 1581 3629 C 1649 3668 1677 3669 1632 3631 z" stroke-linecap="round" />
</g>
<g transform="matrix(0.13 0 0 -0.13 478.37 419.21)"  >
<path style="stroke: none; stroke-width: 1; stroke-dasharray: none; stroke-linecap: butt; stroke-dashoffset: 0; stroke-linejoin: miter; stroke-miterlimit: 4; fill: rgb(0,0,0); fill-rule: nonzero; opacity: 1;" vector-effect="non-scaling-stroke"  transform=" translate(-1788.5, -3655.14)" d="M 1781 3674 L 1757 3657 L 1781 3639 C 1815 3613 1820 3615 1820 3655 C 1820 3694 1814 3697 1781 3674 z" stroke-linecap="round" />
</g>
<g transform="matrix(0.13 0 0 -0.13 466.1 435.18)"  >
<path style="stroke: none; stroke-width: 1; stroke-dasharray: none; stroke-linecap: butt; stroke-dashoffset: 0; stroke-linejoin: miter; stroke-miterlimit: 4; fill: rgb(0,0,0); fill-rule: nonzero; opacity: 1;" vector-effect="non-scaling-stroke"  transform=" translate(-1698.77, -3533.51)" d="M 1652 3588 L 1579 3539 L 1664 3484 L 1749 3428 L 1779 3449 C 1802 3466 1810 3480 1815 3521 C 1819 3548 1820 3574 1816 3577 C 1813 3580 1796 3570 1778 3554 C 1760 3539 1753 3529 1763 3533 C 1779 3539 1781 3535 1778 3507 C 1776 3481 1770 3474 1750 3472 C 1725 3469 1630 3521 1630 3538 C 1630 3542 1653 3560 1682 3577 C 1719 3600 1737 3606 1746 3599 C 1753 3593 1756 3582 1753 3573 C 1748 3560 1751 3560 1779 3574 C 1796 3583 1810 3592 1810 3594 C 1810 3601 1743 3640 1734 3639 C 1729 3638 1692 3615 1652 3588 z" stroke-linecap="round" />
</g>
<g transform="matrix(0.13 0 0 -0.13 438.06 436.26)"  >
<path style="stroke: none; stroke-width: 1; stroke-dasharray: none; stroke-linecap: butt; stroke-dashoffset: 0; stroke-linejoin: miter; stroke-miterlimit: 4; fill: rgb(0,0,0); fill-rule: nonzero; opacity: 1;" vector-effect="non-scaling-stroke"  transform=" translate(-1486.75, -3526.61)" d="M 1459 3573 C 1451 3564 1450 3559 1457 3563 C 1471 3572 1500 3561 1500 3547 C 1500 3541 1485 3521 1468 3502 L 1435 3468 L 1487 3501 C 1544 3538 1550 3547 1523 3557 C 1513 3560 1498 3569 1489 3577 C 1475 3589 1471 3588 1459 3573 z" stroke-linecap="round" />
</g>
<g transform="matrix(0.13 0 0 -0.13 451.67 446.33)"  >
<path style="stroke: none; stroke-width: 1; stroke-dasharray: none; stroke-linecap: butt; stroke-dashoffset: 0; stroke-linejoin: miter; stroke-miterlimit: 4; fill: rgb(0,0,0); fill-rule: nonzero; opacity: 1;" vector-effect="non-scaling-stroke"  transform=" translate(-1590.97, -3450.64)" d="M 1504 3488 C 1436 3444 1439 3439 1511 3475 C 1566 3503 1573 3502 1643 3447 C 1685 3415 1686 3399 1649 3389 C 1629 3384 1628 3382 1642 3376 C 1652 3371 1671 3377 1693 3392 L 1727 3415 L 1645 3471 L 1562 3527 L 1504 3488 z" stroke-linecap="round" />
</g>
<g transform="matrix(0.13 0 0 -0.13 497.56 445.87)"  >
<path style="stroke: none; stroke-width: 1; stroke-dasharray: none; stroke-linecap: butt; stroke-dashoffset: 0; stroke-linejoin: miter; stroke-miterlimit: 4; fill: rgb(0,0,0); fill-rule: nonzero; opacity: 1;" vector-effect="non-scaling-stroke"  transform=" translate(-1933.09, -3454.33)" d="M 1904 3512 C 1897 3508 1889 3479 1885 3447 L 1878 3390 L 1931 3426 C 1961 3446 1986 3465 1988 3470 C 1990 3474 1975 3487 1955 3499 C 1914 3523 1918 3522 1904 3512 z" stroke-linecap="round" />
</g>
<g transform="matrix(0.13 0 0 -0.13 512.22 465.16)"  >
<path style="stroke: none; stroke-width: 1; stroke-dasharray: none; stroke-linecap: butt; stroke-dashoffset: 0; stroke-linejoin: miter; stroke-miterlimit: 4; fill: rgb(0,0,0); fill-rule: nonzero; opacity: 1;" vector-effect="non-scaling-stroke"  transform=" translate(-2046.18, -3307.51)" d="M 1975 3434 C 1959 3420 1928 3400 1908 3390 C 1888 3379 1869 3366 1866 3362 C 1861 3354 2155 3155 2170 3155 C 2173 3155 2189 3165 2205 3178 C 2229 3197 2231 3203 2220 3210 C 2210 3216 2200 3214 2188 3204 C 2179 3195 2165 3191 2158 3195 C 2089 3235 1919 3348 1915 3358 C 1910 3372 1981 3420 2009 3420 C 2019 3420 2033 3413 2040 3405 C 2054 3388 2076 3385 2084 3399 C 2089 3406 2019 3461 2008 3460 C 2006 3459 1992 3448 1975 3434 z" stroke-linecap="round" />
</g>
<g transform="matrix(0.13 0 0 -0.13 478.61 450.6)"  >
<path style="stroke: none; stroke-width: 1; stroke-dasharray: none; stroke-linecap: butt; stroke-dashoffset: 0; stroke-linejoin: miter; stroke-miterlimit: 4; fill: rgb(0,0,0); fill-rule: nonzero; opacity: 1;" vector-effect="non-scaling-stroke"  transform=" translate(-1790.05, -3419.88)" d="M 1786 3434 C 1770 3423 1769 3418 1781 3404 C 1793 3389 1795 3391 1802 3416 C 1811 3450 1810 3452 1786 3434 z" stroke-linecap="round" />
</g>
<g transform="matrix(0.13 0 0 -0.13 470.33 460.33)"  >
<path style="stroke: none; stroke-width: 1; stroke-dasharray: none; stroke-linecap: butt; stroke-dashoffset: 0; stroke-linejoin: miter; stroke-miterlimit: 4; fill: rgb(0,0,0); fill-rule: nonzero; opacity: 1;" vector-effect="non-scaling-stroke"  transform=" translate(-1728.93, -3346.28)" d="M 1703 3379 L 1670 3358 L 1718 3326 L 1765 3294 L 1779 3334 C 1792 3370 1791 3374 1774 3387 C 1750 3404 1741 3403 1703 3379 z M 1741 3357 C 1740 3345 1726 3348 1722 3361 C 1719 3367 1723 3371 1730 3369 C 1736 3366 1741 3361 1741 3357 z" stroke-linecap="round" />
</g>
<g transform="matrix(0.13 0 0 -0.13 534.21 465.55)"  >
<path style="stroke: none; stroke-width: 1; stroke-dasharray: none; stroke-linecap: butt; stroke-dashoffset: 0; stroke-linejoin: miter; stroke-miterlimit: 4; fill: rgb(0,0,0); fill-rule: nonzero; opacity: 1;" vector-effect="non-scaling-stroke"  transform=" translate(-2209.82, -3306.08)" d="M 2085 3390 C 2081 3384 2080 3378 2081 3376 C 2083 3375 2117 3354 2155 3330 C 2194 3306 2233 3279 2243 3271 C 2261 3256 2261 3255 2241 3238 C 2228 3228 2224 3219 2230 3215 C 2242 3208 2340 3230 2339 3239 C 2339 3244 2118 3391 2099 3398 C 2095 3400 2089 3396 2085 3390 z" stroke-linecap="round" />
</g>
<g transform="matrix(0.13 0 0 -0.13 455.79 469.28)"  >
<path style="stroke: none; stroke-width: 1; stroke-dasharray: none; stroke-linecap: butt; stroke-dashoffset: 0; stroke-linejoin: miter; stroke-miterlimit: 4; fill: rgb(0,0,0); fill-rule: nonzero; opacity: 1;" vector-effect="non-scaling-stroke"  transform=" translate(-1621.85, -3278.29)" d="M 1485 3362 C 1491 3356 1549 3316 1615 3272 L 1734 3192 L 1747 3229 C 1754 3249 1760 3268 1760 3271 C 1760 3279 1661 3340 1647 3340 C 1641 3340 1655 3326 1678 3309 C 1718 3280 1730 3257 1712 3246 C 1707 3243 1679 3257 1649 3276 C 1588 3316 1470 3378 1485 3362 z" stroke-linecap="round" />
</g>
<g transform="matrix(0.13 0 0 -0.13 508.58 484.27)"  >
<path style="stroke: none; stroke-width: 1; stroke-dasharray: none; stroke-linecap: butt; stroke-dashoffset: 0; stroke-linejoin: miter; stroke-miterlimit: 4; fill: rgb(0,0,0); fill-rule: nonzero; opacity: 1;" vector-effect="non-scaling-stroke"  transform=" translate(-2018.7, -3164.09)" d="M 1847 3283 C 1843 3263 1842 3245 1843 3245 C 1943 3182 2169 3029 2174 3021 C 2178 3015 2186 3010 2192 3010 C 2198 3010 2194 3020 2182 3033 C 2171 3045 2158 3073 2154 3095 C 2147 3133 2141 3139 2012 3225 C 1937 3275 1871 3316 1865 3318 C 1858 3320 1850 3305 1847 3283 z M 1924 3251 C 1928 3246 1961 3221 1999 3196 C 2037 3171 2072 3145 2076 3138 C 2081 3130 2075 3131 2060 3141 C 2046 3150 2010 3172 1980 3190 C 1950 3209 1914 3232 1901 3242 C 1878 3259 1878 3260 1898 3260 C 1909 3260 1921 3256 1924 3251 z" stroke-linecap="round" />
</g>
<g transform="matrix(0.13 0 0 -0.13 512.28 502.82)"  >
<path style="stroke: none; stroke-width: 1; stroke-dasharray: none; stroke-linecap: butt; stroke-dashoffset: 0; stroke-linejoin: miter; stroke-miterlimit: 4; fill: rgb(0,0,0); fill-rule: nonzero; opacity: 1;" vector-effect="non-scaling-stroke"  transform=" translate(-2047.93, -3024)" d="M 1822 3183 C 1816 3162 1814 3143 1818 3139 C 1858 3103 2243 2861 2252 2866 C 2258 2870 2260 2869 2257 2863 C 2253 2857 2258 2846 2267 2839 C 2286 2823 2287 2819 2250 2907 C 2228 2958 2221 2964 2037 3087 C 1932 3158 1843 3216 1840 3218 C 1836 3219 1828 3204 1822 3183 z M 2178 2953 C 2197 2935 2192 2930 2168 2943 C 2096 2983 1851 3153 1856 3161 C 1860 3169 2142 2987 2178 2953 z" stroke-linecap="round" />
</g>
<g transform="matrix(0.13 0 0 -0.13 505 511.9)"  >
<path style="stroke: none; stroke-width: 1; stroke-dasharray: none; stroke-linecap: butt; stroke-dashoffset: 0; stroke-linejoin: miter; stroke-miterlimit: 4; fill: rgb(0,0,0); fill-rule: nonzero; opacity: 1;" vector-effect="non-scaling-stroke"  transform=" translate(-1992.78, -2956.8)" d="M 1791 3079 C 1784 3057 1780 3037 1782 3036 C 1784 3035 1865 2982 1962 2917 L 2139 2800 L 2175 2821 C 2195 2833 2208 2846 2203 2850 C 2199 2853 2115 2910 2017 2976 C 1920 3041 1831 3101 1821 3108 C 1805 3119 1802 3116 1791 3079 z M 1998 2952 C 2076 2899 2140 2853 2140 2848 C 2140 2836 2120 2848 1966 2950 C 1891 3000 1830 3046 1830 3051 C 1830 3064 1826 3066 1998 2952 z" stroke-linecap="round" />
</g>
<g transform="matrix(0.13 0 0 -0.13 582.67 499.92)"  >
<path style="stroke: none; stroke-width: 1; stroke-dasharray: none; stroke-linecap: butt; stroke-dashoffset: 0; stroke-linejoin: miter; stroke-miterlimit: 4; fill: rgb(0,0,0); fill-rule: nonzero; opacity: 1;" vector-effect="non-scaling-stroke"  transform=" translate(-2572.24, -3049.08)" d="M 2488 3104 C 2473 3089 2508 3040 2553 3012 C 2600 2983 2603 2982 2631 2998 C 2647 3008 2660 3018 2660 3021 C 2660 3024 2633 3045 2599 3068 C 2544 3106 2503 3120 2488 3104 z" stroke-linecap="round" />
</g>
<g transform="matrix(0.13 0 0 -0.13 534.6 501.17)"  >
<path style="stroke: none; stroke-width: 1; stroke-dasharray: none; stroke-linecap: butt; stroke-dashoffset: 0; stroke-linejoin: miter; stroke-miterlimit: 4; fill: rgb(0,0,0); fill-rule: nonzero; opacity: 1;" vector-effect="non-scaling-stroke"  transform=" translate(-2210, -3040.46)" d="M 2190 3063 C 2191 3053 2229 3003 2230 3012 C 2230 3026 2207 3070 2198 3070 C 2194 3070 2190 3067 2190 3063 z" stroke-linecap="round" />
</g>
<g transform="matrix(0.13 0 0 -0.13 598.38 510.77)"  >
<path style="stroke: none; stroke-width: 1; stroke-dasharray: none; stroke-linecap: butt; stroke-dashoffset: 0; stroke-linejoin: miter; stroke-miterlimit: 4; fill: rgb(0,0,0); fill-rule: nonzero; opacity: 1;" vector-effect="non-scaling-stroke"  transform=" translate(-2689.48, -2968.16)" d="M 2646 2993 C 2619 2970 2618 2968 2636 2955 C 2686 2918 2697 2916 2730 2940 C 2760 2961 2761 2964 2744 2973 C 2733 2979 2714 2991 2700 3001 C 2675 3017 2674 3017 2646 2993 z" stroke-linecap="round" />
</g>
<g transform="matrix(0.13 0 0 -0.13 497.21 523.04)"  >
<path style="stroke: none; stroke-width: 1; stroke-dasharray: none; stroke-linecap: butt; stroke-dashoffset: 0; stroke-linejoin: miter; stroke-miterlimit: 4; fill: rgb(0,0,0); fill-rule: nonzero; opacity: 1;" vector-effect="non-scaling-stroke"  transform=" translate(-1933.55, -2873.92)" d="M 1767 2993 C 1764 2983 1759 2966 1756 2954 C 1751 2937 1765 2923 1849 2867 L 1948 2800 L 1984 2821 C 2026 2846 2032 2835 1993 2805 L 1967 2783 L 2002 2762 C 2046 2735 2048 2735 2083 2763 L 2112 2786 L 1968 2881 C 1748 3028 1773 3014 1767 2993 z M 1880 2906 C 1949 2861 1971 2840 1949 2840 C 1933 2840 1800 2931 1800 2942 C 1800 2956 1809 2952 1880 2906 z M 2048 2782 C 2050 2775 2046 2772 2036 2776 C 2027 2779 2020 2787 2020 2792 C 2020 2805 2043 2797 2048 2782 z" stroke-linecap="round" />
</g>
<g transform="matrix(0.13 0 0 -0.13 628.49 515.47)"  >
<path style="stroke: none; stroke-width: 1; stroke-dasharray: none; stroke-linecap: butt; stroke-dashoffset: 0; stroke-linejoin: miter; stroke-miterlimit: 4; fill: rgb(0,0,0); fill-rule: nonzero; opacity: 1;" vector-effect="non-scaling-stroke"  transform=" translate(-2916.5, -2932)" d="M 2828 2987 L 2801 2965 L 2884 2909 L 2967 2854 L 2999 2876 L 3032 2898 L 2947 2954 C 2900 2985 2860 3010 2858 3010 C 2857 3009 2843 2999 2828 2987 z M 2948 2912 L 2975 2889 L 2942 2907 C 2924 2916 2897 2935 2882 2948 L 2855 2971 L 2888 2953 C 2906 2944 2933 2925 2948 2912 z" stroke-linecap="round" />
</g>
<g transform="matrix(0.13 0 0 -0.13 579.88 510.26)"  >
<path style="stroke: none; stroke-width: 1; stroke-dasharray: none; stroke-linecap: butt; stroke-dashoffset: 0; stroke-linejoin: miter; stroke-miterlimit: 4; fill: rgb(0,0,0); fill-rule: nonzero; opacity: 1;" vector-effect="non-scaling-stroke"  transform=" translate(-2549.75, -2972.39)" d="M 2531 2970 C 2540 2944 2545 2942 2561 2951 C 2580 2961 2580 2962 2556 2981 C 2523 3007 2519 3005 2531 2970 z" stroke-linecap="round" />
</g>
<g transform="matrix(0.13 0 0 -0.13 588.32 519.03)"  >
<path style="stroke: none; stroke-width: 1; stroke-dasharray: none; stroke-linecap: butt; stroke-dashoffset: 0; stroke-linejoin: miter; stroke-miterlimit: 4; fill: rgb(0,0,0); fill-rule: nonzero; opacity: 1;" vector-effect="non-scaling-stroke"  transform=" translate(-2613.8, -2906.23)" d="M 2568 2940 C 2549 2928 2554 2898 2581 2875 C 2598 2859 2601 2859 2635 2880 L 2671 2902 L 2636 2926 C 2597 2953 2592 2954 2568 2940 z" stroke-linecap="round" />
</g>
<g transform="matrix(0.13 0 0 -0.13 616.42 523.48)"  >
<path style="stroke: none; stroke-width: 1; stroke-dasharray: none; stroke-linecap: butt; stroke-dashoffset: 0; stroke-linejoin: miter; stroke-miterlimit: 4; fill: rgb(0,0,0); fill-rule: nonzero; opacity: 1;" vector-effect="non-scaling-stroke"  transform=" translate(-2826, -2872.04)" d="M 2739 2928 L 2712 2908 L 2793 2852 L 2873 2797 L 2907 2815 C 2925 2825 2940 2836 2940 2839 C 2939 2846 2790 2944 2775 2947 C 2770 2948 2753 2940 2739 2928 z M 2865 2856 C 2876 2848 2880 2840 2875 2840 C 2864 2840 2790 2888 2790 2896 C 2790 2902 2839 2876 2865 2856 z" stroke-linecap="round" />
</g>
<g transform="matrix(0.13 0 0 -0.13 344.02 613.38)"  >
<path style="stroke: none; stroke-width: 1; stroke-dasharray: none; stroke-linecap: butt; stroke-dashoffset: 0; stroke-linejoin: miter; stroke-miterlimit: 4; fill: rgb(0,0,0); fill-rule: nonzero; opacity: 1;" vector-effect="non-scaling-stroke"  transform=" translate(-798.49, -2180.69)" d="M 1492 2878 C 1451 2759 1429 2648 1417 2500 C 1410 2418 1402 2349 1399 2347 C 1397 2345 1216 2223 997 2076 C 778 1929 564 1785 522 1755 C 480 1725 425 1687 400 1670 C 82 1449 57 1430 65 1422 C 68 1419 85 1427 103 1440 C 151 1476 582 1766 1036 2068 L 1437 2335 L 1443 2460 C 1449 2598 1478 2755 1515 2857 C 1537 2920 1539 2940 1521 2940 C 1517 2940 1504 2912 1492 2878 z" stroke-linecap="round" />
</g>
<g transform="matrix(0.13 0 0 -0.13 667.64 525.57)"  >
<path style="stroke: none; stroke-width: 1; stroke-dasharray: none; stroke-linecap: butt; stroke-dashoffset: 0; stroke-linejoin: miter; stroke-miterlimit: 4; fill: rgb(0,0,0); fill-rule: nonzero; opacity: 1;" vector-effect="non-scaling-stroke"  transform=" translate(-3210.67, -2856.62)" d="M 3076 2912 C 3073 2907 3106 2879 3148 2849 L 3225 2794 L 3282 2830 C 3359 2879 3368 2891 3298 2852 C 3266 2834 3235 2820 3229 2820 C 3223 2820 3192 2843 3160 2870 C 3103 2919 3086 2928 3076 2912 z" stroke-linecap="round" />
</g>
<g transform="matrix(0.13 0 0 -0.13 483.11 530.01)"  >
<path style="stroke: none; stroke-width: 1; stroke-dasharray: none; stroke-linecap: butt; stroke-dashoffset: 0; stroke-linejoin: miter; stroke-miterlimit: 4; fill: rgb(0,0,0); fill-rule: nonzero; opacity: 1;" vector-effect="non-scaling-stroke"  transform=" translate(-1825.81, -2823)" d="M 1736 2902 C 1734 2898 1729 2879 1726 2860 C 1720 2826 1722 2824 1772 2792 C 1801 2774 1832 2754 1841 2748 C 1853 2740 1864 2742 1892 2761 L 1928 2785 L 1834 2847 C 1783 2882 1739 2906 1736 2902 z M 1820 2824 C 1857 2799 1871 2780 1852 2780 C 1841 2780 1760 2838 1760 2845 C 1760 2856 1783 2848 1820 2824 z" stroke-linecap="round" />
</g>
<g transform="matrix(0.13 0 0 -0.13 447.11 554.99)"  >
<path style="stroke: none; stroke-width: 1; stroke-dasharray: none; stroke-linecap: butt; stroke-dashoffset: 0; stroke-linejoin: miter; stroke-miterlimit: 4; fill: rgb(0,0,0); fill-rule: nonzero; opacity: 1;" vector-effect="non-scaling-stroke"  transform=" translate(-1555.32, -2630.88)" d="M 1560 2862 C 1541 2795 1490 2532 1490 2503 C 1490 2488 1486 2450 1481 2420 C 1477 2390 1474 2364 1475 2362 C 1477 2360 1496 2371 1518 2387 C 1552 2411 1559 2423 1567 2468 C 1577 2525 1575 2528 1542 2504 C 1530 2496 1515 2490 1509 2492 C 1503 2494 1516 2509 1539 2524 C 1565 2542 1580 2560 1580 2574 C 1580 2591 1609 2727 1634 2830 C 1639 2851 1635 2859 1606 2877 L 1571 2900 L 1560 2862 z M 1585 2754 C 1576 2716 1566 2674 1564 2661 C 1561 2648 1555 2621 1551 2601 L 1542 2565 L 1541 2597 C 1540 2614 1549 2668 1560 2717 C 1585 2822 1589 2835 1596 2828 C 1599 2825 1594 2791 1585 2754 z" stroke-linecap="round" />
</g>
<g transform="matrix(0.13 0 0 -0.13 604.22 531.15)"  >
<path style="stroke: none; stroke-width: 1; stroke-dasharray: none; stroke-linecap: butt; stroke-dashoffset: 0; stroke-linejoin: miter; stroke-miterlimit: 4; fill: rgb(0,0,0); fill-rule: nonzero; opacity: 1;" vector-effect="non-scaling-stroke"  transform=" translate(-2734.5, -2814.57)" d="M 2652 2868 L 2619 2847 L 2659 2823 C 2697 2801 2701 2800 2729 2815 C 2772 2837 2780 2833 2747 2806 L 2718 2783 L 2750 2760 C 2782 2737 2783 2737 2816 2755 C 2835 2765 2850 2776 2850 2779 C 2850 2785 2704 2883 2691 2887 C 2688 2888 2670 2879 2652 2868 z" stroke-linecap="round" />
</g>
<g transform="matrix(0.13 0 0 -0.13 652.28 532.2)"  >
<path style="stroke: none; stroke-width: 1; stroke-dasharray: none; stroke-linecap: butt; stroke-dashoffset: 0; stroke-linejoin: miter; stroke-miterlimit: 4; fill: rgb(0,0,0); fill-rule: nonzero; opacity: 1;" vector-effect="non-scaling-stroke"  transform=" translate(-3095, -2806.64)" d="M 3013 2865 L 2980 2842 L 3019 2817 C 3046 2799 3061 2795 3068 2802 C 3076 2810 3072 2818 3057 2832 C 3030 2856 3040 2853 3109 2817 C 3147 2797 3159 2785 3152 2778 C 3144 2770 3133 2772 3114 2784 C 3098 2795 3084 2798 3079 2793 C 3073 2787 3084 2774 3108 2758 L 3146 2732 L 3178 2759 L 3210 2785 L 3148 2824 C 3113 2845 3076 2869 3065 2875 C 3048 2885 3040 2884 3013 2865 z" stroke-linecap="round" />
</g>
<g transform="matrix(0.13 0 0 -0.13 537.02 534.52)"  >
<path style="stroke: none; stroke-width: 1; stroke-dasharray: none; stroke-linecap: butt; stroke-dashoffset: 0; stroke-linejoin: miter; stroke-miterlimit: 4; fill: rgb(0,0,0); fill-rule: nonzero; opacity: 1;" vector-effect="non-scaling-stroke"  transform=" translate(-2229.5, -2789.94)" d="M 2191 2810 L 2157 2783 L 2192 2762 C 2236 2735 2238 2735 2274 2763 L 2302 2786 L 2263 2812 L 2224 2838 L 2191 2810 z" stroke-linecap="round" />
</g>
<g transform="matrix(0.13 0 0 -0.13 676.94 545.48)"  >
<path style="stroke: none; stroke-width: 1; stroke-dasharray: none; stroke-linecap: butt; stroke-dashoffset: 0; stroke-linejoin: miter; stroke-miterlimit: 4; fill: rgb(0,0,0); fill-rule: nonzero; opacity: 1;" vector-effect="non-scaling-stroke"  transform=" translate(-3279.83, -2705.6)" d="M 3258 2792 C 3222 2766 3184 2740 3175 2735 C 3160 2726 3173 2714 3261 2655 C 3390 2568 3390 2568 3390 2574 C 3390 2577 3355 2606 3312 2638 C 3196 2727 3198 2720 3274 2780 C 3310 2809 3340 2834 3340 2836 C 3340 2846 3321 2835 3258 2792 z" stroke-linecap="round" />
</g>
<g transform="matrix(0.13 0 0 -0.13 590.38 534.91)"  >
<path style="stroke: none; stroke-width: 1; stroke-dasharray: none; stroke-linecap: butt; stroke-dashoffset: 0; stroke-linejoin: miter; stroke-miterlimit: 4; fill: rgb(0,0,0); fill-rule: nonzero; opacity: 1;" vector-effect="non-scaling-stroke"  transform=" translate(-2628.82, -2787.13)" d="M 2590 2821 C 2590 2816 2597 2796 2605 2776 C 2620 2739 2621 2739 2645 2757 C 2677 2780 2676 2785 2636 2809 C 2599 2832 2590 2834 2590 2821 z" stroke-linecap="round" />
</g>
<g transform="matrix(0.13 0 0 -0.13 635.04 535.63)"  >
<path style="stroke: none; stroke-width: 1; stroke-dasharray: none; stroke-linecap: butt; stroke-dashoffset: 0; stroke-linejoin: miter; stroke-miterlimit: 4; fill: rgb(0,0,0); fill-rule: nonzero; opacity: 1;" vector-effect="non-scaling-stroke"  transform=" translate(-2964.5, -2781.5)" d="M 2927 2806 L 2899 2783 L 2932 2758 L 2965 2733 L 2997 2754 C 3015 2766 3030 2777 3030 2780 C 3030 2785 2963 2830 2958 2830 C 2956 2829 2942 2819 2927 2806 z" stroke-linecap="round" />
</g>
<g transform="matrix(0.13 0 0 -0.13 471.89 545.02)"  >
<path style="stroke: none; stroke-width: 1; stroke-dasharray: none; stroke-linecap: butt; stroke-dashoffset: 0; stroke-linejoin: miter; stroke-miterlimit: 4; fill: rgb(0,0,0); fill-rule: nonzero; opacity: 1;" vector-effect="non-scaling-stroke"  transform=" translate(-1741.38, -2709.94)" d="M 1678 2712 C 1663 2658 1653 2614 1655 2612 C 1657 2610 1697 2634 1744 2666 C 1791 2697 1829 2724 1828 2725 C 1826 2726 1798 2745 1765 2767 L 1704 2808 L 1678 2712 z M 1749 2741 C 1767 2730 1757 2705 1731 2690 C 1712 2680 1710 2682 1710 2708 C 1710 2748 1722 2758 1749 2741 z" stroke-linecap="round" />
</g>
<g transform="matrix(0.13 0 0 -0.13 499.76 543.19)"  >
<path style="stroke: none; stroke-width: 1; stroke-dasharray: none; stroke-linecap: butt; stroke-dashoffset: 0; stroke-linejoin: miter; stroke-miterlimit: 4; fill: rgb(0,0,0); fill-rule: nonzero; opacity: 1;" vector-effect="non-scaling-stroke"  transform=" translate(-1950, -2725)" d="M 1907 2746 L 1878 2723 L 1908 2701 C 1946 2675 1958 2675 1993 2704 L 2022 2727 L 1987 2749 C 1945 2775 1942 2775 1907 2746 z" stroke-linecap="round" />
</g>
<g transform="matrix(0.13 0 0 -0.13 524.42 543.79)"  >
<path style="stroke: none; stroke-width: 1; stroke-dasharray: none; stroke-linecap: butt; stroke-dashoffset: 0; stroke-linejoin: miter; stroke-miterlimit: 4; fill: rgb(0,0,0); fill-rule: nonzero; opacity: 1;" vector-effect="non-scaling-stroke"  transform=" translate(-2135, -2720.38)" d="M 2092 2746 L 2060 2723 L 2097 2698 L 2135 2673 L 2173 2698 L 2210 2723 L 2176 2746 C 2134 2775 2133 2775 2092 2746 z" stroke-linecap="round" />
</g>
<g transform="matrix(0.13 0 0 -0.13 599.11 542.86)"  >
<path style="stroke: none; stroke-width: 1; stroke-dasharray: none; stroke-linecap: butt; stroke-dashoffset: 0; stroke-linejoin: miter; stroke-miterlimit: 4; fill: rgb(0,0,0); fill-rule: nonzero; opacity: 1;" vector-effect="non-scaling-stroke"  transform=" translate(-2694.88, -2727.48)" d="M 2655 2745 C 2639 2732 2628 2719 2630 2717 C 2680 2680 2692 2678 2726 2696 C 2745 2706 2760 2718 2760 2721 C 2760 2728 2697 2770 2689 2770 C 2687 2769 2672 2758 2655 2745 z" stroke-linecap="round" />
</g>
<g transform="matrix(0.13 0 0 -0.13 623.17 543.07)"  >
<path style="stroke: none; stroke-width: 1; stroke-dasharray: none; stroke-linecap: butt; stroke-dashoffset: 0; stroke-linejoin: miter; stroke-miterlimit: 4; fill: rgb(0,0,0); fill-rule: nonzero; opacity: 1;" vector-effect="non-scaling-stroke"  transform=" translate(-2875.5, -2725.87)" d="M 2837 2746 L 2808 2723 L 2838 2701 C 2875 2675 2878 2675 2914 2703 L 2943 2727 L 2908 2748 C 2888 2760 2871 2770 2869 2770 C 2867 2769 2852 2759 2837 2746 z" stroke-linecap="round" />
</g>
<g transform="matrix(0.13 0 0 -0.13 646.5 543.06)"  >
<path style="stroke: none; stroke-width: 1; stroke-dasharray: none; stroke-linecap: butt; stroke-dashoffset: 0; stroke-linejoin: miter; stroke-miterlimit: 4; fill: rgb(0,0,0); fill-rule: nonzero; opacity: 1;" vector-effect="non-scaling-stroke"  transform=" translate(-3050.5, -2725.93)" d="M 3012 2746 L 2979 2722 L 3013 2701 C 3055 2675 3058 2675 3093 2704 L 3122 2727 L 3085 2749 C 3065 2760 3048 2770 3047 2770 C 3046 2769 3030 2759 3012 2746 z" stroke-linecap="round" />
</g>
<g transform="matrix(0.13 0 0 -0.13 545.26 544.03)"  >
<path style="stroke: none; stroke-width: 1; stroke-dasharray: none; stroke-linecap: butt; stroke-dashoffset: 0; stroke-linejoin: miter; stroke-miterlimit: 4; fill: rgb(0,0,0); fill-rule: nonzero; opacity: 1;" vector-effect="non-scaling-stroke"  transform=" translate(-2290.5, -2718.75)" d="M 2273 2741 L 2251 2722 L 2290 2696 C 2312 2682 2330 2674 2330 2679 C 2330 2689 2301 2760 2297 2760 C 2296 2759 2285 2751 2273 2741 z" stroke-linecap="round" />
</g>
<g transform="matrix(0.13 0 0 -0.13 476.06 561.59)"  >
<path style="stroke: none; stroke-width: 1; stroke-dasharray: none; stroke-linecap: butt; stroke-dashoffset: 0; stroke-linejoin: miter; stroke-miterlimit: 4; fill: rgb(0,0,0); fill-rule: nonzero; opacity: 1;" vector-effect="non-scaling-stroke"  transform=" translate(-1774.09, -2585)" d="M 1762 2647 C 1713 2613 1665 2581 1657 2575 C 1649 2569 1639 2542 1636 2514 L 1630 2462 L 1772 2557 C 1851 2610 1916 2656 1918 2660 C 1920 2664 1905 2677 1887 2688 L 1852 2708 L 1762 2647 z M 1850 2646 C 1826 2624 1699 2540 1689 2540 C 1671 2540 1680 2557 1710 2578 C 1726 2590 1742 2600 1745 2600 C 1748 2600 1769 2614 1792 2630 C 1835 2661 1879 2674 1850 2646 z" stroke-linecap="round" />
</g>
<g transform="matrix(0.13 0 0 -0.13 512.48 552.03)"  >
<path style="stroke: none; stroke-width: 1; stroke-dasharray: none; stroke-linecap: butt; stroke-dashoffset: 0; stroke-linejoin: miter; stroke-miterlimit: 4; fill: rgb(0,0,0); fill-rule: nonzero; opacity: 1;" vector-effect="non-scaling-stroke"  transform=" translate(-2045.48, -2658.56)" d="M 2003 2687 C 1985 2675 1971 2663 1971 2660 C 1970 2657 1986 2645 2005 2633 L 2039 2610 L 2079 2637 L 2120 2663 L 2082 2686 C 2038 2714 2043 2714 2003 2687 z" stroke-linecap="round" />
</g>
<g transform="matrix(0.13 0 0 -0.13 537.17 551.7)"  >
<path style="stroke: none; stroke-width: 1; stroke-dasharray: none; stroke-linecap: butt; stroke-dashoffset: 0; stroke-linejoin: miter; stroke-miterlimit: 4; fill: rgb(0,0,0); fill-rule: nonzero; opacity: 1;" vector-effect="non-scaling-stroke"  transform=" translate(-2230.48, -2661.03)" d="M 2193 2687 C 2175 2675 2161 2663 2161 2660 C 2160 2657 2175 2645 2193 2634 L 2226 2613 L 2263 2634 C 2283 2645 2300 2657 2300 2660 C 2300 2665 2233 2711 2228 2709 C 2226 2709 2211 2698 2193 2687 z" stroke-linecap="round" />
</g>
<g transform="matrix(0.13 0 0 -0.13 611.57 550.88)"  >
<path style="stroke: none; stroke-width: 1; stroke-dasharray: none; stroke-linecap: butt; stroke-dashoffset: 0; stroke-linejoin: miter; stroke-miterlimit: 4; fill: rgb(0,0,0); fill-rule: nonzero; opacity: 1;" vector-effect="non-scaling-stroke"  transform=" translate(-2788.5, -2667.39)" d="M 2753 2688 C 2735 2677 2720 2665 2720 2662 C 2720 2658 2734 2647 2751 2638 C 2780 2621 2783 2621 2819 2642 L 2857 2664 L 2823 2687 C 2804 2700 2788 2710 2787 2709 C 2786 2709 2770 2699 2753 2688 z" stroke-linecap="round" />
</g>
<g transform="matrix(0.13 0 0 -0.13 634.95 551.39)"  >
<path style="stroke: none; stroke-width: 1; stroke-dasharray: none; stroke-linecap: butt; stroke-dashoffset: 0; stroke-linejoin: miter; stroke-miterlimit: 4; fill: rgb(0,0,0); fill-rule: nonzero; opacity: 1;" vector-effect="non-scaling-stroke"  transform=" translate(-2964, -2663.5)" d="M 2922 2685 L 2890 2662 L 2926 2641 L 2961 2620 L 3000 2642 L 3038 2664 L 3002 2687 C 2958 2714 2963 2714 2922 2685 z" stroke-linecap="round" />
</g>
<g transform="matrix(0.13 0 0 -0.13 661.71 555.28)"  >
<path style="stroke: none; stroke-width: 1; stroke-dasharray: none; stroke-linecap: butt; stroke-dashoffset: 0; stroke-linejoin: miter; stroke-miterlimit: 4; fill: rgb(0,0,0); fill-rule: nonzero; opacity: 1;" vector-effect="non-scaling-stroke"  transform=" translate(-3167.52, -2633.5)" d="M 3101 2685 L 3067 2661 L 3093 2649 C 3108 2642 3120 2633 3120 2628 C 3120 2615 3093 2619 3080 2635 C 3063 2655 3057 2654 3015 2626 L 2980 2602 L 3016 2580 L 3051 2557 L 3119 2604 C 3186 2650 3210 2659 3210 2640 C 3210 2635 3214 2630 3219 2630 C 3225 2630 3257 2614 3290 2594 C 3324 2574 3353 2560 3355 2562 C 3358 2565 3145 2711 3138 2710 C 3136 2709 3120 2698 3101 2685 z M 3165 2660 C 3173 2647 3145 2636 3124 2644 C 3104 2652 3115 2670 3140 2670 C 3150 2670 3162 2665 3165 2660 z" stroke-linecap="round" />
</g>
<g transform="matrix(0.13 0 0 -0.13 594.31 550.86)"  >
<path style="stroke: none; stroke-width: 1; stroke-dasharray: none; stroke-linecap: butt; stroke-dashoffset: 0; stroke-linejoin: miter; stroke-miterlimit: 4; fill: rgb(0,0,0); fill-rule: nonzero; opacity: 1;" vector-effect="non-scaling-stroke"  transform=" translate(-2657.79, -2668.13)" d="M 2640 2683 C 2640 2679 2645 2668 2650 2660 C 2657 2649 2662 2648 2671 2657 C 2679 2665 2677 2671 2661 2679 C 2649 2686 2640 2687 2640 2683 z" stroke-linecap="round" />
</g>
<g transform="matrix(0.13 0 0 -0.13 481.53 574.22)"  >
<path style="stroke: none; stroke-width: 1; stroke-dasharray: none; stroke-linecap: butt; stroke-dashoffset: 0; stroke-linejoin: miter; stroke-miterlimit: 4; fill: rgb(0,0,0); fill-rule: nonzero; opacity: 1;" vector-effect="non-scaling-stroke"  transform=" translate(-1816.52, -2489.48)" d="M 1785 2538 L 1625 2430 L 1619 2382 C 1616 2356 1614 2334 1614 2333 C 1617 2329 2019 2594 2019 2600 C 2020 2603 2003 2614 1982 2626 L 1945 2646 L 1785 2538 z M 1938 2581 C 1917 2565 1702 2423 1673 2406 C 1666 2402 1660 2403 1660 2408 C 1660 2413 1679 2430 1703 2446 C 1726 2462 1750 2479 1755 2483 C 1804 2522 1944 2608 1952 2604 C 1957 2601 1950 2591 1938 2581 z" stroke-linecap="round" />
</g>
<g transform="matrix(0.13 0 0 -0.13 493.62 582.74)"  >
<path style="stroke: none; stroke-width: 1; stroke-dasharray: none; stroke-linecap: butt; stroke-dashoffset: 0; stroke-linejoin: miter; stroke-miterlimit: 4; fill: rgb(0,0,0); fill-rule: nonzero; opacity: 1;" vector-effect="non-scaling-stroke"  transform=" translate(-1909.63, -2423.95)" d="M 1875 2472 L 1615 2297 L 1612 2249 C 1609 2195 1614 2191 1644 2219 C 1656 2229 1788 2319 1938 2420 C 2089 2520 2210 2603 2208 2604 C 2206 2605 2189 2615 2170 2626 L 2135 2646 L 1875 2472 z M 2140 2595 C 2140 2592 2074 2546 1993 2491 C 1911 2436 1802 2362 1750 2326 C 1697 2290 1653 2265 1651 2272 C 1649 2278 1654 2286 1661 2291 C 1669 2295 1774 2367 1895 2449 C 2091 2583 2140 2612 2140 2595 z" stroke-linecap="round" />
</g>
<g transform="matrix(0.13 0 0 -0.13 547.84 560.16)"  >
<path style="stroke: none; stroke-width: 1; stroke-dasharray: none; stroke-linecap: butt; stroke-dashoffset: 0; stroke-linejoin: miter; stroke-miterlimit: 4; fill: rgb(0,0,0); fill-rule: nonzero; opacity: 1;" vector-effect="non-scaling-stroke"  transform=" translate(-2310.23, -2597.65)" d="M 2290 2623 C 2271 2610 2254 2598 2252 2596 C 2251 2594 2265 2582 2285 2570 C 2318 2549 2322 2549 2345 2564 C 2374 2583 2373 2581 2359 2614 C 2343 2649 2330 2650 2290 2623 z" stroke-linecap="round" />
</g>
<g transform="matrix(0.13 0 0 -0.13 601.51 559.27)"  >
<path style="stroke: none; stroke-width: 1; stroke-dasharray: none; stroke-linecap: butt; stroke-dashoffset: 0; stroke-linejoin: miter; stroke-miterlimit: 4; fill: rgb(0,0,0); fill-rule: nonzero; opacity: 1;" vector-effect="non-scaling-stroke"  transform=" translate(-2712.49, -2604.4)" d="M 2678 2639 C 2661 2630 2661 2627 2676 2597 C 2685 2579 2694 2563 2695 2562 C 2700 2557 2760 2602 2760 2610 C 2760 2614 2748 2623 2733 2631 C 2717 2638 2703 2645 2700 2647 C 2697 2648 2687 2645 2678 2639 z" stroke-linecap="round" />
</g>
<g transform="matrix(0.13 0 0 -0.13 617.12 563.34)"  >
<path style="stroke: none; stroke-width: 1; stroke-dasharray: none; stroke-linecap: butt; stroke-dashoffset: 0; stroke-linejoin: miter; stroke-miterlimit: 4; fill: rgb(0,0,0); fill-rule: nonzero; opacity: 1;" vector-effect="non-scaling-stroke"  transform=" translate(-2831.16, -2573.06)" d="M 2844 2628 C 2828 2616 2813 2605 2811 2603 C 2808 2601 2812 2594 2818 2588 C 2825 2581 2830 2571 2830 2566 C 2830 2560 2823 2564 2815 2574 C 2801 2593 2800 2593 2764 2574 C 2710 2545 2707 2536 2744 2516 L 2777 2498 L 2860 2551 L 2943 2604 L 2914 2627 C 2879 2655 2879 2655 2844 2628 z" stroke-linecap="round" />
</g>
<g transform="matrix(0.13 0 0 -0.13 657.62 563.17)"  >
<path style="stroke: none; stroke-width: 1; stroke-dasharray: none; stroke-linecap: butt; stroke-dashoffset: 0; stroke-linejoin: miter; stroke-miterlimit: 4; fill: rgb(0,0,0); fill-rule: nonzero; opacity: 1;" vector-effect="non-scaling-stroke"  transform=" translate(-3133.53, -2575.1)" d="M 3126 2581 C 3075 2547 3070 2541 3086 2533 C 3102 2525 3113 2533 3149 2572 C 3173 2598 3191 2620 3189 2620 C 3187 2620 3159 2602 3126 2581 z" stroke-linecap="round" />
</g>
<g transform="matrix(0.13 0 0 -0.13 499.52 594.01)"  >
<path style="stroke: none; stroke-width: 1; stroke-dasharray: none; stroke-linecap: butt; stroke-dashoffset: 0; stroke-linejoin: miter; stroke-miterlimit: 4; fill: rgb(0,0,0); fill-rule: nonzero; opacity: 1;" vector-effect="non-scaling-stroke"  transform=" translate(-1955, -2338.76)" d="M 2075 2478 C 1987 2419 1847 2326 1763 2273 C 1614 2177 1611 2174 1610 2140 C 1610 2073 1619 2074 1732 2152 C 1789 2192 1940 2295 2068 2380 C 2195 2465 2300 2537 2300 2540 C 2300 2543 2285 2554 2267 2566 L 2235 2586 L 2075 2478 z M 2240 2536 C 2240 2533 2166 2482 2075 2421 C 1925 2320 1693 2157 1663 2130 C 1653 2122 1650 2126 1650 2148 C 1650 2170 1657 2180 1684 2192 C 1720 2210 2135 2478 2185 2517 C 2212 2537 2240 2547 2240 2536 z" stroke-linecap="round" />
</g>
<g transform="matrix(0.13 0 0 -0.13 628.28 571.28)"  >
<path style="stroke: none; stroke-width: 1; stroke-dasharray: none; stroke-linecap: butt; stroke-dashoffset: 0; stroke-linejoin: miter; stroke-miterlimit: 4; fill: rgb(0,0,0); fill-rule: nonzero; opacity: 1;" vector-effect="non-scaling-stroke"  transform=" translate(-2914.98, -2513.51)" d="M 2878 2537 C 2836 2508 2801 2483 2801 2480 C 2800 2477 2815 2466 2834 2456 L 2868 2438 L 2948 2491 C 2993 2521 3029 2547 3029 2550 C 3030 2556 2971 2590 2962 2589 C 2958 2589 2920 2565 2878 2537 z M 2959 2537 C 2927 2514 2869 2480 2863 2480 C 2859 2480 2877 2496 2904 2515 C 2931 2534 2956 2548 2958 2545 C 2961 2542 2961 2539 2959 2537 z" stroke-linecap="round" />
</g>
<g transform="matrix(0.13 0 0 -0.13 506.61 604.3)"  >
<path style="stroke: none; stroke-width: 1; stroke-dasharray: none; stroke-linecap: butt; stroke-dashoffset: 0; stroke-linejoin: miter; stroke-miterlimit: 4; fill: rgb(0,0,0); fill-rule: nonzero; opacity: 1;" vector-effect="non-scaling-stroke"  transform=" translate(-2009.28, -2260.48)" d="M 2355 2540 C 2351 2534 2359 2521 2372 2510 C 2400 2487 2384 2483 2352 2506 C 2330 2521 2324 2518 2172 2417 C 1935 2260 1667 2084 1641 2070 C 1620 2060 1619 2053 1624 2017 C 1632 1966 1635 1963 1657 1982 C 1667 1991 1835 2104 2030 2235 C 2225 2366 2389 2476 2394 2481 C 2399 2485 2398 2502 2390 2519 C 2377 2551 2366 2558 2355 2540 z M 2180 2376 C 2180 2371 2101 2320 2093 2320 C 2088 2320 2105 2334 2130 2350 C 2176 2381 2180 2383 2180 2376 z M 1875 2165 C 1728 2063 1664 2023 1659 2032 C 1648 2049 1673 2074 1733 2106 C 1761 2120 1847 2172 1925 2221 C 2002 2270 2069 2310 2074 2310 C 2079 2310 1989 2245 1875 2165 z" stroke-linecap="round" />
</g>
<g transform="matrix(0.13 0 0 -0.13 536.7 633.74)"  >
<path style="stroke: none; stroke-width: 1; stroke-dasharray: none; stroke-linecap: butt; stroke-dashoffset: 0; stroke-linejoin: miter; stroke-miterlimit: 4; fill: rgb(0,0,0); fill-rule: nonzero; opacity: 1;" vector-effect="non-scaling-stroke"  transform=" translate(-2246.47, -2034.63)" d="M 2970 2474 C 2929 2445 2882 2413 2865 2405 C 2849 2396 2824 2381 2811 2371 L 2786 2352 L 2835 2271 C 2899 2166 2958 2099 3014 2069 C 3045 2053 3058 2040 3055 2031 C 3052 2023 3054 2014 3060 2010 C 3068 2005 3068 1990 3059 1956 C 3045 1901 3052 1901 2890 1952 C 2714 2007 2601 2090 2528 2218 L 2495 2276 L 2124 2031 C 1921 1896 1672 1731 1572 1665 C 1473 1600 1393 1544 1395 1542 C 1404 1532 1819 1793 2253 2082 C 2367 2158 2466 2220 2474 2220 C 2482 2220 2500 2199 2515 2174 C 2591 2045 2724 1955 2920 1901 C 3016 1874 3041 1875 3069 1904 C 3121 1960 3101 2050 3025 2094 C 3002 2108 2965 2140 2944 2165 C 2905 2212 2830 2328 2830 2343 C 2830 2347 2846 2360 2865 2371 C 2884 2383 2897 2397 2894 2402 C 2890 2408 2893 2411 2901 2408 C 2909 2405 2947 2425 2986 2452 C 3025 2478 3065 2500 3075 2500 C 3089 2500 3090 2503 3080 2515 C 3062 2537 3052 2534 2970 2474 z" stroke-linecap="round" />
</g>
<g transform="matrix(0.13 0 0 -0.13 604.98 574.86)"  >
<path style="stroke: none; stroke-width: 1; stroke-dasharray: none; stroke-linecap: butt; stroke-dashoffset: 0; stroke-linejoin: miter; stroke-miterlimit: 4; fill: rgb(0,0,0); fill-rule: nonzero; opacity: 1;" vector-effect="non-scaling-stroke"  transform=" translate(-2737.79, -2488.13)" d="M 2720 2503 C 2720 2499 2725 2488 2730 2480 C 2737 2469 2742 2468 2751 2477 C 2759 2485 2757 2491 2741 2499 C 2729 2506 2720 2507 2720 2503 z" stroke-linecap="round" />
</g>
<g transform="matrix(0.13 0 0 -0.13 613.4 583.13)"  >
<path style="stroke: none; stroke-width: 1; stroke-dasharray: none; stroke-linecap: butt; stroke-dashoffset: 0; stroke-linejoin: miter; stroke-miterlimit: 4; fill: rgb(0,0,0); fill-rule: nonzero; opacity: 1;" vector-effect="non-scaling-stroke"  transform=" translate(-2801.75, -2425.39)" d="M 2760 2455 C 2750 2443 2750 2434 2760 2410 C 2775 2374 2777 2374 2819 2404 L 2851 2428 L 2817 2449 C 2776 2474 2776 2474 2760 2455 z" stroke-linecap="round" />
</g>
<g transform="matrix(0.13 0 0 -0.13 500.05 618.97)"  >
<path style="stroke: none; stroke-width: 1; stroke-dasharray: none; stroke-linecap: butt; stroke-dashoffset: 0; stroke-linejoin: miter; stroke-miterlimit: 4; fill: rgb(0,0,0); fill-rule: nonzero; opacity: 1;" vector-effect="non-scaling-stroke"  transform=" translate(-1962.26, -2149.99)" d="M 2318 2397 C 2270 2363 2099 2250 1939 2145 C 1779 2041 1639 1947 1629 1938 C 1618 1928 1608 1920 1605 1920 C 1603 1920 1573 1902 1539 1880 C 1505 1858 1481 1840 1486 1841 C 1503 1842 1638 1916 1706 1961 C 1744 1987 1845 2052 1930 2107 C 2015 2162 2149 2248 2228 2300 C 2376 2396 2427 2417 2318 2337 C 2283 2312 2239 2275 2220 2254 C 2192 2224 2210 2234 2310 2301 C 2379 2347 2437 2386 2438 2387 C 2445 2390 2419 2460 2412 2459 C 2408 2459 2366 2431 2318 2397 z" stroke-linecap="round" />
</g>
<g transform="matrix(0.13 0 0 -0.13 441.85 598.5)"  >
<path style="stroke: none; stroke-width: 1; stroke-dasharray: none; stroke-linecap: butt; stroke-dashoffset: 0; stroke-linejoin: miter; stroke-miterlimit: 4; fill: rgb(0,0,0); fill-rule: nonzero; opacity: 1;" vector-effect="non-scaling-stroke"  transform=" translate(-1515, -2309.52)" d="M 1508 2353 C 1474 2330 1470 2323 1470 2284 C 1470 2260 1472 2240 1475 2240 C 1478 2240 1498 2252 1520 2266 C 1557 2290 1560 2296 1560 2336 C 1560 2360 1557 2380 1553 2379 C 1548 2379 1528 2367 1508 2353 z" stroke-linecap="round" />
</g>
<g transform="matrix(0.13 0 0 -0.13 495.02 642.96)"  >
<path style="stroke: none; stroke-width: 1; stroke-dasharray: none; stroke-linecap: butt; stroke-dashoffset: 0; stroke-linejoin: miter; stroke-miterlimit: 4; fill: rgb(0,0,0); fill-rule: nonzero; opacity: 1;" vector-effect="non-scaling-stroke"  transform=" translate(-1926.39, -1967.73)" d="M 2333 2292 C 2272 2249 2223 2214 2225 2212 C 2230 2207 2289 2235 2360 2276 C 2434 2319 2425 2300 2347 2247 C 1758 1849 1459 1641 1395 1585 C 1349 1545 1393 1570 1520 1656 C 1813 1855 2464 2290 2473 2293 C 2483 2296 2461 2371 2450 2369 C 2447 2369 2395 2334 2333 2292 z" stroke-linecap="round" />
</g>
<g transform="matrix(0.13 0 0 -0.13 338.46 676.89)"  >
<path style="stroke: none; stroke-width: 1; stroke-dasharray: none; stroke-linecap: butt; stroke-dashoffset: 0; stroke-linejoin: miter; stroke-miterlimit: 4; fill: rgb(0,0,0); fill-rule: nonzero; opacity: 1;" vector-effect="non-scaling-stroke"  transform=" translate(-755.62, -1708.38)" d="M 1395 2278 C 1342 2238 307 1552 205 1489 L 126 1440 L 241 1440 L 356 1440 L 393 1402 C 425 1369 430 1358 430 1317 C 430 1280 425 1266 404 1246 L 377 1222 L 399 1191 C 426 1154 420 1140 377 1140 C 351 1140 340 1147 327 1170 C 310 1199 306 1200 239 1200 L 170 1200 L 170 1169 C 170 1141 168 1139 138 1142 L 105 1145 L 102 1283 C 101 1358 96 1420 92 1420 C 69 1420 65 1392 70 1270 C 74 1155 77 1137 94 1124 C 127 1101 165 1107 193 1140 C 228 1181 275 1181 315 1140 C 370 1083 454 1112 434 1182 C 426 1207 428 1222 443 1250 C 456 1276 460 1298 456 1333 C 446 1422 384 1470 277 1470 L 215 1470 L 275 1509 C 308 1530 450 1622 590 1712 C 730 1803 964 1956 1110 2051 C 1428 2260 1400 2243 1400 2231 C 1400 2226 1343 2182 1273 2134 C 1061 1990 851 1838 807 1798 C 765 1760 850 1815 1244 2081 C 1347 2152 1436 2210 1440 2212 C 1444 2214 1444 2236 1441 2261 L 1435 2307 L 1395 2278 z" stroke-linecap="round" />
</g>
<g transform="matrix(0.13 0 0 -0.13 442.19 614.89)"  >
<path style="stroke: none; stroke-width: 1; stroke-dasharray: none; stroke-linecap: butt; stroke-dashoffset: 0; stroke-linejoin: miter; stroke-miterlimit: 4; fill: rgb(0,0,0); fill-rule: nonzero; opacity: 1;" vector-effect="non-scaling-stroke"  transform=" translate(-1517.51, -2186.47)" d="M 1513 2230 C 1474 2201 1472 2198 1477 2157 C 1480 2134 1483 2114 1484 2113 C 1485 2112 1503 2122 1523 2137 C 1557 2161 1560 2167 1560 2212 C 1560 2238 1559 2260 1557 2260 C 1555 2260 1535 2246 1513 2230 z" stroke-linecap="round" />
</g>
<g transform="matrix(0.13 0 0 -0.13 612.75 628.43)"  >
<path style="stroke: none; stroke-width: 1; stroke-dasharray: none; stroke-linecap: butt; stroke-dashoffset: 0; stroke-linejoin: miter; stroke-miterlimit: 4; fill: rgb(0,0,0); fill-rule: nonzero; opacity: 1;" vector-effect="non-scaling-stroke"  transform=" translate(-2801.55, -2083.78)" d="M 2587 2175 C 2621 2127 2660 2094 2730 2057 C 2827 2004 3030 1944 3030 1968 C 3030 1974 3033 1985 3036 1993 C 3040 2005 3034 2007 3003 2003 C 2978 2000 2937 2007 2880 2025 C 2774 2059 2694 2103 2600 2177 L 2566 2205 L 2587 2175 z" stroke-linecap="round" />
</g>
<g transform="matrix(0.13 0 0 -0.13 390.21 642.84)"  >
<path style="stroke: none; stroke-width: 1; stroke-dasharray: none; stroke-linecap: butt; stroke-dashoffset: 0; stroke-linejoin: miter; stroke-miterlimit: 4; fill: rgb(0,0,0); fill-rule: nonzero; opacity: 1;" vector-effect="non-scaling-stroke"  transform=" translate(-1134.55, -1973.41)" d="M 1340 2116 C 1282 2077 1139 1982 1023 1905 C 907 1828 813 1764 815 1761 C 821 1756 985 1855 1214 2002 C 1324 2072 1417 2130 1422 2130 C 1436 2130 1431 2097 1413 2077 C 1395 2057 1395 2057 1426 2075 C 1455 2092 1457 2096 1452 2139 C 1450 2164 1447 2185 1446 2186 C 1446 2186 1398 2154 1340 2116 z" stroke-linecap="round" />
</g>
<g transform="matrix(0.13 0 0 -0.13 442.14 639.6)"  >
<path style="stroke: none; stroke-width: 1; stroke-dasharray: none; stroke-linecap: butt; stroke-dashoffset: 0; stroke-linejoin: miter; stroke-miterlimit: 4; fill: rgb(0,0,0); fill-rule: nonzero; opacity: 1;" vector-effect="non-scaling-stroke"  transform=" translate(-1518, -1999.5)" d="M 1498 2099 C 1466 2077 1440 2057 1440 2055 C 1440 2052 1460 2059 1485 2070 L 1531 2090 L 1539 2067 C 1544 2055 1551 2023 1555 1995 L 1562 1945 L 1513 1902 L 1465 1859 L 1531 1900 L 1596 1941 L 1584 1998 C 1577 2029 1568 2074 1563 2098 L 1555 2140 L 1498 2099 z" stroke-linecap="round" />
</g>
<g transform="matrix(0.13 0 0 -0.13 331.41 734.07)"  >
<path style="stroke: none; stroke-width: 1; stroke-dasharray: none; stroke-linecap: butt; stroke-dashoffset: 0; stroke-linejoin: miter; stroke-miterlimit: 4; fill: rgb(0,0,0); fill-rule: nonzero; opacity: 1;" vector-effect="non-scaling-stroke"  transform=" translate(-690.37, -1290)" d="M 580 1448 C 516 1404 505 1379 502 1267 C 499 1175 500 1162 520 1137 C 534 1119 551 1110 569 1110 C 598 1110 630 1137 630 1161 C 630 1185 652 1200 686 1200 C 731 1200 750 1191 750 1169 C 750 1143 789 1110 820 1110 C 870 1110 880 1135 880 1256 C 880 1357 878 1368 855 1403 C 821 1451 775 1470 685 1470 C 627 1470 607 1466 580 1448 z M 813 1406 L 850 1372 L 850 1256 L 850 1140 L 815 1140 C 780 1140 780 1140 780 1185 L 780 1230 L 691 1230 L 601 1230 L 603 1188 C 605 1145 605 1145 570 1145 L 535 1145 L 532 1252 L 529 1359 L 566 1400 L 602 1440 L 689 1440 C 774 1440 777 1439 813 1406 z" stroke-linecap="round" />
</g>
<g transform="matrix(0.13 0 0 -0.13 331.76 729.97)"  >
<path style="stroke: none; stroke-width: 1; stroke-dasharray: none; stroke-linecap: butt; stroke-dashoffset: 0; stroke-linejoin: miter; stroke-miterlimit: 4; fill: rgb(0,0,0); fill-rule: nonzero; opacity: 1;" vector-effect="non-scaling-stroke"  transform=" translate(-690.5, -1324.33)" d="M 606 1345 C 603 1336 600 1320 600 1309 C 600 1292 608 1290 691 1290 L 781 1290 L 778 1323 L 775 1355 L 694 1358 C 626 1360 611 1358 606 1345 z" stroke-linecap="round" />
</g>
<g transform="matrix(0.13 0 0 -0.13 387.24 734.13)"  >
<path style="stroke: none; stroke-width: 1; stroke-dasharray: none; stroke-linecap: butt; stroke-dashoffset: 0; stroke-linejoin: miter; stroke-miterlimit: 4; fill: rgb(0,0,0); fill-rule: nonzero; opacity: 1;" vector-effect="non-scaling-stroke"  transform=" translate(-1108.99, -1289.55)" d="M 1001 1448 C 943 1409 926 1377 922 1301 C 919 1247 922 1225 939 1192 C 974 1123 1002 1110 1120 1110 L 1222 1110 L 1260 1148 L 1297 1185 L 1297 1284 L 1297 1384 L 1259 1424 L 1221 1465 L 1128 1468 C 1044 1471 1032 1469 1001 1448 z M 1244 1399 C 1292 1347 1290 1315 1240 1315 C 1211 1315 1204 1319 1202 1338 C 1199 1360 1195 1361 1117 1358 L 1035 1355 L 1032 1288 C 1029 1225 1030 1220 1052 1215 C 1065 1212 1102 1210 1135 1212 C 1189 1215 1195 1217 1200 1240 C 1204 1258 1213 1266 1234 1268 C 1288 1274 1295 1228 1249 1175 L 1218 1140 L 1121 1140 L 1025 1140 L 988 1176 C 951 1211 950 1213 950 1286 C 950 1357 951 1362 986 1400 L 1022 1440 L 1115 1440 L 1208 1440 L 1244 1399 z M 1179 1306 C 1190 1287 1189 1279 1179 1261 C 1168 1245 1155 1240 1119 1240 C 1068 1240 1058 1253 1067 1304 C 1072 1328 1077 1330 1119 1330 C 1159 1330 1169 1326 1179 1306 z" stroke-linecap="round" />
</g>
<g transform="matrix(0.13 0 0 -0.13 444.75 734.07)"  >
<path style="stroke: none; stroke-width: 1; stroke-dasharray: none; stroke-linecap: butt; stroke-dashoffset: 0; stroke-linejoin: miter; stroke-miterlimit: 4; fill: rgb(0,0,0); fill-rule: nonzero; opacity: 1;" vector-effect="non-scaling-stroke"  transform=" translate(-1540.38, -1290)" d="M 1376 1449 C 1350 1429 1350 1428 1350 1286 C 1350 1127 1356 1110 1417 1110 C 1452 1110 1477 1134 1486 1177 C 1493 1210 1518 1222 1565 1212 C 1583 1209 1590 1201 1590 1185 C 1590 1150 1627 1110 1659 1110 C 1719 1110 1749 1191 1719 1267 C 1705 1300 1706 1340 1720 1354 C 1751 1385 1707 1470 1660 1470 C 1634 1470 1590 1427 1590 1402 C 1590 1374 1556 1348 1524 1352 C 1502 1354 1495 1362 1484 1400 C 1463 1470 1425 1488 1376 1449 z M 1449 1426 C 1457 1416 1459 1396 1455 1366 L 1448 1320 L 1517 1320 C 1584 1320 1586 1321 1602 1353 C 1611 1370 1620 1396 1622 1410 C 1625 1431 1630 1435 1660 1435 C 1692 1435 1695 1432 1698 1402 C 1700 1381 1693 1355 1680 1333 L 1659 1297 L 1680 1275 C 1697 1257 1701 1242 1698 1199 L 1695 1145 L 1660 1145 C 1626 1145 1625 1146 1622 1187 C 1620 1210 1613 1234 1605 1240 C 1597 1246 1564 1250 1523 1248 L 1455 1245 L 1454 1205 C 1454 1183 1452 1159 1452 1153 C 1450 1138 1380 1135 1380 1150 C 1377 1240 1380 1422 1385 1430 C 1394 1445 1436 1442 1449 1426 z" stroke-linecap="round" />
</g>
<g transform="matrix(0.13 0 0 -0.13 499.4 734.07)"  >
<path style="stroke: none; stroke-width: 1; stroke-dasharray: none; stroke-linecap: butt; stroke-dashoffset: 0; stroke-linejoin: miter; stroke-miterlimit: 4; fill: rgb(0,0,0); fill-rule: nonzero; opacity: 1;" vector-effect="non-scaling-stroke"  transform=" translate(-1950, -1290)" d="M 1795 1445 C 1772 1423 1770 1414 1770 1320 C 1770 1208 1780 1179 1830 1136 C 1860 1111 1867 1110 1979 1110 C 2111 1110 2130 1119 2130 1177 C 2130 1226 2104 1240 2018 1240 C 1907 1240 1910 1238 1910 1337 C 1910 1413 1908 1423 1885 1445 C 1872 1459 1852 1470 1840 1470 C 1829 1470 1808 1459 1795 1445 z M 1875 1418 C 1878 1405 1881 1355 1883 1305 L 1885 1215 L 1995 1210 L 2105 1205 L 2105 1175 L 2105 1145 L 1987 1142 L 1869 1139 L 1834 1174 L 1800 1208 L 1800 1317 C 1800 1377 1803 1430 1807 1433 C 1810 1437 1826 1440 1841 1440 C 1862 1440 1871 1434 1875 1418 z" stroke-linecap="round" />
</g>
<g transform="matrix(0.13 0 0 -0.13 554.71 734.2)"  >
<path style="stroke: none; stroke-width: 1; stroke-dasharray: none; stroke-linecap: butt; stroke-dashoffset: 0; stroke-linejoin: miter; stroke-miterlimit: 4; fill: rgb(0,0,0); fill-rule: nonzero; opacity: 1;" vector-effect="non-scaling-stroke"  transform=" translate(-2364.94, -1289)" d="M 2257 1449 C 2199 1418 2180 1379 2180 1287 C 2180 1192 2190 1168 2250 1127 C 2287 1101 2510 1102 2533 1128 C 2554 1151 2555 1203 2536 1219 C 2517 1235 2517 1335 2536 1351 C 2558 1369 2553 1424 2527 1448 C 2506 1468 2493 1470 2399 1470 C 2315 1469 2288 1465 2257 1449 z M 2518 1398 L 2521 1360 L 2412 1360 C 2330 1360 2300 1356 2291 1346 C 2272 1324 2292 1318 2388 1320 C 2508 1323 2502 1325 2498 1288 L 2495 1255 L 2392 1253 C 2335 1253 2286 1249 2283 1246 C 2280 1243 2283 1234 2290 1225 C 2300 1213 2326 1210 2411 1210 L 2520 1210 L 2520 1175 L 2520 1140 L 2398 1140 L 2276 1140 L 2243 1172 C 2211 1203 2210 1206 2210 1288 L 2210 1372 L 2247 1406 L 2285 1441 L 2400 1438 L 2515 1435 L 2518 1398 z" stroke-linecap="round" />
</g>
<g transform="matrix(0.13 0 0 -0.13 610.5 734.07)"  >
<path style="stroke: none; stroke-width: 1; stroke-dasharray: none; stroke-linecap: butt; stroke-dashoffset: 0; stroke-linejoin: miter; stroke-miterlimit: 4; fill: rgb(0,0,0); fill-rule: nonzero; opacity: 1;" vector-effect="non-scaling-stroke"  transform=" translate(-2783.67, -1289.96)" d="M 2619 1441 C 2565 1387 2585 1299 2672 1207 C 2704 1173 2737 1137 2745 1128 C 2768 1101 2816 1105 2837 1135 C 2847 1149 2881 1187 2912 1219 C 2959 1267 2970 1286 2975 1324 C 2988 1409 2961 1470 2910 1470 C 2883 1470 2850 1427 2850 1392 C 2850 1375 2845 1349 2838 1335 C 2829 1315 2820 1310 2789 1310 C 2745 1310 2730 1329 2730 1385 C 2730 1410 2722 1428 2705 1445 C 2673 1477 2655 1476 2619 1441 z M 2698 1375 C 2702 1297 2717 1280 2785 1280 C 2854 1280 2878 1304 2882 1380 C 2885 1434 2886 1435 2915 1435 C 2945 1435 2945 1435 2948 1369 C 2951 1305 2950 1303 2910 1257 C 2887 1231 2860 1210 2850 1210 C 2836 1210 2830 1201 2828 1178 C 2825 1148 2822 1145 2788 1142 C 2751 1139 2750 1139 2750 1174 C 2750 1202 2746 1210 2732 1210 C 2722 1210 2695 1229 2672 1253 C 2631 1294 2630 1298 2630 1361 C 2630 1397 2633 1430 2637 1434 C 2641 1438 2656 1440 2670 1438 C 2693 1435 2695 1431 2698 1375 z" stroke-linecap="round" />
</g>
<g transform="matrix(0.13 0 0 -0.13 691.65 733.98)"  >
<path style="stroke: none; stroke-width: 1; stroke-dasharray: none; stroke-linecap: butt; stroke-dashoffset: 0; stroke-linejoin: miter; stroke-miterlimit: 4; fill: rgb(0,0,0); fill-rule: nonzero; opacity: 1;" vector-effect="non-scaling-stroke"  transform=" translate(-3392.09, -1290.68)" d="M 3280 1448 C 3214 1403 3205 1380 3205 1260 C 3205 1168 3208 1149 3224 1131 C 3258 1094 3330 1114 3330 1161 C 3330 1185 3352 1200 3386 1200 C 3431 1200 3450 1191 3450 1169 C 3450 1119 3530 1091 3564 1129 C 3579 1146 3581 1165 3578 1268 C 3575 1380 3573 1389 3550 1413 C 3506 1456 3466 1470 3387 1470 C 3327 1470 3307 1466 3280 1448 z M 3513 1406 L 3550 1372 L 3550 1256 L 3550 1140 L 3515 1140 C 3480 1140 3480 1140 3480 1185 L 3480 1230 L 3390 1230 L 3300 1230 L 3302 1188 C 3305 1145 3305 1145 3270 1145 L 3235 1145 L 3232 1252 L 3229 1359 L 3266 1400 L 3302 1440 L 3389 1440 C 3474 1440 3477 1439 3513 1406 z" stroke-linecap="round" />
</g>
<g transform="matrix(0.13 0 0 -0.13 691.76 729.97)"  >
<path style="stroke: none; stroke-width: 1; stroke-dasharray: none; stroke-linecap: butt; stroke-dashoffset: 0; stroke-linejoin: miter; stroke-miterlimit: 4; fill: rgb(0,0,0); fill-rule: nonzero; opacity: 1;" vector-effect="non-scaling-stroke"  transform=" translate(-3390.5, -1324.33)" d="M 3306 1345 C 3303 1336 3300 1320 3300 1309 C 3300 1292 3308 1290 3391 1290 L 3481 1290 L 3478 1323 L 3475 1355 L 3394 1358 C 3326 1360 3311 1358 3306 1345 z" stroke-linecap="round" />
</g>
<g transform="matrix(0.13 0 0 -0.13 748.05 734.02)"  >
<path style="stroke: none; stroke-width: 1; stroke-dasharray: none; stroke-linecap: butt; stroke-dashoffset: 0; stroke-linejoin: miter; stroke-miterlimit: 4; fill: rgb(0,0,0); fill-rule: nonzero; opacity: 1;" vector-effect="non-scaling-stroke"  transform=" translate(-3815, -1290.39)" d="M 3652 1454 C 3631 1440 3630 1432 3630 1290 C 3630 1148 3631 1140 3652 1126 C 3683 1104 3709 1106 3736 1131 C 3753 1147 3779 1154 3842 1161 C 3921 1170 3927 1172 3963 1210 C 3998 1247 4000 1253 4000 1314 C 4000 1369 3996 1383 3973 1411 C 3933 1459 3895 1470 3778 1470 C 3700 1470 3669 1466 3652 1454 z M 3941 1401 C 3975 1367 3980 1356 3980 1316 C 3980 1277 3974 1264 3944 1230 L 3908 1190 L 3820 1190 C 3736 1190 3731 1189 3728 1168 C 3726 1149 3719 1145 3690 1145 L 3655 1145 L 3652 1279 C 3651 1353 3652 1420 3654 1427 C 3658 1437 3690 1440 3781 1440 L 3902 1440 L 3941 1401 z" stroke-linecap="round" />
</g>
<g transform="matrix(0.13 0 0 -0.13 748.06 731.44)"  >
<path style="stroke: none; stroke-width: 1; stroke-dasharray: none; stroke-linecap: butt; stroke-dashoffset: 0; stroke-linejoin: miter; stroke-miterlimit: 4; fill: rgb(0,0,0); fill-rule: nonzero; opacity: 1;" vector-effect="non-scaling-stroke"  transform=" translate(-3812.5, -1313)" d="M 3730 1313 L 3730 1265 L 3812 1270 L 3895 1275 L 3895 1315 L 3895 1355 L 3813 1358 L 3730 1361 L 3730 1313 z M 3866 1314 C 3864 1298 3850 1283 3850 1296 C 3850 1301 3833 1304 3811 1302 C 3783 1299 3771 1302 3767 1314 C 3761 1328 3768 1330 3814 1329 C 3852 1327 3867 1323 3866 1314 z" stroke-linecap="round" />
</g>
<g transform="matrix(0.13 0 0 -0.13 804.66 733.87)"  >
<path style="stroke: none; stroke-width: 1; stroke-dasharray: none; stroke-linecap: butt; stroke-dashoffset: 0; stroke-linejoin: miter; stroke-miterlimit: 4; fill: rgb(0,0,0); fill-rule: nonzero; opacity: 1;" vector-effect="non-scaling-stroke"  transform=" translate(-4239.72, -1291.54)" d="M 4076 1449 C 4050 1429 4050 1428 4050 1289 C 4050 1161 4052 1148 4071 1129 C 4096 1104 4142 1109 4175 1140 C 4190 1154 4210 1160 4246 1160 C 4317 1160 4359 1175 4392 1212 C 4427 1251 4434 1277 4427 1336 C 4424 1368 4414 1391 4394 1412 C 4346 1462 4321 1470 4207 1470 C 4117 1470 4099 1467 4076 1449 z M 4362 1403 C 4396 1370 4400 1361 4400 1316 C 4400 1272 4396 1261 4363 1228 L 4326 1190 L 4239 1190 C 4156 1190 4151 1189 4148 1168 C 4146 1150 4137 1144 4113 1142 C 4094 1140 4080 1143 4080 1149 C 4077 1243 4080 1422 4085 1430 C 4089 1436 4140 1440 4208 1440 L 4324 1440 L 4362 1403 z" stroke-linecap="round" />
</g>
<g transform="matrix(0.13 0 0 -0.13 804.06 731.44)"  >
<path style="stroke: none; stroke-width: 1; stroke-dasharray: none; stroke-linecap: butt; stroke-dashoffset: 0; stroke-linejoin: miter; stroke-miterlimit: 4; fill: rgb(0,0,0); fill-rule: nonzero; opacity: 1;" vector-effect="non-scaling-stroke"  transform=" translate(-4232.5, -1313)" d="M 4150 1313 L 4150 1265 L 4232 1270 L 4315 1275 L 4315 1315 L 4315 1355 L 4233 1358 L 4150 1361 L 4150 1313 z M 4280 1315 C 4280 1304 4268 1300 4235 1300 C 4202 1300 4190 1304 4190 1315 C 4190 1326 4202 1330 4235 1330 C 4268 1330 4280 1326 4280 1315 z" stroke-linecap="round" />
</g>
<g transform="matrix(0.13 0 0 -0.13 274.65 730.79)"  >
<path style="stroke: none; stroke-width: 1; stroke-dasharray: none; stroke-linecap: butt; stroke-dashoffset: 0; stroke-linejoin: miter; stroke-miterlimit: 4; fill: rgb(0,0,0); fill-rule: nonzero; opacity: 1;" vector-effect="non-scaling-stroke"  transform=" translate(-262.19, -1318)" d="M 170 1318 L 170 1275 L 256 1277 C 350 1278 362 1285 351 1329 C 344 1354 341 1355 257 1358 L 170 1361 L 170 1318 z M 310 1320 C 310 1315 288 1310 260 1310 C 233 1310 210 1315 210 1320 C 210 1326 233 1330 260 1330 C 288 1330 310 1326 310 1320 z" stroke-linecap="round" />
</g>
<g transform="matrix(0.13 0 0 -0.13 651.72 749.78)"  >
<path style="stroke: none; stroke-width: 1; stroke-dasharray: none; stroke-linecap: butt; stroke-dashoffset: 0; stroke-linejoin: miter; stroke-miterlimit: 4; fill: rgb(0,0,0); fill-rule: nonzero; opacity: 1;" vector-effect="non-scaling-stroke"  transform=" translate(-3089.54, -1175)" d="M 3044 1215 C 3026 1197 3021 1184 3025 1167 C 3033 1139 3067 1110 3090 1110 C 3113 1110 3147 1139 3154 1166 C 3163 1195 3126 1240 3094 1240 C 3080 1240 3058 1229 3044 1215 z M 3127 1194 C 3141 1156 3086 1123 3061 1154 C 3054 1162 3051 1178 3055 1190 C 3063 1215 3117 1218 3127 1194 z" stroke-linecap="round" />
</g>
</svg>