<?xml version="1.0" standalone="no"?>
<!DOCTYPE svg PUBLIC "-//W3C//DTD SVG 20010904//EN"
 "http://www.w3.org/TR/2001/REC-SVG-20010904/DTD/svg10.dtd">
<svg version="1.0" xmlns="http://www.w3.org/2000/svg"
 width="500.000000pt" height="500.000000pt" viewBox="0 0 500.000000 500.000000"
 preserveAspectRatio="xMidYMid meet">
<metadata>
Created by potrace 1.10, written by Peter Selinger 2001-2011
</metadata>
<g transform="translate(0.000000,500.000000) scale(0.100000,-0.100000)"
fill="#000000" stroke="none">
<path d="M4459 4987 c6 -8 9 -16 6 -19 -3 -3 -5 -997 -5 -2210 0 -2006 -1
-2206 -16 -2212 -8 -3 -1012 -6 -2230 -6 -2207 0 -2214 0 -2214 -20 0 -20 7
-20 2250 -20 l2250 0 0 2250 0 2250 -26 0 c-21 0 -24 -3 -15 -13z"/>
<path d="M4355 4928 c-48 -26 -195 -115 -255 -153 -36 -23 -130 -84 -210 -135
-80 -52 -318 -209 -530 -349 -212 -141 -391 -257 -399 -259 -32 -9 11 25 187
144 267 181 471 326 517 369 52 47 35 37 -225 -138 -113 -77 -280 -189 -372
-250 l-167 -111 21 -30 c12 -17 23 -32 24 -34 1 -2 33 19 71 45 74 53 425 286
978 651 193 127 359 237 370 246 23 18 18 20 -10 4z"/>
<path d="M4230 4808 c-91 -61 -413 -277 -717 -480 l-552 -369 24 -55 c106
-240 6 -556 -220 -693 -47 -28 -117 -60 -189 -85 -17 -6 -14 -10 20 -28 21
-11 71 -42 111 -69 40 -27 74 -49 77 -49 3 0 19 8 36 19 l31 19 -83 58 c-45
31 -77 59 -71 61 10 4 258 -150 331 -205 27 -21 34 -22 48 -11 14 12 14 14 -3
20 -10 4 -61 35 -113 70 -52 35 -121 78 -153 94 -31 17 -57 35 -57 40 0 6 20
23 44 38 116 73 219 222 252 366 23 95 14 245 -19 333 -19 50 -23 69 -14 76 7
6 192 131 412 278 663 444 1008 686 973 684 -2 0 -77 -50 -168 -112z m-1490
-1738 c57 -52 59 -60 11 -35 -16 8 -32 11 -36 7 -5 -4 -5 -1 -1 6 4 6 4 12 -1
12 -18 1 -55 38 -49 49 11 18 18 14 76 -39z"/>
<path d="M3033 4785 c-73 -41 -270 -164 -493 -310 -214 -140 -208 -137 -267
-125 -26 6 -93 19 -148 30 -55 11 -118 24 -140 29 -87 20 -401 81 -421 81 -34
0 -57 -45 -57 -113 0 -52 3 -63 25 -82 13 -11 51 -27 84 -34 199 -42 255 -54
309 -66 33 -7 75 -16 93 -20 17 -4 32 -11 32 -15 0 -9 -98 -76 -127 -87 -7 -3
-40 20 -75 51 -88 80 -148 92 -179 35 -6 -12 -8 -32 -4 -46 5 -22 4 -24 -17
-16 -35 12 -104 9 -122 -6 -26 -22 -21 -90 10 -122 l26 -28 -48 -30 c-30 -19
-58 -30 -72 -28 -22 4 -22 3 -6 -14 9 -11 21 -19 25 -19 11 0 163 99 167 108
1 4 -17 14 -39 22 -50 18 -64 37 -55 73 5 23 12 27 44 27 20 0 64 -14 97 -30
60 -29 60 -29 89 -10 l30 18 -48 22 c-53 26 -74 53 -55 76 28 34 91 3 169 -84
l50 -56 22 20 c25 21 115 82 187 125 l44 27 -59 12 c-32 6 -163 34 -290 61
-126 27 -240 49 -253 49 -20 0 -22 4 -17 25 4 15 2 25 -4 25 -7 0 -8 18 -4 53
4 28 7 53 8 54 2 3 276 -52 461 -92 88 -19 176 -37 195 -40 19 -3 58 -10 85
-16 l51 -11 314 207 c428 282 463 306 448 305 -2 0 -31 -16 -65 -35z"/>
<path d="M2985 4712 c-380 -256 -595 -403 -597 -408 -2 -4 38 -16 87 -28 50
-12 96 -25 103 -29 7 -5 75 34 169 96 87 56 174 113 194 125 20 12 43 30 50
39 18 22 -66 -25 -249 -139 l-143 -90 -70 17 c-38 10 -69 20 -69 24 0 3 73 56
162 116 305 207 524 367 498 364 -3 0 -63 -39 -135 -87z"/>
<path d="M3586 4550 c-78 -45 -237 -146 -580 -368 -60 -39 -114 -68 -119 -65
-11 7 5 21 107 96 63 47 111 92 76 72 -27 -16 -225 -147 -234 -156 -5 -5 3
-20 20 -36 l29 -28 270 180 c149 99 328 218 398 263 111 73 136 92 124 92 -2
0 -42 -23 -91 -50z"/>
<path d="M2820 4365 c-102 -69 -184 -128 -183 -132 1 -4 17 -13 37 -21 34 -13
36 -13 115 39 45 29 79 54 77 56 -2 3 -39 -14 -82 -36 -43 -22 -80 -38 -82
-36 -9 8 13 27 121 103 103 74 199 151 187 151 -3 0 -88 -56 -190 -124z"/>
<path d="M1565 4371 c-10 -17 -59 -5 520 -127 149 -31 293 -65 321 -75 76 -29
164 -89 208 -143 21 -26 40 -45 43 -42 10 9 -38 75 -86 118 -61 54 -201 125
-222 113 -5 -4 -9 -1 -9 4 0 6 -10 11 -22 11 -25 0 -30 1 -456 91 -323 67
-289 62 -297 50z"/>
<path d="M2995 4281 c-38 -21 -92 -52 -119 -69 -47 -30 -86 -41 -86 -24 0 4
24 29 52 55 29 27 46 45 38 41 -37 -19 -145 -97 -142 -103 2 -3 19 -14 36 -25
l33 -18 131 86 c113 74 143 97 130 96 -2 0 -34 -18 -73 -39z"/>
<path d="M2055 4089 c-71 -48 -130 -92 -129 -96 1 -18 17 -63 22 -63 3 0 13 6
21 14 40 34 304 197 314 193 6 -2 -66 -56 -160 -120 l-172 -117 9 -32 c5 -17
11 -32 13 -34 2 -2 76 45 164 105 88 60 188 125 222 146 34 21 59 40 57 42 -5
6 -208 53 -221 52 -5 0 -68 -41 -140 -90z m131 32 c-3 -4 -32 -24 -63 -43 -32
-19 -71 -43 -88 -53 -61 -38 -1 13 70 59 67 44 92 56 81 37z m123 -30 c-13
-10 -71 -49 -129 -86 -58 -38 -115 -77 -127 -88 -13 -11 -23 -16 -23 -11 1 15
263 204 284 204 17 0 16 -2 -5 -19z"/>
<path d="M2435 4110 c-4 -6 -108 -78 -233 -161 -174 -115 -227 -155 -229 -172
0 -12 -1 -28 -2 -34 -2 -24 -21 -13 -21 12 0 25 0 25 -31 9 -24 -12 -30 -20
-25 -37 3 -12 6 -33 6 -46 0 -21 2 -22 20 -10 126 89 581 389 589 389 24 0 9
21 -28 40 -25 12 -42 16 -46 10z m-293 -248 c-13 -9 -38 -29 -56 -44 -18 -15
-36 -25 -40 -21 -3 3 -6 2 -6 -4 0 -6 -7 -13 -15 -17 -9 -3 -15 0 -15 10 0 8
4 13 9 10 4 -3 16 3 26 14 10 11 23 20 29 20 6 0 25 11 41 25 17 13 35 24 40
24 6 0 0 -8 -13 -17z"/>
<path d="M2525 4050 c-7 -11 -547 -370 -592 -394 -29 -14 -33 -22 -33 -56 0
-21 5 -42 10 -45 6 -4 151 88 323 203 171 115 327 217 346 226 l33 18 -33 28
c-37 32 -45 35 -54 20z m5 -49 c0 -5 -46 -40 -102 -77 -57 -38 -188 -126 -291
-196 -103 -71 -190 -128 -193 -128 -2 0 -4 6 -4 14 0 8 71 59 158 115 86 55
218 141 292 191 74 49 136 90 138 90 1 0 2 -4 2 -9z"/>
<path d="M1776 4025 l-30 -24 26 -26 c25 -25 26 -25 57 -8 17 10 31 21 31 24
0 3 -12 17 -27 31 l-28 26 -29 -23z"/>
<path d="M150 3961 c82 -71 355 -260 965 -669 226 -151 418 -282 428 -290 16
-14 16 -16 -4 -30 -15 -11 -18 -17 -9 -26 8 -8 14 -7 21 6 14 24 40 11 33 -16
-4 -17 1 -25 23 -36 15 -8 31 -16 35 -18 5 -2 22 47 23 69 0 3 -286 197 -635
431 -349 233 -665 445 -701 470 -122 84 -217 142 -179 109z"/>
<path d="M170 3987 c0 -5 38 -31 600 -402 272 -180 579 -384 683 -454 103 -69
194 -130 202 -136 18 -12 22 -8 30 35 l6 36 -295 198 c-174 116 -301 194 -307
190 -7 -4 -9 -3 -5 4 4 6 -17 27 -50 49 -153 104 -217 144 -205 129 30 -36
344 -259 704 -500 64 -43 117 -83 117 -88 0 -12 23 -27 -345 217 -775 513
-1135 742 -1135 722z"/>
<path d="M2604 3979 c-3 -6 -154 -109 -335 -229 -297 -198 -325 -219 -306
-229 12 -6 29 -16 38 -23 14 -10 68 23 335 202 176 117 320 214 322 216 5 3
-27 62 -37 69 -5 3 -13 0 -17 -6z m-4 -63 c-8 -8 -67 -49 -130 -91 -63 -43
-185 -127 -271 -187 -144 -99 -189 -123 -189 -99 0 5 105 76 233 159 127 83
257 169 287 191 54 40 103 58 70 27z"/>
<path d="M1842 3949 c-30 -20 -32 -23 -17 -39 8 -9 15 -22 15 -28 0 -18 22
-14 52 11 l27 22 -22 28 -22 27 -33 -21z"/>
<path d="M1568 3884 l-78 -53 35 -21 34 -21 81 53 81 53 -26 22 c-14 13 -31
22 -38 22 -7 -1 -47 -25 -89 -55z m55 -17 c-32 -27 -68 -43 -57 -26 7 12 65
49 77 49 5 0 -4 -10 -20 -23z"/>
<path d="M2504 3782 c-88 -59 -229 -152 -312 -207 -83 -54 -148 -102 -144
-106 4 -4 79 -55 167 -113 116 -77 166 -105 181 -102 37 10 143 86 178 129 18
23 43 60 54 82 21 43 64 177 58 183 -2 2 -26 -12 -53 -31 -26 -19 -67 -45 -90
-57 -24 -13 -43 -27 -43 -32 0 -9 32 3 90 32 37 19 40 19 40 3 -1 -25 -33 -95
-71 -149 -33 -49 -138 -124 -173 -124 -25 0 -208 119 -203 133 2 6 52 40 113
77 132 81 255 158 308 194 42 28 56 32 56 16 0 -6 -21 -25 -47 -43 -61 -41
-135 -108 -128 -115 3 -3 20 5 38 18 17 13 61 44 97 69 36 24 68 49 72 55 9
13 11 86 2 86 -3 0 -124 -79 -270 -176 -272 -179 -294 -193 -294 -177 0 5 126
92 279 193 209 138 280 190 280 205 1 27 -10 65 -18 64 -3 0 -78 -49 -167
-107z m139 29 c-4 -3 -56 -38 -113 -77 -58 -40 -168 -117 -245 -173 -133 -96
-191 -124 -183 -86 4 20 542 367 547 353 2 -6 -1 -13 -6 -17z"/>
<path d="M1657 3825 l-78 -53 34 -21 35 -21 61 42 c34 23 61 44 61 47 0 3 -8
18 -18 32 l-17 26 -78 -52z m38 -25 c-10 -11 -25 -20 -34 -20 -12 0 -9 6 9 20
33 26 48 26 25 0z"/>
<path d="M1896 3865 c-10 -8 -23 -16 -27 -17 -7 -2 5 -55 18 -76 1 -2 15 6 31
18 27 20 29 24 19 56 -12 38 -14 39 -41 19z"/>
<path d="M1400 3861 c12 -9 6 -19 -37 -59 -49 -45 -70 -74 -40 -55 60 38 127
87 127 93 0 4 -8 10 -17 14 -10 3 -25 9 -33 12 -13 5 -13 4 0 -5z"/>
<path d="M1429 3792 c-21 -15 -52 -35 -69 -45 -60 -32 -21 -30 46 3 36 17 68
29 71 26 8 -7 23 5 -143 -114 -211 -153 -204 -161 13 -16 l193 129 -28 22
c-34 28 -39 28 -83 -5z"/>
<path d="M1727 3755 c-27 -18 -48 -36 -48 -40 0 -4 14 -16 31 -26 30 -19 31
-19 63 3 18 13 33 23 34 23 5 2 -21 75 -26 74 -3 -1 -28 -16 -54 -34z"/>
<path d="M1345 3620 c-115 -77 -214 -140 -219 -140 -5 0 -1 9 9 20 17 19 17
20 2 14 -12 -4 -57 17 -135 64 -214 127 -239 132 -52 10 63 -41 257 -169 430
-284 173 -115 317 -210 320 -212 3 -1 11 16 17 38 l10 41 -151 99 c-112 74
-138 88 -101 55 28 -24 87 -70 132 -102 45 -32 82 -61 83 -65 0 -14 -27 -8
-51 10 -13 10 -124 83 -246 161 -123 79 -223 149 -223 155 0 6 24 24 53 39 28
16 113 67 188 113 172 106 207 109 75 6 -59 -46 -15 -32 63 19 l81 54 -28 22
c-15 13 -31 23 -37 23 -5 -1 -104 -64 -220 -140z"/>
<path d="M2992 3742 c-1 -13 -9 -57 -18 -99 -48 -232 -197 -379 -463 -454 -25
-8 -50 -23 -59 -36 -14 -22 -14 -26 3 -41 17 -16 17 -16 11 9 -5 25 -3 27 56
39 104 23 251 101 323 173 102 103 161 250 152 380 -2 28 -4 42 -5 29z"/>
<path d="M1575 3654 c-39 -26 -73 -49 -77 -53 -4 -3 8 -17 26 -29 l34 -23 81
54 82 55 -34 21 c-19 12 -36 21 -38 21 -2 0 -36 -21 -74 -46z m57 -23 c-49
-42 -80 -57 -93 -44 -8 8 4 20 42 42 68 39 96 40 51 2z"/>
<path d="M1781 3674 l-24 -17 24 -18 c34 -26 39 -24 39 16 0 39 -6 42 -39 19z"/>
<path d="M1652 3588 l-73 -49 85 -55 85 -56 30 21 c23 17 31 31 36 72 4 27 5
53 1 56 -3 3 -20 -7 -38 -23 -18 -15 -25 -25 -15 -21 16 6 18 2 15 -26 -2 -26
-8 -33 -28 -35 -25 -3 -120 49 -120 66 0 4 23 22 52 39 37 23 55 29 64 22 7
-6 10 -17 7 -26 -5 -13 -2 -13 26 1 17 9 31 18 31 20 0 7 -67 46 -76 45 -5 -1
-42 -24 -82 -51z"/>
<path d="M1459 3573 c-8 -9 -9 -14 -2 -10 14 9 43 -2 43 -16 0 -6 -15 -26 -32
-45 l-33 -34 52 33 c57 37 63 46 36 56 -10 3 -25 12 -34 20 -14 12 -18 11 -30
-4z"/>
<path d="M1504 3488 c-68 -44 -65 -49 7 -13 55 28 62 27 132 -28 42 -32 43
-48 6 -58 -20 -5 -21 -7 -7 -13 10 -5 29 1 51 16 l34 23 -82 56 -83 56 -58
-39z"/>
<path d="M1904 3512 c-7 -4 -15 -33 -19 -65 l-7 -57 53 36 c30 20 55 39 57 44
2 4 -13 17 -33 29 -41 24 -37 23 -51 13z"/>
<path d="M1975 3434 c-16 -14 -47 -34 -67 -44 -20 -11 -39 -24 -42 -28 -5 -8
289 -207 304 -207 3 0 19 10 35 23 24 19 26 25 15 32 -10 6 -20 4 -32 -6 -9
-9 -23 -13 -30 -9 -69 40 -239 153 -243 163 -5 14 66 62 94 62 10 0 24 -7 31
-15 14 -17 36 -20 44 -6 5 7 -65 62 -76 61 -2 -1 -16 -12 -33 -26z"/>
<path d="M1786 3434 c-16 -11 -17 -16 -5 -30 12 -15 14 -13 21 12 9 34 8 36
-16 18z"/>
<path d="M1703 3379 l-33 -21 48 -32 47 -32 14 40 c13 36 12 40 -5 53 -24 17
-33 16 -71 -8z m38 -22 c-1 -12 -15 -9 -19 4 -3 6 1 10 8 8 6 -3 11 -8 11 -12z"/>
<path d="M2085 3390 c-4 -6 -5 -12 -4 -14 2 -1 36 -22 74 -46 39 -24 78 -51
88 -59 18 -15 18 -16 -2 -33 -13 -10 -17 -19 -11 -23 12 -7 110 15 109 24 0 5
-221 152 -240 159 -4 2 -10 -2 -14 -8z"/>
<path d="M1485 3362 c6 -6 64 -46 130 -90 l119 -80 13 37 c7 20 13 39 13 42 0
8 -99 69 -113 69 -6 0 8 -14 31 -31 40 -29 52 -52 34 -63 -5 -3 -33 11 -63 30
-61 40 -179 102 -164 86z"/>
<path d="M1847 3283 c-4 -20 -5 -38 -4 -38 100 -63 326 -216 331 -224 4 -6 12
-11 18 -11 6 0 2 10 -10 23 -11 12 -24 40 -28 62 -7 38 -13 44 -142 130 -75
50 -141 91 -147 93 -7 2 -15 -13 -18 -35z m77 -32 c4 -5 37 -30 75 -55 38 -25
73 -51 77 -58 5 -8 -1 -7 -16 3 -14 9 -50 31 -80 49 -30 19 -66 42 -79 52 -23
17 -23 18 -3 18 11 0 23 -4 26 -9z"/>
<path d="M1822 3183 c-6 -21 -8 -40 -4 -44 40 -36 425 -278 434 -273 6 4 8 3
5 -3 -4 -6 1 -17 10 -24 19 -16 20 -20 -17 68 -22 51 -29 57 -213 180 -105 71
-194 129 -197 131 -4 1 -12 -14 -18 -35z m356 -230 c19 -18 14 -23 -10 -10
-72 40 -317 210 -312 218 4 8 286 -174 322 -208z"/>
<path d="M1791 3079 c-7 -22 -11 -42 -9 -43 2 -1 83 -54 180 -119 l177 -117
36 21 c20 12 33 25 28 29 -4 3 -88 60 -186 126 -97 65 -186 125 -196 132 -16
11 -19 8 -30 -29z m207 -127 c78 -53 142 -99 142 -104 0 -12 -20 0 -174 102
-75 50 -136 96 -136 101 0 13 -4 15 168 -99z"/>
<path d="M2488 3104 c-15 -15 20 -64 65 -92 47 -29 50 -30 78 -14 16 10 29 20
29 23 0 3 -27 24 -61 47 -55 38 -96 52 -111 36z"/>
<path d="M2190 3063 c1 -10 39 -60 40 -51 0 14 -23 58 -32 58 -4 0 -8 -3 -8
-7z"/>
<path d="M2646 2993 c-27 -23 -28 -25 -10 -38 50 -37 61 -39 94 -15 30 21 31
24 14 33 -11 6 -30 18 -44 28 -25 16 -26 16 -54 -8z"/>
<path d="M1767 2993 c-3 -10 -8 -27 -11 -39 -5 -17 9 -31 93 -87 l99 -67 36
21 c42 25 48 14 9 -16 l-26 -22 35 -21 c44 -27 46 -27 81 1 l29 23 -144 95
c-220 147 -195 133 -201 112z m113 -87 c69 -45 91 -66 69 -66 -16 0 -149 91
-149 102 0 14 9 10 80 -36z m168 -124 c2 -7 -2 -10 -12 -6 -9 3 -16 11 -16 16
0 13 23 5 28 -10z"/>
<path d="M2828 2987 l-27 -22 83 -56 83 -55 32 22 33 22 -85 56 c-47 31 -87
56 -89 56 -1 -1 -15 -11 -30 -23z m120 -75 l27 -23 -33 18 c-18 9 -45 28 -60
41 l-27 23 33 -18 c18 -9 45 -28 60 -41z"/>
<path d="M2531 2970 c9 -26 14 -28 30 -19 19 10 19 11 -5 30 -33 26 -37 24
-25 -11z"/>
<path d="M2568 2940 c-19 -12 -14 -42 13 -65 17 -16 20 -16 54 5 l36 22 -35
24 c-39 27 -44 28 -68 14z"/>
<path d="M2739 2928 l-27 -20 81 -56 80 -55 34 18 c18 10 33 21 33 24 -1 7
-150 105 -165 108 -5 1 -22 -7 -36 -19z m126 -72 c11 -8 15 -16 10 -16 -11 0
-85 48 -85 56 0 6 49 -20 75 -40z"/>
<path d="M1492 2878 c-41 -119 -63 -230 -75 -378 -7 -82 -15 -151 -18 -153 -2
-2 -183 -124 -402 -271 -219 -147 -433 -291 -475 -321 -42 -30 -97 -68 -122
-85 -318 -221 -343 -240 -335 -248 3 -3 20 5 38 18 48 36 479 326 933 628
l401 267 6 125 c6 138 35 295 72 397 22 63 24 83 6 83 -4 0 -17 -28 -29 -62z"/>
<path d="M3076 2912 c-3 -5 30 -33 72 -63 l77 -55 57 36 c77 49 86 61 16 22
-32 -18 -63 -32 -69 -32 -6 0 -37 23 -69 50 -57 49 -74 58 -84 42z"/>
<path d="M1736 2902 c-2 -4 -7 -23 -10 -42 -6 -34 -4 -36 46 -68 29 -18 60
-38 69 -44 12 -8 23 -6 51 13 l36 24 -94 62 c-51 35 -95 59 -98 55z m84 -78
c37 -25 51 -44 32 -44 -11 0 -92 58 -92 65 0 11 23 3 60 -21z"/>
<path d="M1560 2862 c-19 -67 -70 -330 -70 -359 0 -15 -4 -53 -9 -83 -4 -30
-7 -56 -6 -58 2 -2 21 9 43 25 34 24 41 36 49 81 10 57 8 60 -25 36 -12 -8
-27 -14 -33 -12 -6 2 7 17 30 32 26 18 41 36 41 50 0 17 29 153 54 256 5 21 1
29 -28 47 l-35 23 -11 -38z m25 -108 c-9 -38 -19 -80 -21 -93 -3 -13 -9 -40
-13 -60 l-9 -36 -1 32 c-1 17 8 71 19 120 25 105 29 118 36 111 3 -3 -2 -37
-11 -74z"/>
<path d="M2652 2868 l-33 -21 40 -24 c38 -22 42 -23 70 -8 43 22 51 18 18 -9
l-29 -23 32 -23 c32 -23 33 -23 66 -5 19 10 34 21 34 24 0 6 -146 104 -159
108 -3 1 -21 -8 -39 -19z"/>
<path d="M3013 2865 l-33 -23 39 -25 c27 -18 42 -22 49 -15 8 8 4 16 -11 30
-27 24 -17 21 52 -15 38 -20 50 -32 43 -39 -8 -8 -19 -6 -38 6 -16 11 -30 14
-35 9 -6 -6 5 -19 29 -35 l38 -26 32 27 32 26 -62 39 c-35 21 -72 45 -83 51
-17 10 -25 9 -52 -10z"/>
<path d="M2191 2810 l-34 -27 35 -21 c44 -27 46 -27 82 1 l28 23 -39 26 -39
26 -33 -28z"/>
<path d="M3258 2792 c-36 -26 -74 -52 -83 -57 -15 -9 -2 -21 86 -80 129 -87
129 -87 129 -81 0 3 -35 32 -78 64 -116 89 -114 82 -38 142 36 29 66 54 66 56
0 10 -19 -1 -82 -44z"/>
<path d="M2590 2821 c0 -5 7 -25 15 -45 15 -37 16 -37 40 -19 32 23 31 28 -9
52 -37 23 -46 25 -46 12z"/>
<path d="M2927 2806 l-28 -23 33 -25 33 -25 32 21 c18 12 33 23 33 26 0 5 -67
50 -72 50 -2 -1 -16 -11 -31 -24z"/>
<path d="M1678 2712 c-15 -54 -25 -98 -23 -100 2 -2 42 22 89 54 47 31 85 58
84 59 -2 1 -30 20 -63 42 l-61 41 -26 -96z m71 29 c18 -11 8 -36 -18 -51 -19
-10 -21 -8 -21 18 0 40 12 50 39 33z"/>
<path d="M1907 2746 l-29 -23 30 -22 c38 -26 50 -26 85 3 l29 23 -35 22 c-42
26 -45 26 -80 -3z"/>
<path d="M2092 2746 l-32 -23 37 -25 38 -25 38 25 37 25 -34 23 c-42 29 -43
29 -84 0z"/>
<path d="M2655 2745 c-16 -13 -27 -26 -25 -28 50 -37 62 -39 96 -21 19 10 34
22 34 25 0 7 -63 49 -71 49 -2 -1 -17 -12 -34 -25z"/>
<path d="M2837 2746 l-29 -23 30 -22 c37 -26 40 -26 76 2 l29 24 -35 21 c-20
12 -37 22 -39 22 -2 -1 -17 -11 -32 -24z"/>
<path d="M3012 2746 l-33 -24 34 -21 c42 -26 45 -26 80 3 l29 23 -37 22 c-20
11 -37 21 -38 21 -1 -1 -17 -11 -35 -24z"/>
<path d="M2273 2741 l-22 -19 39 -26 c22 -14 40 -22 40 -17 0 10 -29 81 -33
81 -1 -1 -12 -9 -24 -19z"/>
<path d="M1762 2647 c-49 -34 -97 -66 -105 -72 -8 -6 -18 -33 -21 -61 l-6 -52
142 95 c79 53 144 99 146 103 2 4 -13 17 -31 28 l-35 20 -90 -61z m88 -1 c-24
-22 -151 -106 -161 -106 -18 0 -9 17 21 38 16 12 32 22 35 22 3 0 24 14 47 30
43 31 87 44 58 16z"/>
<path d="M2003 2687 c-18 -12 -32 -24 -32 -27 -1 -3 15 -15 34 -27 l34 -23 40
27 41 26 -38 23 c-44 28 -39 28 -79 1z"/>
<path d="M2193 2687 c-18 -12 -32 -24 -32 -27 -1 -3 14 -15 32 -26 l33 -21 37
21 c20 11 37 23 37 26 0 5 -67 51 -72 49 -2 0 -17 -11 -35 -22z"/>
<path d="M2753 2688 c-18 -11 -33 -23 -33 -26 0 -4 14 -15 31 -24 29 -17 32
-17 68 4 l38 22 -34 23 c-19 13 -35 23 -36 22 -1 0 -17 -10 -34 -21z"/>
<path d="M2922 2685 l-32 -23 36 -21 35 -21 39 22 38 22 -36 23 c-44 27 -39
27 -80 -2z"/>
<path d="M3101 2685 l-34 -24 26 -12 c15 -7 27 -16 27 -21 0 -13 -27 -9 -40 7
-17 20 -23 19 -65 -9 l-35 -24 36 -22 35 -23 68 47 c67 46 91 55 91 36 0 -5 4
-10 9 -10 6 0 38 -16 71 -36 34 -20 63 -34 65 -32 3 3 -210 149 -217 148 -2
-1 -18 -12 -37 -25z m64 -25 c8 -13 -20 -24 -41 -16 -20 8 -9 26 16 26 10 0
22 -5 25 -10z"/>
<path d="M2640 2683 c0 -4 5 -15 10 -23 7 -11 12 -12 21 -3 8 8 6 14 -10 22
-12 7 -21 8 -21 4z"/>
<path d="M1785 2538 l-160 -108 -6 -48 c-3 -26 -5 -48 -5 -49 3 -4 405 261
405 267 1 3 -16 14 -37 26 l-37 20 -160 -108z m153 43 c-21 -16 -236 -158
-265 -175 -7 -4 -13 -3 -13 2 0 5 19 22 43 38 23 16 47 33 52 37 49 39 189
125 197 121 5 -3 -2 -13 -14 -23z"/>
<path d="M1875 2472 l-260 -175 -3 -48 c-3 -54 2 -58 32 -30 12 10 144 100
294 201 151 100 272 183 270 184 -2 1 -19 11 -38 22 l-35 20 -260 -174z m265
123 c0 -3 -66 -49 -147 -104 -82 -55 -191 -129 -243 -165 -53 -36 -97 -61 -99
-54 -2 6 3 14 10 19 8 4 113 76 234 158 196 134 245 163 245 146z"/>
<path d="M2290 2623 c-19 -13 -36 -25 -38 -27 -1 -2 13 -14 33 -26 33 -21 37
-21 60 -6 29 19 28 17 14 50 -16 35 -29 36 -69 9z"/>
<path d="M2678 2639 c-17 -9 -17 -12 -2 -42 9 -18 18 -34 19 -35 5 -5 65 40
65 48 0 4 -12 13 -27 21 -16 7 -30 14 -33 16 -3 1 -13 -2 -22 -8z"/>
<path d="M2844 2628 c-16 -12 -31 -23 -33 -25 -3 -2 1 -9 7 -15 7 -7 12 -17
12 -22 0 -6 -7 -2 -15 8 -14 19 -15 19 -51 0 -54 -29 -57 -38 -20 -58 l33 -18
83 53 83 53 -29 23 c-35 28 -35 28 -70 1z"/>
<path d="M3126 2581 c-51 -34 -56 -40 -40 -48 16 -8 27 0 63 39 24 26 42 48
40 48 -2 0 -30 -18 -63 -39z"/>
<path d="M2075 2478 c-88 -59 -228 -152 -312 -205 -149 -96 -152 -99 -153
-133 0 -67 9 -66 122 12 57 40 208 143 336 228 127 85 232 157 232 160 0 3
-15 14 -33 26 l-32 20 -160 -108z m165 58 c0 -3 -74 -54 -165 -115 -150 -101
-382 -264 -412 -291 -10 -8 -13 -4 -13 18 0 22 7 32 34 44 36 18 451 286 501
325 27 20 55 30 55 19z"/>
<path d="M2878 2537 c-42 -29 -77 -54 -77 -57 -1 -3 14 -14 33 -24 l34 -18 80
53 c45 30 81 56 81 59 1 6 -58 40 -67 39 -4 0 -42 -24 -84 -52z m81 0 c-32
-23 -90 -57 -96 -57 -4 0 14 16 41 35 27 19 52 33 54 30 3 -3 3 -6 1 -8z"/>
<path d="M2355 2540 c-4 -6 4 -19 17 -30 28 -23 12 -27 -20 -4 -22 15 -28 12
-180 -89 -237 -157 -505 -333 -531 -347 -21 -10 -22 -17 -17 -53 8 -51 11 -54
33 -35 10 9 178 122 373 253 195 131 359 241 364 246 5 4 4 21 -4 38 -13 32
-24 39 -35 21z m-175 -164 c0 -5 -79 -56 -87 -56 -5 0 12 14 37 30 46 31 50
33 50 26z m-305 -211 c-147 -102 -211 -142 -216 -133 -11 17 14 42 74 74 28
14 114 66 192 115 77 49 144 89 149 89 5 0 -85 -65 -199 -145z"/>
<path d="M2970 2474 c-41 -29 -88 -61 -105 -69 -16 -9 -41 -24 -54 -34 l-25
-19 49 -81 c64 -105 123 -172 179 -202 31 -16 44 -29 41 -38 -3 -8 -1 -17 5
-21 8 -5 8 -20 -1 -54 -14 -55 -7 -55 -169 -4 -176 55 -289 138 -362 266 l-33
58 -371 -245 c-203 -135 -452 -300 -552 -366 -99 -65 -179 -121 -177 -123 9
-10 424 251 858 540 114 76 213 138 221 138 8 0 26 -21 41 -46 76 -129 209
-219 405 -273 96 -27 121 -26 149 3 52 56 32 146 -44 190 -23 14 -60 46 -81
71 -39 47 -114 163 -114 178 0 4 16 17 35 28 19 12 32 26 29 31 -4 6 -1 9 7 6
8 -3 46 17 85 44 39 26 79 48 89 48 14 0 15 3 5 15 -18 22 -28 19 -110 -41z"/>
<path d="M2720 2503 c0 -4 5 -15 10 -23 7 -11 12 -12 21 -3 8 8 6 14 -10 22
-12 7 -21 8 -21 4z"/>
<path d="M2760 2455 c-10 -12 -10 -21 0 -45 15 -36 17 -36 59 -6 l32 24 -34
21 c-41 25 -41 25 -57 6z"/>
<path d="M2318 2397 c-48 -34 -219 -147 -379 -252 -160 -104 -300 -198 -310
-207 -11 -10 -21 -18 -24 -18 -2 0 -32 -18 -66 -40 -34 -22 -58 -40 -53 -39
17 1 152 75 220 120 38 26 139 91 224 146 85 55 219 141 298 193 148 96 199
117 90 37 -35 -25 -79 -62 -98 -83 -28 -30 -10 -20 90 47 69 46 127 85 128 86
7 3 -19 73 -26 72 -4 0 -46 -28 -94 -62z"/>
<path d="M1508 2353 c-34 -23 -38 -30 -38 -69 0 -24 2 -44 5 -44 3 0 23 12 45
26 37 24 40 30 40 70 0 24 -3 44 -7 43 -5 0 -25 -12 -45 -26z"/>
<path d="M2333 2292 c-61 -43 -110 -78 -108 -80 5 -5 64 23 135 64 74 43 65
24 -13 -29 -589 -398 -888 -606 -952 -662 -46 -40 -2 -15 125 71 293 199 944
634 953 637 10 3 -12 78 -23 76 -3 0 -55 -35 -117 -77z"/>
<path d="M1395 2278 c-53 -40 -1088 -726 -1190 -789 l-79 -49 115 0 115 0 37
-38 c32 -33 37 -44 37 -85 0 -37 -5 -51 -26 -71 l-27 -24 22 -31 c27 -37 21
-51 -22 -51 -26 0 -37 7 -50 30 -17 29 -21 30 -88 30 l-69 0 0 -31 c0 -28 -2
-30 -32 -27 l-33 3 -3 138 c-1 75 -6 137 -10 137 -23 0 -27 -28 -22 -150 4
-115 7 -133 24 -146 33 -23 71 -17 99 16 35 41 82 41 122 0 55 -57 139 -28
119 42 -8 25 -6 40 9 68 13 26 17 48 13 83 -10 89 -72 137 -179 137 l-62 0 60
39 c33 21 175 113 315 203 140 91 374 244 520 339 318 209 290 192 290 180 0
-5 -57 -49 -127 -97 -212 -144 -422 -296 -466 -336 -42 -38 43 17 437 283 103
71 192 129 196 131 4 2 4 24 1 49 l-6 46 -40 -29z"/>
<path d="M1513 2230 c-39 -29 -41 -32 -36 -73 3 -23 6 -43 7 -44 1 -1 19 9 39
24 34 24 37 30 37 75 0 26 -1 48 -3 48 -2 0 -22 -14 -44 -30z"/>
<path d="M2587 2175 c34 -48 73 -81 143 -118 97 -53 300 -113 300 -89 0 6 3
17 6 25 4 12 -2 14 -33 10 -25 -3 -66 4 -123 22 -106 34 -186 78 -280 152
l-34 28 21 -30z"/>
<path d="M1340 2116 c-58 -39 -201 -134 -317 -211 -116 -77 -210 -141 -208
-144 6 -5 170 94 399 241 110 70 203 128 208 128 14 0 9 -33 -9 -53 -18 -20
-18 -20 13 -2 29 17 31 21 26 64 -2 25 -5 46 -6 47 0 0 -48 -32 -106 -70z"/>
<path d="M1498 2099 c-32 -22 -58 -42 -58 -44 0 -3 20 4 45 15 l46 20 8 -23
c5 -12 12 -44 16 -72 l7 -50 -49 -43 -48 -43 66 41 65 41 -12 57 c-7 31 -16
76 -21 100 l-8 42 -57 -41z"/>
<path d="M580 1448 c-64 -44 -75 -69 -78 -181 -3 -92 -2 -105 18 -130 14 -18
31 -27 49 -27 29 0 61 27 61 51 0 24 22 39 56 39 45 0 64 -9 64 -31 0 -26 39
-59 70 -59 50 0 60 25 60 146 0 101 -2 112 -25 147 -34 48 -80 67 -170 67 -58
0 -78 -4 -105 -22z m233 -42 l37 -34 0 -116 0 -116 -35 0 c-35 0 -35 0 -35 45
l0 45 -89 0 -90 0 2 -42 c2 -43 2 -43 -33 -43 l-35 0 -3 107 -3 107 37 41 36
40 87 0 c85 0 88 -1 124 -34z"/>
<path d="M606 1345 c-3 -9 -6 -25 -6 -36 0 -17 8 -19 91 -19 l90 0 -3 33 -3
32 -81 3 c-68 2 -83 0 -88 -13z"/>
<path d="M1001 1448 c-58 -39 -75 -71 -79 -147 -3 -54 0 -76 17 -109 35 -69
63 -82 181 -82 l102 0 38 38 37 37 0 99 0 100 -38 40 -38 41 -93 3 c-84 3 -96
1 -127 -20z m243 -49 c48 -52 46 -84 -4 -84 -29 0 -36 4 -38 23 -3 22 -7 23
-85 20 l-82 -3 -3 -67 c-3 -63 -2 -68 20 -73 13 -3 50 -5 83 -3 54 3 60 5 65
28 4 18 13 26 34 28 54 6 61 -40 15 -93 l-31 -35 -97 0 -96 0 -37 36 c-37 35
-38 37 -38 110 0 71 1 76 36 114 l36 40 93 0 93 0 36 -41z m-65 -93 c11 -19
10 -27 0 -45 -11 -16 -24 -21 -60 -21 -51 0 -61 13 -52 64 5 24 10 26 52 26
40 0 50 -4 60 -24z"/>
<path d="M1376 1449 c-26 -20 -26 -21 -26 -163 0 -159 6 -176 67 -176 35 0 60
24 69 67 7 33 32 45 79 35 18 -3 25 -11 25 -27 0 -35 37 -75 69 -75 60 0 90
81 60 157 -14 33 -13 73 1 87 31 31 -13 116 -60 116 -26 0 -70 -43 -70 -68 0
-28 -34 -54 -66 -50 -22 2 -29 10 -40 48 -21 70 -59 88 -108 49z m73 -23 c8
-10 10 -30 6 -60 l-7 -46 69 0 c67 0 69 1 85 33 9 17 18 43 20 57 3 21 8 25
38 25 32 0 35 -3 38 -33 2 -21 -5 -47 -18 -69 l-21 -36 21 -22 c17 -18 21 -33
18 -76 l-3 -54 -35 0 c-34 0 -35 1 -38 42 -2 23 -9 47 -17 53 -8 6 -41 10 -82
8 l-68 -3 -1 -40 c0 -22 -2 -46 -2 -52 -2 -15 -72 -18 -72 -3 -3 90 0 272 5
280 9 15 51 12 64 -4z"/>
<path d="M1795 1445 c-23 -22 -25 -31 -25 -125 0 -112 10 -141 60 -184 30 -25
37 -26 149 -26 132 0 151 9 151 67 0 49 -26 63 -112 63 -111 0 -108 -2 -108
97 0 76 -2 86 -25 108 -13 14 -33 25 -45 25 -11 0 -32 -11 -45 -25z m80 -27
c3 -13 6 -63 8 -113 l2 -90 110 -5 110 -5 0 -30 0 -30 -118 -3 -118 -3 -35 35
-34 34 0 109 c0 60 3 113 7 116 3 4 19 7 34 7 21 0 30 -6 34 -22z"/>
<path d="M2257 1449 c-58 -31 -77 -70 -77 -162 0 -95 10 -119 70 -160 37 -26
260 -25 283 1 21 23 22 75 3 91 -19 16 -19 116 0 132 22 18 17 73 -9 97 -21
20 -34 22 -128 22 -84 -1 -111 -5 -142 -21z m261 -51 l3 -38 -109 0 c-82 0
-112 -4 -121 -14 -19 -22 1 -28 97 -26 120 3 114 5 110 -32 l-3 -33 -103 -2
c-57 0 -106 -4 -109 -7 -3 -3 0 -12 7 -21 10 -12 36 -15 121 -15 l109 0 0 -35
0 -35 -122 0 -122 0 -33 32 c-32 31 -33 34 -33 116 l0 84 37 34 38 35 115 -3
115 -3 3 -37z"/>
<path d="M2619 1441 c-54 -54 -34 -142 53 -234 32 -34 65 -70 73 -79 23 -27
71 -23 92 7 10 14 44 52 75 84 47 48 58 67 63 105 13 85 -14 146 -65 146 -27
0 -60 -43 -60 -78 0 -17 -5 -43 -12 -57 -9 -20 -18 -25 -49 -25 -44 0 -59 19
-59 75 0 25 -8 43 -25 60 -32 32 -50 31 -86 -4z m79 -66 c4 -78 19 -95 87 -95
69 0 93 24 97 100 3 54 4 55 33 55 30 0 30 0 33 -66 3 -64 2 -66 -38 -112 -23
-26 -50 -47 -60 -47 -14 0 -20 -9 -22 -32 -3 -30 -6 -33 -40 -36 -37 -3 -38
-3 -38 32 0 28 -4 36 -18 36 -10 0 -37 19 -60 43 -41 41 -42 45 -42 108 0 36
3 69 7 73 4 4 19 6 33 4 23 -3 25 -7 28 -63z"/>
<path d="M3280 1448 c-66 -45 -75 -68 -75 -188 0 -92 3 -111 19 -129 34 -37
106 -17 106 30 0 24 22 39 56 39 45 0 64 -9 64 -31 0 -50 80 -78 114 -40 15
17 17 36 14 139 -3 112 -5 121 -28 145 -44 43 -84 57 -163 57 -60 0 -80 -4
-107 -22z m233 -42 l37 -34 0 -116 0 -116 -35 0 c-35 0 -35 0 -35 45 l0 45
-90 0 -90 0 2 -42 c3 -43 3 -43 -32 -43 l-35 0 -3 107 -3 107 37 41 36 40 87
0 c85 0 88 -1 124 -34z"/>
<path d="M3306 1345 c-3 -9 -6 -25 -6 -36 0 -17 8 -19 91 -19 l90 0 -3 33 -3
32 -81 3 c-68 2 -83 0 -88 -13z"/>
<path d="M3652 1454 c-21 -14 -22 -22 -22 -164 0 -142 1 -150 22 -164 31 -22
57 -20 84 5 17 16 43 23 106 30 79 9 85 11 121 49 35 37 37 43 37 104 0 55 -4
69 -27 97 -40 48 -78 59 -195 59 -78 0 -109 -4 -126 -16z m289 -53 c34 -34 39
-45 39 -85 0 -39 -6 -52 -36 -86 l-36 -40 -88 0 c-84 0 -89 -1 -92 -22 -2 -19
-9 -23 -38 -23 l-35 0 -3 134 c-1 74 0 141 2 148 4 10 36 13 127 13 l121 0 39
-39z"/>
<path d="M3730 1313 l0 -48 82 5 83 5 0 40 0 40 -82 3 -83 3 0 -48z m136 1
c-2 -16 -16 -31 -16 -18 0 5 -17 8 -39 6 -28 -3 -40 0 -44 12 -6 14 1 16 47
15 38 -2 53 -6 52 -15z"/>
<path d="M4076 1449 c-26 -20 -26 -21 -26 -160 0 -128 2 -141 21 -160 25 -25
71 -20 104 11 15 14 35 20 71 20 71 0 113 15 146 52 35 39 42 65 35 124 -3 32
-13 55 -33 76 -48 50 -73 58 -187 58 -90 0 -108 -3 -131 -21z m286 -46 c34
-33 38 -42 38 -87 0 -44 -4 -55 -37 -88 l-37 -38 -87 0 c-83 0 -88 -1 -91 -22
-2 -18 -11 -24 -35 -26 -19 -2 -33 1 -33 7 -3 94 0 273 5 281 4 6 55 10 123
10 l116 0 38 -37z"/>
<path d="M4150 1313 l0 -48 82 5 83 5 0 40 0 40 -82 3 -83 3 0 -48z m130 2 c0
-11 -12 -15 -45 -15 -33 0 -45 4 -45 15 0 11 12 15 45 15 33 0 45 -4 45 -15z"/>
<path d="M170 1318 l0 -43 86 2 c94 1 106 8 95 52 -7 25 -10 26 -94 29 l-87 3
0 -43z m140 2 c0 -5 -22 -10 -50 -10 -27 0 -50 5 -50 10 0 6 23 10 50 10 28 0
50 -4 50 -10z"/>
<path d="M3044 1215 c-18 -18 -23 -31 -19 -48 8 -28 42 -57 65 -57 23 0 57 29
64 56 9 29 -28 74 -60 74 -14 0 -36 -11 -50 -25z m83 -21 c14 -38 -41 -71 -66
-40 -7 8 -10 24 -6 36 8 25 62 28 72 4z"/>
</g>
</svg>
