<?xml version="1.0" standalone="no"?>
<!DOCTYPE svg PUBLIC "-//W3C//DTD SVG 20010904//EN"
 "http://www.w3.org/TR/2001/REC-SVG-20010904/DTD/svg10.dtd">
<svg version="1.0" xmlns="http://www.w3.org/2000/svg"
 width="500.000000pt" height="500.000000pt" viewBox="0 0 500.000000 500.000000"
 preserveAspectRatio="xMidYMid meet">
<metadata>
Created by potrace 1.10, written by Peter Selinger 2001-2011
</metadata>
<g transform="translate(0.000000,500.000000) scale(0.100000,-0.100000)"
fill="#000000" stroke="none">
<path d="M4471 4718 l1 -283 -215 -145 c-118 -80 -464 -311 -768 -515 -305
-203 -557 -374 -561 -380 -4 -5 -3 -14 2 -19 6 -6 10 -20 10 -32 0 -31 14 -37
34 -15 15 16 15 19 1 24 -44 17 -3 49 473 365 459 304 952 641 991 676 10 9
21 16 24 16 4 0 7 -873 7 -1940 l0 -1940 -2235 0 c-1980 0 -2235 -2 -2235 -15
0 -13 257 -15 2250 -15 l2250 0 0 2250 c0 2012 -2 2250 -15 2250 -14 0 -15
-35 -14 -282z"/>
<path d="M4405 4426 c-11 -8 -74 -47 -140 -88 -156 -97 -292 -186 -864 -565
-335 -223 -476 -312 -484 -304 -6 6 -9 12 -6 14 2 2 60 41 129 87 410 273 683
465 718 503 32 35 12 43 -40 16 -72 -37 -345 -210 -703 -448 -130 -87 -146
-95 -155 -81 -6 9 23 35 97 87 125 87 162 116 162 125 1 10 -58 -26 -179 -109
-58 -40 -109 -74 -114 -76 -5 -2 2 -19 15 -38 l24 -36 130 86 c72 47 269 177
438 288 169 112 314 206 322 210 38 14 5 -13 -107 -88 -113 -75 -759 -509
-766 -514 -5 -4 32 -75 37 -73 3 2 281 186 616 409 336 223 676 449 758 502
81 53 147 99 147 102 0 8 -14 5 -35 -9z"/>
<path d="M3125 4304 c-28 -15 -57 -32 -65 -38 -8 -7 -44 -30 -80 -51 -36 -21
-184 -118 -330 -214 -146 -96 -274 -175 -284 -176 -11 -1 -67 9 -125 22 -241
55 -277 62 -308 63 -17 0 -34 4 -37 8 -2 4 -24 9 -47 11 -23 1 -49 6 -58 10
-9 5 -38 12 -66 15 -27 4 -72 13 -100 21 -27 7 -74 16 -103 20 l-52 7 -15 -36
c-23 -55 -20 -128 8 -153 19 -17 145 -50 297 -77 51 -9 354 -77 357 -80 4 -4
-225 -156 -236 -156 -5 0 -14 13 -21 30 -16 39 -106 132 -149 153 -52 26 -88
22 -105 -10 -12 -25 -12 -31 2 -55 9 -15 42 -41 74 -58 56 -30 73 -50 44 -50
-8 0 -17 4 -21 9 -9 16 -95 71 -110 71 -8 0 -17 5 -20 10 -3 6 -28 10 -54 10
-56 0 -81 -21 -81 -68 0 -33 38 -72 70 -72 10 0 23 -7 30 -15 7 -9 15 -13 18
-10 6 6 32 -14 32 -25 0 -9 -114 -80 -128 -80 -5 0 -30 11 -53 25 -47 26 -64
31 -54 15 7 -12 -7 -13 -21 -2 -6 4 10 -13 35 -37 l45 -43 -29 -21 c-48 -35
-101 -86 -89 -87 6 0 31 15 55 33 24 18 56 41 72 50 34 22 34 32 -2 47 -31 12
-71 50 -54 50 5 0 29 -14 52 -31 24 -17 49 -28 57 -25 8 3 48 28 90 57 l76 51
-43 29 c-24 16 -60 34 -79 40 -47 15 -60 27 -60 53 0 54 58 60 148 15 34 -16
73 -44 87 -60 l25 -30 30 21 c16 12 30 24 30 28 -1 10 -85 72 -97 72 -20 0
-63 42 -63 61 0 24 21 33 57 24 35 -8 155 -129 173 -173 7 -18 16 -35 20 -37
5 -3 59 30 122 72 62 43 136 91 165 109 l52 31 -107 21 c-59 12 -183 38 -277
57 -382 81 -364 76 -347 101 5 9 56 1 182 -26 96 -21 285 -61 420 -90 201 -42
258 -58 315 -88 76 -39 170 -126 198 -182 12 -26 17 -30 17 -14 0 29 -49 102
-100 148 -47 43 -215 127 -237 119 -7 -3 -13 -1 -13 4 0 5 -14 10 -31 11 -17
1 -84 14 -148 28 -64 13 -213 45 -331 70 -118 24 -224 47 -234 49 -11 3 -26
-1 -33 -7 -20 -16 -23 -7 -16 51 l6 53 36 -6 c37 -7 306 -63 663 -138 l206
-44 64 42 c35 23 212 140 393 259 182 120 334 221 340 226 15 15 2 10 -50 -17z"/>
<path d="M3075 4236 c-49 -34 -220 -150 -379 -257 l-289 -194 40 -7 c21 -3 68
-18 103 -32 36 -15 70 -24 77 -22 19 8 423 277 423 282 0 10 -93 -44 -256
-147 -156 -99 -214 -126 -214 -99 0 6 -8 10 -19 10 -10 0 -33 6 -51 14 -41 17
-58 2 210 182 220 148 398 272 443 310 55 47 1 21 -88 -40z"/>
<path d="M2857 3853 l-217 -146 40 -23 40 -23 100 67 c54 36 97 68 95 70 -4 4
-117 -56 -165 -88 -24 -15 -61 -17 -59 -2 0 4 33 28 72 54 157 101 340 239
316 238 -2 0 -102 -66 -222 -147z"/>
<path d="M3045 3774 c-68 -41 -157 -97 -197 -125 -30 -21 -54 -24 -63 -9 -8
12 6 27 66 67 25 17 52 39 60 49 13 16 12 16 -10 4 -22 -11 -150 -96 -160
-106 -3 -3 10 -17 29 -33 l34 -28 70 47 c39 26 110 72 159 104 48 31 87 59 87
62 0 10 -18 2 -75 -32z"/>
<path d="M2065 3558 c-88 -60 -165 -112 -172 -116 -8 -5 -10 -22 -6 -49 l5
-41 102 67 c217 144 327 213 332 208 3 -3 -92 -71 -210 -152 l-216 -146 0 -40
c0 -21 -4 -39 -10 -39 -5 0 -10 14 -10 30 0 35 -6 36 -38 12 -21 -16 -23 -23
-15 -58 l8 -39 302 202 302 202 -47 22 c-49 22 -139 50 -157 48 -5 -1 -82 -51
-170 -111z m205 68 c0 -3 -28 -22 -62 -42 -35 -21 -114 -71 -176 -111 -62 -40
-115 -73 -117 -73 -3 0 -5 6 -5 13 0 6 65 55 145 107 80 52 145 98 145 102 0
4 16 8 35 8 19 0 35 -2 35 -4z m100 -27 c9 -6 11 -12 4 -15 -5 -2 -104 -68
-220 -145 -115 -77 -212 -143 -216 -145 -5 -3 -8 1 -8 9 0 7 39 40 86 72 47
32 91 64 99 71 7 8 16 14 20 14 11 0 160 113 173 132 15 20 39 23 62 7z m-513
-351 c-3 -8 -6 -5 -6 6 -1 11 2 17 5 13 3 -3 4 -12 1 -19z"/>
<path d="M2140 3373 l-305 -204 -3 -50 -2 -49 334 225 c184 124 339 225 345
225 6 0 11 -4 11 -9 0 -7 -407 -279 -607 -406 -35 -22 -63 -42 -63 -45 0 -3
16 -16 36 -29 25 -17 40 -22 49 -15 8 5 156 104 329 219 173 116 315 215 316
222 0 16 -107 123 -122 122 -7 -1 -150 -94 -318 -206z m329 165 c0 -7 -98 -77
-217 -156 -119 -78 -254 -170 -300 -202 -46 -33 -85 -60 -88 -60 -2 0 -4 9 -4
19 0 18 46 60 67 62 4 0 123 78 263 173 140 96 261 174 268 175 6 1 12 -5 11
-11z m71 -72 c0 -8 -116 -92 -257 -187 -142 -94 -279 -187 -305 -206 -33 -24
-54 -32 -68 -28 -28 9 -25 19 13 37 17 9 160 102 317 206 157 105 288 191 293
191 4 1 7 -5 7 -13z"/>
<path d="M320 3341 c140 -93 485 -321 765 -507 281 -187 512 -340 515 -342 3
-1 11 16 17 38 l11 41 -107 71 c-58 39 -234 158 -391 263 -338 227 -380 255
-360 230 24 -28 290 -215 308 -215 8 0 12 -3 9 -6 -4 -4 51 -45 121 -92 70
-46 161 -107 202 -136 41 -28 82 -55 91 -61 62 -39 89 -62 89 -78 0 -22 24
-36 -246 144 -756 506 -1242 819 -1270 819 -5 0 106 -76 246 -169z"/>
<path d="M1762 3479 c-29 -19 -31 -23 -19 -38 8 -9 17 -24 20 -34 6 -16 9 -16
42 5 19 13 35 25 35 28 0 3 -10 17 -23 32 l-22 28 -33 -21z m42 -40 c-8 -14
-34 -11 -34 4 0 8 3 17 7 20 9 9 34 -13 27 -24z"/>
<path d="M106 3450 c22 -17 46 -37 55 -44 12 -10 224 -157 355 -247 90 -61
594 -399 694 -466 284 -188 304 -203 283 -203 -59 0 -143 -345 -143 -595 0
-55 -3 -109 -6 -120 -3 -12 -39 -41 -82 -68 -126 -79 -932 -623 -1094 -740
-88 -63 -163 -124 -133 -109 11 6 114 74 230 152 116 78 413 277 661 443 l451
302 -5 72 c-5 75 12 290 29 378 18 89 81 265 96 265 17 0 17 -1 -11 -122 -51
-217 -86 -438 -86 -550 l0 -29 43 30 44 30 7 93 c7 100 22 197 55 348 l21 94
-27 24 -28 24 28 -17 c16 -9 30 -15 31 -13 4 6 25 82 23 83 -1 1 -294 198
-652 437 -357 239 -698 467 -756 506 -111 75 -151 95 -83 42z m1464 -1010 c0
-18 -9 -24 -27 -17 -4 1 -9 15 -11 30 -3 26 -1 27 17 17 12 -6 21 -20 21 -30z
m-30 -106 c0 -22 -4 -33 -10 -29 -7 4 -9 -2 -4 -19 3 -15 2 -26 -4 -26 -5 0
-7 -12 -4 -26 3 -19 1 -25 -6 -20 -8 5 -10 -2 -5 -25 3 -18 2 -30 -3 -27 -5 4
-9 -8 -10 -25 0 -18 -7 -88 -14 -157 -10 -97 -17 -130 -32 -145 -19 -20 -19
-18 -13 86 3 58 10 121 15 140 6 19 10 51 10 72 0 24 4 36 10 32 7 -4 9 2 4
19 -3 15 -2 26 4 26 5 0 7 12 4 26 -3 17 -1 25 5 21 6 -4 8 3 5 18 -2 14 0 25
6 25 6 0 8 9 5 20 -3 11 0 20 6 20 6 0 11 9 11 21 0 11 5 17 10 14 6 -3 10
-22 10 -41z"/>
<path d="M2460 3342 c-69 -48 -214 -145 -322 -216 l-197 -130 35 -24 c20 -13
42 -21 50 -18 11 4 468 307 593 393 7 5 -19 83 -27 82 -4 -1 -63 -40 -132 -87z
m140 28 c0 -4 -24 -23 -52 -41 -29 -19 -158 -105 -286 -192 -208 -141 -269
-174 -261 -142 4 16 573 391 587 387 6 -2 12 -8 12 -12z"/>
<path d="M1811 3391 c-22 -17 -23 -21 -11 -55 l12 -37 28 18 c32 20 32 21 24
63 -7 34 -19 37 -53 11z m39 -17 c0 -14 -14 -33 -21 -28 -15 9 -10 31 6 31 8
0 15 -1 15 -3z"/>
<path d="M1567 3346 l-78 -54 36 -22 36 -22 70 46 70 47 -21 29 c-12 17 -24
30 -28 29 -4 0 -42 -24 -85 -53z m93 11 c0 -14 -22 -34 -67 -59 -53 -30 -77
-17 -25 14 15 9 38 26 51 37 27 24 41 27 41 8z"/>
<path d="M2918 3245 c-10 -178 -79 -326 -192 -416 -56 -45 -159 -97 -256 -129
-36 -12 -71 -27 -78 -33 -16 -13 -12 -49 6 -55 9 -3 11 3 7 20 -6 22 -1 25 72
46 212 63 356 181 422 350 29 74 45 197 34 262 l-9 55 -6 -100z"/>
<path d="M2490 3236 c-74 -50 -207 -139 -296 -197 l-161 -105 135 -88 135 -88
60 28 c79 38 165 122 200 198 16 32 26 60 25 62 -2 2 -30 -13 -61 -34 -32 -20
-53 -38 -48 -40 5 -2 19 2 30 8 18 9 21 8 21 -10 0 -11 -4 -20 -10 -20 -5 0
-10 -4 -10 -9 0 -32 -156 -151 -198 -151 -13 0 -142 77 -142 85 0 2 53 37 118
78 64 41 156 100 205 131 71 46 89 53 94 41 3 -10 -3 -23 -17 -33 -35 -26
-117 -105 -100 -96 8 4 41 25 73 47 57 40 59 43 80 135 3 12 4 22 2 22 -1 0
-111 -72 -245 -161 -133 -88 -245 -158 -248 -155 -3 3 -3 8 -1 9 9 7 377 253
436 292 l63 40 0 53 c0 28 -1 51 -2 51 -2 -1 -64 -43 -138 -93z m110 19 c0
-19 0 -19 -190 -148 -91 -62 -192 -132 -225 -155 -40 -28 -67 -41 -78 -36 -24
9 -21 33 6 44 12 5 123 76 247 159 124 82 228 150 233 150 4 1 7 -6 7 -14z"/>
<path d="M2978 3314 c-27 -14 -27 -17 -22 -73 9 -80 -18 -209 -63 -300 -61
-127 -204 -243 -358 -291 -22 -7 -44 -16 -49 -21 -6 -5 -23 -9 -38 -9 -60 0
-22 -67 74 -129 l78 -50 37 20 38 21 -29 -27 c-27 -25 -28 -27 -10 -40 50 -37
61 -39 94 -15 l31 22 -140 94 c-78 52 -141 96 -141 99 0 16 37 -2 116 -55 62
-42 95 -58 109 -54 14 4 16 3 6 -4 -10 -7 -3 -17 31 -40 43 -30 44 -30 67 -11
13 10 28 19 35 19 6 -1 -2 -11 -17 -24 l-28 -22 84 -56 84 -56 32 21 c17 12
31 24 31 27 0 3 -21 18 -48 35 -26 16 -96 63 -157 105 -134 93 -135 94 -135
81 0 -5 25 -29 55 -53 30 -23 55 -46 55 -50 0 -16 -29 -7 -58 17 -17 14 -33
25 -36 25 -10 0 -146 92 -146 99 0 8 50 31 67 31 7 0 13 5 13 10 0 6 7 10 16
10 21 0 101 55 150 104 60 60 101 123 136 207 26 64 31 90 36 189 3 77 10 122
20 137 17 27 16 27 -20 7z m-395 -804 c37 -25 47 -40 26 -40 -11 0 -110 62
-141 88 -10 8 -15 18 -12 23 5 8 33 -8 127 -71z m132 -90 c3 -6 -3 -10 -13
-10 -21 0 -46 23 -36 33 8 7 40 -8 49 -23z m212 -22 c40 -25 60 -45 55 -50
-10 -10 -141 69 -142 85 0 16 26 5 87 -35z"/>
<path d="M1650 3284 c-76 -51 -75 -49 -36 -73 l35 -22 45 31 c43 29 45 32 34
58 -19 43 -21 44 -78 6z m55 -13 c8 -14 -53 -54 -72 -47 -13 5 -10 11 17 31
37 27 46 30 55 16z"/>
<path d="M1383 3227 c-46 -29 -76 -53 -69 -55 16 -3 84 29 129 60 17 12 35 17
45 13 15 -6 14 -9 -8 -23 -13 -10 -101 -70 -193 -135 -93 -65 -175 -116 -181
-114 -7 3 -57 34 -112 69 -124 80 -219 135 -211 121 7 -12 12 -15 302 -205
105 -69 272 -179 372 -245 l181 -121 8 36 c4 21 8 41 8 45 1 10 -246 178 -253
172 -5 -6 5 -14 132 -106 95 -69 107 -82 88 -94 -12 -7 -451 281 -451 295 0 5
14 17 32 26 17 9 104 63 193 120 89 57 167 104 173 104 24 0 10 -20 -40 -56
-29 -21 -71 -56 -93 -77 -32 -31 -15 -22 78 40 l118 78 -33 27 c-18 14 -37 23
-43 20 -6 -4 -104 -69 -219 -145 -114 -76 -210 -136 -213 -133 -4 3 -4 7 -2 9
2 2 98 66 213 142 l208 139 -28 23 c-16 13 -33 22 -39 22 -5 -1 -47 -24 -92
-52z"/>
<path d="M1707 3201 c-16 -10 -29 -22 -29 -26 0 -8 53 -45 65 -45 4 0 7 20 7
45 0 51 -3 53 -43 26z"/>
<path d="M1565 3109 l-77 -50 33 -25 c18 -13 38 -23 44 -20 5 2 43 26 83 54
l73 50 -30 21 c-16 12 -33 21 -39 21 -5 0 -44 -23 -87 -51z m104 9 c0 -15 -92
-78 -113 -78 -29 0 -26 20 6 39 18 11 38 24 43 29 26 22 65 28 64 10z"/>
<path d="M1658 3056 c-43 -28 -78 -53 -78 -56 0 -3 33 -26 73 -52 l72 -48 8
32 c5 17 6 40 4 50 -3 10 -1 21 4 24 11 6 12 105 2 103 -5 -1 -43 -25 -85 -53z
m65 -8 c2 -7 0 -21 -5 -32 -6 -11 -6 -21 -1 -25 5 -3 5 -15 -2 -27 l-11 -22
-42 25 c-23 14 -42 28 -42 32 0 4 12 14 28 22 15 8 33 20 40 27 7 6 17 12 22
12 5 0 10 -6 13 -12z"/>
<path d="M1448 3034 c-36 -19 -35 -27 2 -19 16 3 37 2 46 -3 13 -7 6 -17 -45
-57 -58 -45 -77 -65 -48 -49 43 23 136 90 134 97 -1 4 -16 16 -32 27 -27 17
-33 17 -57 4z"/>
<path d="M1824 3023 c0 -10 -4 -35 -8 -57 l-7 -38 46 33 46 33 -28 23 c-34 27
-49 29 -49 6z"/>
<path d="M1505 2955 c-27 -18 -63 -44 -79 -57 l-29 -25 132 -86 c73 -48 133
-87 135 -87 2 0 8 18 15 41 11 36 10 42 -6 54 -17 13 -22 12 -53 -13 -3 -3 5
-1 18 2 19 6 22 4 22 -18 0 -14 -5 -26 -12 -26 -6 0 -45 22 -87 49 -42 26 -91
56 -109 65 -18 9 -30 21 -27 26 3 4 35 24 71 44 l66 36 59 -35 c32 -20 61 -40
64 -44 9 -15 -24 -33 -48 -27 -20 5 -24 2 -23 -16 0 -12 8 -24 16 -26 13 -5
13 -3 0 13 -14 16 -13 17 7 11 24 -8 83 20 83 39 0 8 -140 107 -159 111 -3 1
-28 -13 -56 -31z"/>
<path d="M1863 2947 c-63 -39 -79 -80 -43 -107 23 -17 25 -16 82 26 32 23 68
46 78 49 11 4 20 9 20 13 0 6 -74 53 -82 52 -2 -1 -26 -15 -55 -33z m77 -7 c8
-5 12 -11 10 -13 -35 -33 -95 -77 -105 -77 -21 0 -25 27 -7 47 21 23 64 52 77
52 6 1 17 -3 25 -9z"/>
<path d="M1992 2907 c-6 -7 -38 -28 -71 -47 -34 -18 -61 -37 -61 -41 0 -6 208
-147 232 -157 4 -2 24 10 45 27 21 17 61 36 89 43 l52 13 -90 59 -89 59 -21
-21 -21 -21 22 6 c15 4 37 -5 71 -28 54 -37 59 -46 33 -56 -10 -4 -34 -17 -55
-30 l-36 -24 -96 63 c-52 35 -96 67 -96 71 0 4 8 11 18 14 9 4 33 17 54 30 31
21 39 23 57 11 13 -8 20 -20 17 -30 -4 -16 -2 -16 20 -1 13 8 24 17 24 19 0 5
-73 54 -81 54 -4 0 -11 -6 -17 -13z"/>
<path d="M1686 2831 c-15 -16 -15 -19 -2 -24 9 -4 17 2 21 14 9 28 1 33 -19
10z"/>
<path d="M1784 2817 c-2 -7 -6 -26 -7 -41 -2 -25 10 -36 140 -120 78 -50 160
-106 182 -124 41 -33 58 -31 21 3 -11 10 -26 39 -34 63 -12 43 -20 51 -150
139 -76 51 -140 93 -142 93 -3 0 -7 -6 -10 -13z m31 -27 c-3 -5 1 -10 9 -10 8
0 21 -6 28 -13 7 -7 53 -39 101 -72 77 -52 123 -95 101 -95 -13 0 -244 152
-244 160 0 5 -3 15 -6 24 -3 9 -1 16 6 16 6 0 8 -4 5 -10z"/>
<path d="M1753 2688 c-7 -24 -9 -44 -5 -46 4 -1 108 -70 231 -152 124 -83 228
-150 233 -150 4 0 4 8 -2 18 -5 9 -18 37 -29 62 -17 41 -34 56 -214 178 -108
72 -198 132 -200 132 -1 0 -8 -19 -14 -42z m195 -110 c79 -54 148 -98 153 -98
5 0 9 -5 9 -11 0 -5 4 -8 8 -5 10 6 38 -41 31 -49 -3 -2 -83 48 -179 111 -96
63 -181 119 -189 123 -8 5 -11 16 -8 25 8 20 -5 28 175 -96z"/>
<path d="M1722 2586 c-6 -22 -8 -44 -4 -47 4 -3 100 -67 213 -143 l206 -137
37 22 c20 12 34 25 29 29 -4 5 -112 78 -239 163 l-230 155 -12 -42z m249 -149
c140 -94 192 -134 182 -140 -16 -10 -16 -10 -243 142 -93 63 -170 121 -170
129 0 22 18 12 231 -131z"/>
<path d="M2695 2611 c3 -6 33 -27 68 -47 34 -21 115 -73 181 -117 l118 -79 21
21 20 20 -20 -5 c-14 -4 -45 10 -98 45 -42 28 -80 51 -85 51 -5 0 -10 4 -12 9
-3 10 -177 111 -191 111 -4 0 -6 -4 -2 -9z"/>
<path d="M2142 2530 c17 -33 33 -58 35 -57 5 6 -26 88 -38 104 -27 32 -25 8 3
-47z"/>
<path d="M1689 2480 c-7 -22 -10 -42 -8 -43 2 -2 63 -43 136 -91 l132 -88 36
22 c20 12 39 20 42 16 3 -3 -8 -13 -26 -23 -17 -10 -31 -21 -31 -24 0 -4 17
-17 37 -31 l37 -24 38 25 38 24 -198 132 c-108 72 -202 134 -209 138 -8 5 -16
-6 -24 -33z m166 -92 c68 -45 121 -86 118 -91 -9 -15 -34 -3 -150 73 -100 65
-136 100 -102 100 6 0 67 -37 134 -82z m196 -129 c23 -12 16 -29 -11 -29 -21
0 -34 15 -25 30 8 13 12 12 36 -1z"/>
<path d="M2460 2505 c0 -14 33 -111 41 -119 6 -6 20 -1 39 12 32 24 40 27 40
14 0 -5 -11 -15 -25 -22 -14 -7 -25 -16 -25 -19 1 -7 69 -51 78 -51 4 1 20 11
35 24 l28 23 -68 43 c-37 24 -85 57 -105 73 -21 16 -38 26 -38 22z m70 -86 c0
-6 -4 -7 -10 -4 -5 3 -10 11 -10 16 0 6 5 7 10 4 6 -3 10 -11 10 -16z m88 -56
c5 -18 -23 -16 -39 3 -11 14 -10 15 11 12 13 -1 25 -9 28 -15z"/>
<path d="M1666 2412 c-2 -4 -7 -23 -11 -43 l-7 -35 98 -65 c54 -35 101 -65
106 -67 4 -2 23 7 43 21 l35 24 -130 86 c-71 47 -131 83 -134 79z m64 -62 c21
-16 42 -30 48 -30 6 0 12 -3 14 -7 2 -5 22 -21 46 -36 38 -24 48 -47 22 -47
-10 0 -145 84 -172 107 -14 13 -15 43 -1 43 3 0 22 -13 43 -30z"/>
<path d="M2737 2389 l-28 -21 83 -57 83 -57 32 21 c18 11 32 23 30 27 -3 8
-155 108 -165 108 -4 0 -20 -10 -35 -21z m106 -51 c43 -30 57 -44 45 -46 -19
-4 -128 64 -128 79 0 17 22 9 83 -33z"/>
<path d="M3088 2376 c-16 -12 -10 -19 61 -69 l79 -55 76 49 c41 27 78 54 82
60 8 14 -49 -16 -103 -52 -23 -16 -46 -29 -52 -29 -18 0 -131 92 -125 101 7
12 2 11 -18 -5z"/>
<path d="M3390 2341 c-14 -10 -68 -47 -120 -81 -52 -35 -99 -66 -103 -70 -5
-4 45 -43 110 -87 113 -76 189 -122 153 -91 -32 27 -136 104 -178 132 -24 16
-45 32 -47 36 -2 3 38 36 88 72 51 37 101 76 111 87 23 25 19 26 -14 2z"/>
<path d="M2527 2315 c18 -38 25 -42 42 -22 8 10 4 19 -19 35 -39 30 -42 28
-23 -13z"/>
<path d="M2652 2328 l-33 -21 43 -28 c23 -16 45 -25 48 -20 7 12 51 33 56 28
3 -2 -8 -12 -22 -22 l-27 -18 33 -27 34 -28 38 25 38 26 -85 53 c-46 30 -86
54 -87 54 -2 0 -18 -10 -36 -22z m57 -21 c6 -8 8 -17 5 -20 -10 -9 -45 13 -39
24 9 13 21 11 34 -4z m85 -53 c9 -3 16 -10 16 -16 0 -14 -43 -5 -48 10 -4 13
7 15 32 6z"/>
<path d="M3012 2326 l-32 -23 72 -49 c40 -27 78 -52 84 -56 6 -4 26 5 44 20
l33 28 -82 52 c-45 29 -83 52 -84 52 -1 -1 -17 -11 -35 -24z m94 -43 c49 -28
61 -40 53 -50 -11 -13 -41 -4 -54 17 -3 5 -13 6 -22 3 -12 -5 -15 -2 -10 9 4
11 -2 18 -19 22 -13 4 -24 13 -24 21 0 21 6 19 76 -22z"/>
<path d="M1617 2258 c-9 -29 -23 -91 -32 -138 -8 -47 -18 -94 -22 -105 -5 -18
-4 -18 15 -5 11 8 69 48 129 89 59 41 112 77 116 81 6 5 -170 130 -185 130 -2
0 -12 -24 -21 -52z m103 -30 c33 -23 57 -45 55 -48 -5 -9 -153 -110 -160 -110
-8 0 -5 50 7 116 7 37 15 61 21 57 6 -4 8 0 4 10 -10 27 10 20 73 -25z"/>
<path d="M2188 2272 c-16 -9 -28 -20 -28 -24 0 -12 71 -50 85 -45 12 5 11 12
-2 46 -9 23 -19 41 -22 41 -3 0 -18 -8 -33 -18z m27 -22 c3 -5 1 -10 -4 -10
-6 0 -11 5 -11 10 0 6 2 10 4 10 3 0 8 -4 11 -10z"/>
<path d="M2573 2275 c-25 -18 -21 -43 11 -67 22 -16 25 -16 60 9 l36 26 -37
23 c-45 28 -43 28 -70 9z m41 -21 c22 -9 20 -24 -3 -24 -21 0 -34 13 -24 24 8
7 8 7 27 0z"/>
<path d="M2922 2266 l-32 -23 37 -25 38 -25 32 21 c18 12 33 24 33 28 0 6 -63
49 -71 48 -2 -1 -19 -11 -37 -24z m52 -12 c22 -9 20 -24 -3 -24 -21 0 -34 13
-24 24 8 7 8 7 27 0z"/>
<path d="M1911 2211 l-33 -27 35 -26 34 -27 38 26 38 26 -24 19 c-47 37 -53
38 -88 9z m59 -21 c12 -8 12 -10 -3 -16 -22 -8 -50 3 -42 16 8 12 25 13 45 0z"/>
<path d="M2101 2215 c-17 -13 -34 -25 -37 -27 -2 -3 13 -16 34 -30 l37 -25 33
22 c19 13 34 25 35 28 1 3 -14 16 -34 30 l-35 24 -33 -22z m53 -24 c3 -5 0
-13 -7 -19 -15 -13 -42 1 -33 17 9 13 33 15 40 2z"/>
<path d="M2653 2206 l-33 -23 38 -24 37 -24 37 24 38 24 -35 24 c-41 28 -42
28 -82 -1z m62 -15 c3 -5 1 -12 -5 -16 -14 -9 -52 4 -45 16 8 12 42 12 50 0z"/>
<path d="M2832 2206 l-33 -24 37 -21 c37 -22 38 -22 71 -4 18 9 33 20 33 23 0
8 -57 50 -67 50 -4 -1 -23 -11 -41 -24z m57 -15 c9 -6 10 -10 2 -16 -16 -9
-44 2 -36 15 8 12 16 12 34 1z"/>
<path d="M3017 2211 c-36 -23 -36 -29 0 -52 36 -24 42 -24 77 4 l29 24 -35 21
c-42 26 -37 26 -71 3z m52 -20 c11 -7 10 -11 -7 -20 -15 -8 -23 -7 -31 3 -19
22 9 35 38 17z"/>
<path d="M2255 2180 c3 -5 8 -10 11 -10 2 0 4 5 4 10 0 6 -5 10 -11 10 -5 0
-7 -4 -4 -10z"/>
<path d="M1705 2073 l-140 -94 -11 -54 c-6 -30 -10 -55 -8 -55 2 0 82 52 178
115 96 63 182 118 191 121 8 3 15 9 15 13 0 6 -76 52 -82 50 -2 -1 -66 -44
-143 -96z m168 51 c8 -8 -14 -25 -146 -108 -59 -38 -115 -75 -123 -83 -8 -9
-18 -13 -21 -10 -8 9 6 57 17 57 11 0 132 74 180 111 47 36 79 47 93 33z"/>
<path d="M2003 2148 c-18 -11 -33 -23 -33 -26 0 -4 16 -17 35 -30 l35 -22 40
26 40 27 -37 23 c-45 28 -40 27 -80 2z m51 -14 c9 -3 16 -10 16 -14 0 -12 -28
-20 -45 -14 -12 5 -13 10 -4 20 13 16 12 16 33 8z"/>
<path d="M2193 2148 c-18 -11 -33 -23 -33 -28 0 -4 16 -17 36 -29 l35 -21 35
24 35 23 -31 27 c-37 30 -35 30 -77 4z m57 -22 c0 -17 -23 -27 -40 -16 -9 6
-8 10 6 19 26 14 34 14 34 -3z"/>
<path d="M2590 2163 c0 -19 25 -73 35 -73 5 0 21 9 34 19 l23 18 -36 21 c-38
22 -56 27 -56 15z"/>
<path d="M2747 2146 l-39 -24 31 -18 c17 -10 31 -22 31 -27 0 -5 -16 1 -35 13
l-35 22 -35 -22 c-19 -12 -35 -25 -35 -29 0 -4 13 -17 28 -28 l28 -21 87 58
88 58 -36 21 c-20 11 -37 21 -38 21 -1 0 -19 -11 -40 -24z m53 -16 c0 -13 -28
-25 -38 -16 -3 4 0 11 8 16 20 13 30 12 30 0z m-80 -58 c0 -4 -9 -13 -20 -19
-20 -13 -37 -2 -25 17 7 12 45 14 45 2z"/>
<path d="M2922 2146 l-33 -24 36 -21 c44 -26 39 -26 80 2 l33 23 -34 22 c-41
27 -41 27 -82 -2z m63 -15 c3 -5 1 -13 -5 -16 -15 -9 -43 3 -35 15 8 13 32 13
40 1z"/>
<path d="M3102 2148 l-34 -21 29 -23 c33 -28 16 -32 -18 -5 -25 19 -25 19 -61
-8 l-37 -28 30 -22 c35 -26 39 -25 119 29 32 22 62 40 65 40 3 0 32 -17 63
-38 79 -53 177 -108 168 -94 -8 13 -257 180 -278 186 -7 2 -28 -5 -46 -16z
m57 -17 c17 -11 5 -31 -19 -31 -24 0 -36 20 -19 31 8 5 16 9 19 9 3 0 11 -4
19 -9z m-79 -60 c0 -13 -37 -24 -51 -15 -8 4 -7 9 2 15 19 12 49 11 49 0z"/>
<path d="M1743 1973 l-203 -136 0 -50 c0 -49 0 -49 23 -34 12 9 120 80 239
159 120 79 217 145 218 148 0 4 -54 40 -70 47 -3 1 -96 -60 -207 -134z m225
87 c-7 -21 -393 -268 -396 -254 -4 15 14 37 38 46 8 4 84 54 169 112 139 95
199 126 189 96z"/>
<path d="M1838 1909 l-298 -199 0 -50 0 -50 334 222 c184 123 335 225 335 228
1 4 -52 39 -69 47 -3 1 -139 -88 -302 -198z m322 154 c-1 -5 -71 -55 -158
-113 -86 -57 -213 -143 -282 -190 -161 -111 -152 -107 -148 -81 2 15 74 68
243 180 132 88 249 167 260 176 42 34 86 48 85 28z"/>
<path d="M2788 2057 c-42 -29 -77 -54 -77 -57 0 -3 14 -14 32 -26 l33 -20 79
52 c44 29 81 56 82 61 3 8 -53 44 -65 42 -4 -1 -42 -24 -84 -52z m106 14 c6
-9 -104 -81 -123 -81 -22 0 -10 18 19 30 17 7 28 15 26 18 -5 5 52 40 66 41 4
1 9 -3 12 -8z"/>
<path d="M3140 2054 c-36 -24 -64 -47 -63 -50 1 -3 19 -17 40 -31 l38 -25 -24
26 c-27 29 -28 27 37 73 19 13 50 55 40 52 -2 0 -32 -20 -68 -45z"/>
<path d="M2271 2071 l-23 -18 36 -23 c21 -12 39 -20 42 -17 3 3 -3 21 -13 41
-18 35 -18 35 -42 17z"/>
<path d="M2895 2008 c-39 -27 -77 -54 -85 -59 -10 -7 -11 -12 -4 -15 23 -10
49 -33 43 -38 -3 -4 -18 3 -33 15 -29 22 -41 20 -88 -15 -16 -12 -16 -15 0
-47 l17 -35 142 95 c78 53 142 98 142 101 1 3 -14 14 -32 26 l-32 21 -70 -49z
m95 7 c0 -4 -92 -68 -127 -88 -6 -4 -14 -3 -18 2 -7 12 103 90 128 90 9 1 17
-1 17 -4z m-195 -135 c-18 -20 -45 -27 -45 -12 0 15 24 32 44 32 18 0 19 -1 1
-20z"/>
<path d="M2140 1983 c-52 -35 -207 -137 -343 -226 l-249 -162 7 -57 c6 -57 -1
-108 -15 -108 -4 0 -14 29 -21 65 -7 36 -15 64 -19 63 -27 -13 -129 -82 -126
-86 3 -2 29 10 60 27 51 30 55 30 60 13 4 -11 3 -27 0 -37 -5 -13 -4 -16 4
-11 8 5 12 0 12 -12 0 -11 7 -25 15 -32 19 -16 40 0 49 35 4 17 23 33 58 51
68 35 279 168 507 321 101 68 185 123 187 123 2 0 4 -6 4 -14 0 -7 -37 -38
-82 -67 -331 -217 -774 -525 -799 -556 -20 -24 -21 -25 271 172 140 94 344
231 452 304 183 124 196 134 188 156 -5 12 -6 32 -3 43 2 11 -1 23 -7 27 -9 5
-10 1 -5 -15 5 -15 4 -20 -4 -16 -6 4 -34 -10 -63 -32 -83 -60 -648 -431 -690
-452 l-23 -12 20 20 c11 11 175 124 365 251 190 128 346 235 347 239 2 4 -12
16 -30 28 l-32 21 -95 -64z m118 18 c-1 -5 -84 -63 -183 -129 -229 -153 -339
-229 -423 -292 -65 -49 -67 -50 -77 -29 -11 26 -38 6 280 214 138 90 255 168
262 174 7 6 15 11 18 11 3 0 24 14 47 30 39 28 84 41 76 21z"/>
<path d="M2646 2005 c4 -8 10 -12 15 -9 11 6 2 24 -11 24 -5 0 -7 -7 -4 -15z"/>
<path d="M2973 1940 c-45 -30 -82 -57 -83 -60 0 -3 9 -11 20 -17 15 -10 18
-10 15 0 -5 13 116 97 140 97 9 0 30 -7 46 -16 47 -24 41 -12 -10 21 l-46 30
-82 -55z"/>
<path d="M2682 1981 c-10 -6 -9 -16 3 -44 l15 -37 31 22 c28 21 29 23 12 36
-33 25 -49 31 -61 23z"/>
<path d="M2290 1840 c-84 -58 -727 -483 -809 -534 -24 -15 -40 -30 -37 -33 3
-4 57 24 118 62 158 96 542 347 546 357 2 4 8 8 13 8 5 0 61 34 124 77 63 42
118 74 121 70 10 -10 -5 -26 -64 -66 -56 -38 -162 -130 -132 -115 8 5 65 42
126 84 l111 75 -16 37 -16 36 -85 -58z"/>
<path d="M2813 1835 c-29 -19 -53 -39 -53 -44 0 -16 92 -135 134 -173 22 -20
53 -42 69 -49 34 -14 34 -20 1 -48 -31 -27 -57 -24 -174 16 -162 56 -236 111
-321 237 -44 66 -52 62 -13 -9 71 -126 180 -205 367 -264 123 -39 132 -39 146
1 9 24 14 29 23 20 9 -9 8 -21 -1 -53 l-12 -41 -45 7 c-63 9 -204 58 -273 95
-55 30 -143 111 -183 168 l-16 23 -73 -52 c-41 -28 -200 -134 -354 -235 -549
-361 -724 -478 -720 -482 9 -9 244 138 615 382 507 334 533 351 538 336 10
-32 131 -140 192 -173 91 -49 235 -97 300 -101 21 -1 29 8 48 48 21 42 22 52
11 80 -15 38 -48 76 -66 76 -7 0 -13 5 -13 10 0 6 -5 10 -10 10 -17 0 -141
146 -141 166 -1 11 82 54 103 54 17 0 18 3 8 15 -17 21 -28 19 -87 -20z"/>
<path d="M2293 1727 c-68 -44 -121 -82 -119 -84 6 -6 94 40 168 86 39 26 66
37 72 31 5 -5 8 -11 5 -13 -2 -2 -134 -91 -294 -197 -159 -107 -326 -218 -370
-248 -44 -31 -129 -89 -190 -131 -116 -79 -265 -190 -265 -198 0 -6 -1 -7 310
202 209 141 782 524 839 562 5 3 -20 62 -28 67 -3 2 -61 -33 -128 -77z"/>
<path d="M1444 1773 c-40 -26 -42 -29 -40 -75 0 -26 2 -48 4 -48 1 0 20 12 42
26 38 25 40 30 40 75 0 27 -1 49 -2 49 -2 0 -22 -12 -44 -27z m14 -45 c-4 -27
-28 -36 -28 -10 0 20 8 32 22 32 5 0 8 -10 6 -22z"/>
<path d="M1150 1575 c-124 -82 -376 -249 -560 -371 -542 -357 -559 -368 -555
-372 6 -6 76 35 243 142 78 50 164 104 190 121 59 37 805 532 846 562 39 28
44 28 38 1 -3 -16 -51 -54 -155 -123 -204 -135 -419 -288 -437 -310 -13 -17
-13 -18 0 -10 12 7 621 415 626 419 1 1 -2 21 -5 46 l-6 46 -225 -151z"/>
<path d="M1305 1555 c-104 -69 -276 -183 -382 -252 -188 -124 -242 -168 -126
-102 60 34 393 246 568 362 86 56 101 63 109 49 7 -12 1 -22 -25 -41 -81 -62
-94 -82 -24 -37 l70 44 0 51 c1 28 1 51 0 51 0 0 -85 -57 -190 -125z"/>
</g>
</svg>
