<?xml version="1.0" standalone="no"?>
<!DOCTYPE svg PUBLIC "-//W3C//DTD SVG 20010904//EN"
 "http://www.w3.org/TR/2001/REC-SVG-20010904/DTD/svg10.dtd">
<svg version="1.0" xmlns="http://www.w3.org/2000/svg"
 width="1500.000000pt" height="1500.000000pt" viewBox="0 0 1500.000000 1500.000000"
 preserveAspectRatio="xMidYMid meet">
<metadata>
Created by potrace 1.10, written by Peter Selinger 2001-2011
</metadata>
<g transform="translate(0.000000,1500.000000) scale(0.100000,-0.100000)"
fill="#000000" stroke="none">
<path d="M13356 13301 c-4 -5 -27 -19 -54 -32 -26 -12 -51 -29 -55 -36 -4 -7
-15 -13 -24 -13 -8 0 -32 -13 -52 -29 -20 -15 -41 -30 -47 -32 -6 -2 -24 -14
-40 -27 -16 -13 -85 -58 -154 -102 -129 -81 -243 -157 -263 -175 -7 -6 -30
-21 -52 -35 -22 -13 -152 -98 -290 -188 -137 -91 -335 -221 -440 -290 -660
-435 -760 -501 -845 -559 -25 -17 -187 -124 -360 -238 -173 -114 -340 -224
-370 -244 -30 -20 -57 -38 -60 -41 -3 -3 -43 -30 -90 -61 -47 -31 -240 -159
-429 -285 -189 -126 -354 -236 -367 -244 -13 -8 -117 -78 -231 -155 -114 -77
-212 -142 -217 -144 -6 -2 -13 -7 -16 -10 -3 -3 -24 -19 -47 -35 -24 -16 -54
-40 -67 -53 -29 -29 -69 -28 -75 2 -5 29 -59 143 -71 150 -5 3 -10 19 -10 34
0 22 8 31 46 49 40 20 210 127 224 142 9 9 69 50 73 50 3 0 54 33 113 73 60
41 222 150 359 242 138 93 344 232 458 309 115 78 240 161 278 186 72 47 356
239 374 253 6 4 66 44 135 89 69 45 130 87 136 93 6 5 22 17 34 25 12 8 33 23
45 33 13 9 26 17 30 17 3 0 12 6 20 13 7 6 32 24 56 39 24 15 64 43 89 62 25
19 50 35 55 35 6 1 33 20 60 44 28 24 58 46 68 50 10 4 15 11 12 17 -9 15 -45
12 -51 -5 -4 -8 -11 -15 -17 -15 -6 0 -18 -6 -26 -14 -9 -7 -43 -28 -75 -46
-33 -18 -64 -37 -70 -42 -6 -5 -47 -32 -91 -60 -44 -29 -84 -56 -90 -60 -12
-11 -225 -148 -267 -173 -10 -5 -72 -47 -138 -92 -66 -46 -122 -83 -124 -83
-4 0 -312 -202 -331 -217 -5 -4 -28 -20 -50 -34 -22 -14 -134 -88 -250 -164
-877 -576 -1051 -694 -1084 -729 -14 -14 -30 -26 -37 -26 -6 0 -30 28 -53 63
-22 35 -54 76 -71 92 -38 36 -40 72 -4 81 28 7 635 409 654 434 3 3 23 17 45
30 22 13 45 28 50 32 6 4 47 36 93 69 58 43 80 65 73 72 -8 8 -19 5 -38 -9
-16 -11 -46 -28 -68 -39 -22 -11 -49 -28 -60 -38 -11 -10 -40 -30 -65 -44 -25
-14 -47 -29 -50 -33 -3 -3 -34 -24 -70 -45 -124 -74 -556 -363 -589 -394 -18
-17 -36 -31 -40 -31 -4 0 -28 18 -52 41 -24 23 -64 57 -89 77 -48 39 -70 61
-70 73 0 5 20 17 45 28 51 22 326 205 390 259 11 9 32 25 46 34 50 32 91 75
79 83 -6 4 -19 1 -28 -7 -9 -8 -34 -23 -54 -33 -21 -11 -38 -23 -38 -27 0 -3
-8 -9 -19 -13 -10 -3 -68 -38 -129 -78 -61 -40 -136 -88 -167 -107 -32 -19
-78 -54 -103 -77 -25 -24 -52 -43 -58 -43 -7 0 -32 13 -56 29 -24 15 -76 43
-116 62 -80 36 -87 53 -37 79 17 8 89 53 160 99 131 84 159 103 273 182 35 24
74 51 87 59 35 22 271 182 336 228 30 22 118 82 194 133 136 92 185 130 185
143 0 12 -38 6 -50 -9 -7 -8 -16 -15 -21 -15 -12 0 -119 -66 -304 -188 -386
-255 -450 -297 -455 -302 -3 -4 -23 -17 -45 -30 -86 -51 -362 -236 -393 -265
-49 -44 -61 -45 -117 -17 -91 45 -106 52 -123 52 -9 0 -26 7 -36 15 -11 8 -30
15 -42 15 -13 0 -25 4 -29 9 -3 5 -20 13 -38 16 -17 4 -57 15 -88 26 -31 10
-90 24 -130 30 -41 7 -78 15 -82 19 -15 13 4 35 51 60 26 13 58 32 72 41 113
74 378 251 480 320 69 46 143 96 165 110 22 14 96 63 165 110 69 47 202 137
295 199 94 63 175 118 180 122 6 5 66 45 135 90 69 45 127 84 130 87 3 3 32
24 65 46 33 22 65 44 70 48 25 20 118 77 125 77 5 0 10 3 12 8 4 8 65 52 73
52 3 0 11 5 18 10 7 6 44 34 82 62 39 29 76 58 83 65 7 7 20 13 28 13 8 0 14
4 14 9 0 4 18 21 40 36 28 19 37 32 31 38 -7 7 -16 6 -28 -4 -10 -8 -36 -24
-58 -34 -22 -11 -44 -26 -48 -32 -4 -7 -14 -13 -22 -13 -7 0 -15 -4 -17 -8 -2
-7 -53 -40 -166 -107 -41 -25 -223 -147 -234 -158 -7 -7 -42 -30 -78 -52 -80
-48 -175 -110 -255 -165 -33 -23 -145 -97 -250 -166 -217 -142 -219 -143 -250
-166 -13 -10 -26 -18 -29 -18 -4 0 -12 -5 -19 -11 -7 -5 -62 -42 -124 -82 -61
-40 -144 -94 -185 -122 -40 -27 -78 -52 -83 -55 -11 -6 -381 -252 -435 -290
-19 -14 -46 -35 -60 -47 -14 -12 -38 -29 -54 -37 -26 -13 -34 -13 -64 0 -19 8
-46 14 -61 14 -14 1 -37 7 -51 15 -14 8 -47 15 -75 15 -27 0 -61 7 -75 15 -14
8 -45 15 -70 15 -25 0 -54 7 -64 15 -11 9 -42 15 -70 15 -28 1 -62 7 -76 15
-14 8 -42 14 -63 15 -21 0 -48 5 -59 11 -12 7 -47 15 -77 20 -112 17 -170 27
-203 37 -18 6 -64 16 -103 22 -94 15 -213 39 -251 51 -17 5 -45 9 -63 9 -17 0
-48 7 -68 15 -19 8 -54 15 -77 15 -22 1 -52 7 -66 15 -14 8 -45 15 -70 15 -25
0 -54 7 -64 15 -11 9 -42 15 -70 15 -29 0 -59 7 -70 15 -11 8 -40 15 -64 15
-24 0 -53 5 -65 12 -12 7 -47 15 -77 20 -93 12 -167 26 -202 36 -18 6 -67 16
-108 22 -80 12 -168 33 -236 55 -23 7 -46 10 -51 6 -6 -3 -13 -28 -16 -56 -13
-100 -25 -163 -37 -184 -6 -12 -10 -36 -8 -54 2 -25 8 -33 27 -35 21 -3 23 -7
18 -40 -4 -21 -8 -46 -9 -56 -2 -16 5 -22 37 -28 22 -5 56 -13 75 -18 44 -12
222 -50 370 -80 91 -18 257 -52 325 -66 39 -8 104 -22 145 -30 41 -9 93 -20
115 -26 22 -6 60 -14 85 -18 25 -4 66 -12 93 -19 26 -6 68 -16 95 -22 26 -7
67 -15 92 -19 25 -4 63 -12 85 -17 63 -17 139 -34 197 -43 29 -4 98 -18 153
-29 55 -12 136 -28 180 -37 117 -22 155 -33 155 -45 0 -6 -21 -19 -47 -30 -75
-31 -155 -79 -331 -198 -30 -20 -64 -43 -77 -51 -136 -89 -459 -310 -492 -336
-23 -19 -46 -34 -52 -34 -10 0 -41 51 -41 68 0 12 -81 151 -123 213 -64 92
-288 305 -359 340 -113 56 -151 61 -204 28 -31 -19 -34 -25 -34 -68 0 -65 36
-99 175 -166 142 -69 339 -225 321 -254 -4 -6 -31 -22 -59 -36 -29 -13 -67
-38 -85 -55 -18 -16 -37 -30 -42 -30 -5 0 -42 33 -82 73 -114 114 -229 192
-341 233 -23 8 -61 21 -83 29 -48 17 -162 34 -184 28 -90 -28 -128 -125 -80
-206 18 -30 74 -67 101 -67 6 0 27 -7 47 -16 78 -33 108 -46 122 -55 8 -4 35
-18 60 -30 76 -38 180 -119 180 -140 0 -13 -17 -27 -52 -45 -56 -28 -369 -234
-403 -265 -32 -29 -80 -35 -96 -12 -26 35 -232 173 -258 173 -5 0 -14 7 -21
15 -7 8 -20 15 -30 15 -10 0 -20 7 -24 15 -6 17 -36 21 -36 4 0 -6 9 -13 19
-16 11 -3 22 -11 25 -19 3 -8 11 -14 18 -14 7 0 23 -11 36 -25 42 -44 220
-155 248 -155 7 0 16 -10 19 -22 8 -24 -3 -35 -100 -95 -33 -20 -85 -55 -117
-77 -31 -23 -66 -48 -78 -56 -12 -8 -30 -22 -40 -30 -10 -8 -28 -22 -40 -30
-123 -83 -95 -112 32 -32 15 9 71 44 125 76 54 33 140 88 192 123 94 64 118
71 146 38 17 -20 88 -70 118 -83 42 -18 33 -43 -31 -82 -31 -19 -61 -38 -67
-42 -5 -5 -80 -55 -165 -111 -199 -132 -314 -210 -320 -217 -3 -4 -34 -24 -70
-45 -36 -21 -67 -41 -70 -44 -3 -3 -32 -24 -65 -46 -33 -22 -62 -42 -65 -45
-5 -6 -261 -179 -289 -195 -29 -17 -65 -54 -58 -61 9 -9 94 26 138 58 21 15
41 28 43 28 6 0 140 91 146 100 3 3 34 24 70 45 65 38 291 185 300 195 6 7 87
60 205 135 120 77 199 129 205 136 3 3 23 16 45 29 22 13 49 33 60 43 11 10
36 27 56 37 l35 18 50 -37 c27 -20 67 -48 89 -61 73 -43 72 -49 -12 -100 -38
-22 -106 -68 -153 -101 -116 -83 -200 -139 -207 -139 -3 0 -32 -20 -64 -45
-33 -25 -63 -45 -68 -45 -5 0 -11 -7 -15 -15 -3 -8 -10 -15 -15 -15 -11 0 -61
-44 -61 -54 0 -16 73 9 89 31 8 10 95 53 108 53 6 0 16 7 23 15 7 8 72 54 144
101 72 48 177 117 233 155 97 65 135 81 147 60 9 -13 124 -91 135 -91 12 0 41
-28 41 -39 0 -5 -48 -38 -107 -74 -60 -36 -146 -93 -193 -126 -47 -33 -93 -66
-104 -73 -10 -7 -29 -21 -41 -30 -28 -22 -64 -23 -71 -3 -4 8 -12 15 -19 15
-6 0 -24 11 -39 25 -27 25 -88 55 -110 55 -6 0 -3 -7 7 -14 9 -7 17 -18 17
-25 0 -6 5 -11 11 -11 6 0 28 -13 48 -28 20 -16 44 -32 54 -35 32 -12 17 -37
-44 -74 -33 -21 -86 -56 -117 -79 -31 -22 -81 -57 -110 -78 -30 -20 -66 -48
-81 -62 -15 -13 -36 -31 -47 -39 -17 -13 -17 -14 -2 -15 9 0 20 5 23 10 3 6
15 10 26 10 11 0 32 11 47 25 15 14 36 28 46 31 11 4 24 11 30 16 6 5 59 40
118 77 59 38 123 80 142 95 41 31 56 32 77 8 9 -10 70 -54 135 -98 65 -43 121
-81 124 -84 11 -14 158 -100 168 -100 18 0 19 -83 2 -105 -4 -5 -11 -26 -15
-45 -8 -45 -35 -121 -48 -138 -6 -7 -14 -32 -18 -55 -16 -88 -65 -232 -80
-235 -8 -1 -27 8 -42 22 -14 13 -99 73 -189 132 -90 59 -165 111 -168 114 -3
4 -57 37 -120 75 -63 38 -117 72 -120 75 -3 4 -14 10 -25 14 -11 3 -32 17 -47
31 -15 14 -34 25 -42 25 -23 0 -30 -19 -9 -27 9 -4 30 -19 45 -35 15 -15 31
-28 36 -28 5 0 22 -11 38 -25 26 -23 89 -66 244 -168 30 -20 93 -63 140 -96
106 -75 198 -131 214 -131 35 0 46 -47 22 -102 -8 -18 -22 -62 -31 -98 -10
-36 -19 -71 -21 -77 -5 -20 -18 -16 -60 18 -37 30 -170 122 -206 144 -9 5 -61
40 -115 76 -95 64 -397 263 -853 564 -124 81 -322 212 -440 290 -118 78 -233
152 -255 165 -22 13 -42 27 -45 30 -7 7 -225 151 -275 181 -22 13 -44 27 -50
31 -46 38 -242 158 -257 158 -25 0 -23 -17 5 -31 12 -7 24 -15 27 -19 5 -7 83
-66 120 -90 12 -8 28 -20 34 -25 12 -11 534 -362 662 -446 21 -14 71 -47 109
-74 39 -27 144 -98 235 -158 91 -60 176 -117 190 -128 25 -18 207 -140 310
-208 30 -20 57 -38 60 -41 21 -23 691 -464 738 -486 41 -19 48 -37 28 -66 -9
-12 -16 -32 -16 -44 0 -12 -7 -38 -15 -57 -8 -20 -15 -52 -15 -72 0 -29 -3
-35 -22 -35 -12 0 -33 11 -47 24 -15 13 -70 54 -124 90 -82 57 -551 370 -600
401 -8 6 -174 116 -369 246 -405 270 -1465 973 -1643 1090 -66 43 -125 82
-130 86 -15 11 -105 71 -210 138 -49 31 -112 73 -140 92 -68 47 -513 340 -700
461 -107 69 -109 71 -176 120 -33 23 -62 42 -65 42 -3 0 -23 14 -44 30 -21 17
-42 30 -47 30 -5 0 -40 20 -77 45 -38 25 -71 45 -74 45 -2 0 -21 14 -42 30
-21 17 -44 30 -51 30 -7 0 -21 7 -31 17 -10 9 -21 13 -25 9 -7 -7 35 -48 77
-76 12 -8 28 -20 34 -25 29 -26 95 -75 101 -75 4 0 24 -12 44 -27 20 -16 44
-32 53 -38 13 -8 135 -89 252 -167 10 -7 24 -18 30 -23 6 -6 67 -47 136 -93
69 -45 130 -85 135 -90 6 -4 84 -57 175 -118 91 -61 305 -204 475 -319 171
-115 371 -249 445 -298 74 -49 149 -99 165 -111 38 -26 561 -377 880 -589 132
-87 267 -177 300 -200 248 -167 393 -263 407 -272 9 -5 54 -35 100 -66 190
-129 706 -465 741 -483 36 -18 49 -50 30 -70 -5 -4 -19 -53 -33 -109 -30 -118
-44 -129 -101 -78 -31 29 -69 41 -69 23 0 -9 55 -52 67 -52 5 0 21 -11 36 -25
21 -20 26 -32 21 -53 -12 -52 -35 -148 -48 -197 -25 -90 -39 -149 -46 -195 -4
-25 -12 -65 -18 -90 -18 -75 -34 -161 -42 -232 -5 -38 -12 -73 -16 -80 -4 -6
-11 -44 -15 -82 -20 -191 -31 -285 -39 -326 -5 -25 -12 -119 -16 -210 -3 -91
-11 -171 -17 -178 -6 -7 -29 -22 -51 -33 -38 -18 -101 -60 -162 -108 -14 -11
-31 -18 -36 -15 -14 9 9 428 33 619 6 44 15 114 19 155 5 41 13 100 19 130 27
143 35 189 41 235 4 28 13 73 19 100 27 112 34 142 42 185 4 25 15 72 23 105
8 33 22 93 30 133 19 84 35 147 66 252 12 41 27 92 33 113 14 46 2 71 -35 75
-33 4 -40 -7 -82 -123 -20 -55 -43 -113 -51 -128 -8 -16 -15 -35 -15 -42 0 -8
-6 -29 -14 -47 -51 -122 -97 -303 -140 -548 -59 -333 -82 -635 -72 -980 3
-129 7 -248 8 -263 3 -24 -3 -32 -36 -50 -22 -12 -44 -26 -50 -30 -6 -5 -58
-38 -116 -75 -58 -37 -123 -80 -145 -95 -22 -16 -69 -47 -105 -71 -36 -23
-168 -111 -295 -197 -194 -130 -316 -211 -450 -299 -13 -8 -177 -118 -365
-245 -188 -126 -395 -265 -459 -307 -120 -80 -285 -191 -394 -266 -34 -24
-105 -71 -157 -106 -52 -34 -214 -143 -360 -241 -146 -98 -305 -205 -355 -238
-200 -133 -256 -172 -273 -187 -9 -8 -35 -27 -57 -40 -22 -13 -44 -28 -50 -33
-16 -13 -116 -77 -121 -77 -3 0 -10 -5 -17 -10 -39 -33 -188 -140 -194 -140
-5 0 -17 -9 -26 -21 -22 -25 -18 -49 3 -27 8 8 22 17 30 21 8 4 31 17 50 28
214 129 257 155 267 164 36 30 43 35 49 35 3 0 23 13 43 28 20 16 74 52 121
81 102 62 150 93 359 234 163 108 233 154 781 515 168 111 332 220 365 242 33
23 170 114 305 202 222 147 402 266 610 405 41 27 203 134 360 238 157 103
299 197 315 209 17 11 79 53 138 93 59 40 132 92 162 114 30 22 58 38 63 35 5
-3 12 -38 16 -78 4 -40 10 -100 13 -134 l5 -61 -70 -44 c-79 -49 -544 -360
-552 -369 -3 -3 -39 -28 -80 -55 -94 -60 -218 -144 -290 -194 -30 -21 -109
-74 -175 -117 -66 -44 -124 -82 -130 -87 -39 -29 -142 -100 -205 -141 -166
-108 -187 -122 -242 -163 -31 -24 -61 -43 -66 -43 -5 0 -12 -7 -16 -15 -3 -8
-10 -15 -16 -15 -6 0 -25 -13 -43 -30 -18 -16 -36 -30 -42 -30 -14 0 -60 -50
-46 -50 10 0 33 10 71 32 8 4 22 11 30 15 8 4 17 9 20 13 3 3 23 17 45 30 22
13 42 26 45 29 5 6 11 10 90 57 55 33 273 176 280 184 3 4 23 17 45 30 44 26
354 229 370 243 6 4 46 31 90 59 124 80 537 352 663 437 63 42 124 83 136 91
12 8 47 29 76 45 29 17 64 40 77 52 13 12 44 35 71 50 26 15 71 47 99 70 29
24 62 43 73 43 18 0 20 -7 20 -58 0 -32 5 -95 10 -140 11 -87 4 -122 -27 -122
-18 0 -150 -78 -204 -121 -20 -16 -42 -29 -47 -29 -6 0 -15 -6 -19 -13 -4 -8
-21 -22 -38 -33 -37 -23 -65 -56 -58 -67 3 -5 13 -1 22 7 10 9 25 16 33 16 9
0 18 4 20 8 2 5 44 32 93 62 89 53 161 103 180 125 16 19 55 36 65 30 6 -3 10
-29 10 -57 0 -28 7 -71 15 -97 18 -58 45 -183 45 -208 0 -23 18 -43 40 -43 13
0 21 20 35 87 16 76 17 96 6 157 -7 39 -17 111 -22 160 -7 77 -6 92 8 108 9
10 21 18 27 18 26 0 155 82 694 441 90 60 165 109 166 109 2 0 155 101 341
225 186 124 339 225 340 225 4 0 328 217 407 273 37 26 72 47 79 47 6 0 28
-14 48 -30 53 -45 55 -46 89 -64 32 -16 62 -21 62 -10 0 12 -49 53 -105 86
-30 18 -55 38 -55 45 0 6 17 22 37 34 20 13 52 37 71 53 l34 30 18 -22 c10
-12 21 -40 25 -62 4 -22 11 -42 16 -46 5 -3 9 -14 9 -24 0 -10 7 -26 16 -34 9
-10 14 -29 12 -48 -3 -31 -5 -33 -41 -32 -31 1 -37 -2 -32 -16 4 -11 -3 -21
-22 -29 -26 -12 -159 -98 -468 -305 -66 -44 -214 -143 -330 -220 -115 -77
-212 -142 -215 -145 -3 -4 -66 -47 -140 -97 -354 -236 -605 -407 -610 -413 -3
-4 -23 -18 -45 -31 -22 -13 -42 -27 -45 -30 -3 -3 -36 -27 -75 -52 -38 -26
-86 -58 -105 -72 -19 -14 -45 -33 -57 -42 -13 -9 -23 -21 -23 -25 0 -32 105
23 313 164 54 37 100 67 102 67 3 0 24 13 47 29 24 16 126 84 228 150 102 67
192 126 200 131 8 6 65 43 127 83 61 39 129 84 150 98 21 15 187 124 368 244
182 119 344 227 360 238 17 12 80 55 140 96 61 41 127 90 149 109 l38 34 24
-28 c13 -16 24 -36 24 -44 0 -8 7 -24 15 -34 8 -11 15 -27 15 -37 0 -9 7 -22
16 -29 30 -26 13 -61 -46 -93 -46 -24 -518 -335 -640 -421 -19 -13 -123 -82
-230 -153 -276 -184 -564 -377 -570 -383 -3 -3 -39 -27 -80 -54 -41 -26 -88
-58 -105 -69 -75 -52 -168 -116 -265 -180 -129 -85 -134 -89 -240 -162 -47
-33 -128 -87 -180 -122 -193 -127 -422 -291 -435 -313 -11 -18 4 -26 23 -12 9
7 24 15 32 19 8 3 19 12 23 20 4 7 15 13 23 13 8 0 39 18 69 40 30 23 63 44
73 48 22 9 240 149 252 162 3 3 40 28 83 55 84 54 418 274 646 425 79 52 151
100 160 105 29 18 72 46 371 244 647 426 947 628 1005 674 l60 48 22 -26 c13
-14 23 -35 23 -45 0 -11 14 -47 31 -79 17 -33 29 -67 26 -75 -3 -8 -23 -22
-44 -32 -21 -10 -80 -47 -132 -82 -52 -36 -149 -102 -215 -147 -286 -193 -339
-236 -318 -257 8 -8 13 -7 18 5 3 9 10 17 14 17 9 0 311 179 320 189 12 14
162 111 170 111 6 0 10 3 10 8 0 4 22 19 48 34 26 15 69 45 94 67 25 23 51 41
56 41 6 0 27 -33 47 -72 21 -40 43 -84 51 -98 23 -43 17 -58 -33 -80 -37 -16
-389 -243 -518 -333 -16 -12 -221 -150 -455 -306 -234 -157 -522 -350 -640
-429 -118 -80 -237 -160 -265 -178 -27 -19 -57 -38 -65 -44 -8 -5 -58 -38
-110 -73 -52 -35 -114 -76 -136 -92 -23 -17 -50 -36 -60 -42 -11 -7 -82 -55
-159 -107 -301 -201 -542 -363 -581 -391 -23 -17 -52 -37 -64 -45 -12 -8 -33
-23 -45 -33 -13 -9 -26 -17 -29 -17 -4 0 -12 -5 -19 -10 -36 -30 -107 -80
-114 -80 -5 0 -23 -13 -41 -30 -18 -16 -36 -30 -40 -30 -4 0 -15 -8 -24 -19
-8 -10 -22 -21 -29 -23 -8 -3 -11 -9 -7 -13 5 -5 16 -1 26 8 10 10 24 17 32
17 7 0 34 13 59 28 25 16 53 31 61 35 33 16 184 119 188 130 2 4 8 7 12 7 5 0
28 13 52 28 24 16 79 52 123 80 44 28 85 55 90 59 6 5 39 27 75 51 262 171
424 277 475 312 33 23 184 122 335 222 151 99 328 216 393 259 65 43 122 79
126 79 5 0 11 4 13 8 3 7 64 49 189 127 41 26 186 122 547 364 46 31 135 90
197 131 244 160 402 271 430 300 42 44 60 39 102 -27 86 -136 163 -225 293
-337 107 -93 199 -151 345 -220 55 -26 112 -54 127 -62 14 -8 35 -14 45 -14
10 0 24 -5 30 -11 6 -6 26 -14 44 -19 19 -5 59 -17 89 -28 83 -30 143 -48 296
-88 164 -44 222 -52 227 -33 2 8 10 30 16 49 7 19 15 46 18 60 3 14 12 32 19
40 7 9 14 36 16 60 3 42 1 46 -29 59 -36 16 -44 46 -17 65 19 15 9 43 -19 52
-33 10 -165 92 -227 140 -76 59 -181 177 -267 298 -40 55 -85 119 -101 141
-50 70 -84 134 -77 146 4 6 27 19 50 29 24 10 102 57 173 104 72 47 137 86
146 86 8 0 19 7 23 14 5 8 106 80 226 160 119 80 232 157 250 171 19 14 44 25
55 25 12 0 22 6 22 13 0 12 61 62 112 92 38 23 163 110 208 146 94 74 47 82
-68 12 -94 -57 -193 -121 -248 -162 -64 -46 -83 -47 -124 -8 -19 18 -56 46
-82 61 -79 46 -79 44 45 127 96 63 115 73 135 64 12 -5 22 -13 22 -17 0 -7
102 -68 114 -68 27 0 -40 72 -76 80 -11 3 -26 13 -32 23 -9 14 -6 22 19 42 17
13 34 24 38 25 5 0 38 23 75 50 67 51 86 58 97 40 4 -6 48 -37 98 -70 51 -32
97 -63 102 -68 6 -5 31 -20 55 -35 25 -14 54 -34 65 -44 11 -10 56 -41 100
-68 44 -27 124 -78 178 -114 55 -37 118 -76 140 -89 23 -12 45 -29 50 -37 9
-16 57 -21 57 -5 0 5 -10 16 -22 25 -31 22 -211 153 -223 162 -17 13 -237 157
-280 183 -22 13 -46 30 -54 37 -11 12 -119 84 -203 136 -38 23 -35 39 10 65
61 35 290 186 392 259 52 37 133 94 180 125 127 86 138 96 119 103 -9 3 -40
-9 -75 -30 -32 -20 -68 -41 -79 -48 -11 -7 -53 -35 -95 -63 -41 -28 -104 -68
-140 -89 -36 -21 -67 -42 -70 -45 -3 -3 -22 -17 -44 -30 l-38 -23 -33 34 c-38
39 -40 41 -120 94 -33 22 -62 43 -65 46 -3 3 -55 40 -116 82 -61 42 -117 83
-124 92 -7 8 -18 15 -25 15 -7 0 -39 19 -71 43 -54 39 -153 104 -464 309 -63
42 -180 117 -260 166 -80 50 -150 95 -155 100 -16 14 -151 92 -158 92 -15 0
23 -56 54 -80 38 -30 152 -111 304 -216 61 -41 126 -86 145 -100 67 -46 246
-165 381 -254 75 -49 139 -96 142 -104 4 -9 14 -16 23 -16 16 0 113 -58 325
-197 61 -40 131 -80 155 -89 50 -19 48 -29 -17 -69 -20 -13 -42 -29 -50 -37
-22 -20 -106 -78 -115 -78 -4 0 -39 24 -78 53 -39 29 -84 61 -101 71 -16 11
-36 28 -43 38 -7 10 -19 18 -27 18 -19 0 -234 142 -234 155 -1 6 16 18 37 28
48 23 119 83 110 92 -11 11 -67 -15 -124 -57 -28 -21 -57 -38 -64 -38 -7 0
-36 17 -64 39 -28 21 -138 96 -244 166 -160 105 -193 130 -190 148 2 14 13 24
34 29 37 9 117 77 92 78 -22 0 -85 -34 -118 -65 -14 -12 -32 -25 -40 -27 -8
-2 -186 110 -395 250 -406 271 -431 286 -494 301 -73 16 -55 -10 74 -107 56
-42 425 -282 433 -282 6 0 15 -6 19 -13 4 -7 26 -24 48 -37 22 -13 42 -27 45
-30 3 -4 44 -31 93 -60 48 -29 87 -58 87 -65 0 -15 -21 -35 -37 -35 -8 0 -19
-5 -26 -10 -33 -28 -104 -77 -119 -83 -10 -3 -32 5 -55 20 -21 14 -71 49 -112
76 -40 27 -76 58 -78 68 -4 13 -14 19 -33 19 -17 0 -53 18 -94 48 -89 64 -255
169 -335 213 -45 24 -67 42 -69 56 -2 12 -10 27 -18 33 -8 7 -14 24 -14 38 0
14 -6 33 -14 41 -24 29 -38 83 -24 97 18 16 116 33 155 27 25 -4 37 0 55 20
14 15 40 27 65 32 24 4 45 11 49 16 3 5 14 9 24 9 11 0 36 7 57 16 21 9 52 22
68 29 17 7 87 40 158 74 70 33 130 61 133 61 20 0 220 146 307 224 110 100
186 188 263 306 66 102 73 112 83 137 6 11 15 24 20 28 6 3 11 13 11 20 0 8
11 38 24 67 65 140 115 333 142 551 17 140 16 196 -8 345 -10 70 -10 74 12 97
13 13 39 32 59 42 59 30 91 54 91 69 0 29 -58 4 -119 -51 -24 -22 -41 -31 -50
-25 -8 4 -24 47 -36 95 -13 48 -28 92 -34 98 -17 17 -13 62 7 78 9 8 33 23 52
33 34 19 387 249 558 365 46 31 91 61 100 66 9 6 186 123 392 261 206 138 512
342 680 455 168 112 330 220 360 240 30 19 195 129 365 244 171 114 353 236
405 271 52 35 119 80 149 101 29 21 60 43 69 48 8 6 92 61 186 124 94 63 232
155 306 204 74 49 160 107 190 128 55 39 205 140 310 208 30 20 57 38 60 41 3
3 32 23 65 45 33 22 62 42 65 45 3 3 43 32 90 64 47 32 105 73 130 92 25 19
55 38 68 44 13 5 20 14 17 20 -8 13 -32 13 -39 1z m-8628 -1531 c92 -17 196
-37 232 -45 36 -8 115 -24 175 -36 61 -11 124 -27 142 -35 17 -8 54 -14 82
-14 28 0 70 -6 93 -14 24 -8 63 -17 88 -21 25 -3 83 -16 130 -27 47 -11 103
-24 125 -29 22 -4 83 -18 135 -29 52 -12 124 -25 160 -30 64 -10 88 -14 245
-51 44 -10 114 -23 155 -30 41 -6 104 -18 140 -26 36 -8 103 -21 150 -29 47
-7 126 -24 175 -38 50 -14 125 -28 169 -31 58 -5 93 -14 135 -36 30 -16 65
-29 76 -29 22 0 104 -27 120 -40 5 -4 48 -18 95 -29 47 -12 99 -29 115 -37 17
-9 71 -32 120 -51 50 -20 109 -49 131 -64 23 -16 63 -40 89 -54 190 -101 484
-396 558 -560 18 -39 46 -93 63 -120 16 -28 47 -103 68 -167 21 -64 44 -119
51 -122 8 -3 17 -26 20 -53 4 -26 13 -84 20 -129 25 -148 -11 -441 -79 -655
-107 -332 -326 -620 -631 -830 -143 -98 -458 -237 -675 -298 -41 -12 -89 -26
-106 -31 -17 -6 -47 -10 -67 -10 -35 0 -37 -2 -37 -34 0 -18 5 -48 11 -65 8
-23 8 -39 1 -54 -29 -61 -21 -113 33 -223 20 -39 40 -95 44 -126 17 -102 82
-274 126 -333 35 -48 52 -87 59 -140 8 -54 32 -133 46 -150 4 -5 18 -41 31
-80 12 -38 46 -117 75 -175 30 -61 55 -126 59 -155 5 -34 43 -122 118 -275 61
-124 112 -227 112 -230 1 -3 5 -25 9 -50 8 -43 42 -116 87 -187 11 -17 29 -57
40 -89 11 -31 39 -91 61 -133 23 -42 46 -85 51 -96 6 -11 14 -27 19 -35 5 -8
20 -39 33 -67 14 -29 28 -53 33 -53 4 0 18 -19 30 -42 38 -72 47 -85 210 -287
15 -18 42 -48 61 -65 19 -17 46 -43 60 -57 15 -15 56 -46 91 -70 144 -98 201
-145 207 -169 4 -14 -2 -47 -14 -80 l-20 -55 -48 3 c-27 2 -64 10 -83 18 -19
8 -45 14 -58 14 -13 0 -41 6 -61 14 -21 7 -65 21 -98 31 -59 17 -164 53 -300
103 -71 25 -255 112 -332 156 -140 80 -328 272 -445 455 -25 39 -78 146 -78
158 0 16 -29 70 -45 83 -8 7 -15 24 -15 37 0 46 -61 191 -97 229 -13 14 -23
36 -23 50 0 36 -47 150 -87 209 -19 29 -33 62 -33 80 0 43 -31 138 -73 225
-21 41 -37 83 -37 93 0 16 -17 53 -57 121 -7 11 -13 30 -13 41 0 11 -7 29 -15
39 -8 11 -15 34 -15 52 0 57 -67 244 -111 308 -36 52 -42 69 -49 140 -5 46
-20 108 -34 143 -14 35 -26 68 -26 74 0 30 -57 128 -95 165 -23 22 -54 65 -68
95 -14 30 -38 72 -53 94 -89 129 -83 114 -75 189 8 75 5 71 118 157 62 46 181
111 238 128 22 7 57 21 78 32 21 12 75 29 120 40 78 19 179 54 203 71 6 4 28
14 50 22 115 41 388 262 457 371 17 27 45 67 63 88 34 41 89 138 115 202 8 22
23 56 31 75 9 19 21 63 26 96 6 34 22 84 36 111 13 27 31 81 39 120 8 39 18
76 21 82 8 12 25 213 33 374 4 82 1 118 -11 154 -9 26 -16 75 -16 109 0 79
-31 180 -71 230 -17 21 -42 59 -55 84 -82 152 -288 372 -449 479 -105 69 -302
174 -370 196 -74 25 -180 53 -260 70 -44 9 -106 23 -137 31 -32 8 -69 14 -84
14 -14 0 -69 12 -122 26 -54 15 -119 30 -147 35 -27 4 -68 12 -90 18 -22 5
-67 15 -100 21 -109 21 -138 27 -385 79 -135 29 -267 56 -295 61 -27 5 -68 14
-90 19 -22 5 -76 17 -120 26 -44 9 -105 23 -135 30 -30 8 -93 21 -140 31 -47
9 -110 23 -140 30 -30 8 -65 14 -78 14 -31 0 -115 26 -179 55 l-52 24 30 73
c27 67 58 108 80 108 5 0 85 -14 177 -30z m2042 -785 c7 -9 29 -15 52 -15 21
0 55 -7 75 -15 19 -8 45 -15 57 -15 12 0 31 -7 42 -15 10 -8 26 -15 34 -15 8
0 56 -20 105 -44 50 -24 100 -46 111 -50 48 -15 71 -76 29 -76 -29 0 -108 -47
-328 -194 -121 -80 -220 -146 -222 -146 -2 0 -54 -35 -116 -77 -63 -42 -242
-163 -399 -268 -446 -298 -631 -425 -678 -463 -25 -21 -46 -31 -52 -26 -4 5
-10 36 -13 69 -2 33 -9 87 -16 120 l-13 59 29 23 c15 13 32 23 36 23 4 0 33
18 63 41 31 22 58 38 62 34 4 -3 8 -38 10 -78 4 -100 9 -117 32 -117 18 0 20
9 22 127 l3 126 50 27 c44 24 355 230 545 361 36 25 124 85 195 134 72 48 140
95 151 104 12 9 30 22 40 29 157 105 220 152 222 167 3 15 -1 16 -22 11 -23
-6 -114 -56 -141 -79 -5 -4 -46 -31 -90 -59 -138 -88 -206 -132 -345 -224 -74
-49 -139 -91 -145 -94 -39 -19 -364 -238 -413 -277 -23 -19 -49 -33 -56 -30
-14 6 -26 50 -26 101 -1 17 -7 42 -15 56 -8 14 -14 39 -15 56 0 26 6 34 31 44
32 14 709 460 838 552 40 29 92 70 115 91 36 33 47 37 92 37 34 0 56 -5 64
-15z m655 -282 c124 -99 150 -136 108 -149 -54 -17 -81 -32 -169 -90 -54 -35
-98 -64 -99 -64 -2 0 -507 -337 -835 -557 -41 -28 -102 -68 -135 -90 -33 -22
-91 -61 -130 -88 -38 -27 -160 -109 -269 -183 -109 -74 -204 -138 -210 -143
-6 -5 -42 -33 -80 -61 -38 -29 -71 -59 -74 -65 -8 -25 43 -11 103 27 57 37
176 113 213 135 9 6 85 56 167 110 83 55 155 102 160 105 11 6 548 361 723
479 62 42 121 81 130 86 17 10 98 64 350 234 67 46 137 98 154 117 51 53 68
47 143 -53 36 -48 65 -97 65 -109 0 -16 -15 -29 -63 -52 -35 -18 -84 -47 -110
-67 -25 -19 -48 -35 -50 -35 -3 0 -285 -188 -628 -417 -343 -229 -698 -466
-789 -527 -91 -60 -169 -113 -175 -118 -63 -52 -148 -108 -164 -108 -12 0 -56
25 -100 55 -44 30 -91 59 -105 65 -16 6 -26 17 -26 30 0 15 -7 20 -24 20 -14
0 -27 3 -29 8 -2 4 -2 75 2 157 l6 150 30 15 c17 8 48 26 70 40 22 13 45 27
50 30 12 6 427 281 663 439 96 64 181 121 190 126 66 39 768 512 792 533 16
14 30 33 30 41 0 23 75 7 115 -26z m-2803 -67 c129 -35 174 -58 288 -149 100
-81 176 -154 203 -197 25 -42 28 -45 66 -90 39 -47 87 -137 95 -178 3 -18 22
-65 41 -103 29 -58 35 -81 35 -134 0 -35 9 -102 21 -150 16 -67 18 -98 11
-134 -9 -49 -8 -251 2 -315 7 -42 0 -76 -15 -76 -5 0 -9 25 -9 55 0 31 -10 85
-21 121 -20 61 -20 68 -6 102 23 54 30 101 19 126 -16 36 -32 91 -32 112 0 11
-5 25 -10 30 -6 6 -19 55 -29 110 -23 118 -27 130 -58 167 -13 16 -23 34 -23
41 0 7 -11 36 -25 64 -14 29 -25 56 -25 60 0 5 -14 24 -31 43 -17 19 -45 51
-62 72 -58 68 -96 112 -124 140 -35 35 -155 116 -208 140 -22 10 -46 24 -55
31 -8 7 -33 18 -55 24 -23 6 -54 25 -70 43 -29 30 -29 31 -11 45 24 17 23 17
88 0z m811 -201 c26 -35 47 -68 47 -73 0 -5 7 -15 15 -22 26 -22 18 -55 -17
-72 -18 -8 -61 -36 -94 -62 -34 -25 -66 -46 -71 -46 -4 0 -17 17 -28 38 -10
20 -38 65 -62 98 -48 70 -52 60 50 128 32 22 62 47 68 58 17 32 43 19 92 -47z
m2366 -181 c12 -19 21 -45 21 -57 0 -13 6 -31 14 -42 15 -23 27 -100 19 -122
-3 -8 -29 -26 -57 -40 -28 -14 -82 -47 -119 -72 -38 -25 -79 -53 -92 -61 -13
-8 -47 -31 -77 -51 -29 -20 -93 -63 -143 -96 -49 -33 -173 -116 -275 -185
-102 -68 -295 -198 -430 -288 -135 -91 -249 -168 -255 -173 -5 -4 -62 -42
-125 -84 -63 -42 -137 -93 -164 -115 -27 -21 -56 -38 -65 -38 -9 0 -43 18 -76
41 -33 22 -81 53 -108 67 -26 15 -46 33 -45 41 2 8 53 44 113 82 188 117 238
149 295 188 30 21 197 132 370 247 718 473 1076 715 1128 760 20 18 40 33 44
34 3 0 15 -16 27 -36z m-2251 -27 c19 -22 72 -199 64 -212 -4 -7 -38 -34 -77
-60 -38 -25 -74 -53 -78 -61 -16 -29 -35 -13 -52 44 -9 31 -28 80 -41 109 -13
28 -21 58 -18 65 3 7 28 24 55 37 28 14 67 40 87 58 42 37 46 38 60 20z m-582
-35 c19 -13 124 -171 124 -186 0 -9 -12 -19 -26 -22 -23 -6 -314 -193 -354
-228 -33 -30 -54 -27 -108 13 -29 22 -70 47 -92 57 -32 14 -59 41 -48 49 2 1
21 12 43 25 129 76 368 242 408 282 19 19 35 22 53 10z m2912 -382 l-3 -154
-50 -28 c-27 -15 -56 -31 -64 -34 -8 -4 -98 -64 -200 -133 -102 -68 -274 -183
-381 -255 -107 -71 -199 -134 -205 -138 -5 -5 -66 -45 -135 -90 -69 -45 -127
-85 -130 -88 -3 -3 -23 -17 -45 -30 -22 -13 -46 -30 -54 -38 -8 -8 -33 -25
-55 -40 -65 -40 -146 -104 -146 -113 0 -5 14 -9 30 -9 17 0 30 5 30 10 0 6 10
15 23 20 24 11 59 32 67 40 3 4 39 28 80 54 41 27 87 57 102 67 15 11 29 19
32 19 2 0 60 38 128 85 67 46 161 108 207 136 47 29 123 79 170 112 48 32 145
97 216 144 213 139 278 185 310 213 62 56 90 42 61 -30 -9 -22 -16 -57 -16
-78 -1 -20 -7 -48 -15 -62 -8 -14 -14 -38 -15 -55 0 -16 -7 -49 -17 -73 -13
-36 -25 -48 -67 -69 -45 -23 -154 -94 -193 -127 -8 -6 -19 -16 -26 -21 -7 -6
-31 -22 -54 -37 -41 -27 -74 -68 -54 -68 19 0 66 25 126 65 33 23 67 44 75 47
8 3 43 29 76 56 45 37 65 47 73 39 16 -16 16 -17 -39 -132 -27 -58 -50 -107
-50 -110 0 -12 -69 -118 -131 -200 -112 -149 -275 -278 -480 -378 -75 -37
-147 -67 -161 -67 -13 0 -40 14 -59 31 -26 23 -359 252 -488 334 -8 6 -55 36
-104 68 -49 31 -91 57 -94 57 -12 0 -63 42 -58 49 2 4 42 29 87 56 76 44 216
133 228 145 14 14 70 50 79 50 5 0 11 4 13 8 2 4 21 19 43 32 22 13 180 116
350 229 171 113 318 210 327 216 9 5 54 35 100 66 46 31 148 99 228 152 196
131 221 148 271 190 24 20 47 32 52 28 4 -4 6 -77 5 -161z m-2745 119 c9 -17
17 -39 17 -49 0 -10 4 -21 9 -24 10 -6 41 -97 41 -120 0 -9 -21 -27 -47 -40
-27 -13 -83 -49 -126 -80 -43 -31 -85 -56 -94 -56 -18 0 -83 38 -83 48 0 4
-27 23 -60 41 -33 19 -60 40 -60 46 0 6 19 22 43 35 73 41 271 177 296 204 31
34 42 33 64 -5z m93 -280 c3 -6 11 -65 16 -131 12 -159 -3 -180 -85 -115 -23
19 -68 49 -99 68 -32 18 -58 39 -58 45 0 6 35 34 78 62 43 28 84 58 91 66 15
18 47 21 57 5z m15 -352 c8 -17 8 -60 0 -148 -25 -289 -54 -464 -78 -464 -6 0
-26 14 -45 30 -40 35 -60 50 -200 144 -59 39 -127 81 -152 92 -39 17 -45 23
-36 38 5 10 44 40 87 66 144 89 328 214 352 239 30 32 58 33 72 3z m384 -268
c39 -26 64 -50 63 -58 -2 -8 -27 -29 -56 -46 -28 -18 -80 -54 -114 -81 -89
-71 -86 -70 -97 -59 -6 6 -7 23 -1 45 22 84 30 130 36 203 4 49 11 83 21 93
14 13 19 11 49 -20 18 -19 63 -54 99 -77z m200 -134 c32 -25 80 -58 107 -73
52 -29 62 -56 26 -68 -50 -15 -388 -248 -388 -266 0 -21 72 3 100 32 3 3 17
12 32 20 39 21 202 123 208 129 3 3 21 17 40 30 19 14 39 30 43 38 9 15 53 18
62 3 3 -5 50 -38 104 -74 54 -36 104 -72 111 -81 7 -8 17 -15 23 -15 6 0 56
-30 110 -67 136 -94 310 -206 344 -223 71 -36 84 -70 28 -70 -20 0 -52 -7 -72
-15 -19 -8 -46 -15 -59 -15 -12 0 -25 -4 -29 -9 -3 -5 -19 -13 -37 -16 -54
-12 -176 -93 -251 -167 -35 -35 -58 -35 -94 -2 -15 14 -57 45 -93 68 -36 24
-172 113 -302 199 -130 85 -246 161 -258 167 -15 8 -20 18 -17 32 5 17 2 19
-19 14 -16 -4 -36 1 -61 17 -21 12 -55 31 -76 42 -30 16 -37 24 -32 40 3 11 9
36 12 55 3 19 12 44 19 55 8 11 14 32 14 47 0 19 5 28 16 28 21 0 91 40 192
108 85 59 123 82 133 82 3 0 32 -20 64 -45z m-321 -499 c20 -12 191 -124 380
-251 l344 -230 1 -43 c1 -28 8 -53 21 -69 11 -14 20 -41 20 -60 0 -46 13 -68
82 -135 40 -40 58 -66 58 -83 0 -14 -3 -25 -7 -25 -5 0 -51 34 -103 74 -82 64
-547 384 -574 395 -6 2 -53 33 -105 69 -139 94 -271 172 -292 172 -36 0 -42
36 -20 110 12 37 21 81 21 97 0 15 9 43 20 61 l21 33 49 -47 c27 -26 65 -57
84 -68z m-270 39 c-4 -8 -10 -15 -15 -15 -5 0 -9 7 -9 15 0 8 7 15 15 15 9 0
12 -6 9 -15z m-44 -150 c0 -35 -4 -45 -16 -45 -12 0 -15 6 -10 23 3 12 6 32 6
45 0 12 5 22 10 22 6 0 10 -20 10 -45z m-10 -81 c0 -15 -22 -44 -31 -39 -18
12 -10 45 11 45 11 0 20 -3 20 -6z m164 -48 c32 -28 468 -329 523 -361 27 -16
77 -49 83 -55 9 -10 325 -217 405 -265 92 -56 145 -102 145 -126 0 -9 7 -22
15 -29 8 -7 15 -25 15 -40 0 -15 7 -33 15 -40 8 -7 15 -21 15 -32 0 -11 6 -32
13 -46 8 -15 21 -43 29 -62 36 -84 37 -88 23 -100 -11 -9 -30 2 -91 50 -61 49
-477 332 -566 385 -9 5 -67 44 -129 85 -62 41 -203 135 -314 208 -110 73 -226
145 -258 160 -56 26 -57 28 -53 62 2 19 14 71 25 115 12 44 24 90 26 103 8 32
35 28 79 -12z m-210 -88 c5 -24 1 -37 -13 -52 -16 -17 -19 -30 -14 -64 5 -40
-7 -85 -40 -147 -14 -26 -36 -131 -37 -173 0 -33 -40 -134 -65 -162 -7 -8 -15
-28 -18 -45 -3 -16 -11 -57 -17 -90 -9 -51 -54 -134 -66 -123 -6 7 24 239 34
251 21 26 62 163 62 205 0 40 27 120 66 194 8 14 14 36 14 47 0 12 5 30 10 41
6 11 15 29 20 40 6 11 10 31 10 46 0 61 43 87 54 32z m98 -217 c44 -38 89 -68
718 -489 300 -200 578 -382 618 -404 50 -28 72 -46 72 -59 0 -12 7 -19 20 -19
13 0 21 -9 25 -27 4 -16 10 -36 16 -45 5 -10 9 -26 9 -36 0 -10 7 -27 15 -38
8 -10 15 -29 15 -41 0 -12 7 -28 15 -37 8 -8 15 -19 15 -24 0 -17 -38 -43 -71
-48 -29 -4 -43 2 -94 41 -33 26 -79 58 -102 72 -60 35 -60 36 37 99 53 34 97
80 87 90 -8 8 -108 -45 -154 -82 -51 -42 -74 -42 -122 -5 -67 53 -1136 763
-1181 785 -38 18 -45 26 -48 54 -2 18 2 40 9 48 6 8 15 31 20 52 21 99 34 142
44 142 2 0 19 -13 37 -29z m-77 -329 c23 -20 114 -85 201 -143 400 -267 729
-484 739 -489 5 -3 63 -40 128 -83 131 -87 131 -85 49 -133 -26 -15 -70 -45
-98 -66 l-52 -39 -110 73 c-61 40 -111 80 -111 89 -1 9 20 30 47 47 68 46 82
58 82 71 0 25 -67 0 -131 -51 -46 -35 -72 -35 -118 0 -20 16 -63 46 -96 67
-33 22 -62 42 -65 45 -10 12 -536 358 -565 372 -27 13 -30 18 -27 57 1 24 9
53 17 64 8 12 15 30 15 40 0 28 33 117 43 117 5 0 28 -17 52 -38z m2350 -101
c50 -37 118 -85 153 -107 69 -43 74 -60 25 -85 -37 -18 -99 -63 -126 -91 -10
-10 -22 -18 -26 -18 -19 0 -71 56 -71 76 0 12 -6 35 -14 51 -8 15 -24 55 -36
88 -12 33 -30 78 -40 100 -41 92 -37 121 13 80 18 -14 73 -56 122 -94z m-2417
-229 c82 -61 509 -346 655 -436 37 -22 34 -38 -10 -61 -20 -11 -64 -40 -97
-64 -68 -50 -96 -54 -134 -20 -57 51 -431 296 -529 347 -24 13 -46 29 -49 37
-4 8 5 47 19 87 14 40 28 89 32 108 7 32 21 60 32 60 2 0 39 -26 81 -58z
m2794 -27 c62 -42 114 -80 116 -85 2 -6 -11 -18 -28 -27 -18 -10 -59 -37 -91
-60 -33 -24 -66 -43 -74 -43 -8 0 -42 20 -77 44 -35 24 -83 54 -108 68 -60 33
-62 51 -7 78 25 12 64 40 88 61 24 21 49 38 56 39 7 0 63 -34 125 -75z m470
45 c37 -28 375 -252 425 -281 24 -13 43 -31 43 -40 0 -10 -18 -26 -40 -38 -38
-20 -90 -53 -137 -87 -22 -16 -25 -15 -75 23 -29 21 -80 56 -113 78 -33 22
-62 42 -65 45 -3 3 -13 10 -22 15 -9 6 -51 34 -92 62 -42 29 -94 62 -116 73
-22 11 -40 25 -40 30 0 6 21 23 46 38 26 15 67 44 91 65 51 43 61 44 95 17z
m-695 -243 c35 -25 69 -48 75 -50 13 -6 -3 -23 -72 -75 -32 -25 -60 -23 -60 3
0 8 -4 23 -10 33 -17 31 -50 111 -50 121 0 6 -4 11 -10 11 -11 0 -14 43 -3 54
4 3 20 -7 37 -23 17 -16 59 -49 93 -74z m596 -50 c111 -74 224 -146 250 -162
58 -33 58 -50 -3 -83 -25 -14 -47 -28 -50 -31 -3 -3 -26 -21 -52 -39 l-48 -33
-102 74 c-57 41 -104 81 -106 91 -2 11 8 21 30 30 30 13 88 58 88 70 0 2 -13
1 -30 -4 -32 -9 -79 -39 -100 -65 -7 -8 -18 -15 -24 -15 -7 0 -59 31 -116 70
-58 38 -111 70 -118 70 -30 0 -3 37 54 75 33 22 73 50 89 63 15 12 30 22 32
22 3 0 96 -60 206 -133z m-3274 -26 c57 -49 395 -279 464 -316 20 -11 37 -25
37 -33 0 -7 -21 -25 -46 -40 -25 -15 -110 -69 -187 -121 -78 -52 -182 -121
-232 -154 -49 -33 -134 -94 -189 -136 -141 -109 -136 -105 -147 -94 -6 6 -6
26 1 59 6 27 22 108 35 179 13 72 34 175 46 230 12 55 25 119 29 143 4 24 12
48 18 54 7 7 12 23 12 38 1 14 7 36 15 50 8 14 14 35 15 46 0 12 7 35 15 50 8
16 15 38 15 50 0 21 17 44 33 44 5 0 35 -22 66 -49z m2892 -70 c36 -26 84 -58
107 -70 23 -12 42 -28 42 -35 0 -8 -24 -28 -53 -45 -30 -17 -71 -44 -91 -60
-55 -44 -72 -47 -111 -17 -18 14 -38 26 -42 26 -16 0 -61 54 -77 93 -20 49
-10 68 49 98 25 13 53 31 62 41 25 28 44 22 114 -31z m1034 29 c9 -14 152
-110 164 -110 16 0 23 -18 16 -40 -4 -11 -13 -20 -21 -20 -17 0 -48 -19 -120
-72 -28 -21 -54 -38 -57 -38 -4 0 -44 27 -89 60 -46 32 -93 66 -106 75 -28 20
-24 26 41 63 28 17 66 44 82 60 30 30 78 41 90 22z m-3015 -186 c22 -15 40
-31 40 -35 0 -5 4 -9 9 -9 16 0 116 -70 116 -81 0 -6 -19 -22 -42 -35 -23 -13
-64 -39 -90 -59 -87 -63 -84 -63 -152 -14 -32 24 -80 56 -105 71 -25 15 -46
32 -46 37 0 5 25 27 56 48 31 21 74 53 96 71 48 39 67 40 118 6z m561 -7 c24
-18 51 -37 59 -40 45 -21 105 -65 105 -78 0 -7 -20 -24 -45 -37 -25 -13 -73
-44 -108 -69 -65 -46 -81 -48 -118 -15 -10 10 -46 35 -80 57 -34 22 -70 46
-80 52 -18 12 -18 14 6 30 13 10 60 44 105 75 44 32 87 58 96 58 9 0 36 -15
60 -33z m1729 -39 c61 -40 110 -76 110 -81 0 -4 -14 -16 -31 -25 -17 -9 -66
-40 -109 -68 -84 -56 -89 -56 -139 -7 -13 13 -48 37 -76 53 -84 48 -85 53 -18
93 32 20 72 49 90 65 27 25 44 36 61 41 1 1 52 -31 112 -71z m1014 39 c17 -12
33 -25 36 -28 3 -3 33 -22 67 -43 35 -21 60 -42 57 -49 -2 -7 -25 -23 -49 -36
-25 -13 -69 -41 -97 -62 -28 -22 -59 -39 -67 -39 -9 0 -32 14 -51 30 -19 17
-58 44 -86 60 -83 48 -83 51 -10 99 36 23 77 55 93 72 32 34 54 33 107 -4z
m-473 -42 c54 -36 99 -70 99 -76 0 -5 -17 -20 -37 -32 -21 -12 -66 -41 -101
-64 -34 -24 -66 -43 -70 -43 -5 0 -31 17 -59 38 -28 20 -72 49 -97 64 -25 15
-46 33 -46 40 0 7 34 35 74 61 41 26 80 55 86 62 22 26 49 17 151 -50z m-1923
-52 c5 -10 12 -33 15 -50 l6 -33 -31 13 c-17 7 -37 22 -45 34 -12 18 -12 23 2
37 21 21 42 20 53 -1z m943 7 c11 -6 19 -21 19 -35 0 -21 5 -25 28 -25 18 0
55 -18 98 -48 38 -27 86 -57 107 -67 20 -9 37 -21 37 -25 0 -4 -29 -26 -66
-50 -36 -23 -70 -51 -77 -61 -6 -10 -16 -19 -21 -19 -20 0 -46 34 -46 60 0 15
-7 33 -15 40 -8 7 -15 20 -15 30 0 10 -7 23 -15 30 -8 7 -18 34 -21 62 -5 40
-11 51 -30 59 -23 8 -32 38 -17 52 8 9 11 9 34 -3z m689 -115 c25 -17 64 -42
88 -55 48 -27 51 -34 20 -53 -13 -8 -58 -36 -101 -63 -43 -27 -94 -58 -112
-69 -18 -11 -68 -45 -111 -75 -179 -127 -168 -121 -200 -92 -11 10 -41 31 -67
47 -86 50 -97 97 -31 128 20 10 63 35 96 57 32 22 69 40 80 40 11 0 37 -13 57
-29 61 -48 131 -77 131 -53 0 11 -42 47 -80 68 -42 23 -70 44 -70 55 0 4 18
17 41 28 22 12 70 44 106 71 73 55 69 55 153 -5z m502 21 c25 -19 73 -49 106
-67 34 -18 62 -36 62 -40 0 -4 -30 -26 -67 -49 -38 -22 -87 -55 -111 -73 -49
-36 -30 -42 -176 56 -47 33 -84 62 -82 65 2 4 22 16 43 27 21 11 67 41 102 67
35 27 67 48 71 48 4 0 27 -15 52 -34z m-3290 -32 c45 -31 93 -60 105 -65 32
-12 30 -45 -4 -58 -29 -10 -133 -77 -335 -212 -62 -42 -234 -156 -383 -255
-148 -98 -294 -198 -323 -222 -29 -23 -58 -40 -64 -36 -11 7 -8 64 13 219 17
129 13 122 82 155 68 34 75 38 162 94 284 183 499 327 575 385 36 27 71 50 78
50 7 1 49 -24 94 -55z m574 1 c46 -30 95 -60 110 -65 l27 -11 -23 -24 c-13
-14 -28 -25 -33 -25 -5 0 -49 -27 -98 -60 -48 -33 -94 -60 -102 -60 -7 0 -34
19 -59 43 -25 23 -67 53 -92 65 -25 13 -46 25 -46 27 0 2 -3 10 -6 18 -3 10 9
22 38 37 53 27 146 89 154 101 12 20 50 6 130 -46z m560 9 c54 -35 76 -56 89
-87 20 -44 22 -41 -56 -81 -25 -13 -65 -38 -89 -55 -24 -17 -47 -31 -52 -31
-5 0 -35 20 -67 44 -32 25 -77 54 -100 67 -25 13 -41 27 -39 36 4 19 196 150
223 152 11 0 52 -20 91 -45z m1901 -161 c28 -21 72 -50 97 -65 25 -15 46 -32
46 -38 0 -6 -26 -27 -57 -47 -141 -89 -321 -207 -358 -234 -85 -63 -84 -62
-148 -14 -32 24 -74 51 -93 60 -59 28 -55 33 124 151 46 29 87 54 92 54 5 0
13 6 17 13 4 6 47 38 94 70 48 31 92 64 99 72 18 22 31 19 87 -22z m-2756 -29
c45 -30 95 -58 111 -61 46 -9 31 -33 -62 -94 -47 -31 -308 -204 -580 -384
-675 -447 -657 -435 -710 -482 -77 -69 -77 -68 -70 121 6 138 16 170 55 180
11 3 43 20 70 38 116 75 708 470 718 479 7 5 62 42 122 82 147 97 235 159 241
169 9 14 21 9 105 -48z m511 43 c27 -27 85 -66 136 -92 28 -15 52 -31 52 -36
0 -13 -21 -28 -167 -124 -183 -119 -1412 -943 -1519 -1017 -27 -19 -87 -60
-134 -92 -47 -33 -99 -72 -115 -87 -37 -35 -63 -37 -70 -6 -3 12 -4 80 -3 152
l3 130 45 24 c41 22 289 182 418 270 30 20 64 43 78 51 13 8 231 155 485 325
254 171 476 319 495 330 49 29 244 167 250 176 8 13 31 11 46 -4z m2514 -187
c29 -22 71 -49 92 -60 33 -17 61 -48 50 -54 -60 -33 -298 -187 -432 -281 -43
-30 -87 -55 -97 -55 -10 0 -20 -8 -24 -17 -3 -10 -45 -43 -92 -73 -48 -30
-110 -76 -139 -102 -28 -27 -59 -48 -68 -48 -15 0 -56 66 -56 92 0 7 -14 33
-30 57 -40 59 -38 74 12 97 23 10 67 37 98 60 30 22 62 43 71 46 11 4 41 -11
84 -43 62 -45 105 -62 105 -41 0 14 -42 49 -87 72 -26 13 -43 29 -43 39 0 12
30 36 83 68 45 28 156 103 247 166 91 64 167 116 169 116 2 1 28 -17 57 -39z
m-957 -89 c30 -23 22 -61 -15 -61 -18 0 -28 8 -38 33 -7 17 -11 35 -9 40 7 13
37 7 62 -12z m128 -95 c21 -18 61 -45 88 -60 83 -46 84 -49 26 -84 -28 -17
-69 -48 -91 -68 -39 -36 -41 -36 -55 -18 -9 10 -18 31 -21 46 -4 15 -13 33
-20 39 -8 6 -14 18 -14 27 0 8 -6 23 -14 31 -8 9 -16 29 -18 45 -3 26 3 33 37
53 22 12 41 23 42 23 2 0 20 -15 40 -34z m-3656 -553 c1 -16 1 -268 0 -280 -1
-7 -20 -22 -43 -34 -24 -12 -76 -46 -116 -76 -41 -30 -79 -52 -86 -50 -9 4
-15 44 -19 137 -3 73 -3 138 -1 145 3 7 17 18 32 25 41 18 155 96 176 119 18
20 55 29 57 14z"/>
<path d="M6827 11310 c-5 -20 17 -48 27 -32 7 11 -4 52 -14 52 -4 0 -10 -9
-13 -20z"/>
<path d="M6190 8520 c0 -5 7 -10 15 -10 8 0 15 5 15 10 0 6 -7 10 -15 10 -8 0
-15 -4 -15 -10z"/>
<path d="M6147 8503 c-12 -11 -8 -23 8 -23 8 0 15 7 15 15 0 16 -12 20 -23 8z"/>
<path d="M5090 8045 c0 -8 5 -15 10 -15 6 0 10 7 10 15 0 8 -4 15 -10 15 -5 0
-10 -7 -10 -15z"/>
<path d="M4800 8550 c0 -11 56 -70 67 -70 4 0 21 -13 38 -28 35 -33 112 -69
123 -58 4 4 -1 14 -12 21 -21 16 -15 65 9 65 14 0 65 42 65 54 0 13 -31 5 -36
-9 -4 -8 -13 -15 -20 -15 -8 0 -17 -6 -20 -14 -10 -27 -63 -30 -95 -7 -15 12
-33 21 -38 21 -5 0 -16 6 -23 13 -24 21 -58 38 -58 27z"/>
<path d="M7898 7367 c-50 -33 -59 -47 -33 -47 24 0 105 56 105 72 0 15 -26 7
-72 -25z"/>
<path d="M9240 7145 c0 -17 2 -18 24 -9 23 9 20 24 -4 24 -11 0 -20 -7 -20
-15z"/>
<path d="M9210 5957 c1 -20 220 -156 220 -137 0 10 -36 50 -45 50 -3 0 -29 17
-58 39 -59 43 -117 68 -117 48z"/>
</g>
</svg>
