<?xml version="1.0" standalone="no"?>
<!DOCTYPE svg PUBLIC "-//W3C//DTD SVG 20010904//EN"
 "http://www.w3.org/TR/2001/REC-SVG-20010904/DTD/svg10.dtd">
<svg version="1.0" xmlns="http://www.w3.org/2000/svg"
 width="1500.000000pt" height="1500.000000pt" viewBox="0 0 1500.000000 1500.000000"
 preserveAspectRatio="xMidYMid meet">
<metadata>
Created by potrace 1.10, written by Peter Selinger 2001-2011
</metadata>
<g transform="translate(0.000000,1500.000000) scale(0.100000,-0.100000)"
fill="#000000" stroke="none">
<path d="M13370 11663 c0 -1836 0 -4831 0 -6655 0 -2095 -3 -3326 -10 -3342
-5 -14 -23 -32 -39 -41 -27 -13 -697 -15 -6676 -15 l-6645 0 0 -60 0 -60 6745
0 6745 0 0 6755 0 6755 -60 0 -60 0 0 -3337z"/>
<path d="M1935 8540 c-181 -7 -196 -13 -307 -128 -89 -91 -106 -122 -122 -216
-14 -85 -6 -581 9 -608 6 -10 30 -38 54 -63 43 -45 43 -45 110 -45 38 0 82 5
99 11 43 15 102 89 102 128 0 43 16 73 54 99 28 19 46 22 132 23 54 0 113 -4
129 -8 30 -9 41 -31 59 -114 7 -34 45 -87 79 -113 23 -17 43 -21 106 -21 87 0
112 11 158 71 l28 37 3 325 c2 278 1 328 -13 348 -8 13 -15 29 -15 36 0 13 -8
22 -109 123 -86 86 -116 107 -164 111 -93 8 -250 9 -392 4z m415 -97 c34 -22
179 -164 191 -186 6 -10 10 -148 9 -345 0 -384 6 -362 -109 -362 -103 1 -111
11 -111 152 0 62 -4 118 -8 124 -5 8 -39 9 -124 1 -76 -6 -159 -6 -240 1 -73
5 -130 6 -140 0 -15 -7 -17 -23 -15 -124 2 -112 1 -115 -23 -134 -19 -15 -41
-20 -91 -20 -61 0 -67 2 -87 30 -21 29 -22 36 -22 333 0 249 3 309 15 333 8
16 57 71 108 122 l94 92 264 0 c230 0 268 -2 289 -17z"/>
<path d="M1831 8208 c-31 -30 -32 -34 -29 -102 l3 -71 263 -3 262 -2 0 79 c0
78 0 79 -34 105 l-35 26 -198 0 -199 0 -33 -32z"/>
<path d="M3071 8540 c-24 -4 -49 -14 -56 -23 -7 -10 -18 -17 -26 -17 -15 0
-127 -112 -172 -171 -48 -64 -56 -114 -54 -334 l2 -200 33 -68 c22 -45 43 -74
62 -85 17 -9 30 -21 30 -27 0 -17 91 -95 141 -121 48 -24 53 -24 306 -24 l258
0 60 29 c71 34 189 157 217 224 25 61 24 177 -2 227 -25 49 -25 56 1 115 18
40 21 62 17 136 -4 81 -7 92 -38 136 -34 48 -115 130 -167 169 -49 37 -109 44
-345 43 -123 -1 -243 -5 -267 -9z m642 -175 c99 -97 97 -94 112 -197 2 -19 -3
-48 -13 -68 -17 -35 -17 -35 -93 -38 -99 -4 -122 12 -121 82 1 38 -4 53 -23
72 -24 24 -26 24 -227 24 -112 0 -207 -4 -213 -8 -5 -4 -19 -17 -29 -30 -18
-20 -19 -38 -17 -195 l1 -172 33 -29 33 -29 179 -3 c152 -2 185 0 212 14 35
17 59 61 49 88 -6 16 9 54 28 66 6 4 48 8 93 8 80 0 82 -1 96 -28 15 -31 14
-112 -1 -153 -6 -13 -53 -68 -105 -122 l-96 -97 -271 0 -271 0 -91 88 c-144
139 -138 123 -138 372 0 248 -5 235 133 368 l86 82 280 0 279 0 95 -95z m-184
-290 c23 -33 41 -67 41 -76 0 -8 -13 -28 -29 -43 -16 -16 -35 -41 -41 -56 -8
-20 -20 -29 -45 -33 -48 -8 -213 1 -235 13 -30 16 -42 72 -35 155 5 52 13 79
25 90 25 22 140 33 217 20 61 -10 62 -11 102 -70z"/>
<path d="M6915 8540 c-116 -6 -122 -7 -172 -40 -28 -19 -52 -40 -52 -47 -1 -6
-14 -19 -30 -30 -32 -20 -91 -89 -91 -107 0 -6 -9 -28 -20 -49 -18 -34 -20
-56 -20 -259 1 -260 7 -283 98 -383 51 -57 70 -72 156 -125 l41 -25 340 -3
340 -3 49 32 c60 40 85 91 86 171 0 72 -10 97 -61 153 l-41 45 18 66 c15 58
16 76 6 135 -16 92 -18 83 30 135 39 42 43 51 46 109 2 35 -1 80 -8 102 -16
50 -76 112 -114 118 -50 7 -472 11 -601 5z m629 -96 c12 -11 16 -36 16 -97 0
-45 -5 -89 -10 -97 -8 -13 -53 -15 -328 -11 l-319 3 -30 -37 c-30 -36 -34 -66
-9 -82 6 -5 137 -5 291 -2 341 7 325 12 325 -99 0 -124 23 -116 -316 -113
-159 1 -297 -1 -306 -4 -10 -4 -18 -14 -18 -22 0 -18 29 -76 44 -85 6 -4 151
-8 321 -8 378 0 355 8 355 -119 0 -129 25 -121 -382 -121 -244 1 -339 4 -355
13 -12 7 -63 52 -112 100 -65 64 -92 97 -96 120 -4 18 -5 132 -3 255 l3 222
70 71 c39 39 88 83 109 100 l39 29 348 0 c303 0 350 -2 363 -16z"/>
<path d="M9943 8538 c-79 -9 -111 -26 -196 -108 -84 -79 -116 -127 -133 -199
-18 -75 -19 -546 -1 -613 13 -50 72 -123 112 -138 30 -11 150 4 180 24 42 28
76 82 84 136 12 78 34 94 134 101 88 6 197 -7 209 -25 4 -6 8 -26 8 -45 0 -77
85 -183 155 -197 46 -8 143 20 176 52 58 55 59 64 59 401 l0 310 -30 59 c-29
59 -96 130 -189 204 -41 31 -52 35 -115 37 -197 7 -398 8 -453 1z m492 -88
c28 -11 190 -162 206 -193 6 -10 10 -152 9 -345 0 -320 -1 -327 -21 -344 -28
-24 -139 -25 -174 -2 -24 16 -25 20 -25 133 0 64 -4 121 -8 127 -5 8 -41 9
-131 2 -78 -6 -166 -6 -240 0 -64 5 -123 6 -131 1 -12 -6 -15 -31 -15 -124 0
-112 -1 -117 -25 -135 -19 -15 -41 -20 -91 -20 -61 0 -67 2 -88 31 -22 30 -23
33 -21 334 0 229 4 310 14 329 17 33 175 196 201 206 29 12 508 12 540 0z"/>
<path d="M9931 8208 c-31 -30 -32 -34 -29 -102 l3 -71 263 -3 262 -2 0 79 c0
78 0 79 -34 105 l-35 26 -198 0 -199 0 -33 -32z"/>
<path d="M263 8485 c-40 -43 -53 -65 -58 -98 -3 -23 -5 -209 -3 -413 l3 -371
28 -36 c15 -20 44 -49 64 -64 74 -56 215 -24 269 60 10 17 26 43 35 57 14 22
24 26 93 31 83 7 187 -10 194 -31 10 -30 113 -119 154 -132 98 -34 221 10 255
90 16 40 14 60 -17 147 -22 64 -23 62 25 140 41 68 47 87 55 184 8 93 -2 207
-22 245 -6 10 -26 39 -45 64 -33 44 -60 67 -166 144 l-52 38 -380 0 -379 0
-53 -55z m871 -90 c41 -36 91 -84 110 -107 l36 -42 0 -144 0 -144 -75 -75
c-41 -41 -75 -78 -75 -82 0 -5 7 -14 15 -21 8 -7 15 -18 15 -24 0 -6 14 -26
30 -44 17 -18 30 -37 30 -41 0 -5 7 -14 15 -21 23 -19 18 -56 -11 -79 -22 -17
-41 -21 -98 -21 -81 1 -101 12 -138 80 -13 23 -32 58 -43 78 l-20 37 -203 5
c-118 3 -207 1 -212 -4 -5 -5 -7 -42 -3 -81 5 -66 4 -73 -18 -93 -19 -18 -35
-22 -89 -22 -58 0 -70 3 -90 25 l-23 24 0 411 c1 379 2 412 18 430 17 19 33
20 386 20 l368 0 75 -65z"/>
<path d="M507 8233 c-2 -5 -3 -64 -3 -133 l1 -125 245 -3 244 -2 31 34 c28 32
31 41 29 93 -2 67 -9 89 -38 120 -21 22 -26 23 -263 23 -133 0 -244 -3 -246
-7z m378 -103 c22 -4 31 -12 33 -29 2 -13 -2 -27 -8 -31 -15 -9 -261 -13 -284
-4 -25 10 -19 29 20 59 31 24 42 27 82 22 26 -3 56 -2 67 2 11 5 29 4 40 -2
11 -6 34 -13 50 -17z"/>
<path d="M4137 8522 c-16 -11 -42 -36 -59 -56 -44 -53 -50 -126 -46 -516 3
-358 3 -355 57 -413 42 -46 73 -57 160 -57 79 0 80 0 117 38 48 48 74 91 74
121 0 22 15 87 28 121 5 14 8 23 11 42 0 4 13 3 27 -2 19 -7 31 -7 40 1 9 8
30 9 62 4 26 -4 64 -7 85 -6 25 0 37 -4 37 -13 0 -7 6 -19 14 -25 7 -6 19 -48
26 -92 12 -75 16 -84 60 -132 l48 -52 81 -3 c75 -4 85 -2 121 22 22 14 52 45
66 67 25 41 26 44 22 193 -3 148 -4 152 -35 215 -18 35 -33 71 -33 80 1 25 37
129 55 153 11 16 15 47 15 109 0 82 -2 90 -33 134 -43 64 -85 85 -165 85 -106
0 -170 -52 -202 -165 -25 -89 -55 -131 -109 -155 -37 -17 -55 -19 -120 -13
l-76 8 -12 85 c-15 107 -31 145 -83 195 -40 39 -42 40 -123 43 -68 2 -87 0
-110 -16z m191 -70 c25 -16 32 -76 26 -204 -6 -106 -5 -128 7 -129 8 0 97 -1
199 0 180 1 185 1 202 23 10 13 21 32 24 43 4 11 10 22 13 25 26 19 54 87 53
129 0 25 7 63 15 84 l16 37 88 0 c112 0 119 -8 119 -126 0 -79 -1 -84 -51
-173 -28 -50 -55 -93 -60 -96 -20 -13 -7 -43 31 -71 73 -53 80 -75 80 -246 0
-142 -1 -153 -22 -175 -18 -19 -32 -23 -85 -23 -77 0 -97 9 -119 56 -13 27
-15 51 -11 106 7 76 -5 119 -39 150 -17 15 -47 17 -224 18 -113 1 -214 1 -224
1 -18 -1 -18 -8 -12 -118 10 -186 -4 -212 -120 -213 -61 0 -73 3 -93 24 -22
23 -22 23 -21 437 0 487 -10 449 119 449 42 0 82 -4 89 -8z"/>
<path d="M5412 8523 c-18 -9 -50 -36 -70 -61 l-37 -45 0 -311 0 -311 29 -58
c35 -73 165 -202 239 -237 51 -25 55 -25 359 -28 288 -3 309 -2 345 17 53 27
93 72 104 117 13 60 11 122 -7 160 -18 39 -74 91 -112 105 -14 6 -114 10 -222
10 -216 -1 -294 10 -312 43 -10 18 -14 117 -17 432 -1 61 -26 102 -89 151 -39
30 -50 33 -110 33 -41 0 -80 -7 -100 -17z m198 -95 c19 -31 20 -49 19 -304 -1
-270 -1 -272 22 -303 l23 -32 303 1 304 2 19 -24 c15 -18 19 -39 20 -92 0 -62
-3 -73 -27 -98 l-27 -28 -318 0 c-285 0 -322 2 -345 17 -31 20 -177 167 -198
199 -12 18 -15 81 -15 337 -2 379 -9 357 117 357 83 0 83 0 103 -32z"/>
<path d="M7874 8511 c-21 -15 -46 -37 -55 -47 -55 -64 -66 -259 -24 -402 13
-46 33 -91 43 -100 10 -9 36 -39 58 -67 52 -66 129 -144 184 -186 60 -45 78
-67 90 -109 5 -20 27 -52 48 -73 31 -30 48 -39 89 -44 120 -14 205 29 233 119
13 43 64 108 84 108 13 0 136 120 187 181 20 24 49 67 65 94 29 50 29 52 32
235 4 212 -1 230 -76 287 -40 30 -50 33 -114 33 -70 0 -72 -1 -110 -41 -66
-69 -73 -85 -74 -173 -1 -104 -11 -151 -41 -203 -20 -34 -31 -43 -52 -43 -14
0 -41 -4 -60 -10 -36 -10 -113 3 -139 23 -34 27 -52 88 -60 200 -8 111 -10
116 -45 165 -46 61 -87 82 -165 82 -49 0 -65 -5 -98 -29z m200 -77 c16 -23 18
-44 17 -174 l-2 -147 68 -71 68 -70 133 2 c132 1 134 1 153 27 10 14 41 50 69
79 l51 54 -7 146 c-8 181 -9 180 106 180 70 0 81 -2 90 -21 13 -23 14 -383 2
-405 -4 -7 -46 -54 -94 -106 -48 -51 -99 -106 -113 -123 -22 -27 -30 -30 -77
-28 -30 1 -55 -2 -59 -9 -4 -6 -5 -44 -2 -85 6 -71 5 -75 -22 -103 -26 -28
-34 -30 -97 -30 -46 0 -77 5 -93 16 -24 16 -25 21 -25 117 l0 100 -57 -7 -56
-7 -84 88 c-188 196 -173 162 -173 384 0 223 -2 219 115 219 64 -1 72 -3 89
-26z"/>
<path d="M10975 8525 c-45 -25 -66 -46 -86 -90 -17 -37 -19 -72 -19 -420 0
-422 1 -426 68 -489 28 -26 40 -30 110 -34 72 -4 82 -2 120 22 23 14 42 31 42
36 0 5 14 17 31 25 17 9 28 22 26 29 -7 19 113 34 288 36 181 2 208 11 299
102 127 129 146 174 146 355 0 169 -14 205 -123 315 -48 48 -93 88 -99 88 -6
0 -20 8 -31 18 -17 15 -53 17 -381 20 -314 2 -365 0 -391 -13z m727 -74 c42
-16 198 -175 208 -212 13 -43 13 -270 1 -301 -10 -24 -135 -157 -186 -196 -30
-23 -31 -24 -282 -21 -139 1 -256 0 -260 -4 -3 -4 -5 -34 -4 -66 2 -53 0 -61
-21 -72 -13 -7 -56 -12 -101 -11 -124 1 -116 -29 -117 440 0 382 1 395 21 423
l20 29 349 0 c192 0 359 -4 372 -9z"/>
<path d="M11178 8233 c-2 -5 -2 -72 0 -150 l3 -143 224 0 224 0 30 33 c30 31
31 36 31 119 0 83 -1 89 -30 118 l-29 30 -225 0 c-124 0 -226 -3 -228 -7z
m380 -94 c18 -7 22 -16 22 -48 0 -38 -1 -39 -37 -45 -62 -9 -165 -10 -210 -2
-30 5 -43 13 -47 29 -10 39 -7 47 27 61 35 16 204 19 245 5z"/>
<path d="M12203 8487 c-42 -41 -57 -62 -62 -92 -6 -34 -6 -261 -2 -694 l1
-104 53 -54 c48 -47 59 -53 98 -54 125 -3 143 5 247 114 l26 27 161 0 c197 0
262 11 329 55 59 39 106 80 106 93 0 4 11 18 24 29 13 12 39 52 57 89 34 68
34 70 33 199 -1 120 -3 135 -28 187 -36 73 -134 176 -213 222 l-61 36 -357 0
-357 0 -55 -53z m782 -46 c54 -33 165 -143 185 -182 17 -32 20 -59 20 -173 0
-162 3 -157 -129 -280 l-95 -88 -260 3 -261 2 -1 -54 c0 -30 -1 -61 -2 -70 -3
-25 -45 -38 -109 -33 -84 7 -100 12 -107 30 -5 12 -9 646 -6 812 0 6 9 21 20
32 19 19 33 20 368 20 321 0 349 -1 377 -19z"/>
<path d="M12442 8093 l3 -148 225 -2 226 -3 27 25 c34 32 40 57 35 150 -3 68
-6 78 -32 100 l-29 25 -229 0 -229 0 3 -147z m369 41 c26 -13 30 -20 27 -52
l-3 -37 -127 -3 c-125 -3 -127 -2 -143 22 -18 27 -9 57 23 75 28 17 188 13
223 -5z"/>
<path d="M9203 7869 c-18 -5 -53 -33 -82 -64 -80 -89 -82 -159 -4 -245 56 -63
88 -80 149 -80 81 0 169 79 185 165 12 66 -4 112 -58 167 -62 63 -114 79 -190
57z m128 -86 c8 -6 25 -32 39 -57 l25 -46 -24 -46 c-48 -89 -117 -111 -179
-55 -17 17 -32 35 -32 41 0 6 -7 18 -15 26 -8 9 -15 24 -15 33 0 10 7 24 15
31 8 7 15 18 15 26 0 7 11 24 24 37 21 21 33 24 79 23 30 -1 61 -7 68 -13z"/>
</g>
</svg>
